  0
SECTION
  2
BLOCKS
  0
ENDSEC
  0
SECTION
  2
ENTITIES
  0
LINE
  8
0
 10
140
 20
100
 11
107.5
 21
100
  0
LINE
  8
0
 10
107.5
 20
100
 11
107.5
 21
96
  0
LINE
  8
0
 10
107.5
 20
96
 11
107.479
 21
95.5206
  0
LINE
  8
0
 10
107.479
 20
95.5206
 11
107.416
 21
95.0449
  0
LINE
  8
0
 10
107.416
 20
95.0449
 11
107.313
 21
94.5765
  0
LINE
  8
0
 10
107.313
 20
94.5765
 11
107.168
 21
94.1189
  0
LINE
  8
0
 10
107.168
 20
94.1189
 11
106.985
 21
93.6756
  0
LINE
  8
0
 10
106.985
 20
93.6756
 11
106.763
 21
93.25
  0
LINE
  8
0
 10
106.763
 20
93.25
 11
106.505
 21
92.8453
  0
LINE
  8
0
 10
106.505
 20
92.8453
 11
106.213
 21
92.4647
  0
LINE
  8
0
 10
106.213
 20
92.4647
 11
105.889
 21
92.1109
  0
LINE
  8
0
 10
105.889
 20
92.1109
 11
105.535
 21
91.7868
  0
LINE
  8
0
 10
105.535
 20
91.7868
 11
105.155
 21
91.4947
  0
LINE
  8
0
 10
105.155
 20
91.4947
 11
104.75
 21
91.2369
  0
LINE
  8
0
 10
104.75
 20
91.2369
 11
104.324
 21
91.0153
  0
LINE
  8
0
 10
104.324
 20
91.0153
 11
103.881
 21
90.8317
  0
LINE
  8
0
 10
103.881
 20
90.8317
 11
103.424
 21
90.6874
  0
LINE
  8
0
 10
103.424
 20
90.6874
 11
102.955
 21
90.5836
  0
LINE
  8
0
 10
102.955
 20
90.5836
 11
102.479
 21
90.5209
  0
LINE
  8
0
 10
102.479
 20
90.5209
 11
102
 21
90.5
  0
LINE
  8
0
 10
102
 20
90.5
 11
101.521
 21
90.5209
  0
LINE
  8
0
 10
101.521
 20
90.5209
 11
101.045
 21
90.5836
  0
LINE
  8
0
 10
101.045
 20
90.5836
 11
100.576
 21
90.6874
  0
LINE
  8
0
 10
100.576
 20
90.6874
 11
100.119
 21
90.8317
  0
LINE
  8
0
 10
100.119
 20
90.8317
 11
99.6756
 21
91.0153
  0
LINE
  8
0
 10
99.6756
 20
91.0153
 11
99.25
 21
91.2369
  0
LINE
  8
0
 10
99.25
 20
91.2369
 11
98.8453
 21
91.4947
  0
LINE
  8
0
 10
98.8453
 20
91.4947
 11
98.4647
 21
91.7868
  0
LINE
  8
0
 10
98.4647
 20
91.7868
 11
98.1109
 21
92.1109
  0
LINE
  8
0
 10
98.1109
 20
92.1109
 11
97.7868
 21
92.4647
  0
LINE
  8
0
 10
97.7868
 20
92.4647
 11
97.4947
 21
92.8453
  0
LINE
  8
0
 10
97.4947
 20
92.8453
 11
97.2369
 21
93.25
  0
LINE
  8
0
 10
97.2369
 20
93.25
 11
97.0153
 21
93.6756
  0
LINE
  8
0
 10
97.0153
 20
93.6756
 11
96.8317
 21
94.1189
  0
LINE
  8
0
 10
96.8317
 20
94.1189
 11
96.6874
 21
94.5765
  0
LINE
  8
0
 10
96.6874
 20
94.5765
 11
96.5836
 21
95.0449
  0
LINE
  8
0
 10
96.5836
 20
95.0449
 11
96.5209
 21
95.5206
  0
LINE
  8
0
 10
96.5209
 20
95.5206
 11
96.5
 21
96
  0
LINE
  8
0
 10
96.5
 20
96
 11
96.5
 21
100
  0
LINE
  8
0
 10
96.5
 20
100
 11
32
 21
100
  0
LINE
  8
0
 10
32
 20
100
 11
32
 21
80
  0
LINE
  8
0
 10
32
 20
80
 11
31.9543
 21
78.9541
  0
LINE
  8
0
 10
31.9543
 20
78.9541
 11
31.8177
 21
77.9162
  0
LINE
  8
0
 10
31.8177
 20
77.9162
 11
31.5911
 21
76.8942
  0
LINE
  8
0
 10
31.5911
 20
76.8942
 11
31.2763
 21
75.8958
  0
LINE
  8
0
 10
31.2763
 20
75.8958
 11
30.8757
 21
74.9286
  0
LINE
  8
0
 10
30.8757
 20
74.9286
 11
30.3923
 21
74
  0
LINE
  8
0
 10
30.3923
 20
74
 11
29.8298
 21
73.1171
  0
LINE
  8
0
 10
29.8298
 20
73.1171
 11
29.1925
 21
72.2865
  0
LINE
  8
0
 10
29.1925
 20
72.2865
 11
28.4853
 21
71.5147
  0
LINE
  8
0
 10
28.4853
 20
71.5147
 11
27.7134
 21
70.8075
  0
LINE
  8
0
 10
27.7134
 20
70.8075
 11
26.8829
 21
70.1702
  0
LINE
  8
0
 10
26.8829
 20
70.1702
 11
26
 21
69.6077
  0
LINE
  8
0
 10
26
 20
69.6077
 11
25.0714
 21
69.1243
  0
LINE
  8
0
 10
25.0714
 20
69.1243
 11
24.1042
 21
68.7237
  0
LINE
  8
0
 10
24.1042
 20
68.7237
 11
23.1058
 21
68.4089
  0
LINE
  8
0
 10
23.1058
 20
68.4089
 11
22.0838
 21
68.1823
  0
LINE
  8
0
 10
22.0838
 20
68.1823
 11
21.0459
 21
68.0457
  0
LINE
  8
0
 10
21.0459
 20
68.0457
 11
20
 21
68
  0
LINE
  8
0
 10
20
 20
68
 11
0
 21
68
  0
LINE
  8
0
 10
0
 20
68
 11
0
 21
28
  0
LINE
  8
0
 10
0
 20
28
 11
140
 21
28
  0
LINE
  8
0
 10
140
 20
28
 11
140
 21
100
  0
LINE
  8
0
 10
67.8772
 20
94.2042
 11
67.6338
 21
94.2376
  0
LINE
  8
0
 10
67.6338
 20
94.2376
 11
67.3972
 21
94.3039
  0
LINE
  8
0
 10
67.3972
 20
94.3039
 11
67.1719
 21
94.4018
  0
LINE
  8
0
 10
67.1719
 20
94.4018
 11
66.962
 21
94.5294
  0
LINE
  8
0
 10
66.962
 20
94.5294
 11
66.7714
 21
94.6845
  0
LINE
  8
0
 10
66.7714
 20
94.6845
 11
66.6037
 21
94.864
  0
LINE
  8
0
 10
66.6037
 20
94.864
 11
66.462
 21
95.0647
  0
LINE
  8
0
 10
66.462
 20
95.0647
 11
66.349
 21
95.2829
  0
LINE
  8
0
 10
66.349
 20
95.2829
 11
66.2667
 21
95.5144
  0
LINE
  8
0
 10
66.2667
 20
95.5144
 11
66.2168
 21
95.7549
  0
LINE
  8
0
 10
66.2168
 20
95.7549
 11
66.2
 21
96
  0
LINE
  8
0
 10
66.2
 20
96
 11
66.2168
 21
96.2451
  0
LINE
  8
0
 10
66.2168
 20
96.2451
 11
66.2667
 21
96.4856
  0
LINE
  8
0
 10
66.2667
 20
96.4856
 11
66.349
 21
96.7171
  0
LINE
  8
0
 10
66.349
 20
96.7171
 11
66.462
 21
96.9352
  0
LINE
  8
0
 10
66.462
 20
96.9352
 11
66.6037
 21
97.136
  0
LINE
  8
0
 10
66.6037
 20
97.136
 11
66.7714
 21
97.3155
  0
LINE
  8
0
 10
66.7714
 20
97.3155
 11
66.962
 21
97.4705
  0
LINE
  8
0
 10
66.962
 20
97.4705
 11
67.1719
 21
97.5982
  0
LINE
  8
0
 10
67.1719
 20
97.5982
 11
67.3972
 21
97.6961
  0
LINE
  8
0
 10
67.3972
 20
97.6961
 11
67.6338
 21
97.7623
  0
LINE
  8
0
 10
67.6338
 20
97.7623
 11
67.8772
 21
97.7958
  0
LINE
  8
0
 10
67.8772
 20
97.7958
 11
68.1228
 21
97.7958
  0
LINE
  8
0
 10
68.1228
 20
97.7958
 11
68.3662
 21
97.7623
  0
LINE
  8
0
 10
68.3662
 20
97.7623
 11
68.6028
 21
97.6961
  0
LINE
  8
0
 10
68.6028
 20
97.6961
 11
68.8281
 21
97.5982
  0
LINE
  8
0
 10
68.8281
 20
97.5982
 11
69.038
 21
97.4705
  0
LINE
  8
0
 10
69.038
 20
97.4705
 11
69.2286
 21
97.3155
  0
LINE
  8
0
 10
69.2286
 20
97.3155
 11
69.3963
 21
97.136
  0
LINE
  8
0
 10
69.3963
 20
97.136
 11
69.5379
 21
96.9352
  0
LINE
  8
0
 10
69.5379
 20
96.9352
 11
69.651
 21
96.7171
  0
LINE
  8
0
 10
69.651
 20
96.7171
 11
69.7332
 21
96.4856
  0
LINE
  8
0
 10
69.7332
 20
96.4856
 11
69.7832
 21
96.2451
  0
LINE
  8
0
 10
69.7832
 20
96.2451
 11
69.8
 21
96
  0
LINE
  8
0
 10
69.8
 20
96
 11
69.7832
 21
95.7549
  0
LINE
  8
0
 10
69.7832
 20
95.7549
 11
69.7332
 21
95.5144
  0
LINE
  8
0
 10
69.7332
 20
95.5144
 11
69.651
 21
95.2829
  0
LINE
  8
0
 10
69.651
 20
95.2829
 11
69.5379
 21
95.0647
  0
LINE
  8
0
 10
69.5379
 20
95.0647
 11
69.3963
 21
94.864
  0
LINE
  8
0
 10
69.3963
 20
94.864
 11
69.2286
 21
94.6845
  0
LINE
  8
0
 10
69.2286
 20
94.6845
 11
69.038
 21
94.5294
  0
LINE
  8
0
 10
69.038
 20
94.5294
 11
68.8281
 21
94.4018
  0
LINE
  8
0
 10
68.8281
 20
94.4018
 11
68.6028
 21
94.3039
  0
LINE
  8
0
 10
68.6028
 20
94.3039
 11
68.3662
 21
94.2376
  0
LINE
  8
0
 10
68.3662
 20
94.2376
 11
68.1228
 21
94.2042
  0
LINE
  8
0
 10
68.1228
 20
94.2042
 11
67.8772
 21
94.2042
  0
LINE
  8
0
 10
91.8772
 20
94.2042
 11
91.6338
 21
94.2376
  0
LINE
  8
0
 10
91.6338
 20
94.2376
 11
91.3972
 21
94.3039
  0
LINE
  8
0
 10
91.3972
 20
94.3039
 11
91.1719
 21
94.4018
  0
LINE
  8
0
 10
91.1719
 20
94.4018
 11
90.962
 21
94.5294
  0
LINE
  8
0
 10
90.962
 20
94.5294
 11
90.7714
 21
94.6845
  0
LINE
  8
0
 10
90.7714
 20
94.6845
 11
90.6037
 21
94.864
  0
LINE
  8
0
 10
90.6037
 20
94.864
 11
90.462
 21
95.0647
  0
LINE
  8
0
 10
90.462
 20
95.0647
 11
90.349
 21
95.2829
  0
LINE
  8
0
 10
90.349
 20
95.2829
 11
90.2667
 21
95.5144
  0
LINE
  8
0
 10
90.2667
 20
95.5144
 11
90.2168
 21
95.7549
  0
LINE
  8
0
 10
90.2168
 20
95.7549
 11
90.2
 21
96
  0
LINE
  8
0
 10
90.2
 20
96
 11
90.2168
 21
96.2451
  0
LINE
  8
0
 10
90.2168
 20
96.2451
 11
90.2667
 21
96.4856
  0
LINE
  8
0
 10
90.2667
 20
96.4856
 11
90.349
 21
96.7171
  0
LINE
  8
0
 10
90.349
 20
96.7171
 11
90.462
 21
96.9352
  0
LINE
  8
0
 10
90.462
 20
96.9352
 11
90.6037
 21
97.136
  0
LINE
  8
0
 10
90.6037
 20
97.136
 11
90.7714
 21
97.3155
  0
LINE
  8
0
 10
90.7714
 20
97.3155
 11
90.962
 21
97.4705
  0
LINE
  8
0
 10
90.962
 20
97.4705
 11
91.1719
 21
97.5982
  0
LINE
  8
0
 10
91.1719
 20
97.5982
 11
91.3972
 21
97.6961
  0
LINE
  8
0
 10
91.3972
 20
97.6961
 11
91.6338
 21
97.7623
  0
LINE
  8
0
 10
91.6338
 20
97.7623
 11
91.8772
 21
97.7958
  0
LINE
  8
0
 10
91.8772
 20
97.7958
 11
92.1228
 21
97.7958
  0
LINE
  8
0
 10
92.1228
 20
97.7958
 11
92.3662
 21
97.7623
  0
LINE
  8
0
 10
92.3662
 20
97.7623
 11
92.6028
 21
97.6961
  0
LINE
  8
0
 10
92.6028
 20
97.6961
 11
92.8281
 21
97.5982
  0
LINE
  8
0
 10
92.8281
 20
97.5982
 11
93.038
 21
97.4705
  0
LINE
  8
0
 10
93.038
 20
97.4705
 11
93.2286
 21
97.3155
  0
LINE
  8
0
 10
93.2286
 20
97.3155
 11
93.3963
 21
97.136
  0
LINE
  8
0
 10
93.3963
 20
97.136
 11
93.5379
 21
96.9352
  0
LINE
  8
0
 10
93.5379
 20
96.9352
 11
93.651
 21
96.7171
  0
LINE
  8
0
 10
93.651
 20
96.7171
 11
93.7332
 21
96.4856
  0
LINE
  8
0
 10
93.7332
 20
96.4856
 11
93.7832
 21
96.2451
  0
LINE
  8
0
 10
93.7832
 20
96.2451
 11
93.8
 21
96
  0
LINE
  8
0
 10
93.8
 20
96
 11
93.7832
 21
95.7549
  0
LINE
  8
0
 10
93.7832
 20
95.7549
 11
93.7332
 21
95.5144
  0
LINE
  8
0
 10
93.7332
 20
95.5144
 11
93.651
 21
95.2829
  0
LINE
  8
0
 10
93.651
 20
95.2829
 11
93.5379
 21
95.0647
  0
LINE
  8
0
 10
93.5379
 20
95.0647
 11
93.3963
 21
94.864
  0
LINE
  8
0
 10
93.3963
 20
94.864
 11
93.2286
 21
94.6845
  0
LINE
  8
0
 10
93.2286
 20
94.6845
 11
93.038
 21
94.5294
  0
LINE
  8
0
 10
93.038
 20
94.5294
 11
92.8281
 21
94.4018
  0
LINE
  8
0
 10
92.8281
 20
94.4018
 11
92.6028
 21
94.3039
  0
LINE
  8
0
 10
92.6028
 20
94.3039
 11
92.3662
 21
94.2376
  0
LINE
  8
0
 10
92.3662
 20
94.2376
 11
92.1228
 21
94.2042
  0
LINE
  8
0
 10
92.1228
 20
94.2042
 11
91.8772
 21
94.2042
  0
LINE
  8
0
 10
135.877
 20
94.2042
 11
135.634
 21
94.2376
  0
LINE
  8
0
 10
135.634
 20
94.2376
 11
135.397
 21
94.3039
  0
LINE
  8
0
 10
135.397
 20
94.3039
 11
135.172
 21
94.4018
  0
LINE
  8
0
 10
135.172
 20
94.4018
 11
134.962
 21
94.5294
  0
LINE
  8
0
 10
134.962
 20
94.5294
 11
134.771
 21
94.6845
  0
LINE
  8
0
 10
134.771
 20
94.6845
 11
134.604
 21
94.864
  0
LINE
  8
0
 10
134.604
 20
94.864
 11
134.462
 21
95.0647
  0
LINE
  8
0
 10
134.462
 20
95.0647
 11
134.349
 21
95.2829
  0
LINE
  8
0
 10
134.349
 20
95.2829
 11
134.267
 21
95.5144
  0
LINE
  8
0
 10
134.267
 20
95.5144
 11
134.217
 21
95.7549
  0
LINE
  8
0
 10
134.217
 20
95.7549
 11
134.2
 21
96
  0
LINE
  8
0
 10
134.2
 20
96
 11
134.217
 21
96.2451
  0
LINE
  8
0
 10
134.217
 20
96.2451
 11
134.267
 21
96.4856
  0
LINE
  8
0
 10
134.267
 20
96.4856
 11
134.349
 21
96.7171
  0
LINE
  8
0
 10
134.349
 20
96.7171
 11
134.462
 21
96.9352
  0
LINE
  8
0
 10
134.462
 20
96.9352
 11
134.604
 21
97.136
  0
LINE
  8
0
 10
134.604
 20
97.136
 11
134.771
 21
97.3155
  0
LINE
  8
0
 10
134.771
 20
97.3155
 11
134.962
 21
97.4705
  0
LINE
  8
0
 10
134.962
 20
97.4705
 11
135.172
 21
97.5982
  0
LINE
  8
0
 10
135.172
 20
97.5982
 11
135.397
 21
97.6961
  0
LINE
  8
0
 10
135.397
 20
97.6961
 11
135.634
 21
97.7623
  0
LINE
  8
0
 10
135.634
 20
97.7623
 11
135.877
 21
97.7958
  0
LINE
  8
0
 10
135.877
 20
97.7958
 11
136.123
 21
97.7958
  0
LINE
  8
0
 10
136.123
 20
97.7958
 11
136.366
 21
97.7623
  0
LINE
  8
0
 10
136.366
 20
97.7623
 11
136.603
 21
97.6961
  0
LINE
  8
0
 10
136.603
 20
97.6961
 11
136.828
 21
97.5982
  0
LINE
  8
0
 10
136.828
 20
97.5982
 11
137.038
 21
97.4705
  0
LINE
  8
0
 10
137.038
 20
97.4705
 11
137.229
 21
97.3155
  0
LINE
  8
0
 10
137.229
 20
97.3155
 11
137.396
 21
97.136
  0
LINE
  8
0
 10
137.396
 20
97.136
 11
137.538
 21
96.9352
  0
LINE
  8
0
 10
137.538
 20
96.9352
 11
137.651
 21
96.7171
  0
LINE
  8
0
 10
137.651
 20
96.7171
 11
137.733
 21
96.4856
  0
LINE
  8
0
 10
137.733
 20
96.4856
 11
137.783
 21
96.2451
  0
LINE
  8
0
 10
137.783
 20
96.2451
 11
137.8
 21
96
  0
LINE
  8
0
 10
137.8
 20
96
 11
137.783
 21
95.7549
  0
LINE
  8
0
 10
137.783
 20
95.7549
 11
137.733
 21
95.5144
  0
LINE
  8
0
 10
137.733
 20
95.5144
 11
137.651
 21
95.2829
  0
LINE
  8
0
 10
137.651
 20
95.2829
 11
137.538
 21
95.0647
  0
LINE
  8
0
 10
137.538
 20
95.0647
 11
137.396
 21
94.864
  0
LINE
  8
0
 10
137.396
 20
94.864
 11
137.229
 21
94.6845
  0
LINE
  8
0
 10
137.229
 20
94.6845
 11
137.038
 21
94.5294
  0
LINE
  8
0
 10
137.038
 20
94.5294
 11
136.828
 21
94.4018
  0
LINE
  8
0
 10
136.828
 20
94.4018
 11
136.603
 21
94.3039
  0
LINE
  8
0
 10
136.603
 20
94.3039
 11
136.366
 21
94.2376
  0
LINE
  8
0
 10
136.366
 20
94.2376
 11
136.123
 21
94.2042
  0
LINE
  8
0
 10
136.123
 20
94.2042
 11
135.877
 21
94.2042
  0
LINE
  8
0
 10
35.8772
 20
94.2042
 11
35.6338
 21
94.2376
  0
LINE
  8
0
 10
35.6338
 20
94.2376
 11
35.3972
 21
94.3039
  0
LINE
  8
0
 10
35.3972
 20
94.3039
 11
35.1719
 21
94.4018
  0
LINE
  8
0
 10
35.1719
 20
94.4018
 11
34.962
 21
94.5294
  0
LINE
  8
0
 10
34.962
 20
94.5294
 11
34.7714
 21
94.6845
  0
LINE
  8
0
 10
34.7714
 20
94.6845
 11
34.6037
 21
94.864
  0
LINE
  8
0
 10
34.6037
 20
94.864
 11
34.462
 21
95.0647
  0
LINE
  8
0
 10
34.462
 20
95.0647
 11
34.349
 21
95.2829
  0
LINE
  8
0
 10
34.349
 20
95.2829
 11
34.2667
 21
95.5144
  0
LINE
  8
0
 10
34.2667
 20
95.5144
 11
34.2168
 21
95.7549
  0
LINE
  8
0
 10
34.2168
 20
95.7549
 11
34.2
 21
96
  0
LINE
  8
0
 10
34.2
 20
96
 11
34.2168
 21
96.2451
  0
LINE
  8
0
 10
34.2168
 20
96.2451
 11
34.2667
 21
96.4856
  0
LINE
  8
0
 10
34.2667
 20
96.4856
 11
34.349
 21
96.7171
  0
LINE
  8
0
 10
34.349
 20
96.7171
 11
34.462
 21
96.9352
  0
LINE
  8
0
 10
34.462
 20
96.9352
 11
34.6037
 21
97.136
  0
LINE
  8
0
 10
34.6037
 20
97.136
 11
34.7714
 21
97.3155
  0
LINE
  8
0
 10
34.7714
 20
97.3155
 11
34.962
 21
97.4705
  0
LINE
  8
0
 10
34.962
 20
97.4705
 11
35.1719
 21
97.5982
  0
LINE
  8
0
 10
35.1719
 20
97.5982
 11
35.3972
 21
97.6961
  0
LINE
  8
0
 10
35.3972
 20
97.6961
 11
35.6338
 21
97.7623
  0
LINE
  8
0
 10
35.6338
 20
97.7623
 11
35.8772
 21
97.7958
  0
LINE
  8
0
 10
35.8772
 20
97.7958
 11
36.1228
 21
97.7958
  0
LINE
  8
0
 10
36.1228
 20
97.7958
 11
36.3662
 21
97.7623
  0
LINE
  8
0
 10
36.3662
 20
97.7623
 11
36.6028
 21
97.6961
  0
LINE
  8
0
 10
36.6028
 20
97.6961
 11
36.8281
 21
97.5982
  0
LINE
  8
0
 10
36.8281
 20
97.5982
 11
37.038
 21
97.4705
  0
LINE
  8
0
 10
37.038
 20
97.4705
 11
37.2286
 21
97.3155
  0
LINE
  8
0
 10
37.2286
 20
97.3155
 11
37.3963
 21
97.136
  0
LINE
  8
0
 10
37.3963
 20
97.136
 11
37.5379
 21
96.9352
  0
LINE
  8
0
 10
37.5379
 20
96.9352
 11
37.651
 21
96.7171
  0
LINE
  8
0
 10
37.651
 20
96.7171
 11
37.7332
 21
96.4856
  0
LINE
  8
0
 10
37.7332
 20
96.4856
 11
37.7832
 21
96.2451
  0
LINE
  8
0
 10
37.7832
 20
96.2451
 11
37.8
 21
96
  0
LINE
  8
0
 10
37.8
 20
96
 11
37.7832
 21
95.7549
  0
LINE
  8
0
 10
37.7832
 20
95.7549
 11
37.7332
 21
95.5144
  0
LINE
  8
0
 10
37.7332
 20
95.5144
 11
37.651
 21
95.2829
  0
LINE
  8
0
 10
37.651
 20
95.2829
 11
37.5379
 21
95.0647
  0
LINE
  8
0
 10
37.5379
 20
95.0647
 11
37.3963
 21
94.864
  0
LINE
  8
0
 10
37.3963
 20
94.864
 11
37.2286
 21
94.6845
  0
LINE
  8
0
 10
37.2286
 20
94.6845
 11
37.038
 21
94.5294
  0
LINE
  8
0
 10
37.038
 20
94.5294
 11
36.8281
 21
94.4018
  0
LINE
  8
0
 10
36.8281
 20
94.4018
 11
36.6028
 21
94.3039
  0
LINE
  8
0
 10
36.6028
 20
94.3039
 11
36.3662
 21
94.2376
  0
LINE
  8
0
 10
36.3662
 20
94.2376
 11
36.1228
 21
94.2042
  0
LINE
  8
0
 10
36.1228
 20
94.2042
 11
35.8772
 21
94.2042
  0
LINE
  8
0
 10
128.379
 20
66.7573
 11
128.145
 21
66.815
  0
LINE
  8
0
 10
128.145
 20
66.815
 11
127.932
 21
66.927
  0
LINE
  8
0
 10
127.932
 20
66.927
 11
127.751
 21
67.0869
  0
LINE
  8
0
 10
127.751
 20
67.0869
 11
127.615
 21
67.2853
  0
LINE
  8
0
 10
127.615
 20
67.2853
 11
127.533
 21
67.5
  0
LINE
  8
0
 10
127.533
 20
67.5
 11
119.99
 21
67.5
  0
LINE
  8
0
 10
119.99
 20
67.5
 11
119.99
 21
67.5004
  0
LINE
  8
0
 10
119.99
 20
67.5004
 11
118.911
 21
67.5476
  0
LINE
  8
0
 10
118.911
 20
67.5476
 11
117.829
 21
67.6899
  0
LINE
  8
0
 10
117.829
 20
67.6899
 11
116.765
 21
67.9259
  0
LINE
  8
0
 10
116.765
 20
67.9259
 11
115.725
 21
68.2538
  0
LINE
  8
0
 10
115.725
 20
68.2538
 11
114.717
 21
68.6711
  0
LINE
  8
0
 10
114.717
 20
68.6711
 11
113.75
 21
69.1747
  0
LINE
  8
0
 10
113.75
 20
69.1747
 11
112.83
 21
69.7606
  0
LINE
  8
0
 10
112.83
 20
69.7606
 11
111.965
 21
70.4244
  0
LINE
  8
0
 10
111.965
 20
70.4244
 11
111.161
 21
71.1612
  0
LINE
  8
0
 10
111.161
 20
71.1612
 11
110.424
 21
71.9651
  0
LINE
  8
0
 10
110.424
 20
71.9651
 11
109.761
 21
72.8303
  0
LINE
  8
0
 10
109.761
 20
72.8303
 11
109.175
 21
73.75
  0
LINE
  8
0
 10
109.175
 20
73.75
 11
108.671
 21
74.7173
  0
LINE
  8
0
 10
108.671
 20
74.7173
 11
108.254
 21
75.7247
  0
LINE
  8
0
 10
108.254
 20
75.7247
 11
107.926
 21
76.7648
  0
LINE
  8
0
 10
107.926
 20
76.7648
 11
107.69
 21
77.8294
  0
LINE
  8
0
 10
107.69
 20
77.8294
 11
107.548
 21
78.9106
  0
LINE
  8
0
 10
107.548
 20
78.9106
 11
107.5
 21
80
  0
LINE
  8
0
 10
107.5
 20
80
 11
107.548
 21
81.0894
  0
LINE
  8
0
 10
107.548
 20
81.0894
 11
107.69
 21
82.1706
  0
LINE
  8
0
 10
107.69
 20
82.1706
 11
107.926
 21
83.2352
  0
LINE
  8
0
 10
107.926
 20
83.2352
 11
108.254
 21
84.2753
  0
LINE
  8
0
 10
108.254
 20
84.2753
 11
108.671
 21
85.2827
  0
LINE
  8
0
 10
108.671
 20
85.2827
 11
109.175
 21
86.25
  0
LINE
  8
0
 10
109.175
 20
86.25
 11
109.761
 21
87.1697
  0
LINE
  8
0
 10
109.761
 20
87.1697
 11
110.424
 21
88.0348
  0
LINE
  8
0
 10
110.424
 20
88.0348
 11
111.161
 21
88.8388
  0
LINE
  8
0
 10
111.161
 20
88.8388
 11
111.965
 21
89.5755
  0
LINE
  8
0
 10
111.965
 20
89.5755
 11
112.83
 21
90.2394
  0
LINE
  8
0
 10
112.83
 20
90.2394
 11
113.75
 21
90.8253
  0
LINE
  8
0
 10
113.75
 20
90.8253
 11
114.717
 21
91.3288
  0
LINE
  8
0
 10
114.717
 20
91.3288
 11
115.725
 21
91.7462
  0
LINE
  8
0
 10
115.725
 20
91.7462
 11
116.765
 21
92.0741
  0
LINE
  8
0
 10
116.765
 20
92.0741
 11
117.829
 21
92.3101
  0
LINE
  8
0
 10
117.829
 20
92.3101
 11
118.911
 21
92.4524
  0
LINE
  8
0
 10
118.911
 20
92.4524
 11
119.99
 21
92.4996
  0
LINE
  8
0
 10
119.99
 20
92.4996
 11
119.99
 21
92.5
  0
LINE
  8
0
 10
119.99
 20
92.5
 11
127.533
 21
92.5
  0
LINE
  8
0
 10
127.533
 20
92.5
 11
127.615
 21
92.7147
  0
LINE
  8
0
 10
127.615
 20
92.7147
 11
127.751
 21
92.9131
  0
LINE
  8
0
 10
127.751
 20
92.9131
 11
127.932
 21
93.073
  0
LINE
  8
0
 10
127.932
 20
93.073
 11
128.145
 21
93.185
  0
LINE
  8
0
 10
128.145
 20
93.185
 11
128.379
 21
93.2427
  0
LINE
  8
0
 10
128.379
 20
93.2427
 11
128.621
 21
93.2427
  0
LINE
  8
0
 10
128.621
 20
93.2427
 11
128.855
 21
93.185
  0
LINE
  8
0
 10
128.855
 20
93.185
 11
129.068
 21
93.073
  0
LINE
  8
0
 10
129.068
 20
93.073
 11
129.249
 21
92.9131
  0
LINE
  8
0
 10
129.249
 20
92.9131
 11
129.385
 21
92.7147
  0
LINE
  8
0
 10
129.385
 20
92.7147
 11
129.471
 21
92.4893
  0
LINE
  8
0
 10
129.471
 20
92.4893
 11
129.5
 21
92.25
  0
LINE
  8
0
 10
129.5
 20
92.25
 11
129.471
 21
92.0107
  0
LINE
  8
0
 10
129.471
 20
92.0107
 11
129.385
 21
91.7853
  0
LINE
  8
0
 10
129.385
 20
91.7853
 11
129.249
 21
91.5869
  0
LINE
  8
0
 10
129.249
 20
91.5869
 11
129.068
 21
91.427
  0
LINE
  8
0
 10
129.068
 20
91.427
 11
128.855
 21
91.315
  0
LINE
  8
0
 10
128.855
 20
91.315
 11
128.621
 21
91.2573
  0
LINE
  8
0
 10
128.621
 20
91.2573
 11
128.379
 21
91.2573
  0
LINE
  8
0
 10
128.379
 20
91.2573
 11
128.145
 21
91.315
  0
LINE
  8
0
 10
128.145
 20
91.315
 11
127.932
 21
91.427
  0
LINE
  8
0
 10
127.932
 20
91.427
 11
127.751
 21
91.5869
  0
LINE
  8
0
 10
127.751
 20
91.5869
 11
127.615
 21
91.7853
  0
LINE
  8
0
 10
127.615
 20
91.7853
 11
127.533
 21
92
  0
LINE
  8
0
 10
127.533
 20
92
 11
120
 21
92
  0
LINE
  8
0
 10
120
 20
92
 11
118.954
 21
91.9543
  0
LINE
  8
0
 10
118.954
 20
91.9543
 11
117.916
 21
91.8177
  0
LINE
  8
0
 10
117.916
 20
91.8177
 11
116.894
 21
91.5911
  0
LINE
  8
0
 10
116.894
 20
91.5911
 11
115.896
 21
91.2763
  0
LINE
  8
0
 10
115.896
 20
91.2763
 11
114.929
 21
90.8757
  0
LINE
  8
0
 10
114.929
 20
90.8757
 11
114
 21
90.3923
  0
LINE
  8
0
 10
114
 20
90.3923
 11
113.117
 21
89.8298
  0
LINE
  8
0
 10
113.117
 20
89.8298
 11
112.287
 21
89.1925
  0
LINE
  8
0
 10
112.287
 20
89.1925
 11
111.515
 21
88.4853
  0
LINE
  8
0
 10
111.515
 20
88.4853
 11
110.807
 21
87.7134
  0
LINE
  8
0
 10
110.807
 20
87.7134
 11
110.17
 21
86.8829
  0
LINE
  8
0
 10
110.17
 20
86.8829
 11
109.608
 21
86
  0
LINE
  8
0
 10
109.608
 20
86
 11
109.124
 21
85.0714
  0
LINE
  8
0
 10
109.124
 20
85.0714
 11
108.724
 21
84.1042
  0
LINE
  8
0
 10
108.724
 20
84.1042
 11
108.409
 21
83.1058
  0
LINE
  8
0
 10
108.409
 20
83.1058
 11
108.182
 21
82.0838
  0
LINE
  8
0
 10
108.182
 20
82.0838
 11
108.046
 21
81.0459
  0
LINE
  8
0
 10
108.046
 20
81.0459
 11
108
 21
80
  0
LINE
  8
0
 10
108
 20
80
 11
108.046
 21
78.9541
  0
LINE
  8
0
 10
108.046
 20
78.9541
 11
108.182
 21
77.9162
  0
LINE
  8
0
 10
108.182
 20
77.9162
 11
108.409
 21
76.8942
  0
LINE
  8
0
 10
108.409
 20
76.8942
 11
108.724
 21
75.8958
  0
LINE
  8
0
 10
108.724
 20
75.8958
 11
109.124
 21
74.9286
  0
LINE
  8
0
 10
109.124
 20
74.9286
 11
109.608
 21
74
  0
LINE
  8
0
 10
109.608
 20
74
 11
110.17
 21
73.1171
  0
LINE
  8
0
 10
110.17
 20
73.1171
 11
110.807
 21
72.2865
  0
LINE
  8
0
 10
110.807
 20
72.2865
 11
111.515
 21
71.5147
  0
LINE
  8
0
 10
111.515
 20
71.5147
 11
112.287
 21
70.8075
  0
LINE
  8
0
 10
112.287
 20
70.8075
 11
113.117
 21
70.1702
  0
LINE
  8
0
 10
113.117
 20
70.1702
 11
114
 21
69.6077
  0
LINE
  8
0
 10
114
 20
69.6077
 11
114.929
 21
69.1243
  0
LINE
  8
0
 10
114.929
 20
69.1243
 11
115.896
 21
68.7237
  0
LINE
  8
0
 10
115.896
 20
68.7237
 11
116.894
 21
68.4089
  0
LINE
  8
0
 10
116.894
 20
68.4089
 11
117.916
 21
68.1823
  0
LINE
  8
0
 10
117.916
 20
68.1823
 11
118.954
 21
68.0457
  0
LINE
  8
0
 10
118.954
 20
68.0457
 11
120
 21
68
  0
LINE
  8
0
 10
120
 20
68
 11
127.533
 21
68
  0
LINE
  8
0
 10
127.533
 20
68
 11
127.615
 21
68.2147
  0
LINE
  8
0
 10
127.615
 20
68.2147
 11
127.751
 21
68.4131
  0
LINE
  8
0
 10
127.751
 20
68.4131
 11
127.932
 21
68.573
  0
LINE
  8
0
 10
127.932
 20
68.573
 11
128.145
 21
68.685
  0
LINE
  8
0
 10
128.145
 20
68.685
 11
128.379
 21
68.7427
  0
LINE
  8
0
 10
128.379
 20
68.7427
 11
128.621
 21
68.7427
  0
LINE
  8
0
 10
128.621
 20
68.7427
 11
128.855
 21
68.685
  0
LINE
  8
0
 10
128.855
 20
68.685
 11
129.068
 21
68.573
  0
LINE
  8
0
 10
129.068
 20
68.573
 11
129.249
 21
68.4131
  0
LINE
  8
0
 10
129.249
 20
68.4131
 11
129.385
 21
68.2147
  0
LINE
  8
0
 10
129.385
 20
68.2147
 11
129.471
 21
67.9893
  0
LINE
  8
0
 10
129.471
 20
67.9893
 11
129.5
 21
67.75
  0
LINE
  8
0
 10
129.5
 20
67.75
 11
129.471
 21
67.5107
  0
LINE
  8
0
 10
129.471
 20
67.5107
 11
129.385
 21
67.2853
  0
LINE
  8
0
 10
129.385
 20
67.2853
 11
129.249
 21
67.0869
  0
LINE
  8
0
 10
129.249
 20
67.0869
 11
129.068
 21
66.927
  0
LINE
  8
0
 10
129.068
 20
66.927
 11
128.855
 21
66.815
  0
LINE
  8
0
 10
128.855
 20
66.815
 11
128.621
 21
66.7573
  0
LINE
  8
0
 10
128.621
 20
66.7573
 11
128.379
 21
66.7573
  0
LINE
  8
0
 10
60.3795
 20
66.7573
 11
60.1454
 21
66.815
  0
LINE
  8
0
 10
60.1454
 20
66.815
 11
59.9319
 21
66.927
  0
LINE
  8
0
 10
59.9319
 20
66.927
 11
59.7515
 21
67.0869
  0
LINE
  8
0
 10
59.7515
 20
67.0869
 11
59.6145
 21
67.2853
  0
LINE
  8
0
 10
59.6145
 20
67.2853
 11
59.5331
 21
67.5
  0
LINE
  8
0
 10
59.5331
 20
67.5
 11
51.99
 21
67.5
  0
LINE
  8
0
 10
51.99
 20
67.5
 11
51.99
 21
67.5004
  0
LINE
  8
0
 10
51.99
 20
67.5004
 11
50.9106
 21
67.5476
  0
LINE
  8
0
 10
50.9106
 20
67.5476
 11
49.8294
 21
67.6899
  0
LINE
  8
0
 10
49.8294
 20
67.6899
 11
48.7648
 21
67.9259
  0
LINE
  8
0
 10
48.7648
 20
67.9259
 11
47.7247
 21
68.2538
  0
LINE
  8
0
 10
47.7247
 20
68.2538
 11
46.7173
 21
68.6711
  0
LINE
  8
0
 10
46.7173
 20
68.6711
 11
45.75
 21
69.1747
  0
LINE
  8
0
 10
45.75
 20
69.1747
 11
44.8303
 21
69.7606
  0
LINE
  8
0
 10
44.8303
 20
69.7606
 11
43.9651
 21
70.4244
  0
LINE
  8
0
 10
43.9651
 20
70.4244
 11
43.1612
 21
71.1612
  0
LINE
  8
0
 10
43.1612
 20
71.1612
 11
42.4244
 21
71.9651
  0
LINE
  8
0
 10
42.4244
 20
71.9651
 11
41.7606
 21
72.8303
  0
LINE
  8
0
 10
41.7606
 20
72.8303
 11
41.1747
 21
73.75
  0
LINE
  8
0
 10
41.1747
 20
73.75
 11
40.6711
 21
74.7173
  0
LINE
  8
0
 10
40.6711
 20
74.7173
 11
40.2538
 21
75.7247
  0
LINE
  8
0
 10
40.2538
 20
75.7247
 11
39.9259
 21
76.7648
  0
LINE
  8
0
 10
39.9259
 20
76.7648
 11
39.6899
 21
77.8294
  0
LINE
  8
0
 10
39.6899
 20
77.8294
 11
39.5476
 21
78.9106
  0
LINE
  8
0
 10
39.5476
 20
78.9106
 11
39.5
 21
80
  0
LINE
  8
0
 10
39.5
 20
80
 11
39.5476
 21
81.0894
  0
LINE
  8
0
 10
39.5476
 20
81.0894
 11
39.6899
 21
82.1706
  0
LINE
  8
0
 10
39.6899
 20
82.1706
 11
39.9259
 21
83.2352
  0
LINE
  8
0
 10
39.9259
 20
83.2352
 11
40.2538
 21
84.2753
  0
LINE
  8
0
 10
40.2538
 20
84.2753
 11
40.6711
 21
85.2827
  0
LINE
  8
0
 10
40.6711
 20
85.2827
 11
41.1747
 21
86.25
  0
LINE
  8
0
 10
41.1747
 20
86.25
 11
41.7606
 21
87.1697
  0
LINE
  8
0
 10
41.7606
 20
87.1697
 11
42.4244
 21
88.0348
  0
LINE
  8
0
 10
42.4244
 20
88.0348
 11
43.1612
 21
88.8388
  0
LINE
  8
0
 10
43.1612
 20
88.8388
 11
43.9651
 21
89.5755
  0
LINE
  8
0
 10
43.9651
 20
89.5755
 11
44.8303
 21
90.2394
  0
LINE
  8
0
 10
44.8303
 20
90.2394
 11
45.75
 21
90.8253
  0
LINE
  8
0
 10
45.75
 20
90.8253
 11
46.7173
 21
91.3288
  0
LINE
  8
0
 10
46.7173
 20
91.3288
 11
47.7247
 21
91.7462
  0
LINE
  8
0
 10
47.7247
 20
91.7462
 11
48.7648
 21
92.0741
  0
LINE
  8
0
 10
48.7648
 20
92.0741
 11
49.8294
 21
92.3101
  0
LINE
  8
0
 10
49.8294
 20
92.3101
 11
50.9106
 21
92.4524
  0
LINE
  8
0
 10
50.9106
 20
92.4524
 11
51.99
 21
92.4996
  0
LINE
  8
0
 10
51.99
 20
92.4996
 11
51.99
 21
92.5
  0
LINE
  8
0
 10
51.99
 20
92.5
 11
59.5331
 21
92.5
  0
LINE
  8
0
 10
59.5331
 20
92.5
 11
59.6145
 21
92.7147
  0
LINE
  8
0
 10
59.6145
 20
92.7147
 11
59.7515
 21
92.9131
  0
LINE
  8
0
 10
59.7515
 20
92.9131
 11
59.9319
 21
93.073
  0
LINE
  8
0
 10
59.9319
 20
93.073
 11
60.1454
 21
93.185
  0
LINE
  8
0
 10
60.1454
 20
93.185
 11
60.3795
 21
93.2427
  0
LINE
  8
0
 10
60.3795
 20
93.2427
 11
60.6205
 21
93.2427
  0
LINE
  8
0
 10
60.6205
 20
93.2427
 11
60.8546
 21
93.185
  0
LINE
  8
0
 10
60.8546
 20
93.185
 11
61.0681
 21
93.073
  0
LINE
  8
0
 10
61.0681
 20
93.073
 11
61.2485
 21
92.9131
  0
LINE
  8
0
 10
61.2485
 20
92.9131
 11
61.3855
 21
92.7147
  0
LINE
  8
0
 10
61.3855
 20
92.7147
 11
61.4709
 21
92.4893
  0
LINE
  8
0
 10
61.4709
 20
92.4893
 11
61.5
 21
92.25
  0
LINE
  8
0
 10
61.5
 20
92.25
 11
61.4709
 21
92.0107
  0
LINE
  8
0
 10
61.4709
 20
92.0107
 11
61.3855
 21
91.7853
  0
LINE
  8
0
 10
61.3855
 20
91.7853
 11
61.2485
 21
91.5869
  0
LINE
  8
0
 10
61.2485
 20
91.5869
 11
61.0681
 21
91.427
  0
LINE
  8
0
 10
61.0681
 20
91.427
 11
60.8546
 21
91.315
  0
LINE
  8
0
 10
60.8546
 20
91.315
 11
60.6205
 21
91.2573
  0
LINE
  8
0
 10
60.6205
 20
91.2573
 11
60.3795
 21
91.2573
  0
LINE
  8
0
 10
60.3795
 20
91.2573
 11
60.1454
 21
91.315
  0
LINE
  8
0
 10
60.1454
 20
91.315
 11
59.9319
 21
91.427
  0
LINE
  8
0
 10
59.9319
 20
91.427
 11
59.7515
 21
91.5869
  0
LINE
  8
0
 10
59.7515
 20
91.5869
 11
59.6145
 21
91.7853
  0
LINE
  8
0
 10
59.6145
 20
91.7853
 11
59.5331
 21
92
  0
LINE
  8
0
 10
59.5331
 20
92
 11
52
 21
92
  0
LINE
  8
0
 10
52
 20
92
 11
50.9541
 21
91.9543
  0
LINE
  8
0
 10
50.9541
 20
91.9543
 11
49.9162
 21
91.8177
  0
LINE
  8
0
 10
49.9162
 20
91.8177
 11
48.8942
 21
91.5911
  0
LINE
  8
0
 10
48.8942
 20
91.5911
 11
47.8958
 21
91.2763
  0
LINE
  8
0
 10
47.8958
 20
91.2763
 11
46.9286
 21
90.8757
  0
LINE
  8
0
 10
46.9286
 20
90.8757
 11
46
 21
90.3923
  0
LINE
  8
0
 10
46
 20
90.3923
 11
45.1171
 21
89.8298
  0
LINE
  8
0
 10
45.1171
 20
89.8298
 11
44.2865
 21
89.1925
  0
LINE
  8
0
 10
44.2865
 20
89.1925
 11
43.5147
 21
88.4853
  0
LINE
  8
0
 10
43.5147
 20
88.4853
 11
42.8075
 21
87.7134
  0
LINE
  8
0
 10
42.8075
 20
87.7134
 11
42.1702
 21
86.8829
  0
LINE
  8
0
 10
42.1702
 20
86.8829
 11
41.6077
 21
86
  0
LINE
  8
0
 10
41.6077
 20
86
 11
41.1243
 21
85.0714
  0
LINE
  8
0
 10
41.1243
 20
85.0714
 11
40.7237
 21
84.1042
  0
LINE
  8
0
 10
40.7237
 20
84.1042
 11
40.4089
 21
83.1058
  0
LINE
  8
0
 10
40.4089
 20
83.1058
 11
40.1823
 21
82.0838
  0
LINE
  8
0
 10
40.1823
 20
82.0838
 11
40.0457
 21
81.0459
  0
LINE
  8
0
 10
40.0457
 20
81.0459
 11
40
 21
80
  0
LINE
  8
0
 10
40
 20
80
 11
40.0457
 21
78.9541
  0
LINE
  8
0
 10
40.0457
 20
78.9541
 11
40.1823
 21
77.9162
  0
LINE
  8
0
 10
40.1823
 20
77.9162
 11
40.4089
 21
76.8942
  0
LINE
  8
0
 10
40.4089
 20
76.8942
 11
40.7237
 21
75.8958
  0
LINE
  8
0
 10
40.7237
 20
75.8958
 11
41.1243
 21
74.9286
  0
LINE
  8
0
 10
41.1243
 20
74.9286
 11
41.6077
 21
74
  0
LINE
  8
0
 10
41.6077
 20
74
 11
42.1702
 21
73.1171
  0
LINE
  8
0
 10
42.1702
 20
73.1171
 11
42.8075
 21
72.2865
  0
LINE
  8
0
 10
42.8075
 20
72.2865
 11
43.5147
 21
71.5147
  0
LINE
  8
0
 10
43.5147
 20
71.5147
 11
44.2865
 21
70.8075
  0
LINE
  8
0
 10
44.2865
 20
70.8075
 11
45.1171
 21
70.1702
  0
LINE
  8
0
 10
45.1171
 20
70.1702
 11
46
 21
69.6077
  0
LINE
  8
0
 10
46
 20
69.6077
 11
46.9286
 21
69.1243
  0
LINE
  8
0
 10
46.9286
 20
69.1243
 11
47.8958
 21
68.7237
  0
LINE
  8
0
 10
47.8958
 20
68.7237
 11
48.8942
 21
68.4089
  0
LINE
  8
0
 10
48.8942
 20
68.4089
 11
49.9162
 21
68.1823
  0
LINE
  8
0
 10
49.9162
 20
68.1823
 11
50.9541
 21
68.0457
  0
LINE
  8
0
 10
50.9541
 20
68.0457
 11
52
 21
68
  0
LINE
  8
0
 10
52
 20
68
 11
59.5331
 21
68
  0
LINE
  8
0
 10
59.5331
 20
68
 11
59.6145
 21
68.2147
  0
LINE
  8
0
 10
59.6145
 20
68.2147
 11
59.7515
 21
68.4131
  0
LINE
  8
0
 10
59.7515
 20
68.4131
 11
59.9319
 21
68.573
  0
LINE
  8
0
 10
59.9319
 20
68.573
 11
60.1454
 21
68.685
  0
LINE
  8
0
 10
60.1454
 20
68.685
 11
60.3795
 21
68.7427
  0
LINE
  8
0
 10
60.3795
 20
68.7427
 11
60.6205
 21
68.7427
  0
LINE
  8
0
 10
60.6205
 20
68.7427
 11
60.8546
 21
68.685
  0
LINE
  8
0
 10
60.8546
 20
68.685
 11
61.0681
 21
68.573
  0
LINE
  8
0
 10
61.0681
 20
68.573
 11
61.2485
 21
68.4131
  0
LINE
  8
0
 10
61.2485
 20
68.4131
 11
61.3855
 21
68.2147
  0
LINE
  8
0
 10
61.3855
 20
68.2147
 11
61.4709
 21
67.9893
  0
LINE
  8
0
 10
61.4709
 20
67.9893
 11
61.5
 21
67.75
  0
LINE
  8
0
 10
61.5
 20
67.75
 11
61.4709
 21
67.5107
  0
LINE
  8
0
 10
61.4709
 20
67.5107
 11
61.3855
 21
67.2853
  0
LINE
  8
0
 10
61.3855
 20
67.2853
 11
61.2485
 21
67.0869
  0
LINE
  8
0
 10
61.2485
 20
67.0869
 11
61.0681
 21
66.927
  0
LINE
  8
0
 10
61.0681
 20
66.927
 11
60.8546
 21
66.815
  0
LINE
  8
0
 10
60.8546
 20
66.815
 11
60.6205
 21
66.7573
  0
LINE
  8
0
 10
60.6205
 20
66.7573
 11
60.3795
 21
66.7573
  0
LINE
  8
0
 10
95.5642
 20
71.519
 11
95.1318
 21
71.576
  0
LINE
  8
0
 10
95.1318
 20
71.576
 11
94.7059
 21
71.6704
  0
LINE
  8
0
 10
94.7059
 20
71.6704
 11
94.2899
 21
71.8015
  0
LINE
  8
0
 10
94.2899
 20
71.8015
 11
93.8869
 21
71.9685
  0
LINE
  8
0
 10
93.8869
 20
71.9685
 11
93.5
 21
72.1699
  0
LINE
  8
0
 10
93.5
 20
72.1699
 11
93.1321
 21
72.4042
  0
LINE
  8
0
 10
93.1321
 20
72.4042
 11
92.7861
 21
72.6698
  0
LINE
  8
0
 10
92.7861
 20
72.6698
 11
92.4645
 21
72.9645
  0
LINE
  8
0
 10
92.4645
 20
72.9645
 11
92.1698
 21
73.2861
  0
LINE
  8
0
 10
92.1698
 20
73.2861
 11
91.9042
 21
73.6321
  0
LINE
  8
0
 10
91.9042
 20
73.6321
 11
91.6699
 21
74
  0
LINE
  8
0
 10
91.6699
 20
74
 11
91.4685
 21
74.3869
  0
LINE
  8
0
 10
91.4685
 20
74.3869
 11
91.3015
 21
74.7899
  0
LINE
  8
0
 10
91.3015
 20
74.7899
 11
91.1704
 21
75.2059
  0
LINE
  8
0
 10
91.1704
 20
75.2059
 11
91.076
 21
75.6318
  0
LINE
  8
0
 10
91.076
 20
75.6318
 11
91.019
 21
76.0642
  0
LINE
  8
0
 10
91.019
 20
76.0642
 11
91
 21
76.5
  0
LINE
  8
0
 10
91
 20
76.5
 11
91
 21
83.5
  0
LINE
  8
0
 10
91
 20
83.5
 11
91.019
 21
83.9358
  0
LINE
  8
0
 10
91.019
 20
83.9358
 11
91.076
 21
84.3682
  0
LINE
  8
0
 10
91.076
 20
84.3682
 11
91.1704
 21
84.7941
  0
LINE
  8
0
 10
91.1704
 20
84.7941
 11
91.3015
 21
85.2101
  0
LINE
  8
0
 10
91.3015
 20
85.2101
 11
91.4685
 21
85.6131
  0
LINE
  8
0
 10
91.4685
 20
85.6131
 11
91.6699
 21
86
  0
LINE
  8
0
 10
91.6699
 20
86
 11
91.9042
 21
86.3679
  0
LINE
  8
0
 10
91.9042
 20
86.3679
 11
92.1698
 21
86.7139
  0
LINE
  8
0
 10
92.1698
 20
86.7139
 11
92.4645
 21
87.0355
  0
LINE
  8
0
 10
92.4645
 20
87.0355
 11
92.7861
 21
87.3302
  0
LINE
  8
0
 10
92.7861
 20
87.3302
 11
93.1321
 21
87.5957
  0
LINE
  8
0
 10
93.1321
 20
87.5957
 11
93.5
 21
87.8301
  0
LINE
  8
0
 10
93.5
 20
87.8301
 11
93.8869
 21
88.0315
  0
LINE
  8
0
 10
93.8869
 20
88.0315
 11
94.2899
 21
88.1985
  0
LINE
  8
0
 10
94.2899
 20
88.1985
 11
94.7059
 21
88.3296
  0
LINE
  8
0
 10
94.7059
 20
88.3296
 11
95.1318
 21
88.424
  0
LINE
  8
0
 10
95.1318
 20
88.424
 11
95.5642
 21
88.481
  0
LINE
  8
0
 10
95.5642
 20
88.481
 11
96
 21
88.5
  0
LINE
  8
0
 10
96
 20
88.5
 11
96.4358
 21
88.481
  0
LINE
  8
0
 10
96.4358
 20
88.481
 11
96.8682
 21
88.424
  0
LINE
  8
0
 10
96.8682
 20
88.424
 11
97.2941
 21
88.3296
  0
LINE
  8
0
 10
97.2941
 20
88.3296
 11
97.7101
 21
88.1985
  0
LINE
  8
0
 10
97.7101
 20
88.1985
 11
98.1131
 21
88.0315
  0
LINE
  8
0
 10
98.1131
 20
88.0315
 11
98.5
 21
87.8301
  0
LINE
  8
0
 10
98.5
 20
87.8301
 11
98.8679
 21
87.5957
  0
LINE
  8
0
 10
98.8679
 20
87.5957
 11
99.2139
 21
87.3302
  0
LINE
  8
0
 10
99.2139
 20
87.3302
 11
99.5355
 21
87.0355
  0
LINE
  8
0
 10
99.5355
 20
87.0355
 11
99.8302
 21
86.7139
  0
LINE
  8
0
 10
99.8302
 20
86.7139
 11
100.096
 21
86.3679
  0
LINE
  8
0
 10
100.096
 20
86.3679
 11
100.33
 21
86
  0
LINE
  8
0
 10
100.33
 20
86
 11
100.532
 21
85.6131
  0
LINE
  8
0
 10
100.532
 20
85.6131
 11
100.698
 21
85.2101
  0
LINE
  8
0
 10
100.698
 20
85.2101
 11
100.83
 21
84.7941
  0
LINE
  8
0
 10
100.83
 20
84.7941
 11
100.924
 21
84.3682
  0
LINE
  8
0
 10
100.924
 20
84.3682
 11
100.981
 21
83.9358
  0
LINE
  8
0
 10
100.981
 20
83.9358
 11
101
 21
83.5
  0
LINE
  8
0
 10
101
 20
83.5
 11
101
 21
76.5
  0
LINE
  8
0
 10
101
 20
76.5
 11
100.981
 21
76.0642
  0
LINE
  8
0
 10
100.981
 20
76.0642
 11
100.924
 21
75.6318
  0
LINE
  8
0
 10
100.924
 20
75.6318
 11
100.83
 21
75.2059
  0
LINE
  8
0
 10
100.83
 20
75.2059
 11
100.698
 21
74.7899
  0
LINE
  8
0
 10
100.698
 20
74.7899
 11
100.532
 21
74.3869
  0
LINE
  8
0
 10
100.532
 20
74.3869
 11
100.33
 21
74
  0
LINE
  8
0
 10
100.33
 20
74
 11
100.096
 21
73.6321
  0
LINE
  8
0
 10
100.096
 20
73.6321
 11
99.8302
 21
73.2861
  0
LINE
  8
0
 10
99.8302
 20
73.2861
 11
99.5355
 21
72.9645
  0
LINE
  8
0
 10
99.5355
 20
72.9645
 11
99.2139
 21
72.6698
  0
LINE
  8
0
 10
99.2139
 20
72.6698
 11
98.8679
 21
72.4042
  0
LINE
  8
0
 10
98.8679
 20
72.4042
 11
98.5
 21
72.1699
  0
LINE
  8
0
 10
98.5
 20
72.1699
 11
98.1131
 21
71.9685
  0
LINE
  8
0
 10
98.1131
 20
71.9685
 11
97.7101
 21
71.8015
  0
LINE
  8
0
 10
97.7101
 20
71.8015
 11
97.2941
 21
71.6704
  0
LINE
  8
0
 10
97.2941
 20
71.6704
 11
96.8682
 21
71.576
  0
LINE
  8
0
 10
96.8682
 20
71.576
 11
96.4358
 21
71.519
  0
LINE
  8
0
 10
96.4358
 20
71.519
 11
96
 21
71.5
  0
LINE
  8
0
 10
96
 20
71.5
 11
95.5642
 21
71.519
  0
LINE
  8
0
 10
78.4553
 20
70.2738
 11
77.9147
 21
70.345
  0
LINE
  8
0
 10
77.9147
 20
70.345
 11
77.3824
 21
70.463
  0
LINE
  8
0
 10
77.3824
 20
70.463
 11
76.8624
 21
70.6269
  0
LINE
  8
0
 10
76.8624
 20
70.6269
 11
76.3586
 21
70.8356
  0
LINE
  8
0
 10
76.3586
 20
70.8356
 11
75.875
 21
71.0873
  0
LINE
  8
0
 10
75.875
 20
71.0873
 11
75.4151
 21
71.3803
  0
LINE
  8
0
 10
75.4151
 20
71.3803
 11
74.9826
 21
71.7122
  0
LINE
  8
0
 10
74.9826
 20
71.7122
 11
74.5806
 21
72.0806
  0
LINE
  8
0
 10
74.5806
 20
72.0806
 11
74.2122
 21
72.4826
  0
LINE
  8
0
 10
74.2122
 20
72.4826
 11
73.8803
 21
72.9151
  0
LINE
  8
0
 10
73.8803
 20
72.9151
 11
73.5873
 21
73.375
  0
LINE
  8
0
 10
73.5873
 20
73.375
 11
73.3356
 21
73.8586
  0
LINE
  8
0
 10
73.3356
 20
73.8586
 11
73.1269
 21
74.3624
  0
LINE
  8
0
 10
73.1269
 20
74.3624
 11
72.963
 21
74.8824
  0
LINE
  8
0
 10
72.963
 20
74.8824
 11
72.845
 21
75.4147
  0
LINE
  8
0
 10
72.845
 20
75.4147
 11
72.7738
 21
75.9553
  0
LINE
  8
0
 10
72.7738
 20
75.9553
 11
72.7504
 21
76.49
  0
LINE
  8
0
 10
72.7504
 20
76.49
 11
72.75
 21
76.49
  0
LINE
  8
0
 10
72.75
 20
76.49
 11
72.75
 21
84.7831
  0
LINE
  8
0
 10
72.75
 20
84.7831
 11
72.5353
 21
84.8645
  0
LINE
  8
0
 10
72.5353
 20
84.8645
 11
72.3369
 21
85.0015
  0
LINE
  8
0
 10
72.3369
 20
85.0015
 11
72.177
 21
85.1819
  0
LINE
  8
0
 10
72.177
 20
85.1819
 11
72.065
 21
85.3954
  0
LINE
  8
0
 10
72.065
 20
85.3954
 11
72.0073
 21
85.6295
  0
LINE
  8
0
 10
72.0073
 20
85.6295
 11
72.0073
 21
85.8705
  0
LINE
  8
0
 10
72.0073
 20
85.8705
 11
72.065
 21
86.1046
  0
LINE
  8
0
 10
72.065
 20
86.1046
 11
72.177
 21
86.3181
  0
LINE
  8
0
 10
72.177
 20
86.3181
 11
72.3369
 21
86.4985
  0
LINE
  8
0
 10
72.3369
 20
86.4985
 11
72.5353
 21
86.6355
  0
LINE
  8
0
 10
72.5353
 20
86.6355
 11
72.7607
 21
86.7209
  0
LINE
  8
0
 10
72.7607
 20
86.7209
 11
73
 21
86.75
  0
LINE
  8
0
 10
73
 20
86.75
 11
73.2393
 21
86.7209
  0
LINE
  8
0
 10
73.2393
 20
86.7209
 11
73.4647
 21
86.6355
  0
LINE
  8
0
 10
73.4647
 20
86.6355
 11
73.6631
 21
86.4985
  0
LINE
  8
0
 10
73.6631
 20
86.4985
 11
73.823
 21
86.3181
  0
LINE
  8
0
 10
73.823
 20
86.3181
 11
73.935
 21
86.1046
  0
LINE
  8
0
 10
73.935
 20
86.1046
 11
73.9927
 21
85.8705
  0
LINE
  8
0
 10
73.9927
 20
85.8705
 11
73.9927
 21
85.6295
  0
LINE
  8
0
 10
73.9927
 20
85.6295
 11
73.935
 21
85.3954
  0
LINE
  8
0
 10
73.935
 20
85.3954
 11
73.823
 21
85.1819
  0
LINE
  8
0
 10
73.823
 20
85.1819
 11
73.6631
 21
85.0015
  0
LINE
  8
0
 10
73.6631
 20
85.0015
 11
73.4647
 21
84.8645
  0
LINE
  8
0
 10
73.4647
 20
84.8645
 11
73.25
 21
84.7831
  0
LINE
  8
0
 10
73.25
 20
84.7831
 11
73.25
 21
76.5
  0
LINE
  8
0
 10
73.25
 20
76.5
 11
73.2719
 21
75.9989
  0
LINE
  8
0
 10
73.2719
 20
75.9989
 11
73.3374
 21
75.5015
  0
LINE
  8
0
 10
73.3374
 20
75.5015
 11
73.4459
 21
75.0118
  0
LINE
  8
0
 10
73.4459
 20
75.0118
 11
73.5968
 21
74.5334
  0
LINE
  8
0
 10
73.5968
 20
74.5334
 11
73.7887
 21
74.0699
  0
LINE
  8
0
 10
73.7887
 20
74.0699
 11
74.0204
 21
73.625
  0
LINE
  8
0
 10
74.0204
 20
73.625
 11
74.2899
 21
73.2019
  0
LINE
  8
0
 10
74.2899
 20
73.2019
 11
74.5952
 21
72.804
  0
LINE
  8
0
 10
74.5952
 20
72.804
 11
74.9341
 21
72.4341
  0
LINE
  8
0
 10
74.9341
 20
72.4341
 11
75.304
 21
72.0952
  0
LINE
  8
0
 10
75.304
 20
72.0952
 11
75.7019
 21
71.7899
  0
LINE
  8
0
 10
75.7019
 20
71.7899
 11
76.125
 21
71.5204
  0
LINE
  8
0
 10
76.125
 20
71.5204
 11
76.5699
 21
71.2887
  0
LINE
  8
0
 10
76.5699
 20
71.2887
 11
77.0334
 21
71.0968
  0
LINE
  8
0
 10
77.0334
 20
71.0968
 11
77.5118
 21
70.9459
  0
LINE
  8
0
 10
77.5118
 20
70.9459
 11
78.0015
 21
70.8374
  0
LINE
  8
0
 10
78.0015
 20
70.8374
 11
78.4989
 21
70.7719
  0
LINE
  8
0
 10
78.4989
 20
70.7719
 11
79
 21
70.75
  0
LINE
  8
0
 10
79
 20
70.75
 11
79.5011
 21
70.7719
  0
LINE
  8
0
 10
79.5011
 20
70.7719
 11
79.9985
 21
70.8374
  0
LINE
  8
0
 10
79.9985
 20
70.8374
 11
80.4882
 21
70.9459
  0
LINE
  8
0
 10
80.4882
 20
70.9459
 11
80.9666
 21
71.0968
  0
LINE
  8
0
 10
80.9666
 20
71.0968
 11
81.4301
 21
71.2887
  0
LINE
  8
0
 10
81.4301
 20
71.2887
 11
81.875
 21
71.5204
  0
LINE
  8
0
 10
81.875
 20
71.5204
 11
82.2981
 21
71.7899
  0
LINE
  8
0
 10
82.2981
 20
71.7899
 11
82.696
 21
72.0952
  0
LINE
  8
0
 10
82.696
 20
72.0952
 11
83.0659
 21
72.4341
  0
LINE
  8
0
 10
83.0659
 20
72.4341
 11
83.4048
 21
72.804
  0
LINE
  8
0
 10
83.4048
 20
72.804
 11
83.7101
 21
73.2019
  0
LINE
  8
0
 10
83.7101
 20
73.2019
 11
83.9796
 21
73.625
  0
LINE
  8
0
 10
83.9796
 20
73.625
 11
84.2113
 21
74.0699
  0
LINE
  8
0
 10
84.2113
 20
74.0699
 11
84.4032
 21
74.5334
  0
LINE
  8
0
 10
84.4032
 20
74.5334
 11
84.5541
 21
75.0118
  0
LINE
  8
0
 10
84.5541
 20
75.0118
 11
84.6626
 21
75.5015
  0
LINE
  8
0
 10
84.6626
 20
75.5015
 11
84.7281
 21
75.9989
  0
LINE
  8
0
 10
84.7281
 20
75.9989
 11
84.75
 21
76.5
  0
LINE
  8
0
 10
84.75
 20
76.5
 11
84.75
 21
84.7831
  0
LINE
  8
0
 10
84.75
 20
84.7831
 11
84.5353
 21
84.8645
  0
LINE
  8
0
 10
84.5353
 20
84.8645
 11
84.3369
 21
85.0015
  0
LINE
  8
0
 10
84.3369
 20
85.0015
 11
84.177
 21
85.1819
  0
LINE
  8
0
 10
84.177
 20
85.1819
 11
84.065
 21
85.3954
  0
LINE
  8
0
 10
84.065
 20
85.3954
 11
84.0073
 21
85.6295
  0
LINE
  8
0
 10
84.0073
 20
85.6295
 11
84.0073
 21
85.8705
  0
LINE
  8
0
 10
84.0073
 20
85.8705
 11
84.065
 21
86.1046
  0
LINE
  8
0
 10
84.065
 20
86.1046
 11
84.177
 21
86.3181
  0
LINE
  8
0
 10
84.177
 20
86.3181
 11
84.3369
 21
86.4985
  0
LINE
  8
0
 10
84.3369
 20
86.4985
 11
84.5353
 21
86.6355
  0
LINE
  8
0
 10
84.5353
 20
86.6355
 11
84.7607
 21
86.7209
  0
LINE
  8
0
 10
84.7607
 20
86.7209
 11
85
 21
86.75
  0
LINE
  8
0
 10
85
 20
86.75
 11
85.2393
 21
86.7209
  0
LINE
  8
0
 10
85.2393
 20
86.7209
 11
85.4647
 21
86.6355
  0
LINE
  8
0
 10
85.4647
 20
86.6355
 11
85.6631
 21
86.4985
  0
LINE
  8
0
 10
85.6631
 20
86.4985
 11
85.823
 21
86.3181
  0
LINE
  8
0
 10
85.823
 20
86.3181
 11
85.935
 21
86.1046
  0
LINE
  8
0
 10
85.935
 20
86.1046
 11
85.9927
 21
85.8705
  0
LINE
  8
0
 10
85.9927
 20
85.8705
 11
85.9927
 21
85.6295
  0
LINE
  8
0
 10
85.9927
 20
85.6295
 11
85.935
 21
85.3954
  0
LINE
  8
0
 10
85.935
 20
85.3954
 11
85.823
 21
85.1819
  0
LINE
  8
0
 10
85.823
 20
85.1819
 11
85.6631
 21
85.0015
  0
LINE
  8
0
 10
85.6631
 20
85.0015
 11
85.4647
 21
84.8645
  0
LINE
  8
0
 10
85.4647
 20
84.8645
 11
85.25
 21
84.7831
  0
LINE
  8
0
 10
85.25
 20
84.7831
 11
85.25
 21
76.49
  0
LINE
  8
0
 10
85.25
 20
76.49
 11
85.2496
 21
76.49
  0
LINE
  8
0
 10
85.2496
 20
76.49
 11
85.2262
 21
75.9553
  0
LINE
  8
0
 10
85.2262
 20
75.9553
 11
85.155
 21
75.4147
  0
LINE
  8
0
 10
85.155
 20
75.4147
 11
85.037
 21
74.8824
  0
LINE
  8
0
 10
85.037
 20
74.8824
 11
84.8731
 21
74.3624
  0
LINE
  8
0
 10
84.8731
 20
74.3624
 11
84.6644
 21
73.8586
  0
LINE
  8
0
 10
84.6644
 20
73.8586
 11
84.4127
 21
73.375
  0
LINE
  8
0
 10
84.4127
 20
73.375
 11
84.1197
 21
72.9151
  0
LINE
  8
0
 10
84.1197
 20
72.9151
 11
83.7878
 21
72.4826
  0
LINE
  8
0
 10
83.7878
 20
72.4826
 11
83.4194
 21
72.0806
  0
LINE
  8
0
 10
83.4194
 20
72.0806
 11
83.0174
 21
71.7122
  0
LINE
  8
0
 10
83.0174
 20
71.7122
 11
82.5849
 21
71.3803
  0
LINE
  8
0
 10
82.5849
 20
71.3803
 11
82.125
 21
71.0873
  0
LINE
  8
0
 10
82.125
 20
71.0873
 11
81.6414
 21
70.8356
  0
LINE
  8
0
 10
81.6414
 20
70.8356
 11
81.1376
 21
70.6269
  0
LINE
  8
0
 10
81.1376
 20
70.6269
 11
80.6176
 21
70.463
  0
LINE
  8
0
 10
80.6176
 20
70.463
 11
80.0853
 21
70.345
  0
LINE
  8
0
 10
80.0853
 20
70.345
 11
79.5447
 21
70.2738
  0
LINE
  8
0
 10
79.5447
 20
70.2738
 11
79
 21
70.25
  0
LINE
  8
0
 10
79
 20
70.25
 11
78.4553
 21
70.2738
  0
LINE
  8
0
 10
67.8772
 20
62.2042
 11
67.6338
 21
62.2376
  0
LINE
  8
0
 10
67.6338
 20
62.2376
 11
67.3972
 21
62.3039
  0
LINE
  8
0
 10
67.3972
 20
62.3039
 11
67.1719
 21
62.4018
  0
LINE
  8
0
 10
67.1719
 20
62.4018
 11
66.962
 21
62.5294
  0
LINE
  8
0
 10
66.962
 20
62.5294
 11
66.7714
 21
62.6845
  0
LINE
  8
0
 10
66.7714
 20
62.6845
 11
66.6037
 21
62.864
  0
LINE
  8
0
 10
66.6037
 20
62.864
 11
66.462
 21
63.0647
  0
LINE
  8
0
 10
66.462
 20
63.0647
 11
66.349
 21
63.2829
  0
LINE
  8
0
 10
66.349
 20
63.2829
 11
66.2667
 21
63.5144
  0
LINE
  8
0
 10
66.2667
 20
63.5144
 11
66.2168
 21
63.7549
  0
LINE
  8
0
 10
66.2168
 20
63.7549
 11
66.2
 21
64
  0
LINE
  8
0
 10
66.2
 20
64
 11
66.2168
 21
64.2451
  0
LINE
  8
0
 10
66.2168
 20
64.2451
 11
66.2667
 21
64.4856
  0
LINE
  8
0
 10
66.2667
 20
64.4856
 11
66.349
 21
64.7171
  0
LINE
  8
0
 10
66.349
 20
64.7171
 11
66.462
 21
64.9352
  0
LINE
  8
0
 10
66.462
 20
64.9352
 11
66.6037
 21
65.136
  0
LINE
  8
0
 10
66.6037
 20
65.136
 11
66.7714
 21
65.3155
  0
LINE
  8
0
 10
66.7714
 20
65.3155
 11
66.962
 21
65.4705
  0
LINE
  8
0
 10
66.962
 20
65.4705
 11
67.1719
 21
65.5982
  0
LINE
  8
0
 10
67.1719
 20
65.5982
 11
67.3972
 21
65.6961
  0
LINE
  8
0
 10
67.3972
 20
65.6961
 11
67.6338
 21
65.7623
  0
LINE
  8
0
 10
67.6338
 20
65.7623
 11
67.8772
 21
65.7958
  0
LINE
  8
0
 10
67.8772
 20
65.7958
 11
68.1228
 21
65.7958
  0
LINE
  8
0
 10
68.1228
 20
65.7958
 11
68.3662
 21
65.7623
  0
LINE
  8
0
 10
68.3662
 20
65.7623
 11
68.6028
 21
65.6961
  0
LINE
  8
0
 10
68.6028
 20
65.6961
 11
68.8281
 21
65.5982
  0
LINE
  8
0
 10
68.8281
 20
65.5982
 11
69.038
 21
65.4705
  0
LINE
  8
0
 10
69.038
 20
65.4705
 11
69.2286
 21
65.3155
  0
LINE
  8
0
 10
69.2286
 20
65.3155
 11
69.3963
 21
65.136
  0
LINE
  8
0
 10
69.3963
 20
65.136
 11
69.5379
 21
64.9352
  0
LINE
  8
0
 10
69.5379
 20
64.9352
 11
69.651
 21
64.7171
  0
LINE
  8
0
 10
69.651
 20
64.7171
 11
69.7332
 21
64.4856
  0
LINE
  8
0
 10
69.7332
 20
64.4856
 11
69.7832
 21
64.2451
  0
LINE
  8
0
 10
69.7832
 20
64.2451
 11
69.8
 21
64
  0
LINE
  8
0
 10
69.8
 20
64
 11
69.7832
 21
63.7549
  0
LINE
  8
0
 10
69.7832
 20
63.7549
 11
69.7332
 21
63.5144
  0
LINE
  8
0
 10
69.7332
 20
63.5144
 11
69.651
 21
63.2829
  0
LINE
  8
0
 10
69.651
 20
63.2829
 11
69.5379
 21
63.0647
  0
LINE
  8
0
 10
69.5379
 20
63.0647
 11
69.3963
 21
62.864
  0
LINE
  8
0
 10
69.3963
 20
62.864
 11
69.2286
 21
62.6845
  0
LINE
  8
0
 10
69.2286
 20
62.6845
 11
69.038
 21
62.5294
  0
LINE
  8
0
 10
69.038
 20
62.5294
 11
68.8281
 21
62.4018
  0
LINE
  8
0
 10
68.8281
 20
62.4018
 11
68.6028
 21
62.3039
  0
LINE
  8
0
 10
68.6028
 20
62.3039
 11
68.3662
 21
62.2376
  0
LINE
  8
0
 10
68.3662
 20
62.2376
 11
68.1228
 21
62.2042
  0
LINE
  8
0
 10
68.1228
 20
62.2042
 11
67.8772
 21
62.2042
  0
LINE
  8
0
 10
35.8772
 20
62.2042
 11
35.6338
 21
62.2376
  0
LINE
  8
0
 10
35.6338
 20
62.2376
 11
35.3972
 21
62.3039
  0
LINE
  8
0
 10
35.3972
 20
62.3039
 11
35.1719
 21
62.4018
  0
LINE
  8
0
 10
35.1719
 20
62.4018
 11
34.962
 21
62.5294
  0
LINE
  8
0
 10
34.962
 20
62.5294
 11
34.7714
 21
62.6845
  0
LINE
  8
0
 10
34.7714
 20
62.6845
 11
34.6037
 21
62.864
  0
LINE
  8
0
 10
34.6037
 20
62.864
 11
34.462
 21
63.0647
  0
LINE
  8
0
 10
34.462
 20
63.0647
 11
34.349
 21
63.2829
  0
LINE
  8
0
 10
34.349
 20
63.2829
 11
34.2667
 21
63.5144
  0
LINE
  8
0
 10
34.2667
 20
63.5144
 11
34.2168
 21
63.7549
  0
LINE
  8
0
 10
34.2168
 20
63.7549
 11
34.2
 21
64
  0
LINE
  8
0
 10
34.2
 20
64
 11
34.2168
 21
64.2451
  0
LINE
  8
0
 10
34.2168
 20
64.2451
 11
34.2667
 21
64.4856
  0
LINE
  8
0
 10
34.2667
 20
64.4856
 11
34.349
 21
64.7171
  0
LINE
  8
0
 10
34.349
 20
64.7171
 11
34.462
 21
64.9352
  0
LINE
  8
0
 10
34.462
 20
64.9352
 11
34.6037
 21
65.136
  0
LINE
  8
0
 10
34.6037
 20
65.136
 11
34.7714
 21
65.3155
  0
LINE
  8
0
 10
34.7714
 20
65.3155
 11
34.962
 21
65.4705
  0
LINE
  8
0
 10
34.962
 20
65.4705
 11
35.1719
 21
65.5982
  0
LINE
  8
0
 10
35.1719
 20
65.5982
 11
35.3972
 21
65.6961
  0
LINE
  8
0
 10
35.3972
 20
65.6961
 11
35.6338
 21
65.7623
  0
LINE
  8
0
 10
35.6338
 20
65.7623
 11
35.8772
 21
65.7958
  0
LINE
  8
0
 10
35.8772
 20
65.7958
 11
36.1228
 21
65.7958
  0
LINE
  8
0
 10
36.1228
 20
65.7958
 11
36.3662
 21
65.7623
  0
LINE
  8
0
 10
36.3662
 20
65.7623
 11
36.6028
 21
65.6961
  0
LINE
  8
0
 10
36.6028
 20
65.6961
 11
36.8281
 21
65.5982
  0
LINE
  8
0
 10
36.8281
 20
65.5982
 11
37.038
 21
65.4705
  0
LINE
  8
0
 10
37.038
 20
65.4705
 11
37.2286
 21
65.3155
  0
LINE
  8
0
 10
37.2286
 20
65.3155
 11
37.3963
 21
65.136
  0
LINE
  8
0
 10
37.3963
 20
65.136
 11
37.5379
 21
64.9352
  0
LINE
  8
0
 10
37.5379
 20
64.9352
 11
37.651
 21
64.7171
  0
LINE
  8
0
 10
37.651
 20
64.7171
 11
37.7332
 21
64.4856
  0
LINE
  8
0
 10
37.7332
 20
64.4856
 11
37.7832
 21
64.2451
  0
LINE
  8
0
 10
37.7832
 20
64.2451
 11
37.8
 21
64
  0
LINE
  8
0
 10
37.8
 20
64
 11
37.7832
 21
63.7549
  0
LINE
  8
0
 10
37.7832
 20
63.7549
 11
37.7332
 21
63.5144
  0
LINE
  8
0
 10
37.7332
 20
63.5144
 11
37.651
 21
63.2829
  0
LINE
  8
0
 10
37.651
 20
63.2829
 11
37.5379
 21
63.0647
  0
LINE
  8
0
 10
37.5379
 20
63.0647
 11
37.3963
 21
62.864
  0
LINE
  8
0
 10
37.3963
 20
62.864
 11
37.2286
 21
62.6845
  0
LINE
  8
0
 10
37.2286
 20
62.6845
 11
37.038
 21
62.5294
  0
LINE
  8
0
 10
37.038
 20
62.5294
 11
36.8281
 21
62.4018
  0
LINE
  8
0
 10
36.8281
 20
62.4018
 11
36.6028
 21
62.3039
  0
LINE
  8
0
 10
36.6028
 20
62.3039
 11
36.3662
 21
62.2376
  0
LINE
  8
0
 10
36.3662
 20
62.2376
 11
36.1228
 21
62.2042
  0
LINE
  8
0
 10
36.1228
 20
62.2042
 11
35.8772
 21
62.2042
  0
LINE
  8
0
 10
3.87715
 20
62.2042
 11
3.63377
 21
62.2376
  0
LINE
  8
0
 10
3.63377
 20
62.2376
 11
3.3972
 21
62.3039
  0
LINE
  8
0
 10
3.3972
 20
62.3039
 11
3.17188
 21
62.4018
  0
LINE
  8
0
 10
3.17188
 20
62.4018
 11
2.96198
 21
62.5294
  0
LINE
  8
0
 10
2.96198
 20
62.5294
 11
2.77139
 21
62.6845
  0
LINE
  8
0
 10
2.77139
 20
62.6845
 11
2.60371
 21
62.864
  0
LINE
  8
0
 10
2.60371
 20
62.864
 11
2.46204
 21
63.0647
  0
LINE
  8
0
 10
2.46204
 20
63.0647
 11
2.34901
 21
63.2829
  0
LINE
  8
0
 10
2.34901
 20
63.2829
 11
2.26674
 21
63.5144
  0
LINE
  8
0
 10
2.26674
 20
63.5144
 11
2.21675
 21
63.7549
  0
LINE
  8
0
 10
2.21675
 20
63.7549
 11
2.2
 21
64
  0
LINE
  8
0
 10
2.2
 20
64
 11
2.21675
 21
64.2451
  0
LINE
  8
0
 10
2.21675
 20
64.2451
 11
2.26674
 21
64.4856
  0
LINE
  8
0
 10
2.26674
 20
64.4856
 11
2.34901
 21
64.7171
  0
LINE
  8
0
 10
2.34901
 20
64.7171
 11
2.46204
 21
64.9352
  0
LINE
  8
0
 10
2.46204
 20
64.9352
 11
2.60371
 21
65.136
  0
LINE
  8
0
 10
2.60371
 20
65.136
 11
2.77139
 21
65.3155
  0
LINE
  8
0
 10
2.77139
 20
65.3155
 11
2.96198
 21
65.4705
  0
LINE
  8
0
 10
2.96198
 20
65.4705
 11
3.17188
 21
65.5982
  0
LINE
  8
0
 10
3.17188
 20
65.5982
 11
3.3972
 21
65.6961
  0
LINE
  8
0
 10
3.3972
 20
65.6961
 11
3.63377
 21
65.7623
  0
LINE
  8
0
 10
3.63377
 20
65.7623
 11
3.87715
 21
65.7958
  0
LINE
  8
0
 10
3.87715
 20
65.7958
 11
4.12283
 21
65.7958
  0
LINE
  8
0
 10
4.12283
 20
65.7958
 11
4.36621
 21
65.7623
  0
LINE
  8
0
 10
4.36621
 20
65.7623
 11
4.60278
 21
65.6961
  0
LINE
  8
0
 10
4.60278
 20
65.6961
 11
4.82811
 21
65.5982
  0
LINE
  8
0
 10
4.82811
 20
65.5982
 11
5.03801
 21
65.4705
  0
LINE
  8
0
 10
5.03801
 20
65.4705
 11
5.22859
 21
65.3155
  0
LINE
  8
0
 10
5.22859
 20
65.3155
 11
5.39627
 21
65.136
  0
LINE
  8
0
 10
5.39627
 20
65.136
 11
5.53795
 21
64.9352
  0
LINE
  8
0
 10
5.53795
 20
64.9352
 11
5.65097
 21
64.7171
  0
LINE
  8
0
 10
5.65097
 20
64.7171
 11
5.73325
 21
64.4856
  0
LINE
  8
0
 10
5.73325
 20
64.4856
 11
5.78323
 21
64.2451
  0
LINE
  8
0
 10
5.78323
 20
64.2451
 11
5.79999
 21
64
  0
LINE
  8
0
 10
5.79999
 20
64
 11
5.78323
 21
63.7549
  0
LINE
  8
0
 10
5.78323
 20
63.7549
 11
5.73325
 21
63.5144
  0
LINE
  8
0
 10
5.73325
 20
63.5144
 11
5.65097
 21
63.2829
  0
LINE
  8
0
 10
5.65097
 20
63.2829
 11
5.53795
 21
63.0647
  0
LINE
  8
0
 10
5.53795
 20
63.0647
 11
5.39627
 21
62.864
  0
LINE
  8
0
 10
5.39627
 20
62.864
 11
5.22859
 21
62.6845
  0
LINE
  8
0
 10
5.22859
 20
62.6845
 11
5.03801
 21
62.5294
  0
LINE
  8
0
 10
5.03801
 20
62.5294
 11
4.82811
 21
62.4018
  0
LINE
  8
0
 10
4.82811
 20
62.4018
 11
4.60278
 21
62.3039
  0
LINE
  8
0
 10
4.60278
 20
62.3039
 11
4.36621
 21
62.2376
  0
LINE
  8
0
 10
4.36621
 20
62.2376
 11
4.12283
 21
62.2042
  0
LINE
  8
0
 10
4.12283
 20
62.2042
 11
3.87715
 21
62.2042
  0
LINE
  8
0
 10
135.877
 20
62.2042
 11
135.634
 21
62.2376
  0
LINE
  8
0
 10
135.634
 20
62.2376
 11
135.397
 21
62.3039
  0
LINE
  8
0
 10
135.397
 20
62.3039
 11
135.172
 21
62.4018
  0
LINE
  8
0
 10
135.172
 20
62.4018
 11
134.962
 21
62.5294
  0
LINE
  8
0
 10
134.962
 20
62.5294
 11
134.771
 21
62.6845
  0
LINE
  8
0
 10
134.771
 20
62.6845
 11
134.604
 21
62.864
  0
LINE
  8
0
 10
134.604
 20
62.864
 11
134.462
 21
63.0647
  0
LINE
  8
0
 10
134.462
 20
63.0647
 11
134.349
 21
63.2829
  0
LINE
  8
0
 10
134.349
 20
63.2829
 11
134.267
 21
63.5144
  0
LINE
  8
0
 10
134.267
 20
63.5144
 11
134.217
 21
63.7549
  0
LINE
  8
0
 10
134.217
 20
63.7549
 11
134.2
 21
64
  0
LINE
  8
0
 10
134.2
 20
64
 11
134.217
 21
64.2451
  0
LINE
  8
0
 10
134.217
 20
64.2451
 11
134.267
 21
64.4856
  0
LINE
  8
0
 10
134.267
 20
64.4856
 11
134.349
 21
64.7171
  0
LINE
  8
0
 10
134.349
 20
64.7171
 11
134.462
 21
64.9352
  0
LINE
  8
0
 10
134.462
 20
64.9352
 11
134.604
 21
65.136
  0
LINE
  8
0
 10
134.604
 20
65.136
 11
134.771
 21
65.3155
  0
LINE
  8
0
 10
134.771
 20
65.3155
 11
134.962
 21
65.4705
  0
LINE
  8
0
 10
134.962
 20
65.4705
 11
135.172
 21
65.5982
  0
LINE
  8
0
 10
135.172
 20
65.5982
 11
135.397
 21
65.6961
  0
LINE
  8
0
 10
135.397
 20
65.6961
 11
135.634
 21
65.7623
  0
LINE
  8
0
 10
135.634
 20
65.7623
 11
135.877
 21
65.7958
  0
LINE
  8
0
 10
135.877
 20
65.7958
 11
136.123
 21
65.7958
  0
LINE
  8
0
 10
136.123
 20
65.7958
 11
136.366
 21
65.7623
  0
LINE
  8
0
 10
136.366
 20
65.7623
 11
136.603
 21
65.6961
  0
LINE
  8
0
 10
136.603
 20
65.6961
 11
136.828
 21
65.5982
  0
LINE
  8
0
 10
136.828
 20
65.5982
 11
137.038
 21
65.4705
  0
LINE
  8
0
 10
137.038
 20
65.4705
 11
137.229
 21
65.3155
  0
LINE
  8
0
 10
137.229
 20
65.3155
 11
137.396
 21
65.136
  0
LINE
  8
0
 10
137.396
 20
65.136
 11
137.538
 21
64.9352
  0
LINE
  8
0
 10
137.538
 20
64.9352
 11
137.651
 21
64.7171
  0
LINE
  8
0
 10
137.651
 20
64.7171
 11
137.733
 21
64.4856
  0
LINE
  8
0
 10
137.733
 20
64.4856
 11
137.783
 21
64.2451
  0
LINE
  8
0
 10
137.783
 20
64.2451
 11
137.8
 21
64
  0
LINE
  8
0
 10
137.8
 20
64
 11
137.783
 21
63.7549
  0
LINE
  8
0
 10
137.783
 20
63.7549
 11
137.733
 21
63.5144
  0
LINE
  8
0
 10
137.733
 20
63.5144
 11
137.651
 21
63.2829
  0
LINE
  8
0
 10
137.651
 20
63.2829
 11
137.538
 21
63.0647
  0
LINE
  8
0
 10
137.538
 20
63.0647
 11
137.396
 21
62.864
  0
LINE
  8
0
 10
137.396
 20
62.864
 11
137.229
 21
62.6845
  0
LINE
  8
0
 10
137.229
 20
62.6845
 11
137.038
 21
62.5294
  0
LINE
  8
0
 10
137.038
 20
62.5294
 11
136.828
 21
62.4018
  0
LINE
  8
0
 10
136.828
 20
62.4018
 11
136.603
 21
62.3039
  0
LINE
  8
0
 10
136.603
 20
62.3039
 11
136.366
 21
62.2376
  0
LINE
  8
0
 10
136.366
 20
62.2376
 11
136.123
 21
62.2042
  0
LINE
  8
0
 10
136.123
 20
62.2042
 11
135.877
 21
62.2042
  0
LINE
  8
0
 10
101.877
 20
62.2042
 11
101.634
 21
62.2376
  0
LINE
  8
0
 10
101.634
 20
62.2376
 11
101.397
 21
62.3039
  0
LINE
  8
0
 10
101.397
 20
62.3039
 11
101.172
 21
62.4018
  0
LINE
  8
0
 10
101.172
 20
62.4018
 11
100.962
 21
62.5294
  0
LINE
  8
0
 10
100.962
 20
62.5294
 11
100.771
 21
62.6845
  0
LINE
  8
0
 10
100.771
 20
62.6845
 11
100.604
 21
62.864
  0
LINE
  8
0
 10
100.604
 20
62.864
 11
100.462
 21
63.0647
  0
LINE
  8
0
 10
100.462
 20
63.0647
 11
100.349
 21
63.2829
  0
LINE
  8
0
 10
100.349
 20
63.2829
 11
100.267
 21
63.5144
  0
LINE
  8
0
 10
100.267
 20
63.5144
 11
100.217
 21
63.7549
  0
LINE
  8
0
 10
100.217
 20
63.7549
 11
100.2
 21
64
  0
LINE
  8
0
 10
100.2
 20
64
 11
100.217
 21
64.2451
  0
LINE
  8
0
 10
100.217
 20
64.2451
 11
100.267
 21
64.4856
  0
LINE
  8
0
 10
100.267
 20
64.4856
 11
100.349
 21
64.7171
  0
LINE
  8
0
 10
100.349
 20
64.7171
 11
100.462
 21
64.9352
  0
LINE
  8
0
 10
100.462
 20
64.9352
 11
100.604
 21
65.136
  0
LINE
  8
0
 10
100.604
 20
65.136
 11
100.771
 21
65.3155
  0
LINE
  8
0
 10
100.771
 20
65.3155
 11
100.962
 21
65.4705
  0
LINE
  8
0
 10
100.962
 20
65.4705
 11
101.172
 21
65.5982
  0
LINE
  8
0
 10
101.172
 20
65.5982
 11
101.397
 21
65.6961
  0
LINE
  8
0
 10
101.397
 20
65.6961
 11
101.634
 21
65.7623
  0
LINE
  8
0
 10
101.634
 20
65.7623
 11
101.877
 21
65.7958
  0
LINE
  8
0
 10
101.877
 20
65.7958
 11
102.123
 21
65.7958
  0
LINE
  8
0
 10
102.123
 20
65.7958
 11
102.366
 21
65.7623
  0
LINE
  8
0
 10
102.366
 20
65.7623
 11
102.603
 21
65.6961
  0
LINE
  8
0
 10
102.603
 20
65.6961
 11
102.828
 21
65.5982
  0
LINE
  8
0
 10
102.828
 20
65.5982
 11
103.038
 21
65.4705
  0
LINE
  8
0
 10
103.038
 20
65.4705
 11
103.229
 21
65.3155
  0
LINE
  8
0
 10
103.229
 20
65.3155
 11
103.396
 21
65.136
  0
LINE
  8
0
 10
103.396
 20
65.136
 11
103.538
 21
64.9352
  0
LINE
  8
0
 10
103.538
 20
64.9352
 11
103.651
 21
64.7171
  0
LINE
  8
0
 10
103.651
 20
64.7171
 11
103.733
 21
64.4856
  0
LINE
  8
0
 10
103.733
 20
64.4856
 11
103.783
 21
64.2451
  0
LINE
  8
0
 10
103.783
 20
64.2451
 11
103.8
 21
64
  0
LINE
  8
0
 10
103.8
 20
64
 11
103.783
 21
63.7549
  0
LINE
  8
0
 10
103.783
 20
63.7549
 11
103.733
 21
63.5144
  0
LINE
  8
0
 10
103.733
 20
63.5144
 11
103.651
 21
63.2829
  0
LINE
  8
0
 10
103.651
 20
63.2829
 11
103.538
 21
63.0647
  0
LINE
  8
0
 10
103.538
 20
63.0647
 11
103.396
 21
62.864
  0
LINE
  8
0
 10
103.396
 20
62.864
 11
103.229
 21
62.6845
  0
LINE
  8
0
 10
103.229
 20
62.6845
 11
103.038
 21
62.5294
  0
LINE
  8
0
 10
103.038
 20
62.5294
 11
102.828
 21
62.4018
  0
LINE
  8
0
 10
102.828
 20
62.4018
 11
102.603
 21
62.3039
  0
LINE
  8
0
 10
102.603
 20
62.3039
 11
102.366
 21
62.2376
  0
LINE
  8
0
 10
102.366
 20
62.2376
 11
102.123
 21
62.2042
  0
LINE
  8
0
 10
102.123
 20
62.2042
 11
101.877
 21
62.2042
  0
LINE
  8
0
 10
118.911
 20
35.5476
 11
117.829
 21
35.6899
  0
LINE
  8
0
 10
117.829
 20
35.6899
 11
116.765
 21
35.9259
  0
LINE
  8
0
 10
116.765
 20
35.9259
 11
115.725
 21
36.2538
  0
LINE
  8
0
 10
115.725
 20
36.2538
 11
114.717
 21
36.6711
  0
LINE
  8
0
 10
114.717
 20
36.6711
 11
113.75
 21
37.1747
  0
LINE
  8
0
 10
113.75
 20
37.1747
 11
112.83
 21
37.7606
  0
LINE
  8
0
 10
112.83
 20
37.7606
 11
111.965
 21
38.4244
  0
LINE
  8
0
 10
111.965
 20
38.4244
 11
111.161
 21
39.1612
  0
LINE
  8
0
 10
111.161
 20
39.1612
 11
110.424
 21
39.9651
  0
LINE
  8
0
 10
110.424
 20
39.9651
 11
109.761
 21
40.8303
  0
LINE
  8
0
 10
109.761
 20
40.8303
 11
109.175
 21
41.75
  0
LINE
  8
0
 10
109.175
 20
41.75
 11
108.671
 21
42.7173
  0
LINE
  8
0
 10
108.671
 20
42.7173
 11
108.254
 21
43.7247
  0
LINE
  8
0
 10
108.254
 20
43.7247
 11
107.926
 21
44.7648
  0
LINE
  8
0
 10
107.926
 20
44.7648
 11
107.69
 21
45.8294
  0
LINE
  8
0
 10
107.69
 20
45.8294
 11
107.548
 21
46.9106
  0
LINE
  8
0
 10
107.548
 20
46.9106
 11
107.5
 21
47.99
  0
LINE
  8
0
 10
107.5
 20
47.99
 11
107.5
 21
47.99
  0
LINE
  8
0
 10
107.5
 20
47.99
 11
107.5
 21
55.5331
  0
LINE
  8
0
 10
107.5
 20
55.5331
 11
107.285
 21
55.6145
  0
LINE
  8
0
 10
107.285
 20
55.6145
 11
107.087
 21
55.7515
  0
LINE
  8
0
 10
107.087
 20
55.7515
 11
106.927
 21
55.9319
  0
LINE
  8
0
 10
106.927
 20
55.9319
 11
106.815
 21
56.1454
  0
LINE
  8
0
 10
106.815
 20
56.1454
 11
106.757
 21
56.3795
  0
LINE
  8
0
 10
106.757
 20
56.3795
 11
106.757
 21
56.6205
  0
LINE
  8
0
 10
106.757
 20
56.6205
 11
106.815
 21
56.8546
  0
LINE
  8
0
 10
106.815
 20
56.8546
 11
106.927
 21
57.0681
  0
LINE
  8
0
 10
106.927
 20
57.0681
 11
107.087
 21
57.2485
  0
LINE
  8
0
 10
107.087
 20
57.2485
 11
107.285
 21
57.3855
  0
LINE
  8
0
 10
107.285
 20
57.3855
 11
107.511
 21
57.4709
  0
LINE
  8
0
 10
107.511
 20
57.4709
 11
107.75
 21
57.5
  0
LINE
  8
0
 10
107.75
 20
57.5
 11
107.989
 21
57.4709
  0
LINE
  8
0
 10
107.989
 20
57.4709
 11
108.215
 21
57.3855
  0
LINE
  8
0
 10
108.215
 20
57.3855
 11
108.413
 21
57.2485
  0
LINE
  8
0
 10
108.413
 20
57.2485
 11
108.573
 21
57.0681
  0
LINE
  8
0
 10
108.573
 20
57.0681
 11
108.685
 21
56.8546
  0
LINE
  8
0
 10
108.685
 20
56.8546
 11
108.743
 21
56.6205
  0
LINE
  8
0
 10
108.743
 20
56.6205
 11
108.743
 21
56.3795
  0
LINE
  8
0
 10
108.743
 20
56.3795
 11
108.685
 21
56.1454
  0
LINE
  8
0
 10
108.685
 20
56.1454
 11
108.573
 21
55.9319
  0
LINE
  8
0
 10
108.573
 20
55.9319
 11
108.413
 21
55.7515
  0
LINE
  8
0
 10
108.413
 20
55.7515
 11
108.215
 21
55.6145
  0
LINE
  8
0
 10
108.215
 20
55.6145
 11
108
 21
55.5331
  0
LINE
  8
0
 10
108
 20
55.5331
 11
108
 21
48
  0
LINE
  8
0
 10
108
 20
48
 11
108.046
 21
46.9541
  0
LINE
  8
0
 10
108.046
 20
46.9541
 11
108.182
 21
45.9162
  0
LINE
  8
0
 10
108.182
 20
45.9162
 11
108.409
 21
44.8942
  0
LINE
  8
0
 10
108.409
 20
44.8942
 11
108.724
 21
43.8958
  0
LINE
  8
0
 10
108.724
 20
43.8958
 11
109.124
 21
42.9286
  0
LINE
  8
0
 10
109.124
 20
42.9286
 11
109.608
 21
42
  0
LINE
  8
0
 10
109.608
 20
42
 11
110.17
 21
41.1171
  0
LINE
  8
0
 10
110.17
 20
41.1171
 11
110.807
 21
40.2865
  0
LINE
  8
0
 10
110.807
 20
40.2865
 11
111.515
 21
39.5147
  0
LINE
  8
0
 10
111.515
 20
39.5147
 11
112.287
 21
38.8075
  0
LINE
  8
0
 10
112.287
 20
38.8075
 11
113.117
 21
38.1702
  0
LINE
  8
0
 10
113.117
 20
38.1702
 11
114
 21
37.6077
  0
LINE
  8
0
 10
114
 20
37.6077
 11
114.929
 21
37.1243
  0
LINE
  8
0
 10
114.929
 20
37.1243
 11
115.896
 21
36.7237
  0
LINE
  8
0
 10
115.896
 20
36.7237
 11
116.894
 21
36.4089
  0
LINE
  8
0
 10
116.894
 20
36.4089
 11
117.916
 21
36.1823
  0
LINE
  8
0
 10
117.916
 20
36.1823
 11
118.954
 21
36.0457
  0
LINE
  8
0
 10
118.954
 20
36.0457
 11
120
 21
36
  0
LINE
  8
0
 10
120
 20
36
 11
121.046
 21
36.0457
  0
LINE
  8
0
 10
121.046
 20
36.0457
 11
122.084
 21
36.1823
  0
LINE
  8
0
 10
122.084
 20
36.1823
 11
123.106
 21
36.4089
  0
LINE
  8
0
 10
123.106
 20
36.4089
 11
124.104
 21
36.7237
  0
LINE
  8
0
 10
124.104
 20
36.7237
 11
125.071
 21
37.1243
  0
LINE
  8
0
 10
125.071
 20
37.1243
 11
126
 21
37.6077
  0
LINE
  8
0
 10
126
 20
37.6077
 11
126.883
 21
38.1702
  0
LINE
  8
0
 10
126.883
 20
38.1702
 11
127.713
 21
38.8075
  0
LINE
  8
0
 10
127.713
 20
38.8075
 11
128.485
 21
39.5147
  0
LINE
  8
0
 10
128.485
 20
39.5147
 11
129.193
 21
40.2865
  0
LINE
  8
0
 10
129.193
 20
40.2865
 11
129.83
 21
41.1171
  0
LINE
  8
0
 10
129.83
 20
41.1171
 11
130.392
 21
42
  0
LINE
  8
0
 10
130.392
 20
42
 11
130.876
 21
42.9286
  0
LINE
  8
0
 10
130.876
 20
42.9286
 11
131.276
 21
43.8958
  0
LINE
  8
0
 10
131.276
 20
43.8958
 11
131.591
 21
44.8942
  0
LINE
  8
0
 10
131.591
 20
44.8942
 11
131.818
 21
45.9162
  0
LINE
  8
0
 10
131.818
 20
45.9162
 11
131.954
 21
46.9541
  0
LINE
  8
0
 10
131.954
 20
46.9541
 11
132
 21
48
  0
LINE
  8
0
 10
132
 20
48
 11
132
 21
55.5331
  0
LINE
  8
0
 10
132
 20
55.5331
 11
131.785
 21
55.6145
  0
LINE
  8
0
 10
131.785
 20
55.6145
 11
131.587
 21
55.7515
  0
LINE
  8
0
 10
131.587
 20
55.7515
 11
131.427
 21
55.9319
  0
LINE
  8
0
 10
131.427
 20
55.9319
 11
131.315
 21
56.1454
  0
LINE
  8
0
 10
131.315
 20
56.1454
 11
131.257
 21
56.3795
  0
LINE
  8
0
 10
131.257
 20
56.3795
 11
131.257
 21
56.6205
  0
LINE
  8
0
 10
131.257
 20
56.6205
 11
131.315
 21
56.8546
  0
LINE
  8
0
 10
131.315
 20
56.8546
 11
131.427
 21
57.0681
  0
LINE
  8
0
 10
131.427
 20
57.0681
 11
131.587
 21
57.2485
  0
LINE
  8
0
 10
131.587
 20
57.2485
 11
131.785
 21
57.3855
  0
LINE
  8
0
 10
131.785
 20
57.3855
 11
132.011
 21
57.4709
  0
LINE
  8
0
 10
132.011
 20
57.4709
 11
132.25
 21
57.5
  0
LINE
  8
0
 10
132.25
 20
57.5
 11
132.489
 21
57.4709
  0
LINE
  8
0
 10
132.489
 20
57.4709
 11
132.715
 21
57.3855
  0
LINE
  8
0
 10
132.715
 20
57.3855
 11
132.913
 21
57.2485
  0
LINE
  8
0
 10
132.913
 20
57.2485
 11
133.073
 21
57.0681
  0
LINE
  8
0
 10
133.073
 20
57.0681
 11
133.185
 21
56.8546
  0
LINE
  8
0
 10
133.185
 20
56.8546
 11
133.243
 21
56.6205
  0
LINE
  8
0
 10
133.243
 20
56.6205
 11
133.243
 21
56.3795
  0
LINE
  8
0
 10
133.243
 20
56.3795
 11
133.185
 21
56.1454
  0
LINE
  8
0
 10
133.185
 20
56.1454
 11
133.073
 21
55.9319
  0
LINE
  8
0
 10
133.073
 20
55.9319
 11
132.913
 21
55.7515
  0
LINE
  8
0
 10
132.913
 20
55.7515
 11
132.715
 21
55.6145
  0
LINE
  8
0
 10
132.715
 20
55.6145
 11
132.5
 21
55.5331
  0
LINE
  8
0
 10
132.5
 20
55.5331
 11
132.5
 21
47.99
  0
LINE
  8
0
 10
132.5
 20
47.99
 11
132.5
 21
47.99
  0
LINE
  8
0
 10
132.5
 20
47.99
 11
132.452
 21
46.9106
  0
LINE
  8
0
 10
132.452
 20
46.9106
 11
132.31
 21
45.8294
  0
LINE
  8
0
 10
132.31
 20
45.8294
 11
132.074
 21
44.7648
  0
LINE
  8
0
 10
132.074
 20
44.7648
 11
131.746
 21
43.7247
  0
LINE
  8
0
 10
131.746
 20
43.7247
 11
131.329
 21
42.7173
  0
LINE
  8
0
 10
131.329
 20
42.7173
 11
130.825
 21
41.75
  0
LINE
  8
0
 10
130.825
 20
41.75
 11
130.239
 21
40.8303
  0
LINE
  8
0
 10
130.239
 20
40.8303
 11
129.576
 21
39.9651
  0
LINE
  8
0
 10
129.576
 20
39.9651
 11
128.839
 21
39.1612
  0
LINE
  8
0
 10
128.839
 20
39.1612
 11
128.035
 21
38.4244
  0
LINE
  8
0
 10
128.035
 20
38.4244
 11
127.17
 21
37.7606
  0
LINE
  8
0
 10
127.17
 20
37.7606
 11
126.25
 21
37.1747
  0
LINE
  8
0
 10
126.25
 20
37.1747
 11
125.283
 21
36.6711
  0
LINE
  8
0
 10
125.283
 20
36.6711
 11
124.275
 21
36.2538
  0
LINE
  8
0
 10
124.275
 20
36.2538
 11
123.235
 21
35.9259
  0
LINE
  8
0
 10
123.235
 20
35.9259
 11
122.171
 21
35.6899
  0
LINE
  8
0
 10
122.171
 20
35.6899
 11
121.089
 21
35.5476
  0
LINE
  8
0
 10
121.089
 20
35.5476
 11
120
 21
35.5
  0
LINE
  8
0
 10
120
 20
35.5
 11
118.911
 21
35.5476
  0
LINE
  8
0
 10
18.9106
 20
35.5476
 11
17.8294
 21
35.6899
  0
LINE
  8
0
 10
17.8294
 20
35.6899
 11
16.7648
 21
35.9259
  0
LINE
  8
0
 10
16.7648
 20
35.9259
 11
15.7247
 21
36.2538
  0
LINE
  8
0
 10
15.7247
 20
36.2538
 11
14.7173
 21
36.6711
  0
LINE
  8
0
 10
14.7173
 20
36.6711
 11
13.75
 21
37.1747
  0
LINE
  8
0
 10
13.75
 20
37.1747
 11
12.8303
 21
37.7606
  0
LINE
  8
0
 10
12.8303
 20
37.7606
 11
11.9651
 21
38.4244
  0
LINE
  8
0
 10
11.9651
 20
38.4244
 11
11.1612
 21
39.1612
  0
LINE
  8
0
 10
11.1612
 20
39.1612
 11
10.4244
 21
39.9651
  0
LINE
  8
0
 10
10.4244
 20
39.9651
 11
9.76059
 21
40.8303
  0
LINE
  8
0
 10
9.76059
 20
40.8303
 11
9.17468
 21
41.75
  0
LINE
  8
0
 10
9.17468
 20
41.75
 11
8.67114
 21
42.7173
  0
LINE
  8
0
 10
8.67114
 20
42.7173
 11
8.25383
 21
43.7247
  0
LINE
  8
0
 10
8.25383
 20
43.7247
 11
7.92592
 21
44.7648
  0
LINE
  8
0
 10
7.92592
 20
44.7648
 11
7.6899
 21
45.8294
  0
LINE
  8
0
 10
7.6899
 20
45.8294
 11
7.54756
 21
46.9106
  0
LINE
  8
0
 10
7.54756
 20
46.9106
 11
7.50043
 21
47.99
  0
LINE
  8
0
 10
7.50043
 20
47.99
 11
7.5
 21
47.99
  0
LINE
  8
0
 10
7.5
 20
47.99
 11
7.5
 21
55.5331
  0
LINE
  8
0
 10
7.5
 20
55.5331
 11
7.28526
 21
55.6145
  0
LINE
  8
0
 10
7.28526
 20
55.6145
 11
7.08687
 21
55.7515
  0
LINE
  8
0
 10
7.08687
 20
55.7515
 11
6.927
 21
55.9319
  0
LINE
  8
0
 10
6.927
 20
55.9319
 11
6.81497
 21
56.1454
  0
LINE
  8
0
 10
6.81497
 20
56.1454
 11
6.75728
 21
56.3795
  0
LINE
  8
0
 10
6.75728
 20
56.3795
 11
6.75728
 21
56.6205
  0
LINE
  8
0
 10
6.75728
 20
56.6205
 11
6.81497
 21
56.8546
  0
LINE
  8
0
 10
6.81497
 20
56.8546
 11
6.927
 21
57.0681
  0
LINE
  8
0
 10
6.927
 20
57.0681
 11
7.08687
 21
57.2485
  0
LINE
  8
0
 10
7.08687
 20
57.2485
 11
7.28526
 21
57.3855
  0
LINE
  8
0
 10
7.28526
 20
57.3855
 11
7.51068
 21
57.4709
  0
LINE
  8
0
 10
7.51068
 20
57.4709
 11
7.75
 21
57.5
  0
LINE
  8
0
 10
7.75
 20
57.5
 11
7.9893
 21
57.4709
  0
LINE
  8
0
 10
7.9893
 20
57.4709
 11
8.21472
 21
57.3855
  0
LINE
  8
0
 10
8.21472
 20
57.3855
 11
8.41312
 21
57.2485
  0
LINE
  8
0
 10
8.41312
 20
57.2485
 11
8.57298
 21
57.0681
  0
LINE
  8
0
 10
8.57298
 20
57.0681
 11
8.68501
 21
56.8546
  0
LINE
  8
0
 10
8.68501
 20
56.8546
 11
8.74271
 21
56.6205
  0
LINE
  8
0
 10
8.74271
 20
56.6205
 11
8.74271
 21
56.3795
  0
LINE
  8
0
 10
8.74271
 20
56.3795
 11
8.68501
 21
56.1454
  0
LINE
  8
0
 10
8.68501
 20
56.1454
 11
8.57298
 21
55.9319
  0
LINE
  8
0
 10
8.57298
 20
55.9319
 11
8.41312
 21
55.7515
  0
LINE
  8
0
 10
8.41312
 20
55.7515
 11
8.21472
 21
55.6145
  0
LINE
  8
0
 10
8.21472
 20
55.6145
 11
8
 21
55.5331
  0
LINE
  8
0
 10
8
 20
55.5331
 11
8
 21
48
  0
LINE
  8
0
 10
8
 20
48
 11
8.04565
 21
46.9541
  0
LINE
  8
0
 10
8.04565
 20
46.9541
 11
8.1823
 21
45.9162
  0
LINE
  8
0
 10
8.1823
 20
45.9162
 11
8.40889
 21
44.8942
  0
LINE
  8
0
 10
8.40889
 20
44.8942
 11
8.72368
 21
43.8958
  0
LINE
  8
0
 10
8.72368
 20
43.8958
 11
9.1243
 21
42.9286
  0
LINE
  8
0
 10
9.1243
 20
42.9286
 11
9.60768
 21
42
  0
LINE
  8
0
 10
9.60768
 20
42
 11
10.1702
 21
41.1171
  0
LINE
  8
0
 10
10.1702
 20
41.1171
 11
10.8075
 21
40.2865
  0
LINE
  8
0
 10
10.8075
 20
40.2865
 11
11.5147
 21
39.5147
  0
LINE
  8
0
 10
11.5147
 20
39.5147
 11
12.2865
 21
38.8075
  0
LINE
  8
0
 10
12.2865
 20
38.8075
 11
13.1171
 21
38.1702
  0
LINE
  8
0
 10
13.1171
 20
38.1702
 11
14
 21
37.6077
  0
LINE
  8
0
 10
14
 20
37.6077
 11
14.9286
 21
37.1243
  0
LINE
  8
0
 10
14.9286
 20
37.1243
 11
15.8958
 21
36.7237
  0
LINE
  8
0
 10
15.8958
 20
36.7237
 11
16.8942
 21
36.4089
  0
LINE
  8
0
 10
16.8942
 20
36.4089
 11
17.9162
 21
36.1823
  0
LINE
  8
0
 10
17.9162
 20
36.1823
 11
18.9541
 21
36.0457
  0
LINE
  8
0
 10
18.9541
 20
36.0457
 11
20
 21
36
  0
LINE
  8
0
 10
20
 20
36
 11
21.0459
 21
36.0457
  0
LINE
  8
0
 10
21.0459
 20
36.0457
 11
22.0838
 21
36.1823
  0
LINE
  8
0
 10
22.0838
 20
36.1823
 11
23.1058
 21
36.4089
  0
LINE
  8
0
 10
23.1058
 20
36.4089
 11
24.1042
 21
36.7237
  0
LINE
  8
0
 10
24.1042
 20
36.7237
 11
25.0714
 21
37.1243
  0
LINE
  8
0
 10
25.0714
 20
37.1243
 11
26
 21
37.6077
  0
LINE
  8
0
 10
26
 20
37.6077
 11
26.8829
 21
38.1702
  0
LINE
  8
0
 10
26.8829
 20
38.1702
 11
27.7134
 21
38.8075
  0
LINE
  8
0
 10
27.7134
 20
38.8075
 11
28.4853
 21
39.5147
  0
LINE
  8
0
 10
28.4853
 20
39.5147
 11
29.1925
 21
40.2865
  0
LINE
  8
0
 10
29.1925
 20
40.2865
 11
29.8298
 21
41.1171
  0
LINE
  8
0
 10
29.8298
 20
41.1171
 11
30.3923
 21
42
  0
LINE
  8
0
 10
30.3923
 20
42
 11
30.8757
 21
42.9286
  0
LINE
  8
0
 10
30.8757
 20
42.9286
 11
31.2763
 21
43.8958
  0
LINE
  8
0
 10
31.2763
 20
43.8958
 11
31.5911
 21
44.8942
  0
LINE
  8
0
 10
31.5911
 20
44.8942
 11
31.8177
 21
45.9162
  0
LINE
  8
0
 10
31.8177
 20
45.9162
 11
31.9543
 21
46.9541
  0
LINE
  8
0
 10
31.9543
 20
46.9541
 11
32
 21
48
  0
LINE
  8
0
 10
32
 20
48
 11
32
 21
55.5331
  0
LINE
  8
0
 10
32
 20
55.5331
 11
31.7853
 21
55.6145
  0
LINE
  8
0
 10
31.7853
 20
55.6145
 11
31.5869
 21
55.7515
  0
LINE
  8
0
 10
31.5869
 20
55.7515
 11
31.427
 21
55.9319
  0
LINE
  8
0
 10
31.427
 20
55.9319
 11
31.315
 21
56.1454
  0
LINE
  8
0
 10
31.315
 20
56.1454
 11
31.2573
 21
56.3795
  0
LINE
  8
0
 10
31.2573
 20
56.3795
 11
31.2573
 21
56.6205
  0
LINE
  8
0
 10
31.2573
 20
56.6205
 11
31.315
 21
56.8546
  0
LINE
  8
0
 10
31.315
 20
56.8546
 11
31.427
 21
57.0681
  0
LINE
  8
0
 10
31.427
 20
57.0681
 11
31.5869
 21
57.2485
  0
LINE
  8
0
 10
31.5869
 20
57.2485
 11
31.7853
 21
57.3855
  0
LINE
  8
0
 10
31.7853
 20
57.3855
 11
32.0107
 21
57.4709
  0
LINE
  8
0
 10
32.0107
 20
57.4709
 11
32.25
 21
57.5
  0
LINE
  8
0
 10
32.25
 20
57.5
 11
32.4893
 21
57.4709
  0
LINE
  8
0
 10
32.4893
 20
57.4709
 11
32.7147
 21
57.3855
  0
LINE
  8
0
 10
32.7147
 20
57.3855
 11
32.9131
 21
57.2485
  0
LINE
  8
0
 10
32.9131
 20
57.2485
 11
33.073
 21
57.0681
  0
LINE
  8
0
 10
33.073
 20
57.0681
 11
33.185
 21
56.8546
  0
LINE
  8
0
 10
33.185
 20
56.8546
 11
33.2427
 21
56.6205
  0
LINE
  8
0
 10
33.2427
 20
56.6205
 11
33.2427
 21
56.3795
  0
LINE
  8
0
 10
33.2427
 20
56.3795
 11
33.185
 21
56.1454
  0
LINE
  8
0
 10
33.185
 20
56.1454
 11
33.073
 21
55.9319
  0
LINE
  8
0
 10
33.073
 20
55.9319
 11
32.9131
 21
55.7515
  0
LINE
  8
0
 10
32.9131
 20
55.7515
 11
32.7147
 21
55.6145
  0
LINE
  8
0
 10
32.7147
 20
55.6145
 11
32.5
 21
55.5331
  0
LINE
  8
0
 10
32.5
 20
55.5331
 11
32.5
 21
47.99
  0
LINE
  8
0
 10
32.5
 20
47.99
 11
32.4996
 21
47.99
  0
LINE
  8
0
 10
32.4996
 20
47.99
 11
32.4524
 21
46.9106
  0
LINE
  8
0
 10
32.4524
 20
46.9106
 11
32.3101
 21
45.8294
  0
LINE
  8
0
 10
32.3101
 20
45.8294
 11
32.0741
 21
44.7648
  0
LINE
  8
0
 10
32.0741
 20
44.7648
 11
31.7462
 21
43.7247
  0
LINE
  8
0
 10
31.7462
 20
43.7247
 11
31.3288
 21
42.7173
  0
LINE
  8
0
 10
31.3288
 20
42.7173
 11
30.8253
 21
41.75
  0
LINE
  8
0
 10
30.8253
 20
41.75
 11
30.2394
 21
40.8303
  0
LINE
  8
0
 10
30.2394
 20
40.8303
 11
29.5755
 21
39.9651
  0
LINE
  8
0
 10
29.5755
 20
39.9651
 11
28.8388
 21
39.1612
  0
LINE
  8
0
 10
28.8388
 20
39.1612
 11
28.0348
 21
38.4244
  0
LINE
  8
0
 10
28.0348
 20
38.4244
 11
27.1697
 21
37.7606
  0
LINE
  8
0
 10
27.1697
 20
37.7606
 11
26.25
 21
37.1747
  0
LINE
  8
0
 10
26.25
 20
37.1747
 11
25.2827
 21
36.6711
  0
LINE
  8
0
 10
25.2827
 20
36.6711
 11
24.2752
 21
36.2538
  0
LINE
  8
0
 10
24.2752
 20
36.2538
 11
23.2352
 21
35.9259
  0
LINE
  8
0
 10
23.2352
 20
35.9259
 11
22.1706
 21
35.6899
  0
LINE
  8
0
 10
22.1706
 20
35.6899
 11
21.0894
 21
35.5476
  0
LINE
  8
0
 10
21.0894
 20
35.5476
 11
20
 21
35.5
  0
LINE
  8
0
 10
20
 20
35.5
 11
18.9106
 21
35.5476
  0
LINE
  8
0
 10
135.877
 20
30.2042
 11
135.634
 21
30.2376
  0
LINE
  8
0
 10
135.634
 20
30.2376
 11
135.397
 21
30.3039
  0
LINE
  8
0
 10
135.397
 20
30.3039
 11
135.172
 21
30.4018
  0
LINE
  8
0
 10
135.172
 20
30.4018
 11
134.962
 21
30.5294
  0
LINE
  8
0
 10
134.962
 20
30.5294
 11
134.771
 21
30.6845
  0
LINE
  8
0
 10
134.771
 20
30.6845
 11
134.604
 21
30.864
  0
LINE
  8
0
 10
134.604
 20
30.864
 11
134.462
 21
31.0647
  0
LINE
  8
0
 10
134.462
 20
31.0647
 11
134.349
 21
31.2829
  0
LINE
  8
0
 10
134.349
 20
31.2829
 11
134.267
 21
31.5144
  0
LINE
  8
0
 10
134.267
 20
31.5144
 11
134.217
 21
31.7549
  0
LINE
  8
0
 10
134.217
 20
31.7549
 11
134.2
 21
32
  0
LINE
  8
0
 10
134.2
 20
32
 11
134.217
 21
32.2451
  0
LINE
  8
0
 10
134.217
 20
32.2451
 11
134.267
 21
32.4856
  0
LINE
  8
0
 10
134.267
 20
32.4856
 11
134.349
 21
32.7171
  0
LINE
  8
0
 10
134.349
 20
32.7171
 11
134.462
 21
32.9352
  0
LINE
  8
0
 10
134.462
 20
32.9352
 11
134.604
 21
33.136
  0
LINE
  8
0
 10
134.604
 20
33.136
 11
134.771
 21
33.3155
  0
LINE
  8
0
 10
134.771
 20
33.3155
 11
134.962
 21
33.4705
  0
LINE
  8
0
 10
134.962
 20
33.4705
 11
135.172
 21
33.5982
  0
LINE
  8
0
 10
135.172
 20
33.5982
 11
135.397
 21
33.6961
  0
LINE
  8
0
 10
135.397
 20
33.6961
 11
135.634
 21
33.7623
  0
LINE
  8
0
 10
135.634
 20
33.7623
 11
135.877
 21
33.7958
  0
LINE
  8
0
 10
135.877
 20
33.7958
 11
136.123
 21
33.7958
  0
LINE
  8
0
 10
136.123
 20
33.7958
 11
136.366
 21
33.7623
  0
LINE
  8
0
 10
136.366
 20
33.7623
 11
136.603
 21
33.6961
  0
LINE
  8
0
 10
136.603
 20
33.6961
 11
136.828
 21
33.5982
  0
LINE
  8
0
 10
136.828
 20
33.5982
 11
137.038
 21
33.4705
  0
LINE
  8
0
 10
137.038
 20
33.4705
 11
137.229
 21
33.3155
  0
LINE
  8
0
 10
137.229
 20
33.3155
 11
137.396
 21
33.136
  0
LINE
  8
0
 10
137.396
 20
33.136
 11
137.538
 21
32.9352
  0
LINE
  8
0
 10
137.538
 20
32.9352
 11
137.651
 21
32.7171
  0
LINE
  8
0
 10
137.651
 20
32.7171
 11
137.733
 21
32.4856
  0
LINE
  8
0
 10
137.733
 20
32.4856
 11
137.783
 21
32.2451
  0
LINE
  8
0
 10
137.783
 20
32.2451
 11
137.8
 21
32
  0
LINE
  8
0
 10
137.8
 20
32
 11
137.783
 21
31.7549
  0
LINE
  8
0
 10
137.783
 20
31.7549
 11
137.733
 21
31.5144
  0
LINE
  8
0
 10
137.733
 20
31.5144
 11
137.651
 21
31.2829
  0
LINE
  8
0
 10
137.651
 20
31.2829
 11
137.538
 21
31.0647
  0
LINE
  8
0
 10
137.538
 20
31.0647
 11
137.396
 21
30.864
  0
LINE
  8
0
 10
137.396
 20
30.864
 11
137.229
 21
30.6845
  0
LINE
  8
0
 10
137.229
 20
30.6845
 11
137.038
 21
30.5294
  0
LINE
  8
0
 10
137.038
 20
30.5294
 11
136.828
 21
30.4018
  0
LINE
  8
0
 10
136.828
 20
30.4018
 11
136.603
 21
30.3039
  0
LINE
  8
0
 10
136.603
 20
30.3039
 11
136.366
 21
30.2376
  0
LINE
  8
0
 10
136.366
 20
30.2376
 11
136.123
 21
30.2042
  0
LINE
  8
0
 10
136.123
 20
30.2042
 11
135.877
 21
30.2042
  0
LINE
  8
0
 10
3.87715
 20
30.2042
 11
3.63377
 21
30.2376
  0
LINE
  8
0
 10
3.63377
 20
30.2376
 11
3.3972
 21
30.3039
  0
LINE
  8
0
 10
3.3972
 20
30.3039
 11
3.17188
 21
30.4018
  0
LINE
  8
0
 10
3.17188
 20
30.4018
 11
2.96198
 21
30.5294
  0
LINE
  8
0
 10
2.96198
 20
30.5294
 11
2.77139
 21
30.6845
  0
LINE
  8
0
 10
2.77139
 20
30.6845
 11
2.60371
 21
30.864
  0
LINE
  8
0
 10
2.60371
 20
30.864
 11
2.46204
 21
31.0647
  0
LINE
  8
0
 10
2.46204
 20
31.0647
 11
2.34901
 21
31.2829
  0
LINE
  8
0
 10
2.34901
 20
31.2829
 11
2.26674
 21
31.5144
  0
LINE
  8
0
 10
2.26674
 20
31.5144
 11
2.21675
 21
31.7549
  0
LINE
  8
0
 10
2.21675
 20
31.7549
 11
2.2
 21
32
  0
LINE
  8
0
 10
2.2
 20
32
 11
2.21675
 21
32.2451
  0
LINE
  8
0
 10
2.21675
 20
32.2451
 11
2.26674
 21
32.4856
  0
LINE
  8
0
 10
2.26674
 20
32.4856
 11
2.34901
 21
32.7171
  0
LINE
  8
0
 10
2.34901
 20
32.7171
 11
2.46204
 21
32.9352
  0
LINE
  8
0
 10
2.46204
 20
32.9352
 11
2.60371
 21
33.136
  0
LINE
  8
0
 10
2.60371
 20
33.136
 11
2.77139
 21
33.3155
  0
LINE
  8
0
 10
2.77139
 20
33.3155
 11
2.96198
 21
33.4705
  0
LINE
  8
0
 10
2.96198
 20
33.4705
 11
3.17188
 21
33.5982
  0
LINE
  8
0
 10
3.17188
 20
33.5982
 11
3.3972
 21
33.6961
  0
LINE
  8
0
 10
3.3972
 20
33.6961
 11
3.63377
 21
33.7623
  0
LINE
  8
0
 10
3.63377
 20
33.7623
 11
3.87715
 21
33.7958
  0
LINE
  8
0
 10
3.87715
 20
33.7958
 11
4.12283
 21
33.7958
  0
LINE
  8
0
 10
4.12283
 20
33.7958
 11
4.36621
 21
33.7623
  0
LINE
  8
0
 10
4.36621
 20
33.7623
 11
4.60278
 21
33.6961
  0
LINE
  8
0
 10
4.60278
 20
33.6961
 11
4.82811
 21
33.5982
  0
LINE
  8
0
 10
4.82811
 20
33.5982
 11
5.03801
 21
33.4705
  0
LINE
  8
0
 10
5.03801
 20
33.4705
 11
5.22859
 21
33.3155
  0
LINE
  8
0
 10
5.22859
 20
33.3155
 11
5.39627
 21
33.136
  0
LINE
  8
0
 10
5.39627
 20
33.136
 11
5.53795
 21
32.9352
  0
LINE
  8
0
 10
5.53795
 20
32.9352
 11
5.65097
 21
32.7171
  0
LINE
  8
0
 10
5.65097
 20
32.7171
 11
5.73325
 21
32.4856
  0
LINE
  8
0
 10
5.73325
 20
32.4856
 11
5.78323
 21
32.2451
  0
LINE
  8
0
 10
5.78323
 20
32.2451
 11
5.79999
 21
32
  0
LINE
  8
0
 10
5.79999
 20
32
 11
5.78323
 21
31.7549
  0
LINE
  8
0
 10
5.78323
 20
31.7549
 11
5.73325
 21
31.5144
  0
LINE
  8
0
 10
5.73325
 20
31.5144
 11
5.65097
 21
31.2829
  0
LINE
  8
0
 10
5.65097
 20
31.2829
 11
5.53795
 21
31.0647
  0
LINE
  8
0
 10
5.53795
 20
31.0647
 11
5.39627
 21
30.864
  0
LINE
  8
0
 10
5.39627
 20
30.864
 11
5.22859
 21
30.6845
  0
LINE
  8
0
 10
5.22859
 20
30.6845
 11
5.03801
 21
30.5294
  0
LINE
  8
0
 10
5.03801
 20
30.5294
 11
4.82811
 21
30.4018
  0
LINE
  8
0
 10
4.82811
 20
30.4018
 11
4.60278
 21
30.3039
  0
LINE
  8
0
 10
4.60278
 20
30.3039
 11
4.36621
 21
30.2376
  0
LINE
  8
0
 10
4.36621
 20
30.2376
 11
4.12283
 21
30.2042
  0
LINE
  8
0
 10
4.12283
 20
30.2042
 11
3.87715
 21
30.2042
  0
LINE
  8
0
 10
35.8772
 20
30.2042
 11
35.6338
 21
30.2376
  0
LINE
  8
0
 10
35.6338
 20
30.2376
 11
35.3972
 21
30.3039
  0
LINE
  8
0
 10
35.3972
 20
30.3039
 11
35.1719
 21
30.4018
  0
LINE
  8
0
 10
35.1719
 20
30.4018
 11
34.962
 21
30.5294
  0
LINE
  8
0
 10
34.962
 20
30.5294
 11
34.7714
 21
30.6845
  0
LINE
  8
0
 10
34.7714
 20
30.6845
 11
34.6037
 21
30.864
  0
LINE
  8
0
 10
34.6037
 20
30.864
 11
34.462
 21
31.0647
  0
LINE
  8
0
 10
34.462
 20
31.0647
 11
34.349
 21
31.2829
  0
LINE
  8
0
 10
34.349
 20
31.2829
 11
34.2667
 21
31.5144
  0
LINE
  8
0
 10
34.2667
 20
31.5144
 11
34.2168
 21
31.7549
  0
LINE
  8
0
 10
34.2168
 20
31.7549
 11
34.2
 21
32
  0
LINE
  8
0
 10
34.2
 20
32
 11
34.2168
 21
32.2451
  0
LINE
  8
0
 10
34.2168
 20
32.2451
 11
34.2667
 21
32.4856
  0
LINE
  8
0
 10
34.2667
 20
32.4856
 11
34.349
 21
32.7171
  0
LINE
  8
0
 10
34.349
 20
32.7171
 11
34.462
 21
32.9352
  0
LINE
  8
0
 10
34.462
 20
32.9352
 11
34.6037
 21
33.136
  0
LINE
  8
0
 10
34.6037
 20
33.136
 11
34.7714
 21
33.3155
  0
LINE
  8
0
 10
34.7714
 20
33.3155
 11
34.962
 21
33.4705
  0
LINE
  8
0
 10
34.962
 20
33.4705
 11
35.1719
 21
33.5982
  0
LINE
  8
0
 10
35.1719
 20
33.5982
 11
35.3972
 21
33.6961
  0
LINE
  8
0
 10
35.3972
 20
33.6961
 11
35.6338
 21
33.7623
  0
LINE
  8
0
 10
35.6338
 20
33.7623
 11
35.8772
 21
33.7958
  0
LINE
  8
0
 10
35.8772
 20
33.7958
 11
36.1228
 21
33.7958
  0
LINE
  8
0
 10
36.1228
 20
33.7958
 11
36.3662
 21
33.7623
  0
LINE
  8
0
 10
36.3662
 20
33.7623
 11
36.6028
 21
33.6961
  0
LINE
  8
0
 10
36.6028
 20
33.6961
 11
36.8281
 21
33.5982
  0
LINE
  8
0
 10
36.8281
 20
33.5982
 11
37.038
 21
33.4705
  0
LINE
  8
0
 10
37.038
 20
33.4705
 11
37.2286
 21
33.3155
  0
LINE
  8
0
 10
37.2286
 20
33.3155
 11
37.3963
 21
33.136
  0
LINE
  8
0
 10
37.3963
 20
33.136
 11
37.5379
 21
32.9352
  0
LINE
  8
0
 10
37.5379
 20
32.9352
 11
37.651
 21
32.7171
  0
LINE
  8
0
 10
37.651
 20
32.7171
 11
37.7332
 21
32.4856
  0
LINE
  8
0
 10
37.7332
 20
32.4856
 11
37.7832
 21
32.2451
  0
LINE
  8
0
 10
37.7832
 20
32.2451
 11
37.8
 21
32
  0
LINE
  8
0
 10
37.8
 20
32
 11
37.7832
 21
31.7549
  0
LINE
  8
0
 10
37.7832
 20
31.7549
 11
37.7332
 21
31.5144
  0
LINE
  8
0
 10
37.7332
 20
31.5144
 11
37.651
 21
31.2829
  0
LINE
  8
0
 10
37.651
 20
31.2829
 11
37.5379
 21
31.0647
  0
LINE
  8
0
 10
37.5379
 20
31.0647
 11
37.3963
 21
30.864
  0
LINE
  8
0
 10
37.3963
 20
30.864
 11
37.2286
 21
30.6845
  0
LINE
  8
0
 10
37.2286
 20
30.6845
 11
37.038
 21
30.5294
  0
LINE
  8
0
 10
37.038
 20
30.5294
 11
36.8281
 21
30.4018
  0
LINE
  8
0
 10
36.8281
 20
30.4018
 11
36.6028
 21
30.3039
  0
LINE
  8
0
 10
36.6028
 20
30.3039
 11
36.3662
 21
30.2376
  0
LINE
  8
0
 10
36.3662
 20
30.2376
 11
36.1228
 21
30.2042
  0
LINE
  8
0
 10
36.1228
 20
30.2042
 11
35.8772
 21
30.2042
  0
LINE
  8
0
 10
101.877
 20
30.2042
 11
101.634
 21
30.2376
  0
LINE
  8
0
 10
101.634
 20
30.2376
 11
101.397
 21
30.3039
  0
LINE
  8
0
 10
101.397
 20
30.3039
 11
101.172
 21
30.4018
  0
LINE
  8
0
 10
101.172
 20
30.4018
 11
100.962
 21
30.5294
  0
LINE
  8
0
 10
100.962
 20
30.5294
 11
100.771
 21
30.6845
  0
LINE
  8
0
 10
100.771
 20
30.6845
 11
100.604
 21
30.864
  0
LINE
  8
0
 10
100.604
 20
30.864
 11
100.462
 21
31.0647
  0
LINE
  8
0
 10
100.462
 20
31.0647
 11
100.349
 21
31.2829
  0
LINE
  8
0
 10
100.349
 20
31.2829
 11
100.267
 21
31.5144
  0
LINE
  8
0
 10
100.267
 20
31.5144
 11
100.217
 21
31.7549
  0
LINE
  8
0
 10
100.217
 20
31.7549
 11
100.2
 21
32
  0
LINE
  8
0
 10
100.2
 20
32
 11
100.217
 21
32.2451
  0
LINE
  8
0
 10
100.217
 20
32.2451
 11
100.267
 21
32.4856
  0
LINE
  8
0
 10
100.267
 20
32.4856
 11
100.349
 21
32.7171
  0
LINE
  8
0
 10
100.349
 20
32.7171
 11
100.462
 21
32.9352
  0
LINE
  8
0
 10
100.462
 20
32.9352
 11
100.604
 21
33.136
  0
LINE
  8
0
 10
100.604
 20
33.136
 11
100.771
 21
33.3155
  0
LINE
  8
0
 10
100.771
 20
33.3155
 11
100.962
 21
33.4705
  0
LINE
  8
0
 10
100.962
 20
33.4705
 11
101.172
 21
33.5982
  0
LINE
  8
0
 10
101.172
 20
33.5982
 11
101.397
 21
33.6961
  0
LINE
  8
0
 10
101.397
 20
33.6961
 11
101.634
 21
33.7623
  0
LINE
  8
0
 10
101.634
 20
33.7623
 11
101.877
 21
33.7958
  0
LINE
  8
0
 10
101.877
 20
33.7958
 11
102.123
 21
33.7958
  0
LINE
  8
0
 10
102.123
 20
33.7958
 11
102.366
 21
33.7623
  0
LINE
  8
0
 10
102.366
 20
33.7623
 11
102.603
 21
33.6961
  0
LINE
  8
0
 10
102.603
 20
33.6961
 11
102.828
 21
33.5982
  0
LINE
  8
0
 10
102.828
 20
33.5982
 11
103.038
 21
33.4705
  0
LINE
  8
0
 10
103.038
 20
33.4705
 11
103.229
 21
33.3155
  0
LINE
  8
0
 10
103.229
 20
33.3155
 11
103.396
 21
33.136
  0
LINE
  8
0
 10
103.396
 20
33.136
 11
103.538
 21
32.9352
  0
LINE
  8
0
 10
103.538
 20
32.9352
 11
103.651
 21
32.7171
  0
LINE
  8
0
 10
103.651
 20
32.7171
 11
103.733
 21
32.4856
  0
LINE
  8
0
 10
103.733
 20
32.4856
 11
103.783
 21
32.2451
  0
LINE
  8
0
 10
103.783
 20
32.2451
 11
103.8
 21
32
  0
LINE
  8
0
 10
103.8
 20
32
 11
103.783
 21
31.7549
  0
LINE
  8
0
 10
103.783
 20
31.7549
 11
103.733
 21
31.5144
  0
LINE
  8
0
 10
103.733
 20
31.5144
 11
103.651
 21
31.2829
  0
LINE
  8
0
 10
103.651
 20
31.2829
 11
103.538
 21
31.0647
  0
LINE
  8
0
 10
103.538
 20
31.0647
 11
103.396
 21
30.864
  0
LINE
  8
0
 10
103.396
 20
30.864
 11
103.229
 21
30.6845
  0
LINE
  8
0
 10
103.229
 20
30.6845
 11
103.038
 21
30.5294
  0
LINE
  8
0
 10
103.038
 20
30.5294
 11
102.828
 21
30.4018
  0
LINE
  8
0
 10
102.828
 20
30.4018
 11
102.603
 21
30.3039
  0
LINE
  8
0
 10
102.603
 20
30.3039
 11
102.366
 21
30.2376
  0
LINE
  8
0
 10
102.366
 20
30.2376
 11
102.123
 21
30.2042
  0
LINE
  8
0
 10
102.123
 20
30.2042
 11
101.877
 21
30.2042
  0
LINE
  8
0
 10
67.8772
 20
30.2042
 11
67.6338
 21
30.2376
  0
LINE
  8
0
 10
67.6338
 20
30.2376
 11
67.3972
 21
30.3039
  0
LINE
  8
0
 10
67.3972
 20
30.3039
 11
67.1719
 21
30.4018
  0
LINE
  8
0
 10
67.1719
 20
30.4018
 11
66.962
 21
30.5294
  0
LINE
  8
0
 10
66.962
 20
30.5294
 11
66.7714
 21
30.6845
  0
LINE
  8
0
 10
66.7714
 20
30.6845
 11
66.6037
 21
30.864
  0
LINE
  8
0
 10
66.6037
 20
30.864
 11
66.462
 21
31.0647
  0
LINE
  8
0
 10
66.462
 20
31.0647
 11
66.349
 21
31.2829
  0
LINE
  8
0
 10
66.349
 20
31.2829
 11
66.2667
 21
31.5144
  0
LINE
  8
0
 10
66.2667
 20
31.5144
 11
66.2168
 21
31.7549
  0
LINE
  8
0
 10
66.2168
 20
31.7549
 11
66.2
 21
32
  0
LINE
  8
0
 10
66.2
 20
32
 11
66.2168
 21
32.2451
  0
LINE
  8
0
 10
66.2168
 20
32.2451
 11
66.2667
 21
32.4856
  0
LINE
  8
0
 10
66.2667
 20
32.4856
 11
66.349
 21
32.7171
  0
LINE
  8
0
 10
66.349
 20
32.7171
 11
66.462
 21
32.9352
  0
LINE
  8
0
 10
66.462
 20
32.9352
 11
66.6037
 21
33.136
  0
LINE
  8
0
 10
66.6037
 20
33.136
 11
66.7714
 21
33.3155
  0
LINE
  8
0
 10
66.7714
 20
33.3155
 11
66.962
 21
33.4705
  0
LINE
  8
0
 10
66.962
 20
33.4705
 11
67.1719
 21
33.5982
  0
LINE
  8
0
 10
67.1719
 20
33.5982
 11
67.3972
 21
33.6961
  0
LINE
  8
0
 10
67.3972
 20
33.6961
 11
67.6338
 21
33.7623
  0
LINE
  8
0
 10
67.6338
 20
33.7623
 11
67.8772
 21
33.7958
  0
LINE
  8
0
 10
67.8772
 20
33.7958
 11
68.1228
 21
33.7958
  0
LINE
  8
0
 10
68.1228
 20
33.7958
 11
68.3662
 21
33.7623
  0
LINE
  8
0
 10
68.3662
 20
33.7623
 11
68.6028
 21
33.6961
  0
LINE
  8
0
 10
68.6028
 20
33.6961
 11
68.8281
 21
33.5982
  0
LINE
  8
0
 10
68.8281
 20
33.5982
 11
69.038
 21
33.4705
  0
LINE
  8
0
 10
69.038
 20
33.4705
 11
69.2286
 21
33.3155
  0
LINE
  8
0
 10
69.2286
 20
33.3155
 11
69.3963
 21
33.136
  0
LINE
  8
0
 10
69.3963
 20
33.136
 11
69.5379
 21
32.9352
  0
LINE
  8
0
 10
69.5379
 20
32.9352
 11
69.651
 21
32.7171
  0
LINE
  8
0
 10
69.651
 20
32.7171
 11
69.7332
 21
32.4856
  0
LINE
  8
0
 10
69.7332
 20
32.4856
 11
69.7832
 21
32.2451
  0
LINE
  8
0
 10
69.7832
 20
32.2451
 11
69.8
 21
32
  0
LINE
  8
0
 10
69.8
 20
32
 11
69.7832
 21
31.7549
  0
LINE
  8
0
 10
69.7832
 20
31.7549
 11
69.7332
 21
31.5144
  0
LINE
  8
0
 10
69.7332
 20
31.5144
 11
69.651
 21
31.2829
  0
LINE
  8
0
 10
69.651
 20
31.2829
 11
69.5379
 21
31.0647
  0
LINE
  8
0
 10
69.5379
 20
31.0647
 11
69.3963
 21
30.864
  0
LINE
  8
0
 10
69.3963
 20
30.864
 11
69.2286
 21
30.6845
  0
LINE
  8
0
 10
69.2286
 20
30.6845
 11
69.038
 21
30.5294
  0
LINE
  8
0
 10
69.038
 20
30.5294
 11
68.8281
 21
30.4018
  0
LINE
  8
0
 10
68.8281
 20
30.4018
 11
68.6028
 21
30.3039
  0
LINE
  8
0
 10
68.6028
 20
30.3039
 11
68.3662
 21
30.2376
  0
LINE
  8
0
 10
68.3662
 20
30.2376
 11
68.1228
 21
30.2042
  0
LINE
  8
0
 10
68.1228
 20
30.2042
 11
67.8772
 21
30.2042
  0
ENDSEC
  0
SECTION
  2
OBJECTS
  0
DICTIONARY
  0
ENDSEC
  0
EOF
