  0
SECTION
  2
HEADER
  9
$ACADVER
  1
AC1014
  9
$ACADMAINTVER
 70
     9
  9
$DWGCODEPAGE
  3
ANSI_1252
  9
$INSBASE
 10
0.0
 20
0.0
 30
0.0
  9
$EXTMIN
 10
1.000000000000000E+20
 20
1.000000000000000E+20
 30
1.000000000000000E+20
  9
$EXTMAX
 10
-1.000000000000000E+20
 20
-1.000000000000000E+20
 30
-1.000000000000000E+20
  9
$LIMMIN
 10
0.0
 20
0.0
  9
$LIMMAX
 10
12.0
 20
9.0
  9
$ORTHOMODE
 70
     0
  9
$REGENMODE
 70
     1
  9
$FILLMODE
 70
     1
  9
$QTEXTMODE
 70
     0
  9
$MIRRTEXT
 70
     1
  9
$DRAGMODE
 70
     2
  9
$LTSCALE
 40
1.0
  9
$OSMODE
 70
    37
  9
$ATTMODE
 70
     1
  9
$TEXTSIZE
 40
0.2
  9
$TRACEWID
 40
0.05
  9
$TEXTSTYLE
  7
STANDARD
  9
$CLAYER
  8
0
  9
$CELTYPE
  6
BYLAYER
  9
$CECOLOR
 62
   256
  9
$CELTSCALE
 40
1.0
  9
$DELOBJ
 70
     1
  9
$DISPSILH
 70
     0
  9
$DIMSCALE
 40
1.0
  9
$DIMASZ
 40
0.18
  9
$DIMEXO
 40
0.0625
  9
$DIMDLI
 40
0.38
  9
$DIMRND
 40
0.0
  9
$DIMDLE
 40
0.0
  9
$DIMEXE
 40
0.18
  9
$DIMTP
 40
0.0
  9
$DIMTM
 40
0.0
  9
$DIMTXT
 40
0.18
  9
$DIMCEN
 40
0.09
  9
$DIMTSZ
 40
0.0
  9
$DIMTOL
 70
     0
  9
$DIMLIM
 70
     0
  9
$DIMTIH
 70
     1
  9
$DIMTOH
 70
     1
  9
$DIMSE1
 70
     0
  9
$DIMSE2
 70
     0
  9
$DIMTAD
 70
     0
  9
$DIMZIN
 70
     0
  9
$DIMBLK
  1

  9
$DIMASO
 70
     1
  9
$DIMSHO
 70
     1
  9
$DIMPOST
  1

  9
$DIMAPOST
  1

  9
$DIMALT
 70
     0
  9
$DIMALTD
 70
     2
  9
$DIMALTF
 40
0.0393700787401575
  9
$DIMLFAC
 40
1.0
  9
$DIMTOFL
 70
     0
  9
$DIMTVP
 40
0.0
  9
$DIMTIX
 70
     0
  9
$DIMSOXD
 70
     0
  9
$DIMSAH
 70
     0
  9
$DIMBLK1
  1

  9
$DIMBLK2
  1

  9
$DIMSTYLE
  2
STANDARD
  9
$DIMCLRD
 70
     0
  9
$DIMCLRE
 70
     0
  9
$DIMCLRT
 70
     0
  9
$DIMTFAC
 40
1.0
  9
$DIMGAP
 40
0.09
  9
$DIMJUST
 70
     0
  9
$DIMSD1
 70
     0
  9
$DIMSD2
 70
     0
  9
$DIMTOLJ
 70
     1
  9
$DIMTZIN
 70
     0
  9
$DIMALTZ
 70
     0
  9
$DIMALTTZ
 70
     0
  9
$DIMFIT
 70
     3
  9
$DIMUPT
 70
     0
  9
$DIMUNIT
 70
     2
  9
$DIMDEC
 70
     4
  9
$DIMTDEC
 70
     4
  9
$DIMALTU
 70
     2
  9
$DIMALTTD
 70
     2
  9
$DIMTXSTY
  7
STANDARD
  9
$DIMAUNIT
 70
     0
  9
$LUNITS
 70
     2
  9
$LUPREC
 70
     4
  9
$SKETCHINC
 40
0.1
  9
$FILLETRAD
 40
0.5
  9
$AUNITS
 70
     0
  9
$AUPREC
 70
     0
  9
$MENU
  1
.
  9
$ELEVATION
 40
0.0
  9
$PELEVATION
 40
0.0
  9
$THICKNESS
 40
0.0
  9
$LIMCHECK
 70
     0
  9
$CHAMFERA
 40
0.0
  9
$CHAMFERB
 40
0.0
  9
$CHAMFERC
 40
0.0
  9
$CHAMFERD
 40
0.0
  9
$SKPOLY
 70
     0
  9
$TDCREATE
 40
2458963.578851435
  9
$TDUPDATE
 40
2458963.578851516
  9
$TDINDWG
 40
0.0000000116
  9
$TDUSRTIMER
 40
0.0000000116
  9
$USRTIMER
 70
     1
  9
$ANGBASE
 50
0.0
  9
$ANGDIR
 70
     0
  9
$PDMODE
 70
     0
  9
$PDSIZE
 40
0.0
  9
$PLINEWID
 40
0.0
  9
$COORDS
 70
     1
  9
$SPLFRAME
 70
     0
  9
$SPLINETYPE
 70
     6
  9
$SPLINESEGS
 70
     8
  9
$ATTDIA
 70
     0
  9
$ATTREQ
 70
     1
  9
$HANDLING
 70
     1
  9
$HANDSEED
  5
100002D2
  9
$SURFTAB1
 70
     6
  9
$SURFTAB2
 70
     6
  9
$SURFTYPE
 70
     6
  9
$SURFU
 70
     6
  9
$SURFV
 70
     6
  9
$UCSNAME
  2

  9
$UCSORG
 10
0.0
 20
0.0
 30
0.0
  9
$UCSXDIR
 10
1.0
 20
0.0
 30
0.0
  9
$UCSYDIR
 10
0.0
 20
1.0
 30
0.0
  9
$PUCSNAME
  2

  9
$PUCSORG
 10
0.0
 20
0.0
 30
0.0
  9
$PUCSXDIR
 10
1.0
 20
0.0
 30
0.0
  9
$PUCSYDIR
 10
0.0
 20
1.0
 30
0.0
  9
$USERI1
 70
     0
  9
$USERI2
 70
     0
  9
$USERI3
 70
     0
  9
$USERI4
 70
     0
  9
$USERI5
 70
     0
  9
$USERR1
 40
0.0
  9
$USERR2
 40
0.0
  9
$USERR3
 40
0.0
  9
$USERR4
 40
0.0
  9
$USERR5
 40
0.0
  9
$WORLDVIEW
 70
     1
  9
$SHADEDGE
 70
     3
  9
$SHADEDIF
 70
    70
  9
$TILEMODE
 70
     1
  9
$MAXACTVP
 70
    64
  9
$PINSBASE
 10
0.0
 20
0.0
 30
0.0
  9
$PLIMCHECK
 70
     0
  9
$PEXTMIN
 10
1.000000000000000E+20
 20
1.000000000000000E+20
 30
1.000000000000000E+20
  9
$PEXTMAX
 10
-1.000000000000000E+20
 20
-1.000000000000000E+20
 30
-1.000000000000000E+20
  9
$PLIMMIN
 10
0.0
 20
0.0
  9
$PLIMMAX
 10
12.0
 20
9.0
  9
$UNITMODE
 70
     0
  9
$VISRETAIN
 70
     1
  9
$PLINEGEN
 70
     0
  9
$PSLTSCALE
 70
     1
  9
$TREEDEPTH
 70
  3020
  9
$PICKSTYLE
 70
     1
  9
$CMLSTYLE
  2
STANDARD
  9
$CMLJUST
 70
     0
  9
$CMLSCALE
 40
1.0
  9
$PROXYGRAPHICS
 70
     1
  9
$MEASUREMENT
 70
     0
  0
ENDSEC
  0
SECTION
  2
CLASSES
  0
CLASS
  1
ACDBDICTIONARYWDFLT
  2
AcDbDictionaryWithDefault
  3
ObjectDBX Classes
 90
        0
280
     0
281
     0
  0
CLASS
  1
VISUALSTYLE
  2
AcDbVisualStyle
  3
ObjectDBX Classes
 90
     4095
280
     0
281
     0
  0
CLASS
  1
MATERIAL
  2
AcDbMaterial
  3
ObjectDBX Classes
 90
     1153
280
     0
281
     0
  0
CLASS
  1
SCALE
  2
AcDbScale
  3
ObjectDBX Classes
 90
     1153
280
     0
281
     0
  0
CLASS
  1
TABLESTYLE
  2
AcDbTableStyle
  3
ObjectDBX Classes
 90
     4095
280
     0
281
     0
  0
CLASS
  1
MLEADERSTYLE
  2
AcDbMLeaderStyle
  3
ACDB_MLEADERSTYLE_CLASS
 90
     4095
280
     0
281
     0
  0
CLASS
  1
SUN
  2
AcDbSun
  3
SCENEOE
 90
     1153
280
     0
281
     0
  0
CLASS
  1
SORTENTSTABLE
  2
AcDbSortentsTable
  3
ObjectDBX Classes
 90
        0
280
     0
281
     0
  0
CLASS
  1
DICTIONARYVAR
  2
AcDbDictionaryVar
  3
ObjectDBX Classes
 90
        0
280
     0
281
     0
  0
CLASS
  1
XRECORD
  2
AcDbXrecord
  3
ObjectDBX Classes
 90
        0
280
     0
281
     0
  0
CLASS
  1
LWPOLYLINE
  2
AcDbPolyline
  3
ObjectDBX Classes
 90
        0
280
     0
281
     1
  0
CLASS
  1
HATCH
  2
AcDbHatch
  3
ObjectDBX Classes
 90
        0
280
     0
281
     1
  0
CLASS
  1
ACDBPLACEHOLDER
  2
AcDbPlaceHolder
  3
ObjectDBX Classes
 90
        0
280
     0
281
     0
  0
CLASS
  1
LAYOUT
  2
AcDbLayout
  3
ObjectDBX Classes
 90
        0
280
     0
281
     0
  0
ENDSEC
  0
SECTION
  2
TABLES
  0
TABLE
  2
VPORT
  5
8
102
{ACAD_XDICTIONARY
360
100002C7
102
}
330
0
100
AcDbSymbolTable
 70
     1
  0
VPORT
  5
29
330
8
100
AcDbSymbolTableRecord
100
AcDbViewportTableRecord
  2
*ACTIVE
 70
     0
 10
0.0
 20
0.0
 11
1.0
 21
1.0
 12
10.42990654205607
 22
4.5
 13
0.0
 23
0.0
 14
0.5
 24
0.5
 15
0.5
 25
0.5
 16
0.0
 26
0.0
 36
1.0
 17
0.0
 27
0.0
 37
0.0
 40
9.0
 41
1.972972972850329
 42
50.0
 43
0.0
 44
0.0
 50
0.0
 51
0.0
 71
     0
 72
   100
 73
     1
 74
     3
 75
     0
 76
     0
 77
     0
 78
     0
  0
ENDTAB
  0
TABLE
  2
LTYPE
  5
5
330
0
100
AcDbSymbolTable
 70
     7
  0
LTYPE
  5
14
330
5
100
AcDbSymbolTableRecord
100
AcDbLinetypeTableRecord
  2
BYBLOCK
 70
     0
  3

 72
    65
 73
     0
 40
0.0
  0
LTYPE
  5
15
330
5
100
AcDbSymbolTableRecord
100
AcDbLinetypeTableRecord
  2
BYLAYER
 70
     0
  3

 72
    65
 73
     0
 40
0.0
  0
LTYPE
  5
16
330
5
100
AcDbSymbolTableRecord
100
AcDbLinetypeTableRecord
  2
CONTINUOUS
 70
     0
  3
Solid line
 72
    65
 73
     0
 40
0.0
  0
LTYPE
  5
10000024
330
5
100
AcDbSymbolTableRecord
100
AcDbLinetypeTableRecord
  2
ONS_PHANTOM
 70
     0
  3
Onshape Phantom line ______ __ __ ______
 72
    65
 73
     6
 40
0.4999999999999999
 49
0.25
 74
     0
 49
-0.05
 74
     0
 49
0.05
 74
     0
 49
-0.05
 74
     0
 49
0.05
 74
     0
 49
-0.05
 74
     0
  0
LTYPE
  5
10000025
330
5
100
AcDbSymbolTableRecord
100
AcDbLinetypeTableRecord
  2
CENTER
 70
     0
  3
Center line ____ _ ____ _ ____ _
 72
    65
 73
     4
 40
0.7199999999999999
 49
0.45
 74
     0
 49
-0.09
 74
     0
 49
0.09
 74
     0
 49
-0.09
 74
     0
  0
LTYPE
  5
10000026
330
5
100
AcDbSymbolTableRecord
100
AcDbLinetypeTableRecord
  2
DASHED
 70
     0
  3
Dashed line __ __ __ __ __
 72
    65
 73
     2
 40
0.75
 49
0.5
 74
     0
 49
-0.25
 74
     0
  0
LTYPE
  5
10000027
330
5
100
AcDbSymbolTableRecord
100
AcDbLinetypeTableRecord
  2
ONS_DASHDOT
 70
     0
  3
Onshape Dashed with Dot _ . ____ . ____
 72
    65
 73
     4
 40
0.71
 49
0.5
 74
     0
 49
-0.1
 74
     0
 49
0.01
 74
     0
 49
-0.1
 74
     0
  0
LTYPE
  5
10000028
330
5
100
AcDbSymbolTableRecord
100
AcDbLinetypeTableRecord
  2
ONS_DOTTED
 70
     0
  3
Onshape Dotted line . . . . . . .
 72
    65
 73
     2
 40
0.11
 49
0.01
 74
     0
 49
-0.1
 74
     0
  0
LTYPE
  5
10000029
330
5
100
AcDbSymbolTableRecord
100
AcDbLinetypeTableRecord
  2
HIDDEN
 70
     0
  3
Hidden line ____ ____ ____ ____ 
 72
    65
 73
     2
 40
0.15
 49
0.1
 74
     0
 49
-0.05
 74
     0
  0
ENDTAB
  0
TABLE
  2
LAYER
  5
2
330
0
100
AcDbSymbolTable
 70
    36
  0
LAYER
  5
10
330
2
100
AcDbSymbolTableRecord
100
AcDbLayerTableRecord
  2
0
 70
     0
 62
     7
  6
CONTINUOUS
  0
LAYER
  5
1000002A
330
2
100
AcDbSymbolTableRecord
100
AcDbLayerTableRecord
  2
SECTION_CUTTING_LINE
 70
     0
 62
     7
  6
ONS_PHANTOM
  0
LAYER
  5
1000002B
330
2
100
AcDbSymbolTableRecord
100
AcDbLayerTableRecord
  2
DETAIL_VIEW_BORDER
 70
     0
 62
     7
  6
CONTINUOUS
  0
LAYER
  5
1000002C
330
2
100
AcDbSymbolTableRecord
100
AcDbLayerTableRecord
  2
DETAIL_VIEW_PARENT_BORDER
 70
     0
 62
     7
  6
ONS_PHANTOM
  0
LAYER
  5
1000002D
330
2
100
AcDbSymbolTableRecord
100
AcDbLayerTableRecord
  2
TEXT
 70
     0
 62
     7
  6
CONTINUOUS
  0
LAYER
  5
1000002E
330
2
100
AcDbSymbolTableRecord
100
AcDbLayerTableRecord
  2
SKETCHED_GEOMETRY
 70
     0
 62
    -7
  6
CONTINUOUS
  0
LAYER
  5
1000002F
330
2
100
AcDbSymbolTableRecord
100
AcDbLayerTableRecord
  2
VIRTUAL_SHARPS
 70
     0
 62
    -7
  6
CONTINUOUS
  0
LAYER
  5
10000030
330
2
100
AcDbSymbolTableRecord
100
AcDbLayerTableRecord
  2
CENTERLINES
 70
     0
 62
    -7
  6
CENTER
  0
LAYER
  5
10000031
330
2
100
AcDbSymbolTableRecord
100
AcDbLayerTableRecord
  2
CENTERMARKS
 70
     0
 62
    -7
  6
CONTINUOUS
  0
LAYER
  5
10000032
330
2
100
AcDbSymbolTableRecord
100
AcDbLayerTableRecord
  2
TABLES
 70
     0
 62
     7
  6
CONTINUOUS
  0
LAYER
  5
10000033
330
2
100
AcDbSymbolTableRecord
100
AcDbLayerTableRecord
  2
IMAGES
 70
     0
 62
    -7
  6
CONTINUOUS
  0
LAYER
  5
10000034
330
2
100
AcDbSymbolTableRecord
100
AcDbLayerTableRecord
  2
ANNOTATION_LINES
 70
     0
 62
    -7
  6
CONTINUOUS
  0
LAYER
  5
10000035
330
2
100
AcDbSymbolTableRecord
100
AcDbLayerTableRecord
  2
ANNOTATION_TEXT
 70
     0
 62
    -7
  6
CONTINUOUS
  0
LAYER
  5
10000036
330
2
100
AcDbSymbolTableRecord
100
AcDbLayerTableRecord
  2
SIDE_THREAD_SYMBOLS
 70
     0
 62
     7
  6
HIDDEN
  0
LAYER
  5
10000037
330
2
100
AcDbSymbolTableRecord
100
AcDbLayerTableRecord
  2
SIDE_THREAD_SYMBOLS_HIDDEN
 70
     0
 62
    -7
  6
HIDDEN
  0
LAYER
  5
10000038
330
2
100
AcDbSymbolTableRecord
100
AcDbLayerTableRecord
  2
SURFACE_THREAD_SYMBOLS
 70
     0
 62
     7
  6
HIDDEN
  0
LAYER
  5
10000039
330
2
100
AcDbSymbolTableRecord
100
AcDbLayerTableRecord
  2
SURFACE_THREAD_SYMBOLS_ON_
 70
     0
 62
     7
  6
HIDDEN
  0
LAYER
  5
1000003A
330
2
100
AcDbSymbolTableRecord
100
AcDbLayerTableRecord
  2
SURFACE_THREAD_SYMBOLS_HID
 70
     0
 62
    -7
  6
HIDDEN
  0
LAYER
  5
1000003B
330
2
100
AcDbSymbolTableRecord
100
AcDbLayerTableRecord
  2
BLIND_THREAD_SYMBOLS
 70
     0
 62
     7
  6
CONTINUOUS
  0
LAYER
  5
1000003C
330
2
100
AcDbSymbolTableRecord
100
AcDbLayerTableRecord
  2
BLIND_THREAD_SYMBOLS_HIDDE
 70
     0
 62
    -7
  6
HIDDEN
  0
LAYER
  5
1000003D
330
2
100
AcDbSymbolTableRecord
100
AcDbLayerTableRecord
  2
EXPLODE_LINES
 70
     0
 62
     7
  6
CONTINUOUS
  0
LAYER
  5
1000003E
330
2
100
AcDbSymbolTableRecord
100
AcDbLayerTableRecord
  2
BREAK_LINES
 70
     0
 62
    -7
  6
CONTINUOUS
  0
LAYER
  5
1000003F
330
2
100
AcDbSymbolTableRecord
100
AcDbLayerTableRecord
  2
SHEETMETAL_BEND_LINES_UP
 70
     0
 62
     7
  6
CENTER
  0
LAYER
  5
10000040
330
2
100
AcDbSymbolTableRecord
100
AcDbLayerTableRecord
  2
SHEETMETAL_BEND_LINES_DOWN
 70
     0
 62
     7
  6
CENTER
  0
LAYER
  5
10000041
330
2
100
AcDbSymbolTableRecord
100
AcDbLayerTableRecord
  2
SHEETMETAL_BEND_TANGENT_LI
 70
     0
 62
     7
  6
CONTINUOUS
  0
LAYER
  5
10000042
330
2
100
AcDbSymbolTableRecord
100
AcDbLayerTableRecord
  2
SHEETMETAL_CUT_LINES
 70
     0
 62
     7
  6
CONTINUOUS
  0
LAYER
  5
10000043
330
2
100
AcDbSymbolTableRecord
100
AcDbLayerTableRecord
  2
HIDDEN
 70
     0
 62
    -7
  6
HIDDEN
  0
LAYER
  5
10000044
330
2
100
AcDbSymbolTableRecord
100
AcDbLayerTableRecord
  2
VISIBLE
 70
     0
 62
     7
  6
CONTINUOUS
  0
LAYER
  5
10000045
330
2
100
AcDbSymbolTableRecord
100
AcDbLayerTableRecord
  2
MODELSKETCH_VISIBLE
 70
     0
 62
     7
  6
CONTINUOUS
  0
LAYER
  5
10000046
330
2
100
AcDbSymbolTableRecord
100
AcDbLayerTableRecord
  2
MODELSKETCH_CONSTRUCTION
 70
     0
 62
    -7
  6
CENTER
  0
LAYER
  5
10000047
330
2
100
AcDbSymbolTableRecord
100
AcDbLayerTableRecord
  2
HIDDEN_BASE_VIEW
 70
     0
 62
     7
  6
CONTINUOUS
  0
LAYER
  5
10000048
330
2
100
AcDbSymbolTableRecord
100
AcDbLayerTableRecord
  2
TANGENT_LINES
 70
     0
 62
    -7
  6
CONTINUOUS
  0
LAYER
  5
10000049
330
2
100
AcDbSymbolTableRecord
100
AcDbLayerTableRecord
  2
TANGENT_HIDDEN
 70
     0
 62
    -7
  6
HIDDEN
  0
LAYER
  5
1000004A
330
2
100
AcDbSymbolTableRecord
100
AcDbLayerTableRecord
  2
INVISIBLE_LINES
 70
     0
 62
    -7
  6
CONTINUOUS
  0
LAYER
  5
1000004B
330
2
100
AcDbSymbolTableRecord
100
AcDbLayerTableRecord
  2
VIEW_HATCHES
 70
     0
 62
    -7
  6
CONTINUOUS
  0
LAYER
  5
1000004C
330
2
100
AcDbSymbolTableRecord
100
AcDbLayerTableRecord
  2
SECTION_JOG_LINES
 70
     0
 62
    -7
  6
CONTINUOUS
  0
ENDTAB
  0
TABLE
  2
STYLE
  5
3
330
0
100
AcDbSymbolTable
 70
     2
  0
STYLE
  5
11
330
3
100
AcDbSymbolTableRecord
100
AcDbTextStyleTableRecord
  2
STANDARD
 70
     0
 40
0.0
 41
1.0
 50
0.0
 71
     0
 42
0.2
  3
txt
  4

  0
STYLE
  5
10000004
330
3
100
AcDbSymbolTableRecord
100
AcDbTextStyleTableRecord
  2
TTFSTYLE
 70
     0
 40
0.0
 41
1.0
 50
0.0
 71
     0
 42
0.2
  3
Verdana.ttf
  4

1001
ACAD
1000
Verdana
1071
       34
  0
ENDTAB
  0
TABLE
  2
VIEW
  5
6
330
0
100
AcDbSymbolTable
 70
     0
  0
ENDTAB
  0
TABLE
  2
UCS
  5
7
330
0
100
AcDbSymbolTable
 70
     0
  0
ENDTAB
  0
TABLE
  2
APPID
  5
9
330
0
100
AcDbSymbolTable
 70
     2
  0
APPID
  5
12
330
9
100
AcDbSymbolTableRecord
100
AcDbRegAppTableRecord
  2
ACAD
 70
     0
  0
APPID
  5
100002D1
330
9
100
AcDbSymbolTableRecord
100
AcDbRegAppTableRecord
  2
ACAD_MLEADERVER
 70
     0
  0
ENDTAB
  0
TABLE
  2
DIMSTYLE
  5
A
330
0
100
AcDbSymbolTable
 70
     1
  0
DIMSTYLE
105
27
330
A
100
AcDbSymbolTableRecord
100
AcDbDimStyleTableRecord
  2
STANDARD
 70
     0
  3

  4

  5

  6

  7

 40
1.0
 41
0.18
 42
0.0625
 43
0.38
 44
0.18
 45
0.0
 46
0.0
 47
0.0
 48
0.0
140
0.18
141
0.09
142
0.0
143
25.4
144
1.0
145
0.0
146
1.0
147
0.09
 71
     0
 72
     0
 73
     1
 74
     1
 75
     0
 76
     0
 77
     0
 78
     0
170
     0
171
     2
172
     0
173
     0
174
     0
175
     0
176
     0
177
     0
178
     0
270
     2
271
     4
272
     4
273
     2
274
     2
340
11
275
     0
280
     0
281
     0
282
     0
283
     1
284
     0
285
     0
286
     0
287
     3
288
     0
  0
ENDTAB
  0
TABLE
  2
BLOCK_RECORD
  5
1
330
0
100
AcDbSymbolTable
 70
     0
  0
BLOCK_RECORD
  5
1F
102
{ACAD_XDICTIONARY
360
1000029C
102
}
330
1
100
AcDbSymbolTableRecord
100
AcDbBlockTableRecord
  2
*MODEL_SPACE
  0
BLOCK_RECORD
  5
1B
330
1
100
AcDbSymbolTableRecord
100
AcDbBlockTableRecord
  2
*PAPER_SPACE
  0
ENDTAB
  0
ENDSEC
  0
SECTION
  2
BLOCKS
  0
BLOCK
  5
20
330
1F
100
AcDbEntity
  8
0
100
AcDbBlockBegin
  2
*MODEL_SPACE
 70
     0
 10
0.0
 20
0.0
 30
0.0
  3
*MODEL_SPACE
  1

  0
ENDBLK
  5
21
330
1F
100
AcDbEntity
  8
0
100
AcDbBlockEnd
  0
BLOCK
  5
1C
330
1B
100
AcDbEntity
 67
     1
  8
0
100
AcDbBlockBegin
  2
*PAPER_SPACE
 70
     0
 10
0.0
 20
0.0
 30
0.0
  3
*PAPER_SPACE
  1

  0
ENDBLK
  5
1D
330
1B
100
AcDbEntity
 67
     1
  8
0
100
AcDbBlockEnd
  0
ENDSEC
  0
SECTION
  2
ENTITIES
  0
LINE
  5
1000004D
102
{ACAD_XDICTIONARY
360
1000004E
102
}
330
1F
100
AcDbEntity
  8
VISIBLE
100
AcDbLine
 10
31.58230942558513
 20
-56.81327366073426
 30
0.0
 11
31.58230942558512
 21
-52.30453980751091
 31
0.0
  0
LINE
  5
10000050
102
{ACAD_XDICTIONARY
360
10000051
102
}
330
1F
100
AcDbEntity
  8
VISIBLE
100
AcDbLine
 10
31.58230942558512
 20
-52.30453980751091
 30
0.0
 11
52.64611819386484
 21
-59.46411411636151
 31
0.0
  0
LINE
  5
10000053
102
{ACAD_XDICTIONARY
360
10000054
102
}
330
1F
100
AcDbEntity
  8
VISIBLE
100
AcDbLine
 10
52.64611819386484
 20
-59.46411411636151
 30
0.0
 11
52.64611819386484
 21
-64.33244024008735
 31
0.0
  0
LINE
  5
10000056
102
{ACAD_XDICTIONARY
360
10000057
102
}
330
1F
100
AcDbEntity
  8
VISIBLE
100
AcDbLine
 10
52.64611819386484
 20
-64.33244024008735
 30
0.0
 11
31.58230942558513
 21
-71.47818407699555
 31
0.0
  0
LINE
  5
10000059
102
{ACAD_XDICTIONARY
360
1000005A
102
}
330
1F
100
AcDbEntity
  8
VISIBLE
100
AcDbLine
 10
31.58230942558513
 20
-71.47818407699555
 30
0.0
 11
31.58230942558513
 21
-66.96945022377218
 31
0.0
  0
LINE
  5
1000005C
102
{ACAD_XDICTIONARY
360
1000005D
102
}
330
1F
100
AcDbEntity
  8
VISIBLE
100
AcDbLine
 10
31.58230942558513
 20
-66.96945022377218
 30
0.0
 11
44.11732716271635
 21
-63.00471493361668
 31
0.0
  0
SPLINE
  5
1000005F
102
{ACAD_XDICTIONARY
360
10000060
102
}
330
1F
100
AcDbEntity
  8
VISIBLE
100
AcDbSpline
210
0.0
220
0.0
230
1.0
 70
     8
 71
     2
 72
     6
 73
     3
 74
     0
 42
0.000000001
 43
0.00000001
 40
0.0
 40
0.0
 40
0.0
 40
1.0
 40
1.0
 40
1.0
 10
44.11732716271635
 20
-63.00471493361668
 30
0.0
 10
45.22837507542273
 20
-62.67739376431312
 30
0.0
 10
46.70362541594571
 20
-62.32241165112479
 30
0.0
  0
SPLINE
  5
10000062
102
{ACAD_XDICTIONARY
360
10000063
102
}
330
1F
100
AcDbEntity
  8
VISIBLE
100
AcDbSpline
210
0.0
220
0.0
230
1.0
 70
     8
 71
     2
 72
     6
 73
     3
 74
     0
 42
0.000000001
 43
0.00000001
 40
0.0
 40
0.0
 40
0.0
 40
1.0
 40
1.0
 40
1.0
 10
46.70362541594571
 20
-62.32241165112479
 30
0.0
 10
48.17887575646869
 20
-61.96742953793645
 30
0.0
 10
48.75514542073548
 20
-61.88444670628203
 30
0.0
  0
SPLINE
  5
10000065
102
{ACAD_XDICTIONARY
360
10000066
102
}
330
1F
100
AcDbEntity
  8
VISIBLE
100
AcDbSpline
210
0.0
220
0.0
230
1.0
 70
     8
 71
     2
 72
     6
 73
     3
 74
     0
 42
0.000000001
 43
0.00000001
 40
0.0
 40
0.0
 40
0.0
 40
1.0
 40
1.0
 40
1.0
 10
48.75514542073548
 20
-61.88444670628203
 30
0.0
 10
47.43203027157892
 20
-61.72309120028732
 30
0.0
 10
44.11732716271635
 20
-60.80105973746046
 30
0.0
  0
LINE
  5
10000068
102
{ACAD_XDICTIONARY
360
10000069
102
}
330
1F
100
AcDbEntity
  8
VISIBLE
100
AcDbLine
 10
44.11732716271635
 20
-60.80105973746045
 30
0.0
 11
31.58230942558513
 21
-56.81327366073426
 31
0.0
  0
LINE
  5
1000006B
102
{ACAD_XDICTIONARY
360
1000006C
102
}
330
1F
100
AcDbEntity
  8
VISIBLE
100
AcDbLine
 10
52.64611819386484
 20
-14.44592794383986
 30
0.0
 11
52.64611819386483
 21
-20.1210315975392
 31
0.0
  0
LINE
  5
1000006E
102
{ACAD_XDICTIONARY
360
1000006F
102
}
330
1F
100
AcDbEntity
  8
VISIBLE
100
AcDbLine
 10
52.64611819386483
 20
-20.1210315975392
 30
0.0
 11
36.71341451621662
 21
-29.28602433803821
 31
0.0
  0
LINE
  5
10000071
102
{ACAD_XDICTIONARY
360
10000072
102
}
330
1F
100
AcDbEntity
  8
VISIBLE
100
AcDbLine
 10
36.71341451621662
 20
-29.28602433803821
 30
0.0
 11
36.71341451621662
 21
-29.415108742834
 31
0.0
  0
SPLINE
  5
10000074
102
{ACAD_XDICTIONARY
360
10000075
102
}
330
1F
100
AcDbEntity
  8
VISIBLE
100
AcDbSpline
210
0.0
220
0.0
230
1.0
 70
     8
 71
     2
 72
     6
 73
     3
 74
     0
 42
0.000000001
 43
0.00000001
 40
0.0
 40
0.0
 40
0.0
 40
1.0
 40
1.0
 40
1.0
 10
36.71341451621662
 20
-29.415108742834
 30
0.0
 10
40.93170845864953
 20
-29.13849930398595
 30
0.0
 10
42.73427996847606
 20
-29.13849930398595
 30
0.0
  0
LINE
  5
10000077
102
{ACAD_XDICTIONARY
360
10000078
102
}
330
1F
100
AcDbEntity
  8
VISIBLE
100
AcDbLine
 10
42.73427996847605
 20
-29.13849930398595
 30
0.0
 11
52.64611819386484
 21
-29.13849930398595
 31
0.0
  0
LINE
  5
1000007A
102
{ACAD_XDICTIONARY
360
1000007B
102
}
330
1F
100
AcDbEntity
  8
VISIBLE
100
AcDbLine
 10
52.64611819386484
 20
-29.13849930398595
 30
0.0
 11
52.64611819386484
 21
-33.13089553802626
 31
0.0
  0
LINE
  5
1000007D
102
{ACAD_XDICTIONARY
360
1000007E
102
}
330
1F
100
AcDbEntity
  8
VISIBLE
100
AcDbLine
 10
52.64611819386484
 20
-33.13089553802626
 30
0.0
 11
31.58230942558513
 21
-33.13089553802626
 31
0.0
  0
LINE
  5
10000080
102
{ACAD_XDICTIONARY
360
10000081
102
}
330
1F
100
AcDbEntity
  8
VISIBLE
100
AcDbLine
 10
31.58230942558513
 20
-33.13089553802626
 30
0.0
 11
31.58230942558513
 21
-27.49728330015411
 31
0.0
  0
LINE
  5
10000083
102
{ACAD_XDICTIONARY
360
10000084
102
}
330
1F
100
AcDbEntity
  8
VISIBLE
100
AcDbLine
 10
31.58230942558513
 20
-27.49728330015411
 30
0.0
 11
47.35826775455278
 21
-18.35073118891162
 31
0.0
  0
LINE
  5
10000086
102
{ACAD_XDICTIONARY
360
10000087
102
}
330
1F
100
AcDbEntity
  8
VISIBLE
100
AcDbLine
 10
47.35826775455278
 20
-18.35073118891162
 30
0.0
 11
47.35826775455278
 21
-18.24930772800068
 31
0.0
  0
SPLINE
  5
10000089
102
{ACAD_XDICTIONARY
360
1000008A
102
}
330
1F
100
AcDbEntity
  8
VISIBLE
100
AcDbSpline
210
0.0
220
0.0
230
1.0
 70
     8
 71
     2
 72
     6
 73
     3
 74
     0
 42
0.000000001
 43
0.00000001
 40
0.0
 40
0.0
 40
0.0
 40
1.0
 40
1.0
 40
1.0
 10
47.35826775455278
 20
-18.24930772800068
 30
0.0
 10
43.2506175876591
 20
-18.46598512176498
 30
0.0
 10
41.55407969605766
 20
-18.46598512176498
 30
0.0
  0
LINE
  5
1000008C
102
{ACAD_XDICTIONARY
360
1000008D
102
}
330
1F
100
AcDbEntity
  8
VISIBLE
100
AcDbLine
 10
41.55407969605767
 20
-18.46598512176498
 30
0.0
 11
31.58230942558513
 21
-18.46598512176498
 31
0.0
  0
LINE
  5
1000008F
102
{ACAD_XDICTIONARY
360
10000090
102
}
330
1F
100
AcDbEntity
  8
VISIBLE
100
AcDbLine
 10
31.58230942558513
 20
-18.46598512176498
 30
0.0
 11
31.58230942558513
 21
-14.44592794383986
 31
0.0
  0
LINE
  5
10000092
102
{ACAD_XDICTIONARY
360
10000093
102
}
330
1F
100
AcDbEntity
  8
VISIBLE
100
AcDbLine
 10
31.58230942558513
 20
-14.44592794383986
 30
0.0
 11
52.64611819386484
 21
-14.44592794383986
 31
0.0
  0
LINE
  5
10000095
102
{ACAD_XDICTIONARY
360
10000096
102
}
330
1F
100
AcDbEntity
  8
VISIBLE
100
AcDbLine
 10
52.64611819386484
 20
7.940995973596404
 30
0.0
 11
31.58230942558513
 21
7.940995973596404
 31
0.0
  0
LINE
  5
10000098
102
{ACAD_XDICTIONARY
360
10000099
102
}
330
1F
100
AcDbEntity
  8
VISIBLE
100
AcDbLine
 10
31.58230942558513
 20
7.940995973596404
 30
0.0
 11
31.58230942558513
 21
12.40823841099256
 31
0.0
  0
LINE
  5
1000009B
102
{ACAD_XDICTIONARY
360
1000009C
102
}
330
1F
100
AcDbEntity
  8
VISIBLE
100
AcDbLine
 10
31.58230942558513
 20
12.40823841099256
 30
0.0
 11
52.64611819386484
 21
12.40823841099256
 31
0.0
  0
LINE
  5
1000009E
102
{ACAD_XDICTIONARY
360
1000009F
102
}
330
1F
100
AcDbEntity
  8
VISIBLE
100
AcDbLine
 10
52.64611819386484
 20
12.40823841099256
 30
0.0
 11
52.64611819386484
 21
7.940995973596404
 31
0.0
  0
LINE
  5
100000A1
102
{ACAD_XDICTIONARY
360
100000A2
102
}
330
1F
100
AcDbEntity
  8
VISIBLE
100
AcDbLine
 10
52.64611819386484
 20
62.86641021419273
 30
0.0
 11
52.64611819386484
 21
58.39916777679657
 31
0.0
  0
LINE
  5
100000A4
102
{ACAD_XDICTIONARY
360
100000A5
102
}
330
1F
100
AcDbEntity
  8
VISIBLE
100
AcDbLine
 10
52.64611819386484
 20
58.39916777679657
 30
0.0
 11
35.2980962207774
 21
58.39916777679657
 31
0.0
  0
LINE
  5
100000A7
102
{ACAD_XDICTIONARY
360
100000A8
102
}
330
1F
100
AcDbEntity
  8
VISIBLE
100
AcDbLine
 10
35.2980962207774
 20
58.39916777679657
 30
0.0
 11
35.2980962207774
 21
52.67796254995588
 31
0.0
  0
LINE
  5
100000AA
102
{ACAD_XDICTIONARY
360
100000AB
102
}
330
1F
100
AcDbEntity
  8
VISIBLE
100
AcDbLine
 10
35.2980962207774
 20
52.67796254995588
 30
0.0
 11
31.58230942558513
 21
52.67796254995588
 31
0.0
  0
LINE
  5
100000AD
102
{ACAD_XDICTIONARY
360
100000AE
102
}
330
1F
100
AcDbEntity
  8
VISIBLE
100
AcDbLine
 10
31.58230942558513
 20
52.67796254995588
 30
0.0
 11
31.58230942558513
 21
68.58300528371927
 31
0.0
  0
LINE
  5
100000B0
102
{ACAD_XDICTIONARY
360
100000B1
102
}
330
1F
100
AcDbEntity
  8
VISIBLE
100
AcDbLine
 10
31.58230942558513
 20
68.58300528371927
 30
0.0
 11
35.2980962207774
 21
68.58300528371927
 31
0.0
  0
LINE
  5
100000B3
102
{ACAD_XDICTIONARY
360
100000B4
102
}
330
1F
100
AcDbEntity
  8
VISIBLE
100
AcDbLine
 10
35.2980962207774
 20
68.58300528371927
 30
0.0
 11
35.2980962207774
 21
62.86641021419273
 31
0.0
  0
LINE
  5
100000B6
102
{ACAD_XDICTIONARY
360
100000B7
102
}
330
1F
100
AcDbEntity
  8
VISIBLE
100
AcDbLine
 10
35.2980962207774
 20
62.86641021419273
 30
0.0
 11
52.64611819386484
 21
62.86641021419273
 31
0.0
  0
LINE
  5
100000B9
102
{ACAD_XDICTIONARY
360
100000BA
102
}
330
1F
100
AcDbEntity
  8
VISIBLE
100
AcDbLine
 10
44.56451242218738
 20
99.77532967115211
 30
0.0
 11
52.64611819386484
 21
99.77532967115211
 31
0.0
  0
LINE
  5
100000BC
102
{ACAD_XDICTIONARY
360
100000BD
102
}
330
1F
100
AcDbEntity
  8
VISIBLE
100
AcDbLine
 10
52.64611819386484
 20
99.77532967115211
 30
0.0
 11
52.64611819386484
 21
95.30808723375588
 31
0.0
  0
LINE
  5
100000BF
102
{ACAD_XDICTIONARY
360
100000C0
102
}
330
1F
100
AcDbEntity
  8
VISIBLE
100
AcDbLine
 10
52.64611819386484
 20
95.30808723375588
 30
0.0
 11
31.58230942558513
 21
95.30808723375594
 31
0.0
  0
LINE
  5
100000C2
102
{ACAD_XDICTIONARY
360
100000C3
102
}
330
1F
100
AcDbEntity
  8
VISIBLE
100
AcDbLine
 10
31.58230942558513
 20
95.30808723375594
 30
0.0
 11
31.58230942558513
 21
101.4442066188687
 31
0.0
  0
SPLINE
  5
100000C5
102
{ACAD_XDICTIONARY
360
100000C6
102
}
330
1F
100
AcDbEntity
  8
VISIBLE
100
AcDbSpline
210
0.0
220
0.0
230
1.0
 70
     8
 71
     2
 72
     6
 73
     3
 74
     0
 42
0.000000001
 43
0.00000001
 40
0.0
 40
0.0
 40
0.0
 40
1.0
 40
1.0
 40
1.0
 10
31.58230942558513
 20
101.4442066188687
 30
0.0
 10
31.58230942558513
 20
105.7408732356419
 30
0.0
 10
33.14515275507667
 20
107.7993084764029
 30
0.0
  0
SPLINE
  5
100000C8
102
{ACAD_XDICTIONARY
360
100000C9
102
}
330
1F
100
AcDbEntity
  8
VISIBLE
100
AcDbSpline
210
0.0
220
0.0
230
1.0
 70
     8
 71
     2
 72
     6
 73
     3
 74
     0
 42
0.000000001
 43
0.00000001
 40
0.0
 40
0.0
 40
0.0
 40
1.0
 40
1.0
 40
1.0
 10
33.14515275507667
 20
107.7993084764029
 30
0.0
 10
34.70799608456821
 20
109.8577437171639
 30
0.0
 10
37.89361478863502
 20
109.8577437171639
 30
0.0
  0
SPLINE
  5
100000CB
102
{ACAD_XDICTIONARY
360
100000CC
102
}
330
1F
100
AcDbEntity
  8
VISIBLE
100
AcDbSpline
210
0.0
220
0.0
230
1.0
 70
     8
 71
     2
 72
     6
 73
     3
 74
     0
 42
0.000000001
 43
0.00000001
 40
0.0
 40
0.0
 40
0.0
 40
1.0
 40
1.0
 40
1.0
 10
37.89361478863502
 20
109.8577437171639
 30
0.0
 10
39.75150818623115
 20
109.8577437171639
 30
0.0
 10
41.19909758286933
 20
108.8365938720831
 30
0.0
  0
SPLINE
  5
100000CE
102
{ACAD_XDICTIONARY
360
100000CF
102
}
330
1F
100
AcDbEntity
  8
VISIBLE
100
AcDbSpline
210
0.0
220
0.0
230
1.0
 70
     8
 71
     2
 72
     6
 73
     3
 74
     0
 42
0.000000001
 43
0.00000001
 40
0.0
 40
0.0
 40
0.0
 40
1.0
 40
1.0
 40
1.0
 10
41.19909758286933
 20
108.8365938720831
 30
0.0
 10
42.64668697950751
 20
107.8154440270024
 30
0.0
 10
43.46729498142341
 20
105.9391100001497
 30
0.0
  0
SPLINE
  5
100000D1
102
{ACAD_XDICTIONARY
360
100000D2
102
}
330
1F
100
AcDbEntity
  8
VISIBLE
100
AcDbSpline
210
0.0
220
0.0
230
1.0
 70
     8
 71
     2
 72
     6
 73
     3
 74
     0
 42
0.000000001
 43
0.00000001
 40
0.0
 40
0.0
 40
0.0
 40
1.0
 40
1.0
 40
1.0
 10
43.46729498142341
 20
105.9391100001497
 30
0.0
 10
50.5715474025044
 20
110.6967923483363
 30
0.0
 10
52.64611819386484
 20
112.1351614303462
 30
0.0
  0
LINE
  5
100000D4
102
{ACAD_XDICTIONARY
360
100000D5
102
}
330
1F
100
AcDbEntity
  8
VISIBLE
100
AcDbLine
 10
52.64611819386484
 20
112.1351614303462
 30
0.0
 11
52.64611819386484
 21
107.1792423176518
 31
0.0
  0
LINE
  5
100000D7
102
{ACAD_XDICTIONARY
360
100000D8
102
}
330
1F
100
AcDbEntity
  8
VISIBLE
100
AcDbLine
 10
52.64611819386484
 20
107.1792423176518
 30
0.0
 11
44.56451242218738
 21
102.1495606879313
 31
0.0
  0
LINE
  5
100000DA
102
{ACAD_XDICTIONARY
360
100000DB
102
}
330
1F
100
AcDbEntity
  8
VISIBLE
100
AcDbLine
 10
44.56451242218738
 20
102.1495606879313
 30
0.0
 11
44.56451242218738
 21
99.77532967115211
 31
0.0
  0
LINE
  5
100000DD
102
{ACAD_XDICTIONARY
360
100000DE
102
}
330
1F
100
AcDbEntity
  8
VISIBLE
100
AcDbLine
 10
52.64611819386484
 20
47.27485817779045
 30
0.0
 11
47.63026703608671
 21
45.74889610681198
 31
0.0
  0
LINE
  5
100000E0
102
{ACAD_XDICTIONARY
360
100000E1
102
}
330
1F
100
AcDbEntity
  8
VISIBLE
100
AcDbLine
 10
47.63026703608671
 20
45.74889610681198
 30
0.0
 11
47.63026703608671
 21
38.06837402146421
 31
0.0
  0
LINE
  5
100000E3
102
{ACAD_XDICTIONARY
360
100000E4
102
}
330
1F
100
AcDbEntity
  8
VISIBLE
100
AcDbLine
 10
47.63026703608671
 20
38.06837402146421
 30
0.0
 11
52.64611819386484
 21
36.54241195048574
 31
0.0
  0
LINE
  5
100000E6
102
{ACAD_XDICTIONARY
360
100000E7
102
}
330
1F
100
AcDbEntity
  8
VISIBLE
100
AcDbLine
 10
52.64611819386484
 20
36.54241195048574
 30
0.0
 11
52.64611819386484
 21
31.72940771452951
 31
0.0
  0
LINE
  5
100000E9
102
{ACAD_XDICTIONARY
360
100000EA
102
}
330
1F
100
AcDbEntity
  8
VISIBLE
100
AcDbLine
 10
52.64611819386484
 20
31.72940771452951
 30
0.0
 11
31.49471643661658
 21
39.16559146222817
 31
0.0
  0
LINE
  5
100000EC
102
{ACAD_XDICTIONARY
360
100000ED
102
}
330
1F
100
AcDbEntity
  8
VISIBLE
100
AcDbLine
 10
31.49471643661658
 20
39.16559146222817
 30
0.0
 11
31.49471643661657
 21
44.62401772216322
 31
0.0
  0
LINE
  5
100000EF
102
{ACAD_XDICTIONARY
360
100000F0
102
}
330
1F
100
AcDbEntity
  8
VISIBLE
100
AcDbLine
 10
31.49471643661657
 20
44.62401772216322
 30
0.0
 11
52.64611819386484
 21
52.08786241374669
 31
0.0
  0
LINE
  5
100000F2
102
{ACAD_XDICTIONARY
360
100000F3
102
}
330
1F
100
AcDbEntity
  8
VISIBLE
100
AcDbLine
 10
52.64611819386484
 20
52.08786241374669
 30
0.0
 11
52.64611819386484
 21
47.27485817779045
 31
0.0
  0
SPLINE
  5
100000F5
102
{ACAD_XDICTIONARY
360
100000F6
102
}
330
1F
100
AcDbEntity
  8
VISIBLE
100
AcDbSpline
210
0.0
220
0.0
230
1.0
 70
     8
 71
     2
 72
     6
 73
     3
 74
     0
 42
0.000000001
 43
0.00000001
 40
0.0
 40
0.0
 40
0.0
 40
1.0
 40
1.0
 40
1.0
 10
42.08424778718312
 20
-132.2308371626577
 30
0.0
 10
47.31677633872557
 20
-132.2308371626577
 30
0.0
 10
50.12666722169044
 20
-134.8240506518582
 30
0.0
  0
SPLINE
  5
100000F8
102
{ACAD_XDICTIONARY
360
100000F9
102
}
330
1F
100
AcDbEntity
  8
VISIBLE
100
AcDbSpline
210
0.0
220
0.0
230
1.0
 70
     8
 71
     2
 72
     6
 73
     3
 74
     0
 42
0.000000001
 43
0.00000001
 40
0.0
 40
0.0
 40
0.0
 40
1.0
 40
1.0
 40
1.0
 10
50.12666722169044
 20
-134.8240506518582
 30
0.0
 10
52.9365581046553
 20
-137.4172641410588
 30
0.0
 10
52.9365581046553
 20
-142.2579293208998
 30
0.0
  0
SPLINE
  5
100000FB
102
{ACAD_XDICTIONARY
360
100000FC
102
}
330
1F
100
AcDbEntity
  8
VISIBLE
100
AcDbSpline
210
0.0
220
0.0
230
1.0
 70
     8
 71
     2
 72
     6
 73
     3
 74
     0
 42
0.000000001
 43
0.00000001
 40
0.0
 40
0.0
 40
0.0
 40
1.0
 40
1.0
 40
1.0
 10
52.9365581046553
 20
-142.2579293208998
 30
0.0
 10
52.9365581046553
 20
-147.0985945007408
 30
0.0
 10
50.12666722169044
 20
-149.6918079899414
 30
0.0
  0
SPLINE
  5
100000FE
102
{ACAD_XDICTIONARY
360
100000FF
102
}
330
1F
100
AcDbEntity
  8
VISIBLE
100
AcDbSpline
210
0.0
220
0.0
230
1.0
 70
     8
 71
     2
 72
     6
 73
     3
 74
     0
 42
0.000000001
 43
0.00000001
 40
0.0
 40
0.0
 40
0.0
 40
1.0
 40
1.0
 40
1.0
 10
50.12666722169044
 20
-149.6918079899414
 30
0.0
 10
47.31677633872557
 20
-152.2850214791419
 30
0.0
 10
42.05658684329831
 20
-152.2850214791419
 30
0.0
  0
SPLINE
  5
10000101
102
{ACAD_XDICTIONARY
360
10000102
102
}
330
1F
100
AcDbEntity
  8
VISIBLE
100
AcDbSpline
210
0.0
220
0.0
230
1.0
 70
     8
 71
     2
 72
     6
 73
     3
 74
     0
 42
0.000000001
 43
0.00000001
 40
0.0
 40
0.0
 40
0.0
 40
1.0
 40
1.0
 40
1.0
 10
42.05658684329831
 20
-152.2850214791419
 30
0.0
 10
36.79639734787104
 20
-152.2850214791419
 30
0.0
 10
34.02338772341925
 20
-149.6848927539702
 30
0.0
  0
SPLINE
  5
10000104
102
{ACAD_XDICTIONARY
360
10000105
102
}
330
1F
100
AcDbEntity
  8
VISIBLE
100
AcDbSpline
210
0.0
220
0.0
230
1.0
 70
     8
 71
     2
 72
     6
 73
     3
 74
     0
 42
0.000000001
 43
0.00000001
 40
0.0
 40
0.0
 40
0.0
 40
1.0
 40
1.0
 40
1.0
 10
34.02338772341925
 20
-149.6848927539702
 30
0.0
 10
31.25037809896746
 20
-147.0847640287984
 30
0.0
 10
31.25037809896746
 20
-142.230268377015
 30
0.0
  0
SPLINE
  5
10000107
102
{ACAD_XDICTIONARY
360
10000108
102
}
330
1F
100
AcDbEntity
  8
VISIBLE
100
AcDbSpline
210
0.0
220
0.0
230
1.0
 70
     8
 71
     2
 72
     6
 73
     3
 74
     0
 42
0.000000001
 43
0.00000001
 40
0.0
 40
0.0
 40
0.0
 40
1.0
 40
1.0
 40
1.0
 10
31.25037809896746
 20
-142.230268377015
 30
0.0
 10
31.25037809896746
 20
-137.3757727252315
 30
0.0
 10
34.04643850998993
 20
-134.8033049439446
 30
0.0
  0
SPLINE
  5
1000010A
102
{ACAD_XDICTIONARY
360
1000010B
102
}
330
1F
100
AcDbEntity
  8
VISIBLE
100
AcDbSpline
210
0.0
220
0.0
230
1.0
 70
     8
 71
     2
 72
     6
 73
     3
 74
     0
 42
0.000000001
 43
0.00000001
 40
0.0
 40
0.0
 40
0.0
 40
1.0
 40
1.0
 40
1.0
 10
34.04643850998993
 20
-134.8033049439446
 30
0.0
 10
36.84249892101239
 20
-132.2308371626577
 30
0.0
 10
42.08424778718312
 20
-132.2308371626577
 30
0.0
  0
SPLINE
  5
1000010D
102
{ACAD_XDICTIONARY
360
1000010E
102
}
330
1F
100
AcDbEntity
  8
VISIBLE
100
AcDbSpline
210
0.0
220
0.0
230
1.0
 70
     8
 71
     2
 72
     6
 73
     3
 74
     0
 42
0.000000001
 43
0.00000001
 40
0.0
 40
0.0
 40
0.0
 40
1.0
 40
1.0
 40
1.0
 10
50.58537787444681
 20
113.8224790073194
 30
0.0
 10
49.37751665814361
 20
113.8224790073194
 30
0.0
 10
48.75745049939255
 20
114.4702061099552
 30
0.0
  0
SPLINE
  5
10000110
102
{ACAD_XDICTIONARY
360
10000111
102
}
330
1F
100
AcDbEntity
  8
VISIBLE
100
AcDbSpline
210
0.0
220
0.0
230
1.0
 70
     8
 71
     2
 72
     6
 73
     3
 74
     0
 42
0.000000001
 43
0.00000001
 40
0.0
 40
0.0
 40
0.0
 40
1.0
 40
1.0
 40
1.0
 10
48.75745049939255
 20
114.4702061099552
 30
0.0
 10
48.13738434064148
 20
115.1179332125911
 30
0.0
 10
48.13738434064148
 20
116.3580655300933
 30
0.0
  0
SPLINE
  5
10000113
102
{ACAD_XDICTIONARY
360
10000114
102
}
330
1F
100
AcDbEntity
  8
VISIBLE
100
AcDbSpline
210
0.0
220
0.0
230
1.0
 70
     8
 71
     2
 72
     6
 73
     3
 74
     0
 42
0.000000001
 43
0.00000001
 40
0.0
 40
0.0
 40
0.0
 40
1.0
 40
1.0
 40
1.0
 10
48.13738434064148
 20
116.3580655300933
 30
0.0
 10
48.13738434064148
 20
117.5520962744541
 30
0.0
 10
48.77128097133495
 20
118.2067386130611
 30
0.0
  0
SPLINE
  5
10000116
102
{ACAD_XDICTIONARY
360
10000117
102
}
330
1F
100
AcDbEntity
  8
VISIBLE
100
AcDbSpline
210
0.0
220
0.0
230
1.0
 70
     8
 71
     2
 72
     6
 73
     3
 74
     0
 42
0.000000001
 43
0.00000001
 40
0.0
 40
0.0
 40
0.0
 40
1.0
 40
1.0
 40
1.0
 10
48.77128097133495
 20
118.2067386130611
 30
0.0
 10
49.40517760202842
 20
118.8613809516682
 30
0.0
 10
50.58537787444681
 20
118.8613809516682
 30
0.0
  0
SPLINE
  5
10000119
102
{ACAD_XDICTIONARY
360
1000011A
102
}
330
1F
100
AcDbEntity
  8
VISIBLE
100
AcDbSpline
210
0.0
220
0.0
230
1.0
 70
     8
 71
     2
 72
     6
 73
     3
 74
     0
 42
0.000000001
 43
0.00000001
 40
0.0
 40
0.0
 40
0.0
 40
1.0
 40
1.0
 40
1.0
 10
50.58537787444681
 20
118.8613809516682
 30
0.0
 10
51.72408673103799
 20
118.8613809516682
 30
0.0
 10
52.37872906964505
 20
118.1998233770899
 30
0.0
  0
SPLINE
  5
1000011C
102
{ACAD_XDICTIONARY
360
1000011D
102
}
330
1F
100
AcDbEntity
  8
VISIBLE
100
AcDbSpline
210
0.0
220
0.0
230
1.0
 70
     8
 71
     2
 72
     6
 73
     3
 74
     0
 42
0.000000001
 43
0.00000001
 40
0.0
 40
0.0
 40
0.0
 40
1.0
 40
1.0
 40
1.0
 10
52.37872906964505
 20
118.1998233770899
 30
0.0
 10
53.03337140825213
 20
117.5382658025116
 30
0.0
 10
53.03337140825213
 20
116.3580655300933
 30
0.0
  0
SPLINE
  5
1000011F
102
{ACAD_XDICTIONARY
360
10000120
102
}
330
1F
100
AcDbEntity
  8
VISIBLE
100
AcDbSpline
210
0.0
220
0.0
230
1.0
 70
     8
 71
     2
 72
     6
 73
     3
 74
     0
 42
0.000000001
 43
0.00000001
 40
0.0
 40
0.0
 40
0.0
 40
1.0
 40
1.0
 40
1.0
 10
53.03337140825213
 20
116.3580655300933
 30
0.0
 10
53.03337140825213
 20
115.145594156476
 30
0.0
 10
52.39255954158746
 20
114.4840365818977
 30
0.0
  0
SPLINE
  5
10000122
102
{ACAD_XDICTIONARY
360
10000123
102
}
330
1F
100
AcDbEntity
  8
VISIBLE
100
AcDbSpline
210
0.0
220
0.0
230
1.0
 70
     8
 71
     2
 72
     6
 73
     3
 74
     0
 42
0.000000001
 43
0.00000001
 40
0.0
 40
0.0
 40
0.0
 40
1.0
 40
1.0
 40
1.0
 10
52.39255954158746
 20
114.4840365818977
 30
0.0
 10
51.75174767492278
 20
113.8224790073194
 30
0.0
 10
50.58537787444681
 20
113.8224790073194
 30
0.0
  0
CIRCLE
  5
10000125
102
{ACAD_XDICTIONARY
360
10000126
102
}
330
1F
100
AcDbEntity
  8
VISIBLE
100
AcDbCircle
 10
32.68949426710614
 20
-157.0
 30
0.0
 40
1.59999999999999
  0
CIRCLE
  5
10000128
102
{ACAD_XDICTIONARY
360
10000129
102
}
330
1F
100
AcDbEntity
  8
VISIBLE
100
AcDbCircle
 10
2.999999999999979
 20
40.48131220042703
 30
0.0
 40
1.599999999999997
  0
LINE
  5
1000012B
102
{ACAD_XDICTIONARY
360
1000012C
102
}
330
1F
100
AcDbEntity
  8
VISIBLE
100
AcDbLine
 10
20.18949426710606
 20
154.0
 30
0.0
 11
0.0
 21
154.0
 31
0.0
  0
LINE
  5
1000012E
102
{ACAD_XDICTIONARY
360
1000012F
102
}
330
1F
100
AcDbEntity
  8
VISIBLE
100
AcDbLine
 10
0.0
 20
160.0
 30
0.0
 11
0.0
 21
154.0
 31
0.0
  0
LINE
  5
10000131
102
{ACAD_XDICTIONARY
360
10000132
102
}
330
1F
100
AcDbEntity
  8
VISIBLE
100
AcDbLine
 10
0.0
 20
160.0
 30
0.0
 11
-9.466193616390228
 21
160.0
 31
0.0
  0
LINE
  5
10000134
102
{ACAD_XDICTIONARY
360
10000135
102
}
330
1F
100
AcDbEntity
  8
VISIBLE
100
AcDbLine
 10
-9.466193616390228
 20
-160.0
 30
0.0
 11
-9.466193616390228
 21
160.0
 31
0.0
  0
LINE
  5
10000137
102
{ACAD_XDICTIONARY
360
10000138
102
}
330
1F
100
AcDbEntity
  8
VISIBLE
100
AcDbLine
 10
0.0
 20
-160.0
 30
0.0
 11
-9.466193616390228
 21
-160.0
 31
0.0
  0
LINE
  5
1000013A
102
{ACAD_XDICTIONARY
360
1000013B
102
}
330
1F
100
AcDbEntity
  8
VISIBLE
100
AcDbLine
 10
0.0
 20
-154.0
 30
0.0
 11
0.0
 21
-160.0
 31
0.0
  0
LINE
  5
1000013D
102
{ACAD_XDICTIONARY
360
1000013E
102
}
330
1F
100
AcDbEntity
  8
VISIBLE
100
AcDbLine
 10
20.18949426710606
 20
-154.0
 30
0.0
 11
0.0
 21
-154.0
 31
0.0
  0
LINE
  5
10000140
102
{ACAD_XDICTIONARY
360
10000141
102
}
330
1F
100
AcDbEntity
  8
VISIBLE
100
AcDbLine
 10
20.18949426710615
 20
-165.0
 30
0.0
 11
20.18949426710606
 21
-154.0
 31
0.0
  0
LINE
  5
10000143
102
{ACAD_XDICTIONARY
360
10000144
102
}
330
1F
100
AcDbEntity
  8
VISIBLE
100
AcDbLine
 10
20.18949426710615
 20
-165.0
 30
0.0
 11
45.18949426710615
 21
-165.0
 31
0.0
  0
LINE
  5
10000146
102
{ACAD_XDICTIONARY
360
10000147
102
}
330
1F
100
AcDbEntity
  8
VISIBLE
100
AcDbLine
 10
45.18949426710615
 20
-165.0
 30
0.0
 11
45.189494267106
 21
-154.0
 31
0.0
  0
LINE
  5
10000149
102
{ACAD_XDICTIONARY
360
1000014A
102
}
330
1F
100
AcDbEntity
  8
VISIBLE
100
AcDbLine
 10
74.00000000000001
 20
-154.0
 30
0.0
 11
45.189494267106
 21
-154.0
 31
0.0
  0
LINE
  5
1000014C
102
{ACAD_XDICTIONARY
360
1000014D
102
}
330
1F
100
AcDbEntity
  8
VISIBLE
100
AcDbLine
 10
74.00000000000001
 20
-154.0
 30
0.0
 11
73.99999999999973
 21
-125.0575333833694
 31
0.0
  0
LINE
  5
1000014F
102
{ACAD_XDICTIONARY
360
10000150
102
}
330
1F
100
AcDbEntity
  8
VISIBLE
100
AcDbLine
 10
73.99999999999973
 20
-125.0575333833694
 30
0.0
 11
80.0
 21
-125.0575333833694
 31
0.0
  0
LINE
  5
10000152
102
{ACAD_XDICTIONARY
360
10000153
102
}
330
1F
100
AcDbEntity
  8
VISIBLE
100
AcDbLine
 10
80.0
 20
-125.0575333833694
 30
0.0
 11
80.0
 21
125.0575333833694
 31
0.0
  0
LINE
  5
10000155
102
{ACAD_XDICTIONARY
360
10000156
102
}
330
1F
100
AcDbEntity
  8
VISIBLE
100
AcDbLine
 10
74.0
 20
125.0575333833694
 30
0.0
 11
80.0
 21
125.0575333833694
 31
0.0
  0
LINE
  5
10000158
102
{ACAD_XDICTIONARY
360
10000159
102
}
330
1F
100
AcDbEntity
  8
VISIBLE
100
AcDbLine
 10
74.0
 20
125.0575333833694
 30
0.0
 11
74.0
 21
154.0
 31
0.0
  0
LINE
  5
1000015B
102
{ACAD_XDICTIONARY
360
1000015C
102
}
330
1F
100
AcDbEntity
  8
VISIBLE
100
AcDbLine
 10
74.0
 20
154.0
 30
0.0
 11
45.18949426710606
 21
154.0
 31
0.0
  0
LINE
  5
1000015E
102
{ACAD_XDICTIONARY
360
1000015F
102
}
330
1F
100
AcDbEntity
  8
VISIBLE
100
AcDbLine
 10
45.18949426710606
 20
154.0
 30
0.0
 11
45.18949426710606
 21
165.0
 31
0.0
  0
LINE
  5
10000161
102
{ACAD_XDICTIONARY
360
10000162
102
}
330
1F
100
AcDbEntity
  8
VISIBLE
100
AcDbLine
 10
20.18949426710606
 20
165.0
 30
0.0
 11
45.18949426710606
 21
165.0
 31
0.0
  0
LINE
  5
10000164
102
{ACAD_XDICTIONARY
360
10000165
102
}
330
1F
100
AcDbEntity
  8
VISIBLE
100
AcDbLine
 10
20.18949426710606
 20
154.0
 30
0.0
 11
20.18949426710606
 21
165.0
 31
0.0
  0
LINE
  5
10000167
102
{ACAD_XDICTIONARY
360
10000168
102
}
330
1F
100
AcDbEntity
  8
VISIBLE
100
AcDbLine
 10
0.0
 20
-58.71797353029251
 30
0.0
 11
0.0
 21
-86.64286881685257
 31
0.0
  0
LINE
  5
1000016A
102
{ACAD_XDICTIONARY
360
1000016B
102
}
330
1F
100
AcDbEntity
  8
VISIBLE
100
AcDbLine
 10
6.0
 20
-58.71797353029251
 30
0.0
 11
0.0
 21
-58.71797353029251
 31
0.0
  0
LINE
  5
1000016D
102
{ACAD_XDICTIONARY
360
1000016E
102
}
330
1F
100
AcDbEntity
  8
VISIBLE
100
AcDbLine
 10
6.0
 20
-58.71797353029251
 30
0.0
 11
6.000000000000005
 21
-86.64286881685257
 31
0.0
  0
LINE
  5
10000170
102
{ACAD_XDICTIONARY
360
10000171
102
}
330
1F
100
AcDbEntity
  8
VISIBLE
100
AcDbLine
 10
6.000000000000005
 20
-86.64286881685257
 30
0.0
 11
0.0
 21
-86.64286881685257
 31
0.0
  0
LINE
  5
10000173
102
{ACAD_XDICTIONARY
360
10000174
102
}
330
1F
100
AcDbEntity
  8
VISIBLE
100
AcDbLine
 10
0.0
 20
22.2446508705616
 30
0.0
 11
0.0
 21
-22.2446508705616
 31
0.0
  0
LINE
  5
10000176
102
{ACAD_XDICTIONARY
360
10000177
102
}
330
1F
100
AcDbEntity
  8
VISIBLE
100
AcDbLine
 10
0.0
 20
22.2446508705616
 30
0.0
 11
6.0
 21
22.2446508705616
 31
0.0
  0
LINE
  5
10000179
102
{ACAD_XDICTIONARY
360
1000017A
102
}
330
1F
100
AcDbEntity
  8
VISIBLE
100
AcDbLine
 10
6.0
 20
22.2446508705616
 30
0.0
 11
6.000000000000005
 21
-22.2446508705616
 31
0.0
  0
LINE
  5
1000017C
102
{ACAD_XDICTIONARY
360
1000017D
102
}
330
1F
100
AcDbEntity
  8
VISIBLE
100
AcDbLine
 10
0.0
 20
-22.2446508705616
 30
0.0
 11
6.000000000000005
 21
-22.2446508705616
 31
0.0
  0
LINE
  5
1000017F
102
{ACAD_XDICTIONARY
360
10000180
102
}
330
1F
100
AcDbEntity
  8
VISIBLE
100
AcDbLine
 10
0.0
 20
130.5248290300369
 30
0.0
 11
0.0
 21
111.7182821035385
 31
0.0
  0
LINE
  5
10000182
102
{ACAD_XDICTIONARY
360
10000183
102
}
330
1F
100
AcDbEntity
  8
VISIBLE
100
AcDbLine
 10
0.0
 20
130.5248290300369
 30
0.0
 11
6.0
 21
130.5248290300369
 31
0.0
  0
LINE
  5
10000185
102
{ACAD_XDICTIONARY
360
10000186
102
}
330
1F
100
AcDbEntity
  8
VISIBLE
100
AcDbLine
 10
6.000000000000005
 20
111.7182821035385
 30
0.0
 11
6.0
 21
130.5248290300369
 31
0.0
  0
LINE
  5
10000188
102
{ACAD_XDICTIONARY
360
10000189
102
}
330
1F
100
AcDbEntity
  8
VISIBLE
100
AcDbLine
 10
0.0
 20
111.7182821035385
 30
0.0
 11
6.000000000000005
 21
111.7182821035385
 31
0.0
  0
LINE
  5
1000018B
102
{ACAD_XDICTIONARY
360
1000018C
102
}
330
1F
100
AcDbEntity
  8
VISIBLE
100
AcDbLine
 10
0.0
 20
86.64286881685257
 30
0.0
 11
0.0
 21
58.71797353029251
 31
0.0
  0
LINE
  5
1000018E
102
{ACAD_XDICTIONARY
360
1000018F
102
}
330
1F
100
AcDbEntity
  8
VISIBLE
100
AcDbLine
 10
6.0
 20
86.64286881685257
 30
0.0
 11
0.0
 21
86.64286881685257
 31
0.0
  0
LINE
  5
10000191
102
{ACAD_XDICTIONARY
360
10000192
102
}
330
1F
100
AcDbEntity
  8
VISIBLE
100
AcDbLine
 10
6.000000000000005
 20
58.71797353029251
 30
0.0
 11
6.0
 21
86.64286881685257
 31
0.0
  0
LINE
  5
10000194
102
{ACAD_XDICTIONARY
360
10000195
102
}
330
1F
100
AcDbEntity
  8
VISIBLE
100
AcDbLine
 10
6.000000000000005
 20
58.71797353029251
 30
0.0
 11
0.0
 21
58.71797353029251
 31
0.0
  0
LINE
  5
10000197
102
{ACAD_XDICTIONARY
360
10000198
102
}
330
1F
100
AcDbEntity
  8
VISIBLE
100
AcDbLine
 10
0.0
 20
-111.7182821035385
 30
0.0
 11
0.0
 21
-130.5248290300369
 31
0.0
  0
LINE
  5
1000019A
102
{ACAD_XDICTIONARY
360
1000019B
102
}
330
1F
100
AcDbEntity
  8
VISIBLE
100
AcDbLine
 10
0.0
 20
-111.7182821035385
 30
0.0
 11
6.0
 21
-111.7182821035385
 31
0.0
  0
LINE
  5
1000019D
102
{ACAD_XDICTIONARY
360
1000019E
102
}
330
1F
100
AcDbEntity
  8
VISIBLE
100
AcDbLine
 10
6.0
 20
-111.7182821035385
 30
0.0
 11
6.000000000000005
 21
-130.5248290300369
 31
0.0
  0
LINE
  5
100001A0
102
{ACAD_XDICTIONARY
360
100001A1
102
}
330
1F
100
AcDbEntity
  8
VISIBLE
100
AcDbLine
 10
0.0
 20
-130.5248290300369
 30
0.0
 11
6.000000000000005
 21
-130.5248290300369
 31
0.0
  0
CIRCLE
  5
100001A3
102
{ACAD_XDICTIONARY
360
100001A4
102
}
330
1F
100
AcDbEntity
  8
VISIBLE
100
AcDbCircle
 10
32.68949426710606
 20
157.0
 30
0.0
 40
1.59999999999999
  0
CIRCLE
  5
100001A6
102
{ACAD_XDICTIONARY
360
100001A7
102
}
330
1F
100
AcDbEntity
  8
VISIBLE
100
AcDbCircle
 10
3.000000000000001
 20
-40.48131220042706
 30
0.0
 40
1.599999999999997
  0
LINE
  5
100001A9
102
{ACAD_XDICTIONARY
360
100001AA
102
}
330
1F
100
AcDbEntity
  8
VISIBLE
100
AcDbLine
 10
52.64611819386484
 20
-97.2074720471792
 30
0.0
 11
52.64611819386484
 21
-109.3367959406666
 31
0.0
  0
LINE
  5
100001AC
102
{ACAD_XDICTIONARY
360
100001AD
102
}
330
1F
100
AcDbEntity
  8
VISIBLE
100
AcDbLine
 10
52.64611819386484
 20
-109.3367959406666
 30
0.0
 11
31.58230942558513
 21
-109.3367959406666
 31
0.0
  0
LINE
  5
100001AF
102
{ACAD_XDICTIONARY
360
100001B0
102
}
330
1F
100
AcDbEntity
  8
VISIBLE
100
AcDbLine
 10
31.58230942558513
 20
-109.3367959406666
 30
0.0
 11
31.58230942558513
 21
-97.2074720471792
 31
0.0
  0
LINE
  5
100001B2
102
{ACAD_XDICTIONARY
360
100001B3
102
}
330
1F
100
AcDbEntity
  8
VISIBLE
100
AcDbLine
 10
31.58230942558513
 20
-97.2074720471792
 30
0.0
 11
35.24277433300778
 21
-97.2074720471792
 31
0.0
  0
LINE
  5
100001B5
102
{ACAD_XDICTIONARY
360
100001B6
102
}
330
1F
100
AcDbEntity
  8
VISIBLE
100
AcDbLine
 10
35.24277433300778
 20
-97.2074720471792
 30
0.0
 11
35.24277433300778
 21
-104.8695535032704
 31
0.0
  0
LINE
  5
100001B8
102
{ACAD_XDICTIONARY
360
100001B9
102
}
330
1F
100
AcDbEntity
  8
VISIBLE
100
AcDbLine
 10
35.24277433300778
 20
-104.8695535032704
 30
0.0
 11
39.86676211908451
 21
-104.8695535032704
 31
0.0
  0
LINE
  5
100001BB
102
{ACAD_XDICTIONARY
360
100001BC
102
}
330
1F
100
AcDbEntity
  8
VISIBLE
100
AcDbLine
 10
39.86676211908451
 20
-104.8695535032704
 30
0.0
 11
39.86676211908451
 21
-97.73764013830466
 31
0.0
  0
LINE
  5
100001BE
102
{ACAD_XDICTIONARY
360
100001BF
102
}
330
1F
100
AcDbEntity
  8
VISIBLE
100
AcDbLine
 10
39.86676211908451
 20
-97.73764013830466
 30
0.0
 11
43.52722702650716
 21
-97.73764013830466
 31
0.0
  0
LINE
  5
100001C1
102
{ACAD_XDICTIONARY
360
100001C2
102
}
330
1F
100
AcDbEntity
  8
VISIBLE
100
AcDbLine
 10
43.52722702650716
 20
-97.73764013830466
 30
0.0
 11
43.52722702650716
 21
-104.8695535032704
 31
0.0
  0
LINE
  5
100001C4
102
{ACAD_XDICTIONARY
360
100001C5
102
}
330
1F
100
AcDbEntity
  8
VISIBLE
100
AcDbLine
 10
43.52722702650716
 20
-104.8695535032704
 30
0.0
 11
48.95799234255739
 21
-104.8695535032704
 31
0.0
  0
LINE
  5
100001C7
102
{ACAD_XDICTIONARY
360
100001C8
102
}
330
1F
100
AcDbEntity
  8
VISIBLE
100
AcDbLine
 10
48.95799234255739
 20
-104.8695535032704
 30
0.0
 11
48.95799234255739
 21
-97.2074720471792
 31
0.0
  0
LINE
  5
100001CA
102
{ACAD_XDICTIONARY
360
100001CB
102
}
330
1F
100
AcDbEntity
  8
VISIBLE
100
AcDbLine
 10
48.95799234255739
 20
-97.2074720471792
 30
0.0
 11
52.64611819386484
 21
-97.2074720471792
 31
0.0
  0
LINE
  5
100001CD
102
{ACAD_XDICTIONARY
360
100001CE
102
}
330
1F
100
AcDbEntity
  8
VISIBLE
100
AcDbLine
 10
52.64611819386484
 20
123.1995389842686
 30
0.0
 11
31.58230942558513
 21
123.1995389842686
 31
0.0
  0
LINE
  5
100001D0
102
{ACAD_XDICTIONARY
360
100001D1
102
}
330
1F
100
AcDbEntity
  8
VISIBLE
100
AcDbLine
 10
31.58230942558513
 20
123.1995389842686
 30
0.0
 11
31.58230942558513
 21
127.6667814216648
 31
0.0
  0
LINE
  5
100001D3
102
{ACAD_XDICTIONARY
360
100001D4
102
}
330
1F
100
AcDbEntity
  8
VISIBLE
100
AcDbLine
 10
31.58230942558513
 20
127.6667814216648
 30
0.0
 11
52.64611819386484
 21
127.6667814216648
 31
0.0
  0
LINE
  5
100001D6
102
{ACAD_XDICTIONARY
360
100001D7
102
}
330
1F
100
AcDbEntity
  8
VISIBLE
100
AcDbLine
 10
52.64611819386484
 20
127.6667814216648
 30
0.0
 11
52.64611819386484
 21
123.1995389842686
 31
0.0
  0
SPLINE
  5
100001D9
102
{ACAD_XDICTIONARY
360
100001DA
102
}
330
1F
100
AcDbEntity
  8
VISIBLE
100
AcDbSpline
210
0.0
220
0.0
230
1.0
 70
     8
 71
     2
 72
     6
 73
     3
 74
     0
 42
0.000000001
 43
0.00000001
 40
0.0
 40
0.0
 40
0.0
 40
1.0
 40
1.0
 40
1.0
 10
38.15178359822654
 20
-113.3153617027645
 30
0.0
 10
41.55407969605766
 20
-113.3153617027645
 30
0.0
 10
43.35434612722712
 20
-115.4406442245805
 30
0.0
  0
SPLINE
  5
100001DC
102
{ACAD_XDICTIONARY
360
100001DD
102
}
330
1F
100
AcDbEntity
  8
VISIBLE
100
AcDbSpline
210
0.0
220
0.0
230
1.0
 70
     8
 71
     2
 72
     6
 73
     3
 74
     0
 42
0.000000001
 43
0.00000001
 40
0.0
 40
0.0
 40
0.0
 40
1.0
 40
1.0
 40
1.0
 10
43.35434612722712
 20
-115.4406442245805
 30
0.0
 10
45.15461255839658
 20
-117.5659267463964
 30
0.0
 10
45.15461255839658
 20
-121.4845604634105
 30
0.0
  0
LINE
  5
100001DF
102
{ACAD_XDICTIONARY
360
100001E0
102
}
330
1F
100
AcDbEntity
  8
VISIBLE
100
AcDbLine
 10
45.15461255839658
 20
-121.4845604634105
 30
0.0
 11
45.15461255839658
 21
-123.3977757487763
 31
0.0
  0
LINE
  5
100001E2
102
{ACAD_XDICTIONARY
360
100001E3
102
}
330
1F
100
AcDbEntity
  8
VISIBLE
100
AcDbLine
 10
45.15461255839658
 20
-123.3977757487763
 30
0.0
 11
52.64611819386484
 21
-123.3977757487763
 31
0.0
  0
LINE
  5
100001E5
102
{ACAD_XDICTIONARY
360
100001E6
102
}
330
1F
100
AcDbEntity
  8
VISIBLE
100
AcDbLine
 10
52.64611819386484
 20
-123.3977757487763
 30
0.0
 11
52.64611819386484
 21
-127.8650181861724
 31
0.0
  0
LINE
  5
100001E8
102
{ACAD_XDICTIONARY
360
100001E9
102
}
330
1F
100
AcDbEntity
  8
VISIBLE
100
AcDbLine
 10
52.64611819386484
 20
-127.8650181861724
 30
0.0
 11
31.58230942558513
 21
-127.8650181861724
 31
0.0
  0
LINE
  5
100001EB
102
{ACAD_XDICTIONARY
360
100001EC
102
}
330
1F
100
AcDbEntity
  8
VISIBLE
100
AcDbLine
 10
31.58230942558513
 20
-127.8650181861724
 30
0.0
 11
31.58230942558513
 21
-121.1387986648505
 31
0.0
  0
SPLINE
  5
100001EE
102
{ACAD_XDICTIONARY
360
100001EF
102
}
330
1F
100
AcDbEntity
  8
VISIBLE
100
AcDbSpline
210
0.0
220
0.0
230
1.0
 70
     8
 71
     2
 72
     6
 73
     3
 74
     0
 42
0.000000001
 43
0.00000001
 40
0.0
 40
0.0
 40
0.0
 40
1.0
 40
1.0
 40
1.0
 10
31.58230942558513
 20
-121.1387986648505
 30
0.0
 10
31.58230942558513
 20
-117.3031477794907
 30
0.0
 10
33.23274574404522
 20
-115.3092547411276
 30
0.0
  0
SPLINE
  5
100001F1
102
{ACAD_XDICTIONARY
360
100001F2
102
}
330
1F
100
AcDbEntity
  8
VISIBLE
100
AcDbSpline
210
0.0
220
0.0
230
1.0
 70
     8
 71
     2
 72
     6
 73
     3
 74
     0
 42
0.000000001
 43
0.00000001
 40
0.0
 40
0.0
 40
0.0
 40
1.0
 40
1.0
 40
1.0
 10
33.23274574404522
 20
-115.3092547411276
 30
0.0
 10
34.88318206250531
 20
-113.3153617027645
 30
0.0
 10
38.15178359822654
 20
-113.3153617027645
 30
0.0
  0
SPLINE
  5
100001F4
102
{ACAD_XDICTIONARY
360
100001F5
102
}
330
1F
100
AcDbEntity
  8
VISIBLE
100
AcDbSpline
210
0.0
220
0.0
230
1.0
 70
     8
 71
     2
 72
     6
 73
     3
 74
     0
 42
0.000000001
 43
0.00000001
 40
0.0
 40
0.0
 40
0.0
 40
1.0
 40
1.0
 40
1.0
 10
42.08424778718312
 20
90.94226825727075
 30
0.0
 10
47.31677633872557
 20
90.94226825727075
 30
0.0
 10
50.12666722169044
 20
88.3490547680702
 30
0.0
  0
SPLINE
  5
100001F7
102
{ACAD_XDICTIONARY
360
100001F8
102
}
330
1F
100
AcDbEntity
  8
VISIBLE
100
AcDbSpline
210
0.0
220
0.0
230
1.0
 70
     8
 71
     2
 72
     6
 73
     3
 74
     0
 42
0.000000001
 43
0.00000001
 40
0.0
 40
0.0
 40
0.0
 40
1.0
 40
1.0
 40
1.0
 10
50.12666722169044
 20
88.3490547680702
 30
0.0
 10
52.9365581046553
 20
85.75584127886962
 30
0.0
 10
52.9365581046553
 20
80.9151760990286
 30
0.0
  0
SPLINE
  5
100001FA
102
{ACAD_XDICTIONARY
360
100001FB
102
}
330
1F
100
AcDbEntity
  8
VISIBLE
100
AcDbSpline
210
0.0
220
0.0
230
1.0
 70
     8
 71
     2
 72
     6
 73
     3
 74
     0
 42
0.000000001
 43
0.00000001
 40
0.0
 40
0.0
 40
0.0
 40
1.0
 40
1.0
 40
1.0
 10
52.9365581046553
 20
80.9151760990286
 30
0.0
 10
52.9365581046553
 20
76.07451091918755
 30
0.0
 10
50.12666722169044
 20
73.481297429987
 30
0.0
  0
SPLINE
  5
100001FD
102
{ACAD_XDICTIONARY
360
100001FE
102
}
330
1F
100
AcDbEntity
  8
VISIBLE
100
AcDbSpline
210
0.0
220
0.0
230
1.0
 70
     8
 71
     2
 72
     6
 73
     3
 74
     0
 42
0.000000001
 43
0.00000001
 40
0.0
 40
0.0
 40
0.0
 40
1.0
 40
1.0
 40
1.0
 10
50.12666722169044
 20
73.481297429987
 30
0.0
 10
47.31677633872557
 20
70.88808394078644
 30
0.0
 10
42.05658684329831
 20
70.88808394078644
 30
0.0
  0
SPLINE
  5
10000200
102
{ACAD_XDICTIONARY
360
10000201
102
}
330
1F
100
AcDbEntity
  8
VISIBLE
100
AcDbSpline
210
0.0
220
0.0
230
1.0
 70
     8
 71
     2
 72
     6
 73
     3
 74
     0
 42
0.000000001
 43
0.00000001
 40
0.0
 40
0.0
 40
0.0
 40
1.0
 40
1.0
 40
1.0
 10
42.05658684329831
 20
70.88808394078644
 30
0.0
 10
36.79639734787104
 20
70.88808394078644
 30
0.0
 10
34.02338772341925
 20
73.4882126659582
 30
0.0
  0
SPLINE
  5
10000203
102
{ACAD_XDICTIONARY
360
10000204
102
}
330
1F
100
AcDbEntity
  8
VISIBLE
100
AcDbSpline
210
0.0
220
0.0
230
1.0
 70
     8
 71
     2
 72
     6
 73
     3
 74
     0
 42
0.000000001
 43
0.00000001
 40
0.0
 40
0.0
 40
0.0
 40
1.0
 40
1.0
 40
1.0
 10
34.02338772341925
 20
73.4882126659582
 30
0.0
 10
31.25037809896746
 20
76.08834139112997
 30
0.0
 10
31.25037809896746
 20
80.94283704291341
 30
0.0
  0
SPLINE
  5
10000206
102
{ACAD_XDICTIONARY
360
10000207
102
}
330
1F
100
AcDbEntity
  8
VISIBLE
100
AcDbSpline
210
0.0
220
0.0
230
1.0
 70
     8
 71
     2
 72
     6
 73
     3
 74
     0
 42
0.000000001
 43
0.00000001
 40
0.0
 40
0.0
 40
0.0
 40
1.0
 40
1.0
 40
1.0
 10
31.25037809896746
 20
80.94283704291341
 30
0.0
 10
31.25037809896746
 20
85.79733269469683
 30
0.0
 10
34.04643850998993
 20
88.36980047598381
 30
0.0
  0
SPLINE
  5
10000209
102
{ACAD_XDICTIONARY
360
1000020A
102
}
330
1F
100
AcDbEntity
  8
VISIBLE
100
AcDbSpline
210
0.0
220
0.0
230
1.0
 70
     8
 71
     2
 72
     6
 73
     3
 74
     0
 42
0.000000001
 43
0.00000001
 40
0.0
 40
0.0
 40
0.0
 40
1.0
 40
1.0
 40
1.0
 10
34.04643850998993
 20
88.36980047598381
 30
0.0
 10
36.84249892101239
 20
90.94226825727075
 30
0.0
 10
42.08424778718312
 20
90.94226825727075
 30
0.0
  0
SPLINE
  5
1000020C
102
{ACAD_XDICTIONARY
360
1000020D
102
}
330
1F
100
AcDbEntity
  8
VISIBLE
100
AcDbSpline
210
0.0
220
0.0
230
1.0
 70
     8
 71
     2
 72
     6
 73
     3
 74
     0
 42
0.000000001
 43
0.00000001
 40
0.0
 40
0.0
 40
0.0
 40
1.0
 40
1.0
 40
1.0
 10
42.08424778718312
 20
152.0867847146343
 30
0.0
 10
47.31677633872557
 20
152.0867847146343
 30
0.0
 10
50.12666722169044
 20
149.4935712254337
 30
0.0
  0
SPLINE
  5
1000020F
102
{ACAD_XDICTIONARY
360
10000210
102
}
330
1F
100
AcDbEntity
  8
VISIBLE
100
AcDbSpline
210
0.0
220
0.0
230
1.0
 70
     8
 71
     2
 72
     6
 73
     3
 74
     0
 42
0.000000001
 43
0.00000001
 40
0.0
 40
0.0
 40
0.0
 40
1.0
 40
1.0
 40
1.0
 10
50.12666722169044
 20
149.4935712254337
 30
0.0
 10
52.9365581046553
 20
146.9003577362332
 30
0.0
 10
52.9365581046553
 20
142.0596925563921
 30
0.0
  0
SPLINE
  5
10000212
102
{ACAD_XDICTIONARY
360
10000213
102
}
330
1F
100
AcDbEntity
  8
VISIBLE
100
AcDbSpline
210
0.0
220
0.0
230
1.0
 70
     8
 71
     2
 72
     6
 73
     3
 74
     0
 42
0.000000001
 43
0.00000001
 40
0.0
 40
0.0
 40
0.0
 40
1.0
 40
1.0
 40
1.0
 10
52.9365581046553
 20
142.0596925563921
 30
0.0
 10
52.9365581046553
 20
137.2190273765511
 30
0.0
 10
50.12666722169044
 20
134.6258138873505
 30
0.0
  0
SPLINE
  5
10000215
102
{ACAD_XDICTIONARY
360
10000216
102
}
330
1F
100
AcDbEntity
  8
VISIBLE
100
AcDbSpline
210
0.0
220
0.0
230
1.0
 70
     8
 71
     2
 72
     6
 73
     3
 74
     0
 42
0.000000001
 43
0.00000001
 40
0.0
 40
0.0
 40
0.0
 40
1.0
 40
1.0
 40
1.0
 10
50.12666722169044
 20
134.6258138873505
 30
0.0
 10
47.31677633872557
 20
132.03260039815
 30
0.0
 10
42.05658684329831
 20
132.03260039815
 30
0.0
  0
SPLINE
  5
10000218
102
{ACAD_XDICTIONARY
360
10000219
102
}
330
1F
100
AcDbEntity
  8
VISIBLE
100
AcDbSpline
210
0.0
220
0.0
230
1.0
 70
     8
 71
     2
 72
     6
 73
     3
 74
     0
 42
0.000000001
 43
0.00000001
 40
0.0
 40
0.0
 40
0.0
 40
1.0
 40
1.0
 40
1.0
 10
42.05658684329831
 20
132.03260039815
 30
0.0
 10
36.79639734787104
 20
132.03260039815
 30
0.0
 10
34.02338772341925
 20
134.6327291233217
 30
0.0
  0
SPLINE
  5
1000021B
102
{ACAD_XDICTIONARY
360
1000021C
102
}
330
1F
100
AcDbEntity
  8
VISIBLE
100
AcDbSpline
210
0.0
220
0.0
230
1.0
 70
     8
 71
     2
 72
     6
 73
     3
 74
     0
 42
0.000000001
 43
0.00000001
 40
0.0
 40
0.0
 40
0.0
 40
1.0
 40
1.0
 40
1.0
 10
34.02338772341925
 20
134.6327291233217
 30
0.0
 10
31.25037809896746
 20
137.2328578484935
 30
0.0
 10
31.25037809896746
 20
142.0873535002769
 30
0.0
  0
SPLINE
  5
1000021E
102
{ACAD_XDICTIONARY
360
1000021F
102
}
330
1F
100
AcDbEntity
  8
VISIBLE
100
AcDbSpline
210
0.0
220
0.0
230
1.0
 70
     8
 71
     2
 72
     6
 73
     3
 74
     0
 42
0.000000001
 43
0.00000001
 40
0.0
 40
0.0
 40
0.0
 40
1.0
 40
1.0
 40
1.0
 10
31.25037809896746
 20
142.0873535002769
 30
0.0
 10
31.25037809896746
 20
146.9418491520604
 30
0.0
 10
34.04643850998993
 20
149.5143169333473
 30
0.0
  0
SPLINE
  5
10000221
102
{ACAD_XDICTIONARY
360
10000222
102
}
330
1F
100
AcDbEntity
  8
VISIBLE
100
AcDbSpline
210
0.0
220
0.0
230
1.0
 70
     8
 71
     2
 72
     6
 73
     3
 74
     0
 42
0.000000001
 43
0.00000001
 40
0.0
 40
0.0
 40
0.0
 40
1.0
 40
1.0
 40
1.0
 10
34.04643850998993
 20
149.5143169333473
 30
0.0
 10
36.84249892101239
 20
152.0867847146343
 30
0.0
 10
42.08424778718312
 20
152.0867847146343
 30
0.0
  0
LINE
  5
10000224
102
{ACAD_XDICTIONARY
360
10000225
102
}
330
1F
100
AcDbEntity
  8
VISIBLE
100
AcDbLine
 10
52.64611819386484
 20
17.70991932224705
 30
0.0
 11
31.58230942558513
 21
17.70991932224705
 31
0.0
  0
LINE
  5
10000227
102
{ACAD_XDICTIONARY
360
10000228
102
}
330
1F
100
AcDbEntity
  8
VISIBLE
100
AcDbLine
 10
31.58230942558513
 20
17.70991932224705
 30
0.0
 11
31.58230942558513
 21
22.17716175964321
 31
0.0
  0
LINE
  5
1000022A
102
{ACAD_XDICTIONARY
360
1000022B
102
}
330
1F
100
AcDbEntity
  8
VISIBLE
100
AcDbLine
 10
31.58230942558513
 20
22.17716175964321
 30
0.0
 11
48.95799234255739
 21
22.17716175964321
 31
0.0
  0
LINE
  5
1000022D
102
{ACAD_XDICTIONARY
360
1000022E
102
}
330
1F
100
AcDbEntity
  8
VISIBLE
100
AcDbLine
 10
48.95799234255739
 20
22.17716175964321
 30
0.0
 11
48.95799234255739
 21
30.71978326273409
 31
0.0
  0
LINE
  5
10000230
102
{ACAD_XDICTIONARY
360
10000231
102
}
330
1F
100
AcDbEntity
  8
VISIBLE
100
AcDbLine
 10
48.95799234255739
 20
30.71978326273409
 30
0.0
 11
52.64611819386484
 21
30.71978326273409
 31
0.0
  0
LINE
  5
10000233
102
{ACAD_XDICTIONARY
360
10000234
102
}
330
1F
100
AcDbEntity
  8
VISIBLE
100
AcDbLine
 10
52.64611819386484
 20
30.71978326273409
 30
0.0
 11
52.64611819386484
 21
17.70991932224705
 31
0.0
  0
LINE
  5
10000236
102
{ACAD_XDICTIONARY
360
10000237
102
}
330
1F
100
AcDbEntity
  8
VISIBLE
100
AcDbLine
 10
52.64611819386484
 20
-1.016539687766577
 30
0.0
 11
52.64611819386484
 21
-5.483782125162734
 31
0.0
  0
LINE
  5
10000239
102
{ACAD_XDICTIONARY
360
1000023A
102
}
330
1F
100
AcDbEntity
  8
VISIBLE
100
AcDbLine
 10
52.64611819386484
 20
-5.483782125162734
 30
0.0
 11
35.2980962207774
 21
-5.483782125162734
 31
0.0
  0
LINE
  5
1000023C
102
{ACAD_XDICTIONARY
360
1000023D
102
}
330
1F
100
AcDbEntity
  8
VISIBLE
100
AcDbLine
 10
35.2980962207774
 20
-5.483782125162734
 30
0.0
 11
35.2980962207774
 21
-11.20498735200343
 31
0.0
  0
LINE
  5
1000023F
102
{ACAD_XDICTIONARY
360
10000240
102
}
330
1F
100
AcDbEntity
  8
VISIBLE
100
AcDbLine
 10
35.2980962207774
 20
-11.20498735200343
 30
0.0
 11
31.58230942558513
 21
-11.20498735200343
 31
0.0
  0
LINE
  5
10000242
102
{ACAD_XDICTIONARY
360
10000243
102
}
330
1F
100
AcDbEntity
  8
VISIBLE
100
AcDbLine
 10
31.58230942558513
 20
-11.20498735200343
 30
0.0
 11
31.58230942558513
 21
4.700055381759993
 31
0.0
  0
LINE
  5
10000245
102
{ACAD_XDICTIONARY
360
10000246
102
}
330
1F
100
AcDbEntity
  8
VISIBLE
100
AcDbLine
 10
31.58230942558513
 20
4.700055381759993
 30
0.0
 11
35.2980962207774
 21
4.700055381759993
 31
0.0
  0
LINE
  5
10000248
102
{ACAD_XDICTIONARY
360
10000249
102
}
330
1F
100
AcDbEntity
  8
VISIBLE
100
AcDbLine
 10
35.2980962207774
 20
4.700055381759993
 30
0.0
 11
35.2980962207774
 21
-1.016539687766577
 31
0.0
  0
LINE
  5
1000024B
102
{ACAD_XDICTIONARY
360
1000024C
102
}
330
1F
100
AcDbEntity
  8
VISIBLE
100
AcDbLine
 10
35.2980962207774
 20
-1.016539687766577
 30
0.0
 11
52.64611819386484
 21
-1.016539687766577
 31
0.0
  0
LINE
  5
1000024E
102
{ACAD_XDICTIONARY
360
1000024F
102
}
330
1F
100
AcDbEntity
  8
VISIBLE
100
AcDbLine
 10
52.64611819386484
 20
-37.52437545839626
 30
0.0
 11
52.64611819386484
 21
-49.65369935188367
 31
0.0
  0
LINE
  5
10000251
102
{ACAD_XDICTIONARY
360
10000252
102
}
330
1F
100
AcDbEntity
  8
VISIBLE
100
AcDbLine
 10
52.64611819386484
 20
-49.65369935188367
 30
0.0
 11
31.58230942558513
 21
-49.65369935188367
 31
0.0
  0
LINE
  5
10000254
102
{ACAD_XDICTIONARY
360
10000255
102
}
330
1F
100
AcDbEntity
  8
VISIBLE
100
AcDbLine
 10
31.58230942558513
 20
-49.65369935188367
 30
0.0
 11
31.58230942558513
 21
-37.52437545839626
 31
0.0
  0
LINE
  5
10000257
102
{ACAD_XDICTIONARY
360
10000258
102
}
330
1F
100
AcDbEntity
  8
VISIBLE
100
AcDbLine
 10
31.58230942558513
 20
-37.52437545839626
 30
0.0
 11
35.24277433300778
 21
-37.52437545839626
 31
0.0
  0
LINE
  5
1000025A
102
{ACAD_XDICTIONARY
360
1000025B
102
}
330
1F
100
AcDbEntity
  8
VISIBLE
100
AcDbLine
 10
35.24277433300778
 20
-37.52437545839626
 30
0.0
 11
35.24277433300778
 21
-45.18645691448751
 31
0.0
  0
LINE
  5
1000025D
102
{ACAD_XDICTIONARY
360
1000025E
102
}
330
1F
100
AcDbEntity
  8
VISIBLE
100
AcDbLine
 10
35.24277433300778
 20
-45.18645691448751
 30
0.0
 11
39.86676211908451
 21
-45.18645691448751
 31
0.0
  0
LINE
  5
10000260
102
{ACAD_XDICTIONARY
360
10000261
102
}
330
1F
100
AcDbEntity
  8
VISIBLE
100
AcDbLine
 10
39.86676211908451
 20
-45.18645691448751
 30
0.0
 11
39.86676211908451
 21
-38.05454354952172
 31
0.0
  0
LINE
  5
10000263
102
{ACAD_XDICTIONARY
360
10000264
102
}
330
1F
100
AcDbEntity
  8
VISIBLE
100
AcDbLine
 10
39.86676211908451
 20
-38.05454354952172
 30
0.0
 11
43.52722702650716
 21
-38.05454354952172
 31
0.0
  0
LINE
  5
10000266
102
{ACAD_XDICTIONARY
360
10000267
102
}
330
1F
100
AcDbEntity
  8
VISIBLE
100
AcDbLine
 10
43.52722702650716
 20
-38.05454354952172
 30
0.0
 11
43.52722702650716
 21
-45.18645691448751
 31
0.0
  0
LINE
  5
10000269
102
{ACAD_XDICTIONARY
360
1000026A
102
}
330
1F
100
AcDbEntity
  8
VISIBLE
100
AcDbLine
 10
43.52722702650716
 20
-45.18645691448751
 30
0.0
 11
48.95799234255739
 21
-45.18645691448751
 31
0.0
  0
LINE
  5
1000026C
102
{ACAD_XDICTIONARY
360
1000026D
102
}
330
1F
100
AcDbEntity
  8
VISIBLE
100
AcDbLine
 10
48.95799234255739
 20
-45.18645691448751
 30
0.0
 11
48.95799234255739
 21
-37.52437545839626
 31
0.0
  0
LINE
  5
1000026F
102
{ACAD_XDICTIONARY
360
10000270
102
}
330
1F
100
AcDbEntity
  8
VISIBLE
100
AcDbLine
 10
48.95799234255739
 20
-37.52437545839626
 30
0.0
 11
52.64611819386484
 21
-37.52437545839626
 31
0.0
  0
LINE
  5
10000272
102
{ACAD_XDICTIONARY
360
10000273
102
}
330
1F
100
AcDbEntity
  8
VISIBLE
100
AcDbLine
 10
52.64611819386484
 20
-74.12902453262278
 30
0.0
 11
52.64611819386484
 21
-79.80412818632215
 31
0.0
  0
LINE
  5
10000275
102
{ACAD_XDICTIONARY
360
10000276
102
}
330
1F
100
AcDbEntity
  8
VISIBLE
100
AcDbLine
 10
52.64611819386484
 20
-79.80412818632215
 30
0.0
 11
36.71341451621662
 21
-88.96912092682119
 31
0.0
  0
LINE
  5
10000278
102
{ACAD_XDICTIONARY
360
10000279
102
}
330
1F
100
AcDbEntity
  8
VISIBLE
100
AcDbLine
 10
36.71341451621662
 20
-88.96912092682119
 30
0.0
 11
36.71341451621662
 21
-89.09820533161692
 31
0.0
  0
SPLINE
  5
1000027B
102
{ACAD_XDICTIONARY
360
1000027C
102
}
330
1F
100
AcDbEntity
  8
VISIBLE
100
AcDbSpline
210
0.0
220
0.0
230
1.0
 70
     8
 71
     2
 72
     6
 73
     3
 74
     0
 42
0.000000001
 43
0.00000001
 40
0.0
 40
0.0
 40
0.0
 40
1.0
 40
1.0
 40
1.0
 10
36.71341451621662
 20
-89.09820533161692
 30
0.0
 10
40.93170845864953
 20
-88.82159589276887
 30
0.0
 10
42.73427996847606
 20
-88.82159589276887
 30
0.0
  0
LINE
  5
1000027E
102
{ACAD_XDICTIONARY
360
1000027F
102
}
330
1F
100
AcDbEntity
  8
VISIBLE
100
AcDbLine
 10
42.73427996847605
 20
-88.82159589276887
 30
0.0
 11
52.64611819386484
 21
-88.82159589276887
 31
0.0
  0
LINE
  5
10000281
102
{ACAD_XDICTIONARY
360
10000282
102
}
330
1F
100
AcDbEntity
  8
VISIBLE
100
AcDbLine
 10
52.64611819386484
 20
-88.82159589276887
 30
0.0
 11
52.64611819386484
 21
-92.81399212680918
 31
0.0
  0
LINE
  5
10000284
102
{ACAD_XDICTIONARY
360
10000285
102
}
330
1F
100
AcDbEntity
  8
VISIBLE
100
AcDbLine
 10
52.64611819386484
 20
-92.81399212680918
 30
0.0
 11
31.58230942558513
 21
-92.81399212680918
 31
0.0
  0
LINE
  5
10000287
102
{ACAD_XDICTIONARY
360
10000288
102
}
330
1F
100
AcDbEntity
  8
VISIBLE
100
AcDbLine
 10
31.58230942558513
 20
-92.81399212680918
 30
0.0
 11
31.58230942558513
 21
-87.18037988893705
 31
0.0
  0
LINE
  5
1000028A
102
{ACAD_XDICTIONARY
360
1000028B
102
}
330
1F
100
AcDbEntity
  8
VISIBLE
100
AcDbLine
 10
31.58230942558513
 20
-87.18037988893705
 30
0.0
 11
47.35826775455278
 21
-78.03382777769455
 31
0.0
  0
LINE
  5
1000028D
102
{ACAD_XDICTIONARY
360
1000028E
102
}
330
1F
100
AcDbEntity
  8
VISIBLE
100
AcDbLine
 10
47.35826775455278
 20
-78.03382777769455
 30
0.0
 11
47.35826775455278
 21
-77.93240431678359
 31
0.0
  0
SPLINE
  5
10000290
102
{ACAD_XDICTIONARY
360
10000291
102
}
330
1F
100
AcDbEntity
  8
VISIBLE
100
AcDbSpline
210
0.0
220
0.0
230
1.0
 70
     8
 71
     2
 72
     6
 73
     3
 74
     0
 42
0.000000001
 43
0.00000001
 40
0.0
 40
0.0
 40
0.0
 40
1.0
 40
1.0
 40
1.0
 10
47.35826775455278
 20
-77.93240431678359
 30
0.0
 10
43.2506175876591
 20
-78.14908171054792
 30
0.0
 10
41.55407969605766
 20
-78.14908171054792
 30
0.0
  0
LINE
  5
10000293
102
{ACAD_XDICTIONARY
360
10000294
102
}
330
1F
100
AcDbEntity
  8
VISIBLE
100
AcDbLine
 10
41.55407969605767
 20
-78.14908171054792
 30
0.0
 11
31.58230942558513
 21
-78.14908171054792
 31
0.0
  0
LINE
  5
10000296
102
{ACAD_XDICTIONARY
360
10000297
102
}
330
1F
100
AcDbEntity
  8
VISIBLE
100
AcDbLine
 10
31.58230942558513
 20
-78.14908171054792
 30
0.0
 11
31.58230942558513
 21
-74.12902453262278
 31
0.0
  0
LINE
  5
10000299
102
{ACAD_XDICTIONARY
360
1000029A
102
}
330
1F
100
AcDbEntity
  8
VISIBLE
100
AcDbLine
 10
31.58230942558513
 20
-74.12902453262278
 30
0.0
 11
52.64611819386484
 21
-74.12902453262278
 31
0.0
  0
ENDSEC
  0
SECTION
  2
OBJECTS
  0
DICTIONARY
  5
C
330
0
100
AcDbDictionary
  3
ACAD_GROUP
350
D
  3
ACAD_LAYOUT
350
1A
  3
ACAD_MATERIAL
350
43
  3
ACAD_MLEADERSTYLE
350
6B
  3
ACAD_MLINESTYLE
350
17
  3
ACAD_PLOTSETTINGS
350
19
  3
ACAD_SCALELIST
350
47
  3
ACAD_VISUALSTYLE
350
2A
  3
ACDBHEADERROUNDTRIPXREC
350
1000029E
  3
ACDBVARIABLEDICTIONARY
350
100002BF
  3
DWGPROPS
350
100002C6
  3
ONSHAPE_DATA
350
10000001
  0
DICTIONARY
  5
100002C7
330
8
100
AcDbDictionary
280
     1
  3
ACAD_XREC_ROUNDTRIP
360
100002C8
  0
DICTIONARY
  5
1000029C
330
1F
100
AcDbDictionary
280
     1
  3
ACAD_SORTENTS
360
1000029D
  0
DICTIONARY
  5
1000004E
330
1000004D
100
AcDbDictionary
280
     1
  3
BTDETID
360
1000004F
  0
DICTIONARY
  5
10000051
330
10000050
100
AcDbDictionary
280
     1
  3
BTDETID
360
10000052
  0
DICTIONARY
  5
10000054
330
10000053
100
AcDbDictionary
280
     1
  3
BTDETID
360
10000055
  0
DICTIONARY
  5
10000057
330
10000056
100
AcDbDictionary
280
     1
  3
BTDETID
360
10000058
  0
DICTIONARY
  5
1000005A
330
10000059
100
AcDbDictionary
280
     1
  3
BTDETID
360
1000005B
  0
DICTIONARY
  5
1000005D
330
1000005C
100
AcDbDictionary
280
     1
  3
BTDETID
360
1000005E
  0
DICTIONARY
  5
10000060
330
1000005F
100
AcDbDictionary
280
     1
  3
BTDETID
360
10000061
  0
DICTIONARY
  5
10000063
330
10000062
100
AcDbDictionary
280
     1
  3
BTDETID
360
10000064
  0
DICTIONARY
  5
10000066
330
10000065
100
AcDbDictionary
280
     1
  3
BTDETID
360
10000067
  0
DICTIONARY
  5
10000069
330
10000068
100
AcDbDictionary
280
     1
  3
BTDETID
360
1000006A
  0
DICTIONARY
  5
1000006C
330
1000006B
100
AcDbDictionary
280
     1
  3
BTDETID
360
1000006D
  0
DICTIONARY
  5
1000006F
330
1000006E
100
AcDbDictionary
280
     1
  3
BTDETID
360
10000070
  0
DICTIONARY
  5
10000072
330
10000071
100
AcDbDictionary
280
     1
  3
BTDETID
360
10000073
  0
DICTIONARY
  5
10000075
330
10000074
100
AcDbDictionary
280
     1
  3
BTDETID
360
10000076
  0
DICTIONARY
  5
10000078
330
10000077
100
AcDbDictionary
280
     1
  3
BTDETID
360
10000079
  0
DICTIONARY
  5
1000007B
330
1000007A
100
AcDbDictionary
280
     1
  3
BTDETID
360
1000007C
  0
DICTIONARY
  5
1000007E
330
1000007D
100
AcDbDictionary
280
     1
  3
BTDETID
360
1000007F
  0
DICTIONARY
  5
10000081
330
10000080
100
AcDbDictionary
280
     1
  3
BTDETID
360
10000082
  0
DICTIONARY
  5
10000084
330
10000083
100
AcDbDictionary
280
     1
  3
BTDETID
360
10000085
  0
DICTIONARY
  5
10000087
330
10000086
100
AcDbDictionary
280
     1
  3
BTDETID
360
10000088
  0
DICTIONARY
  5
1000008A
330
10000089
100
AcDbDictionary
280
     1
  3
BTDETID
360
1000008B
  0
DICTIONARY
  5
1000008D
330
1000008C
100
AcDbDictionary
280
     1
  3
BTDETID
360
1000008E
  0
DICTIONARY
  5
10000090
330
1000008F
100
AcDbDictionary
280
     1
  3
BTDETID
360
10000091
  0
DICTIONARY
  5
10000093
330
10000092
100
AcDbDictionary
280
     1
  3
BTDETID
360
10000094
  0
DICTIONARY
  5
10000096
330
10000095
100
AcDbDictionary
280
     1
  3
BTDETID
360
10000097
  0
DICTIONARY
  5
10000099
330
10000098
100
AcDbDictionary
280
     1
  3
BTDETID
360
1000009A
  0
DICTIONARY
  5
1000009C
330
1000009B
100
AcDbDictionary
280
     1
  3
BTDETID
360
1000009D
  0
DICTIONARY
  5
1000009F
330
1000009E
100
AcDbDictionary
280
     1
  3
BTDETID
360
100000A0
  0
DICTIONARY
  5
100000A2
330
100000A1
100
AcDbDictionary
280
     1
  3
BTDETID
360
100000A3
  0
DICTIONARY
  5
100000A5
330
100000A4
100
AcDbDictionary
280
     1
  3
BTDETID
360
100000A6
  0
DICTIONARY
  5
100000A8
330
100000A7
100
AcDbDictionary
280
     1
  3
BTDETID
360
100000A9
  0
DICTIONARY
  5
100000AB
330
100000AA
100
AcDbDictionary
280
     1
  3
BTDETID
360
100000AC
  0
DICTIONARY
  5
100000AE
330
100000AD
100
AcDbDictionary
280
     1
  3
BTDETID
360
100000AF
  0
DICTIONARY
  5
100000B1
330
100000B0
100
AcDbDictionary
280
     1
  3
BTDETID
360
100000B2
  0
DICTIONARY
  5
100000B4
330
100000B3
100
AcDbDictionary
280
     1
  3
BTDETID
360
100000B5
  0
DICTIONARY
  5
100000B7
330
100000B6
100
AcDbDictionary
280
     1
  3
BTDETID
360
100000B8
  0
DICTIONARY
  5
100000BA
330
100000B9
100
AcDbDictionary
280
     1
  3
BTDETID
360
100000BB
  0
DICTIONARY
  5
100000BD
330
100000BC
100
AcDbDictionary
280
     1
  3
BTDETID
360
100000BE
  0
DICTIONARY
  5
100000C0
330
100000BF
100
AcDbDictionary
280
     1
  3
BTDETID
360
100000C1
  0
DICTIONARY
  5
100000C3
330
100000C2
100
AcDbDictionary
280
     1
  3
BTDETID
360
100000C4
  0
DICTIONARY
  5
100000C6
330
100000C5
100
AcDbDictionary
280
     1
  3
BTDETID
360
100000C7
  0
DICTIONARY
  5
100000C9
330
100000C8
100
AcDbDictionary
280
     1
  3
BTDETID
360
100000CA
  0
DICTIONARY
  5
100000CC
330
100000CB
100
AcDbDictionary
280
     1
  3
BTDETID
360
100000CD
  0
DICTIONARY
  5
100000CF
330
100000CE
100
AcDbDictionary
280
     1
  3
BTDETID
360
100000D0
  0
DICTIONARY
  5
100000D2
330
100000D1
100
AcDbDictionary
280
     1
  3
BTDETID
360
100000D3
  0
DICTIONARY
  5
100000D5
330
100000D4
100
AcDbDictionary
280
     1
  3
BTDETID
360
100000D6
  0
DICTIONARY
  5
100000D8
330
100000D7
100
AcDbDictionary
280
     1
  3
BTDETID
360
100000D9
  0
DICTIONARY
  5
100000DB
330
100000DA
100
AcDbDictionary
280
     1
  3
BTDETID
360
100000DC
  0
DICTIONARY
  5
100000DE
330
100000DD
100
AcDbDictionary
280
     1
  3
BTDETID
360
100000DF
  0
DICTIONARY
  5
100000E1
330
100000E0
100
AcDbDictionary
280
     1
  3
BTDETID
360
100000E2
  0
DICTIONARY
  5
100000E4
330
100000E3
100
AcDbDictionary
280
     1
  3
BTDETID
360
100000E5
  0
DICTIONARY
  5
100000E7
330
100000E6
100
AcDbDictionary
280
     1
  3
BTDETID
360
100000E8
  0
DICTIONARY
  5
100000EA
330
100000E9
100
AcDbDictionary
280
     1
  3
BTDETID
360
100000EB
  0
DICTIONARY
  5
100000ED
330
100000EC
100
AcDbDictionary
280
     1
  3
BTDETID
360
100000EE
  0
DICTIONARY
  5
100000F0
330
100000EF
100
AcDbDictionary
280
     1
  3
BTDETID
360
100000F1
  0
DICTIONARY
  5
100000F3
330
100000F2
100
AcDbDictionary
280
     1
  3
BTDETID
360
100000F4
  0
DICTIONARY
  5
100000F6
330
100000F5
100
AcDbDictionary
280
     1
  3
BTDETID
360
100000F7
  0
DICTIONARY
  5
100000F9
330
100000F8
100
AcDbDictionary
280
     1
  3
BTDETID
360
100000FA
  0
DICTIONARY
  5
100000FC
330
100000FB
100
AcDbDictionary
280
     1
  3
BTDETID
360
100000FD
  0
DICTIONARY
  5
100000FF
330
100000FE
100
AcDbDictionary
280
     1
  3
BTDETID
360
10000100
  0
DICTIONARY
  5
10000102
330
10000101
100
AcDbDictionary
280
     1
  3
BTDETID
360
10000103
  0
DICTIONARY
  5
10000105
330
10000104
100
AcDbDictionary
280
     1
  3
BTDETID
360
10000106
  0
DICTIONARY
  5
10000108
330
10000107
100
AcDbDictionary
280
     1
  3
BTDETID
360
10000109
  0
DICTIONARY
  5
1000010B
330
1000010A
100
AcDbDictionary
280
     1
  3
BTDETID
360
1000010C
  0
DICTIONARY
  5
1000010E
330
1000010D
100
AcDbDictionary
280
     1
  3
BTDETID
360
1000010F
  0
DICTIONARY
  5
10000111
330
10000110
100
AcDbDictionary
280
     1
  3
BTDETID
360
10000112
  0
DICTIONARY
  5
10000114
330
10000113
100
AcDbDictionary
280
     1
  3
BTDETID
360
10000115
  0
DICTIONARY
  5
10000117
330
10000116
100
AcDbDictionary
280
     1
  3
BTDETID
360
10000118
  0
DICTIONARY
  5
1000011A
330
10000119
100
AcDbDictionary
280
     1
  3
BTDETID
360
1000011B
  0
DICTIONARY
  5
1000011D
330
1000011C
100
AcDbDictionary
280
     1
  3
BTDETID
360
1000011E
  0
DICTIONARY
  5
10000120
330
1000011F
100
AcDbDictionary
280
     1
  3
BTDETID
360
10000121
  0
DICTIONARY
  5
10000123
330
10000122
100
AcDbDictionary
280
     1
  3
BTDETID
360
10000124
  0
DICTIONARY
  5
10000126
330
10000125
100
AcDbDictionary
280
     1
  3
BTDETID
360
10000127
  0
DICTIONARY
  5
10000129
330
10000128
100
AcDbDictionary
280
     1
  3
BTDETID
360
1000012A
  0
DICTIONARY
  5
1000012C
330
1000012B
100
AcDbDictionary
280
     1
  3
BTDETID
360
1000012D
  0
DICTIONARY
  5
1000012F
330
1000012E
100
AcDbDictionary
280
     1
  3
BTDETID
360
10000130
  0
DICTIONARY
  5
10000132
330
10000131
100
AcDbDictionary
280
     1
  3
BTDETID
360
10000133
  0
DICTIONARY
  5
10000135
330
10000134
100
AcDbDictionary
280
     1
  3
BTDETID
360
10000136
  0
DICTIONARY
  5
10000138
330
10000137
100
AcDbDictionary
280
     1
  3
BTDETID
360
10000139
  0
DICTIONARY
  5
1000013B
330
1000013A
100
AcDbDictionary
280
     1
  3
BTDETID
360
1000013C
  0
DICTIONARY
  5
1000013E
330
1000013D
100
AcDbDictionary
280
     1
  3
BTDETID
360
1000013F
  0
DICTIONARY
  5
10000141
330
10000140
100
AcDbDictionary
280
     1
  3
BTDETID
360
10000142
  0
DICTIONARY
  5
10000144
330
10000143
100
AcDbDictionary
280
     1
  3
BTDETID
360
10000145
  0
DICTIONARY
  5
10000147
330
10000146
100
AcDbDictionary
280
     1
  3
BTDETID
360
10000148
  0
DICTIONARY
  5
1000014A
330
10000149
100
AcDbDictionary
280
     1
  3
BTDETID
360
1000014B
  0
DICTIONARY
  5
1000014D
330
1000014C
100
AcDbDictionary
280
     1
  3
BTDETID
360
1000014E
  0
DICTIONARY
  5
10000150
330
1000014F
100
AcDbDictionary
280
     1
  3
BTDETID
360
10000151
  0
DICTIONARY
  5
10000153
330
10000152
100
AcDbDictionary
280
     1
  3
BTDETID
360
10000154
  0
DICTIONARY
  5
10000156
330
10000155
100
AcDbDictionary
280
     1
  3
BTDETID
360
10000157
  0
DICTIONARY
  5
10000159
330
10000158
100
AcDbDictionary
280
     1
  3
BTDETID
360
1000015A
  0
DICTIONARY
  5
1000015C
330
1000015B
100
AcDbDictionary
280
     1
  3
BTDETID
360
1000015D
  0
DICTIONARY
  5
1000015F
330
1000015E
100
AcDbDictionary
280
     1
  3
BTDETID
360
10000160
  0
DICTIONARY
  5
10000162
330
10000161
100
AcDbDictionary
280
     1
  3
BTDETID
360
10000163
  0
DICTIONARY
  5
10000165
330
10000164
100
AcDbDictionary
280
     1
  3
BTDETID
360
10000166
  0
DICTIONARY
  5
10000168
330
10000167
100
AcDbDictionary
280
     1
  3
BTDETID
360
10000169
  0
DICTIONARY
  5
1000016B
330
1000016A
100
AcDbDictionary
280
     1
  3
BTDETID
360
1000016C
  0
DICTIONARY
  5
1000016E
330
1000016D
100
AcDbDictionary
280
     1
  3
BTDETID
360
1000016F
  0
DICTIONARY
  5
10000171
330
10000170
100
AcDbDictionary
280
     1
  3
BTDETID
360
10000172
  0
DICTIONARY
  5
10000174
330
10000173
100
AcDbDictionary
280
     1
  3
BTDETID
360
10000175
  0
DICTIONARY
  5
10000177
330
10000176
100
AcDbDictionary
280
     1
  3
BTDETID
360
10000178
  0
DICTIONARY
  5
1000017A
330
10000179
100
AcDbDictionary
280
     1
  3
BTDETID
360
1000017B
  0
DICTIONARY
  5
1000017D
330
1000017C
100
AcDbDictionary
280
     1
  3
BTDETID
360
1000017E
  0
DICTIONARY
  5
10000180
330
1000017F
100
AcDbDictionary
280
     1
  3
BTDETID
360
10000181
  0
DICTIONARY
  5
10000183
330
10000182
100
AcDbDictionary
280
     1
  3
BTDETID
360
10000184
  0
DICTIONARY
  5
10000186
330
10000185
100
AcDbDictionary
280
     1
  3
BTDETID
360
10000187
  0
DICTIONARY
  5
10000189
330
10000188
100
AcDbDictionary
280
     1
  3
BTDETID
360
1000018A
  0
DICTIONARY
  5
1000018C
330
1000018B
100
AcDbDictionary
280
     1
  3
BTDETID
360
1000018D
  0
DICTIONARY
  5
1000018F
330
1000018E
100
AcDbDictionary
280
     1
  3
BTDETID
360
10000190
  0
DICTIONARY
  5
10000192
330
10000191
100
AcDbDictionary
280
     1
  3
BTDETID
360
10000193
  0
DICTIONARY
  5
10000195
330
10000194
100
AcDbDictionary
280
     1
  3
BTDETID
360
10000196
  0
DICTIONARY
  5
10000198
330
10000197
100
AcDbDictionary
280
     1
  3
BTDETID
360
10000199
  0
DICTIONARY
  5
1000019B
330
1000019A
100
AcDbDictionary
280
     1
  3
BTDETID
360
1000019C
  0
DICTIONARY
  5
1000019E
330
1000019D
100
AcDbDictionary
280
     1
  3
BTDETID
360
1000019F
  0
DICTIONARY
  5
100001A1
330
100001A0
100
AcDbDictionary
280
     1
  3
BTDETID
360
100001A2
  0
DICTIONARY
  5
100001A4
330
100001A3
100
AcDbDictionary
280
     1
  3
BTDETID
360
100001A5
  0
DICTIONARY
  5
100001A7
330
100001A6
100
AcDbDictionary
280
     1
  3
BTDETID
360
100001A8
  0
DICTIONARY
  5
100001AA
330
100001A9
100
AcDbDictionary
280
     1
  3
BTDETID
360
100001AB
  0
DICTIONARY
  5
100001AD
330
100001AC
100
AcDbDictionary
280
     1
  3
BTDETID
360
100001AE
  0
DICTIONARY
  5
100001B0
330
100001AF
100
AcDbDictionary
280
     1
  3
BTDETID
360
100001B1
  0
DICTIONARY
  5
100001B3
330
100001B2
100
AcDbDictionary
280
     1
  3
BTDETID
360
100001B4
  0
DICTIONARY
  5
100001B6
330
100001B5
100
AcDbDictionary
280
     1
  3
BTDETID
360
100001B7
  0
DICTIONARY
  5
100001B9
330
100001B8
100
AcDbDictionary
280
     1
  3
BTDETID
360
100001BA
  0
DICTIONARY
  5
100001BC
330
100001BB
100
AcDbDictionary
280
     1
  3
BTDETID
360
100001BD
  0
DICTIONARY
  5
100001BF
330
100001BE
100
AcDbDictionary
280
     1
  3
BTDETID
360
100001C0
  0
DICTIONARY
  5
100001C2
330
100001C1
100
AcDbDictionary
280
     1
  3
BTDETID
360
100001C3
  0
DICTIONARY
  5
100001C5
330
100001C4
100
AcDbDictionary
280
     1
  3
BTDETID
360
100001C6
  0
DICTIONARY
  5
100001C8
330
100001C7
100
AcDbDictionary
280
     1
  3
BTDETID
360
100001C9
  0
DICTIONARY
  5
100001CB
330
100001CA
100
AcDbDictionary
280
     1
  3
BTDETID
360
100001CC
  0
DICTIONARY
  5
100001CE
330
100001CD
100
AcDbDictionary
280
     1
  3
BTDETID
360
100001CF
  0
DICTIONARY
  5
100001D1
330
100001D0
100
AcDbDictionary
280
     1
  3
BTDETID
360
100001D2
  0
DICTIONARY
  5
100001D4
330
100001D3
100
AcDbDictionary
280
     1
  3
BTDETID
360
100001D5
  0
DICTIONARY
  5
100001D7
330
100001D6
100
AcDbDictionary
280
     1
  3
BTDETID
360
100001D8
  0
DICTIONARY
  5
100001DA
330
100001D9
100
AcDbDictionary
280
     1
  3
BTDETID
360
100001DB
  0
DICTIONARY
  5
100001DD
330
100001DC
100
AcDbDictionary
280
     1
  3
BTDETID
360
100001DE
  0
DICTIONARY
  5
100001E0
330
100001DF
100
AcDbDictionary
280
     1
  3
BTDETID
360
100001E1
  0
DICTIONARY
  5
100001E3
330
100001E2
100
AcDbDictionary
280
     1
  3
BTDETID
360
100001E4
  0
DICTIONARY
  5
100001E6
330
100001E5
100
AcDbDictionary
280
     1
  3
BTDETID
360
100001E7
  0
DICTIONARY
  5
100001E9
330
100001E8
100
AcDbDictionary
280
     1
  3
BTDETID
360
100001EA
  0
DICTIONARY
  5
100001EC
330
100001EB
100
AcDbDictionary
280
     1
  3
BTDETID
360
100001ED
  0
DICTIONARY
  5
100001EF
330
100001EE
100
AcDbDictionary
280
     1
  3
BTDETID
360
100001F0
  0
DICTIONARY
  5
100001F2
330
100001F1
100
AcDbDictionary
280
     1
  3
BTDETID
360
100001F3
  0
DICTIONARY
  5
100001F5
330
100001F4
100
AcDbDictionary
280
     1
  3
BTDETID
360
100001F6
  0
DICTIONARY
  5
100001F8
330
100001F7
100
AcDbDictionary
280
     1
  3
BTDETID
360
100001F9
  0
DICTIONARY
  5
100001FB
330
100001FA
100
AcDbDictionary
280
     1
  3
BTDETID
360
100001FC
  0
DICTIONARY
  5
100001FE
330
100001FD
100
AcDbDictionary
280
     1
  3
BTDETID
360
100001FF
  0
DICTIONARY
  5
10000201
330
10000200
100
AcDbDictionary
280
     1
  3
BTDETID
360
10000202
  0
DICTIONARY
  5
10000204
330
10000203
100
AcDbDictionary
280
     1
  3
BTDETID
360
10000205
  0
DICTIONARY
  5
10000207
330
10000206
100
AcDbDictionary
280
     1
  3
BTDETID
360
10000208
  0
DICTIONARY
  5
1000020A
330
10000209
100
AcDbDictionary
280
     1
  3
BTDETID
360
1000020B
  0
DICTIONARY
  5
1000020D
330
1000020C
100
AcDbDictionary
280
     1
  3
BTDETID
360
1000020E
  0
DICTIONARY
  5
10000210
330
1000020F
100
AcDbDictionary
280
     1
  3
BTDETID
360
10000211
  0
DICTIONARY
  5
10000213
330
10000212
100
AcDbDictionary
280
     1
  3
BTDETID
360
10000214
  0
DICTIONARY
  5
10000216
330
10000215
100
AcDbDictionary
280
     1
  3
BTDETID
360
10000217
  0
DICTIONARY
  5
10000219
330
10000218
100
AcDbDictionary
280
     1
  3
BTDETID
360
1000021A
  0
DICTIONARY
  5
1000021C
330
1000021B
100
AcDbDictionary
280
     1
  3
BTDETID
360
1000021D
  0
DICTIONARY
  5
1000021F
330
1000021E
100
AcDbDictionary
280
     1
  3
BTDETID
360
10000220
  0
DICTIONARY
  5
10000222
330
10000221
100
AcDbDictionary
280
     1
  3
BTDETID
360
10000223
  0
DICTIONARY
  5
10000225
330
10000224
100
AcDbDictionary
280
     1
  3
BTDETID
360
10000226
  0
DICTIONARY
  5
10000228
330
10000227
100
AcDbDictionary
280
     1
  3
BTDETID
360
10000229
  0
DICTIONARY
  5
1000022B
330
1000022A
100
AcDbDictionary
280
     1
  3
BTDETID
360
1000022C
  0
DICTIONARY
  5
1000022E
330
1000022D
100
AcDbDictionary
280
     1
  3
BTDETID
360
1000022F
  0
DICTIONARY
  5
10000231
330
10000230
100
AcDbDictionary
280
     1
  3
BTDETID
360
10000232
  0
DICTIONARY
  5
10000234
330
10000233
100
AcDbDictionary
280
     1
  3
BTDETID
360
10000235
  0
DICTIONARY
  5
10000237
330
10000236
100
AcDbDictionary
280
     1
  3
BTDETID
360
10000238
  0
DICTIONARY
  5
1000023A
330
10000239
100
AcDbDictionary
280
     1
  3
BTDETID
360
1000023B
  0
DICTIONARY
  5
1000023D
330
1000023C
100
AcDbDictionary
280
     1
  3
BTDETID
360
1000023E
  0
DICTIONARY
  5
10000240
330
1000023F
100
AcDbDictionary
280
     1
  3
BTDETID
360
10000241
  0
DICTIONARY
  5
10000243
330
10000242
100
AcDbDictionary
280
     1
  3
BTDETID
360
10000244
  0
DICTIONARY
  5
10000246
330
10000245
100
AcDbDictionary
280
     1
  3
BTDETID
360
10000247
  0
DICTIONARY
  5
10000249
330
10000248
100
AcDbDictionary
280
     1
  3
BTDETID
360
1000024A
  0
DICTIONARY
  5
1000024C
330
1000024B
100
AcDbDictionary
280
     1
  3
BTDETID
360
1000024D
  0
DICTIONARY
  5
1000024F
330
1000024E
100
AcDbDictionary
280
     1
  3
BTDETID
360
10000250
  0
DICTIONARY
  5
10000252
330
10000251
100
AcDbDictionary
280
     1
  3
BTDETID
360
10000253
  0
DICTIONARY
  5
10000255
330
10000254
100
AcDbDictionary
280
     1
  3
BTDETID
360
10000256
  0
DICTIONARY
  5
10000258
330
10000257
100
AcDbDictionary
280
     1
  3
BTDETID
360
10000259
  0
DICTIONARY
  5
1000025B
330
1000025A
100
AcDbDictionary
280
     1
  3
BTDETID
360
1000025C
  0
DICTIONARY
  5
1000025E
330
1000025D
100
AcDbDictionary
280
     1
  3
BTDETID
360
1000025F
  0
DICTIONARY
  5
10000261
330
10000260
100
AcDbDictionary
280
     1
  3
BTDETID
360
10000262
  0
DICTIONARY
  5
10000264
330
10000263
100
AcDbDictionary
280
     1
  3
BTDETID
360
10000265
  0
DICTIONARY
  5
10000267
330
10000266
100
AcDbDictionary
280
     1
  3
BTDETID
360
10000268
  0
DICTIONARY
  5
1000026A
330
10000269
100
AcDbDictionary
280
     1
  3
BTDETID
360
1000026B
  0
DICTIONARY
  5
1000026D
330
1000026C
100
AcDbDictionary
280
     1
  3
BTDETID
360
1000026E
  0
DICTIONARY
  5
10000270
330
1000026F
100
AcDbDictionary
280
     1
  3
BTDETID
360
10000271
  0
DICTIONARY
  5
10000273
330
10000272
100
AcDbDictionary
280
     1
  3
BTDETID
360
10000274
  0
DICTIONARY
  5
10000276
330
10000275
100
AcDbDictionary
280
     1
  3
BTDETID
360
10000277
  0
DICTIONARY
  5
10000279
330
10000278
100
AcDbDictionary
280
     1
  3
BTDETID
360
1000027A
  0
DICTIONARY
  5
1000027C
330
1000027B
100
AcDbDictionary
280
     1
  3
BTDETID
360
1000027D
  0
DICTIONARY
  5
1000027F
330
1000027E
100
AcDbDictionary
280
     1
  3
BTDETID
360
10000280
  0
DICTIONARY
  5
10000282
330
10000281
100
AcDbDictionary
280
     1
  3
BTDETID
360
10000283
  0
DICTIONARY
  5
10000285
330
10000284
100
AcDbDictionary
280
     1
  3
BTDETID
360
10000286
  0
DICTIONARY
  5
10000288
330
10000287
100
AcDbDictionary
280
     1
  3
BTDETID
360
10000289
  0
DICTIONARY
  5
1000028B
330
1000028A
100
AcDbDictionary
280
     1
  3
BTDETID
360
1000028C
  0
DICTIONARY
  5
1000028E
330
1000028D
100
AcDbDictionary
280
     1
  3
BTDETID
360
1000028F
  0
DICTIONARY
  5
10000291
330
10000290
100
AcDbDictionary
280
     1
  3
BTDETID
360
10000292
  0
DICTIONARY
  5
10000294
330
10000293
100
AcDbDictionary
280
     1
  3
BTDETID
360
10000295
  0
DICTIONARY
  5
10000297
330
10000296
100
AcDbDictionary
280
     1
  3
BTDETID
360
10000298
  0
DICTIONARY
  5
1000029A
330
10000299
100
AcDbDictionary
280
     1
  3
BTDETID
360
1000029B
  0
DICTIONARY
  5
D
102
{ACAD_REACTORS
330
C
102
}
330
C
100
AcDbDictionary
  0
DICTIONARY
  5
1A
102
{ACAD_REACTORS
330
C
102
}
330
C
100
AcDbDictionary
  0
DICTIONARY
  5
43
102
{ACAD_REACTORS
330
C
102
}
330
C
100
AcDbDictionary
  3
BYBLOCK
350
45
  3
BYLAYER
350
44
  3
GLOBAL
350
46
  0
DICTIONARY
  5
6B
102
{ACAD_REACTORS
330
C
102
}
330
C
100
AcDbDictionary
  3
STANDARD
350
6C
  0
DICTIONARY
  5
17
102
{ACAD_REACTORS
330
C
102
}
330
C
100
AcDbDictionary
  3
STANDARD
350
18
  0
DICTIONARY
  5
19
102
{ACAD_REACTORS
330
C
102
}
330
C
100
AcDbDictionary
  0
DICTIONARY
  5
47
102
{ACAD_REACTORS
330
C
102
}
330
C
100
AcDbDictionary
  3
SCALE100_1
350
10000023
  3
SCALE10_1
350
1000001D
  3
SCALE12_1
350
1000001E
  3
SCALE16_1
350
1000001F
  3
SCALE1_1
350
10000006
  3
SCALE1_10
350
1000000D
  3
SCALE1_100
350
10000016
  3
SCALE1_12
350
1000000E
  3
SCALE1_16
350
1000000F
  3
SCALE1_2
350
10000007
  3
SCALE1_20
350
10000010
  3
SCALE1_25
350
10000011
  3
SCALE1_3
350
10000008
  3
SCALE1_32
350
10000012
  3
SCALE1_4
350
10000009
  3
SCALE1_40
350
10000013
  3
SCALE1_5
350
1000000A
  3
SCALE1_50
350
10000014
  3
SCALE1_6
350
1000000B
  3
SCALE1_8
350
1000000C
  3
SCALE1_80
350
10000015
  3
SCALE20_1
350
10000020
  3
SCALE2_1
350
10000017
  3
SCALE32_1
350
10000021
  3
SCALE3_1
350
10000018
  3
SCALE4_1
350
10000019
  3
SCALE50_1
350
10000022
  3
SCALE5_1
350
1000001A
  3
SCALE6_1
350
1000001B
  3
SCALE8_1
350
1000001C
  0
DICTIONARY
  5
2A
102
{ACAD_REACTORS
330
C
102
}
330
C
100
AcDbDictionary
  3
2DWIREFRAME
350
2F
  3
BASIC
350
32
  3
BRIGHTEN
350
36
  3
COLORCHANGE
350
3A
  3
CONCEPTUAL
350
34
  3
DIM
350
35
  3
EDGECOLOROFF
350
3D
  3
FACEPATTERN
350
39
  3
FLAT
350
2B
  3
FLATWITHEDGES
350
2C
  3
GOURAUD
350
2D
  3
GOURAUDWITHEDGES
350
2E
  3
HIDDEN
350
31
  3
JITTEROFF
350
3B
  3
LINEPATTERN
350
38
  3
OVERHANGOFF
350
3C
  3
REALISTIC
350
33
  3
SHADED
350
42
  3
SHADED_WITH_EDGES
350
41
  3
SHADES_OF_GRAY
350
3E
  3
SKETCHY
350
3F
  3
THICKEN
350
37
  3
WIREFRAME
350
30
  3
X-RAY
350
40
  0
DICTIONARY
  5
1000029E
102
{ACAD_REACTORS
330
C
102
}
330
C
100
AcDbDictionary
  3
CEPSNID
350
100002A8
  3
CEPSNTYPE
350
100002A7
  3
DIMSTYLEDATA
350
100002BE
  3
FINGERPRINTGUID
350
100002A9
  3
HYPERLINKBASE
350
100002A1
  3
INSUNITS
350
100002A6
  3
LAYOUTDICT
350
100002A3
  3
LWETCUNION
350
100002A5
  3
PLOTSETDICT
350
100002A4
  3
PSVPSCALE
350
100002AB
  3
PUCSBASE
350
100002AE
  3
PUCSORGBACK
350
100002B4
  3
PUCSORGBOTTOM
350
100002B0
  3
PUCSORGFRONT
350
100002B3
  3
PUCSORGLEFT
350
100002B1
  3
PUCSORGRIGHT
350
100002B2
  3
PUCSORGTOP
350
100002AF
  3
PUCSORTHOREF
350
100002AC
  3
PUCSORTHOVIEW
350
100002AD
  3
STYLESHEET
350
100002A2
  3
TSTACKALIGN
350
1000029F
  3
TSTACKSIZE
350
100002A0
  3
UCSBASE
350
100002B7
  3
UCSORGBACK
350
100002BD
  3
UCSORGBOTTOM
350
100002B9
  3
UCSORGFRONT
350
100002BC
  3
UCSORGLEFT
350
100002BA
  3
UCSORGRIGHT
350
100002BB
  3
UCSORGTOP
350
100002B8
  3
UCSORTHOREF
350
100002B5
  3
UCSORTHOVIEW
350
100002B6
  3
VERSIONGUID
350
100002AA
  0
DICTIONARY
  5
100002BF
102
{ACAD_REACTORS
330
C
102
}
330
C
100
AcDbDictionary
  3
CANNOSCALE
350
100002C9
  3
CMLEADERSTYLE
350
100002C1
  3
CTABLESTYLE
350
100002C0
  3
DIMASSOC
350
100002C4
  3
HIDETEXT
350
100002C5
  3
MSLTSCALE
350
100002CA
  0
XRECORD
  5
100002C6
102
{ACAD_REACTORS
330
C
102
}
330
C
100
AcDbXrecord
  1
DWGPROPS COOKIE
  2

  3

  4

  6
File was created by BTDwgCreate
  7

  8

  9

300
=
301
=
302
=
303
=
304
=
305
=
306
=
307
=
308
=
309
=
 40
0.0
 41
2458963.578851435
 42
2458963.578851516
  1

 90
        0
  0
DICTIONARY
  5
10000001
102
{ACAD_REACTORS
330
C
102
}
330
C
100
AcDbDictionary
280
     1
  3
DIM_UNITS
360
10000003
  3
DWGGEN_VERSION
360
10000002
  3
FIRST_ANGLE
360
10000005
  0
XRECORD
  5
100002C8
102
{ACAD_REACTORS
330
100002C7
102
}
330
100002C7
100
AcDbXrecord
102
VTR_0.000_0.000_1.000_1.000_VISUALSTYLE
340
2F
102
VTR_0.000_0.000_1.000_1.000_GRIDDISPLAY
 70
     3
102
VTR_0.000_0.000_1.000_1.000_GRIDMAJOR
 70
     5
102
VTR_0.000_0.000_1.000_1.000_DEFAULTLIGHTING
280
     1
102
VTR_0.000_0.000_1.000_1.000_DEFAULTLIGHTINGTYPE
 70
     1
102
VTR_0.000_0.000_1.000_1.000_BRIGHTNESS
141
0.0
102
VTR_0.000_0.000_1.000_1.000_CONTRAST
142
0.0
  0
SORTENTSTABLE
  5
1000029D
102
{ACAD_REACTORS
330
1000029C
102
}
330
1000029C
100
AcDbSortentsTable
330
1F
  0
XRECORD
  5
1000004F
102
{ACAD_REACTORS
330
1000004E
102
}
330
1000004E
100
AcDbXrecord
1000
SeF1S
  0
XRECORD
  5
10000052
102
{ACAD_REACTORS
330
10000051
102
}
330
10000051
100
AcDbXrecord
1000
SeF9S
  0
XRECORD
  5
10000055
102
{ACAD_REACTORS
330
10000054
102
}
330
10000054
100
AcDbXrecord
1000
SeFFT
  0
XRECORD
  5
10000058
102
{ACAD_REACTORS
330
10000057
102
}
330
10000057
100
AcDbXrecord
1000
SeFNT
  0
XRECORD
  5
1000005B
102
{ACAD_REACTORS
330
1000005A
102
}
330
1000005A
100
AcDbXrecord
1000
SeFVT
  0
XRECORD
  5
1000005E
102
{ACAD_REACTORS
330
1000005D
102
}
330
1000005D
100
AcDbXrecord
1000
SeFdT
  0
XRECORD
  5
10000061
102
{ACAD_REACTORS
330
10000060
102
}
330
10000060
100
AcDbXrecord
1000
SeFlT
  0
XRECORD
  5
10000064
102
{ACAD_REACTORS
330
10000063
102
}
330
10000063
100
AcDbXrecord
1000
SeFtT
  0
XRECORD
  5
10000067
102
{ACAD_REACTORS
330
10000066
102
}
330
10000066
100
AcDbXrecord
1000
SeF1T
  0
XRECORD
  5
1000006A
102
{ACAD_REACTORS
330
10000069
102
}
330
10000069
100
AcDbXrecord
1000
SeF9T
  0
XRECORD
  5
1000006D
102
{ACAD_REACTORS
330
1000006C
102
}
330
1000006C
100
AcDbXrecord
1000
SeFlV
  0
XRECORD
  5
10000070
102
{ACAD_REACTORS
330
1000006F
102
}
330
1000006F
100
AcDbXrecord
1000
SeFtV
  0
XRECORD
  5
10000073
102
{ACAD_REACTORS
330
10000072
102
}
330
10000072
100
AcDbXrecord
1000
SeF1V
  0
XRECORD
  5
10000076
102
{ACAD_REACTORS
330
10000075
102
}
330
10000075
100
AcDbXrecord
1000
SeF9V
  0
XRECORD
  5
10000079
102
{ACAD_REACTORS
330
10000078
102
}
330
10000078
100
AcDbXrecord
1000
SeFFW
  0
XRECORD
  5
1000007C
102
{ACAD_REACTORS
330
1000007B
102
}
330
1000007B
100
AcDbXrecord
1000
SeFNW
  0
XRECORD
  5
1000007F
102
{ACAD_REACTORS
330
1000007E
102
}
330
1000007E
100
AcDbXrecord
1000
SeFVW
  0
XRECORD
  5
10000082
102
{ACAD_REACTORS
330
10000081
102
}
330
10000081
100
AcDbXrecord
1000
SeFdW
  0
XRECORD
  5
10000085
102
{ACAD_REACTORS
330
10000084
102
}
330
10000084
100
AcDbXrecord
1000
SeFlW
  0
XRECORD
  5
10000088
102
{ACAD_REACTORS
330
10000087
102
}
330
10000087
100
AcDbXrecord
1000
SeFtW
  0
XRECORD
  5
1000008B
102
{ACAD_REACTORS
330
1000008A
102
}
330
1000008A
100
AcDbXrecord
1000
SeF1W
  0
XRECORD
  5
1000008E
102
{ACAD_REACTORS
330
1000008D
102
}
330
1000008D
100
AcDbXrecord
1000
SeF9W
  0
XRECORD
  5
10000091
102
{ACAD_REACTORS
330
10000090
102
}
330
10000090
100
AcDbXrecord
1000
SeFFX
  0
XRECORD
  5
10000094
102
{ACAD_REACTORS
330
10000093
102
}
330
10000093
100
AcDbXrecord
1000
SeFNX
  0
XRECORD
  5
10000097
102
{ACAD_REACTORS
330
10000096
102
}
330
10000096
100
AcDbXrecord
1000
SeFVY
  0
XRECORD
  5
1000009A
102
{ACAD_REACTORS
330
10000099
102
}
330
10000099
100
AcDbXrecord
1000
SeFdY
  0
XRECORD
  5
1000009D
102
{ACAD_REACTORS
330
1000009C
102
}
330
1000009C
100
AcDbXrecord
1000
SeFlY
  0
XRECORD
  5
100000A0
102
{ACAD_REACTORS
330
1000009F
102
}
330
1000009F
100
AcDbXrecord
1000
SeFtY
  0
XRECORD
  5
100000A3
102
{ACAD_REACTORS
330
100000A2
102
}
330
100000A2
100
AcDbXrecord
1000
SeFFb
  0
XRECORD
  5
100000A6
102
{ACAD_REACTORS
330
100000A5
102
}
330
100000A5
100
AcDbXrecord
1000
SeFNb
  0
XRECORD
  5
100000A9
102
{ACAD_REACTORS
330
100000A8
102
}
330
100000A8
100
AcDbXrecord
1000
SeFVb
  0
XRECORD
  5
100000AC
102
{ACAD_REACTORS
330
100000AB
102
}
330
100000AB
100
AcDbXrecord
1000
SeFdb
  0
XRECORD
  5
100000AF
102
{ACAD_REACTORS
330
100000AE
102
}
330
100000AE
100
AcDbXrecord
1000
SeFlb
  0
XRECORD
  5
100000B2
102
{ACAD_REACTORS
330
100000B1
102
}
330
100000B1
100
AcDbXrecord
1000
SeFtb
  0
XRECORD
  5
100000B5
102
{ACAD_REACTORS
330
100000B4
102
}
330
100000B4
100
AcDbXrecord
1000
SeF1b
  0
XRECORD
  5
100000B8
102
{ACAD_REACTORS
330
100000B7
102
}
330
100000B7
100
AcDbXrecord
1000
SeF9b
  0
XRECORD
  5
100000BB
102
{ACAD_REACTORS
330
100000BA
102
}
330
100000BA
100
AcDbXrecord
1000
SeFte
  0
XRECORD
  5
100000BE
102
{ACAD_REACTORS
330
100000BD
102
}
330
100000BD
100
AcDbXrecord
1000
SeF1e
  0
XRECORD
  5
100000C1
102
{ACAD_REACTORS
330
100000C0
102
}
330
100000C0
100
AcDbXrecord
1000
SeF9e
  0
XRECORD
  5
100000C4
102
{ACAD_REACTORS
330
100000C3
102
}
330
100000C3
100
AcDbXrecord
1000
SeFFf
  0
XRECORD
  5
100000C7
102
{ACAD_REACTORS
330
100000C6
102
}
330
100000C6
100
AcDbXrecord
1000
SeFNf
  0
XRECORD
  5
100000CA
102
{ACAD_REACTORS
330
100000C9
102
}
330
100000C9
100
AcDbXrecord
1000
SeFVf
  0
XRECORD
  5
100000CD
102
{ACAD_REACTORS
330
100000CC
102
}
330
100000CC
100
AcDbXrecord
1000
SeFdf
  0
XRECORD
  5
100000D0
102
{ACAD_REACTORS
330
100000CF
102
}
330
100000CF
100
AcDbXrecord
1000
SeFlf
  0
XRECORD
  5
100000D3
102
{ACAD_REACTORS
330
100000D2
102
}
330
100000D2
100
AcDbXrecord
1000
SeFtf
  0
XRECORD
  5
100000D6
102
{ACAD_REACTORS
330
100000D5
102
}
330
100000D5
100
AcDbXrecord
1000
SeF1f
  0
XRECORD
  5
100000D9
102
{ACAD_REACTORS
330
100000D8
102
}
330
100000D8
100
AcDbXrecord
1000
SeF9f
  0
XRECORD
  5
100000DC
102
{ACAD_REACTORS
330
100000DB
102
}
330
100000DB
100
AcDbXrecord
1000
SeFFg
  0
XRECORD
  5
100000DF
102
{ACAD_REACTORS
330
100000DE
102
}
330
100000DE
100
AcDbXrecord
1000
SeFlZ
  0
XRECORD
  5
100000E2
102
{ACAD_REACTORS
330
100000E1
102
}
330
100000E1
100
AcDbXrecord
1000
SeFtZ
  0
XRECORD
  5
100000E5
102
{ACAD_REACTORS
330
100000E4
102
}
330
100000E4
100
AcDbXrecord
1000
SeF1Z
  0
XRECORD
  5
100000E8
102
{ACAD_REACTORS
330
100000E7
102
}
330
100000E7
100
AcDbXrecord
1000
SeF9Z
  0
XRECORD
  5
100000EB
102
{ACAD_REACTORS
330
100000EA
102
}
330
100000EA
100
AcDbXrecord
1000
SeFFa
  0
XRECORD
  5
100000EE
102
{ACAD_REACTORS
330
100000ED
102
}
330
100000ED
100
AcDbXrecord
1000
SeFNa
  0
XRECORD
  5
100000F1
102
{ACAD_REACTORS
330
100000F0
102
}
330
100000F0
100
AcDbXrecord
1000
SeFVa
  0
XRECORD
  5
100000F4
102
{ACAD_REACTORS
330
100000F3
102
}
330
100000F3
100
AcDbXrecord
1000
SeFda
  0
XRECORD
  5
100000F7
102
{ACAD_REACTORS
330
100000F6
102
}
330
100000F6
100
AcDbXrecord
1000
SeF1L
  0
XRECORD
  5
100000FA
102
{ACAD_REACTORS
330
100000F9
102
}
330
100000F9
100
AcDbXrecord
1000
SeF9L
  0
XRECORD
  5
100000FD
102
{ACAD_REACTORS
330
100000FC
102
}
330
100000FC
100
AcDbXrecord
1000
SeFFM
  0
XRECORD
  5
10000100
102
{ACAD_REACTORS
330
100000FF
102
}
330
100000FF
100
AcDbXrecord
1000
SeFNM
  0
XRECORD
  5
10000103
102
{ACAD_REACTORS
330
10000102
102
}
330
10000102
100
AcDbXrecord
1000
SeFVM
  0
XRECORD
  5
10000106
102
{ACAD_REACTORS
330
10000105
102
}
330
10000105
100
AcDbXrecord
1000
SeFdM
  0
XRECORD
  5
10000109
102
{ACAD_REACTORS
330
10000108
102
}
330
10000108
100
AcDbXrecord
1000
SeFlM
  0
XRECORD
  5
1000010C
102
{ACAD_REACTORS
330
1000010B
102
}
330
1000010B
100
AcDbXrecord
1000
SeFtM
  0
XRECORD
  5
1000010F
102
{ACAD_REACTORS
330
1000010E
102
}
330
1000010E
100
AcDbXrecord
1000
SeFNg
  0
XRECORD
  5
10000112
102
{ACAD_REACTORS
330
10000111
102
}
330
10000111
100
AcDbXrecord
1000
SeFVg
  0
XRECORD
  5
10000115
102
{ACAD_REACTORS
330
10000114
102
}
330
10000114
100
AcDbXrecord
1000
SeFdg
  0
XRECORD
  5
10000118
102
{ACAD_REACTORS
330
10000117
102
}
330
10000117
100
AcDbXrecord
1000
SeFlg
  0
XRECORD
  5
1000011B
102
{ACAD_REACTORS
330
1000011A
102
}
330
1000011A
100
AcDbXrecord
1000
SeFtg
  0
XRECORD
  5
1000011E
102
{ACAD_REACTORS
330
1000011D
102
}
330
1000011D
100
AcDbXrecord
1000
SeF1g
  0
XRECORD
  5
10000121
102
{ACAD_REACTORS
330
10000120
102
}
330
10000120
100
AcDbXrecord
1000
SeF9g
  0
XRECORD
  5
10000124
102
{ACAD_REACTORS
330
10000123
102
}
330
10000123
100
AcDbXrecord
1000
SeFFh
  0
XRECORD
  5
10000127
102
{ACAD_REACTORS
330
10000126
102
}
330
10000126
100
AcDbXrecord
1000
RuEF
  0
XRECORD
  5
1000012A
102
{ACAD_REACTORS
330
10000129
102
}
330
10000129
100
AcDbXrecord
1000
RuEN
  0
XRECORD
  5
1000012D
102
{ACAD_REACTORS
330
1000012C
102
}
330
1000012C
100
AcDbXrecord
1000
SFDNq
  0
XRECORD
  5
10000130
102
{ACAD_REACTORS
330
1000012F
102
}
330
1000012F
100
AcDbXrecord
1000
SsERB
  0
XRECORD
  5
10000133
102
{ACAD_REACTORS
330
10000132
102
}
330
10000132
100
AcDbXrecord
1000
SrEJB
  0
XRECORD
  5
10000136
102
{ACAD_REACTORS
330
10000135
102
}
330
10000135
100
AcDbXrecord
1000
RrE5
  0
XRECORD
  5
10000139
102
{ACAD_REACTORS
330
10000138
102
}
330
10000138
100
AcDbXrecord
1000
SrEBB
  0
XRECORD
  5
1000013C
102
{ACAD_REACTORS
330
1000013B
102
}
330
1000013B
100
AcDbXrecord
1000
SsEVB
  0
XRECORD
  5
1000013F
102
{ACAD_REACTORS
330
1000013E
102
}
330
1000013E
100
AcDbXrecord
1000
SFD9p
  0
XRECORD
  5
10000142
102
{ACAD_REACTORS
330
10000141
102
}
330
10000141
100
AcDbXrecord
1000
RsEd
  0
XRECORD
  5
10000145
102
{ACAD_REACTORS
330
10000144
102
}
330
10000144
100
AcDbXrecord
1000
SrEJC
  0
XRECORD
  5
10000148
102
{ACAD_REACTORS
330
10000147
102
}
330
10000147
100
AcDbXrecord
1000
RsEN
  0
XRECORD
  5
1000014B
102
{ACAD_REACTORS
330
1000014A
102
}
330
1000014A
100
AcDbXrecord
1000
SvDJC
  0
XRECORD
  5
1000014E
102
{ACAD_REACTORS
330
1000014D
102
}
330
1000014D
100
AcDbXrecord
1000
SvDFB
  0
XRECORD
  5
10000151
102
{ACAD_REACTORS
330
10000150
102
}
330
10000150
100
AcDbXrecord
1000
RvDV
  0
XRECORD
  5
10000154
102
{ACAD_REACTORS
330
10000153
102
}
330
10000153
100
AcDbXrecord
1000
SvDpB
  0
XRECORD
  5
10000157
102
{ACAD_REACTORS
330
10000156
102
}
330
10000156
100
AcDbXrecord
1000
RvDt
  0
XRECORD
  5
1000015A
102
{ACAD_REACTORS
330
10000159
102
}
330
10000159
100
AcDbXrecord
1000
SvDBB
  0
XRECORD
  5
1000015D
102
{ACAD_REACTORS
330
1000015C
102
}
330
1000015C
100
AcDbXrecord
1000
SvDNC
  0
XRECORD
  5
10000160
102
{ACAD_REACTORS
330
1000015F
102
}
330
1000015F
100
AcDbXrecord
1000
RsEJ
  0
XRECORD
  5
10000163
102
{ACAD_REACTORS
330
10000162
102
}
330
10000162
100
AcDbXrecord
1000
SrEpB
  0
XRECORD
  5
10000166
102
{ACAD_REACTORS
330
10000165
102
}
330
10000165
100
AcDbXrecord
1000
RsEZ
  0
XRECORD
  5
10000169
102
{ACAD_REACTORS
330
10000168
102
}
330
10000168
100
AcDbXrecord
1000
SsEdB
  0
XRECORD
  5
1000016C
102
{ACAD_REACTORS
330
1000016B
102
}
330
1000016B
100
AcDbXrecord
1000
R3DN
  0
XRECORD
  5
1000016F
102
{ACAD_REACTORS
330
1000016E
102
}
330
1000016E
100
AcDbXrecord
1000
R3DJ
  0
XRECORD
  5
10000172
102
{ACAD_REACTORS
330
10000171
102
}
330
10000171
100
AcDbXrecord
1000
R3DR
  0
XRECORD
  5
10000175
102
{ACAD_REACTORS
330
10000174
102
}
330
10000174
100
AcDbXrecord
1000
SsEZB
  0
XRECORD
  5
10000178
102
{ACAD_REACTORS
330
10000177
102
}
330
10000177
100
AcDbXrecord
1000
R3Dt
  0
XRECORD
  5
1000017B
102
{ACAD_REACTORS
330
1000017A
102
}
330
1000017A
100
AcDbXrecord
1000
R3DB
  0
XRECORD
  5
1000017E
102
{ACAD_REACTORS
330
1000017D
102
}
330
1000017D
100
AcDbXrecord
1000
R3DF
  0
XRECORD
  5
10000181
102
{ACAD_REACTORS
330
10000180
102
}
330
10000180
100
AcDbXrecord
1000
SsEpB
  0
XRECORD
  5
10000184
102
{ACAD_REACTORS
330
10000183
102
}
330
10000183
100
AcDbXrecord
1000
R3Dl
  0
XRECORD
  5
10000187
102
{ACAD_REACTORS
330
10000186
102
}
330
10000186
100
AcDbXrecord
1000
R3Dp
  0
XRECORD
  5
1000018A
102
{ACAD_REACTORS
330
10000189
102
}
330
10000189
100
AcDbXrecord
1000
R3D1
  0
XRECORD
  5
1000018D
102
{ACAD_REACTORS
330
1000018C
102
}
330
1000018C
100
AcDbXrecord
1000
SsElB
  0
XRECORD
  5
10000190
102
{ACAD_REACTORS
330
1000018F
102
}
330
1000018F
100
AcDbXrecord
1000
R3Dx
  0
XRECORD
  5
10000193
102
{ACAD_REACTORS
330
10000192
102
}
330
10000192
100
AcDbXrecord
1000
R3D5
  0
XRECORD
  5
10000196
102
{ACAD_REACTORS
330
10000195
102
}
330
10000195
100
AcDbXrecord
1000
R3Dh
  0
XRECORD
  5
10000199
102
{ACAD_REACTORS
330
10000198
102
}
330
10000198
100
AcDbXrecord
1000
SsEhB
  0
XRECORD
  5
1000019C
102
{ACAD_REACTORS
330
1000019B
102
}
330
1000019B
100
AcDbXrecord
1000
R3DZ
  0
XRECORD
  5
1000019F
102
{ACAD_REACTORS
330
1000019E
102
}
330
1000019E
100
AcDbXrecord
1000
R3DV
  0
XRECORD
  5
100001A2
102
{ACAD_REACTORS
330
100001A1
102
}
330
100001A1
100
AcDbXrecord
1000
R3Dd
  0
XRECORD
  5
100001A5
102
{ACAD_REACTORS
330
100001A4
102
}
330
100001A4
100
AcDbXrecord
1000
RuEB
  0
XRECORD
  5
100001A8
102
{ACAD_REACTORS
330
100001A7
102
}
330
100001A7
100
AcDbXrecord
1000
RuEJ
  0
XRECORD
  5
100001AB
102
{ACAD_REACTORS
330
100001AA
102
}
330
100001AA
100
AcDbXrecord
1000
SeFlP
  0
XRECORD
  5
100001AE
102
{ACAD_REACTORS
330
100001AD
102
}
330
100001AD
100
AcDbXrecord
1000
SeFtP
  0
XRECORD
  5
100001B1
102
{ACAD_REACTORS
330
100001B0
102
}
330
100001B0
100
AcDbXrecord
1000
SeF1P
  0
XRECORD
  5
100001B4
102
{ACAD_REACTORS
330
100001B3
102
}
330
100001B3
100
AcDbXrecord
1000
SeF9P
  0
XRECORD
  5
100001B7
102
{ACAD_REACTORS
330
100001B6
102
}
330
100001B6
100
AcDbXrecord
1000
SeFFQ
  0
XRECORD
  5
100001BA
102
{ACAD_REACTORS
330
100001B9
102
}
330
100001B9
100
AcDbXrecord
1000
SeFNQ
  0
XRECORD
  5
100001BD
102
{ACAD_REACTORS
330
100001BC
102
}
330
100001BC
100
AcDbXrecord
1000
SeFVQ
  0
XRECORD
  5
100001C0
102
{ACAD_REACTORS
330
100001BF
102
}
330
100001BF
100
AcDbXrecord
1000
SeFdQ
  0
XRECORD
  5
100001C3
102
{ACAD_REACTORS
330
100001C2
102
}
330
100001C2
100
AcDbXrecord
1000
SeFlQ
  0
XRECORD
  5
100001C6
102
{ACAD_REACTORS
330
100001C5
102
}
330
100001C5
100
AcDbXrecord
1000
SeFtQ
  0
XRECORD
  5
100001C9
102
{ACAD_REACTORS
330
100001C8
102
}
330
100001C8
100
AcDbXrecord
1000
SeF1Q
  0
XRECORD
  5
100001CC
102
{ACAD_REACTORS
330
100001CB
102
}
330
100001CB
100
AcDbXrecord
1000
SeF9Q
  0
XRECORD
  5
100001CF
102
{ACAD_REACTORS
330
100001CE
102
}
330
100001CE
100
AcDbXrecord
1000
SeFNh
  0
XRECORD
  5
100001D2
102
{ACAD_REACTORS
330
100001D1
102
}
330
100001D1
100
AcDbXrecord
1000
SeFVh
  0
XRECORD
  5
100001D5
102
{ACAD_REACTORS
330
100001D4
102
}
330
100001D4
100
AcDbXrecord
1000
SeFdh
  0
XRECORD
  5
100001D8
102
{ACAD_REACTORS
330
100001D7
102
}
330
100001D7
100
AcDbXrecord
1000
SeFlh
  0
XRECORD
  5
100001DB
102
{ACAD_REACTORS
330
100001DA
102
}
330
100001DA
100
AcDbXrecord
1000
SeFdO
  0
XRECORD
  5
100001DE
102
{ACAD_REACTORS
330
100001DD
102
}
330
100001DD
100
AcDbXrecord
1000
SeFlO
  0
XRECORD
  5
100001E1
102
{ACAD_REACTORS
330
100001E0
102
}
330
100001E0
100
AcDbXrecord
1000
SeFtO
  0
XRECORD
  5
100001E4
102
{ACAD_REACTORS
330
100001E3
102
}
330
100001E3
100
AcDbXrecord
1000
SeF1O
  0
XRECORD
  5
100001E7
102
{ACAD_REACTORS
330
100001E6
102
}
330
100001E6
100
AcDbXrecord
1000
SeF9O
  0
XRECORD
  5
100001EA
102
{ACAD_REACTORS
330
100001E9
102
}
330
100001E9
100
AcDbXrecord
1000
SeFFP
  0
XRECORD
  5
100001ED
102
{ACAD_REACTORS
330
100001EC
102
}
330
100001EC
100
AcDbXrecord
1000
SeFNP
  0
XRECORD
  5
100001F0
102
{ACAD_REACTORS
330
100001EF
102
}
330
100001EF
100
AcDbXrecord
1000
SeFVP
  0
XRECORD
  5
100001F3
102
{ACAD_REACTORS
330
100001F2
102
}
330
100001F2
100
AcDbXrecord
1000
SeFdP
  0
XRECORD
  5
100001F6
102
{ACAD_REACTORS
330
100001F5
102
}
330
100001F5
100
AcDbXrecord
1000
SeFFc
  0
XRECORD
  5
100001F9
102
{ACAD_REACTORS
330
100001F8
102
}
330
100001F8
100
AcDbXrecord
1000
SeFNc
  0
XRECORD
  5
100001FC
102
{ACAD_REACTORS
330
100001FB
102
}
330
100001FB
100
AcDbXrecord
1000
SeFVc
  0
XRECORD
  5
100001FF
102
{ACAD_REACTORS
330
100001FE
102
}
330
100001FE
100
AcDbXrecord
1000
SeFdc
  0
XRECORD
  5
10000202
102
{ACAD_REACTORS
330
10000201
102
}
330
10000201
100
AcDbXrecord
1000
SeFlc
  0
XRECORD
  5
10000205
102
{ACAD_REACTORS
330
10000204
102
}
330
10000204
100
AcDbXrecord
1000
SeFtc
  0
XRECORD
  5
10000208
102
{ACAD_REACTORS
330
10000207
102
}
330
10000207
100
AcDbXrecord
1000
SeF1c
  0
XRECORD
  5
1000020B
102
{ACAD_REACTORS
330
1000020A
102
}
330
1000020A
100
AcDbXrecord
1000
SeF9c
  0
XRECORD
  5
1000020E
102
{ACAD_REACTORS
330
1000020D
102
}
330
1000020D
100
AcDbXrecord
1000
SeFth
  0
XRECORD
  5
10000211
102
{ACAD_REACTORS
330
10000210
102
}
330
10000210
100
AcDbXrecord
1000
SeF1h
  0
XRECORD
  5
10000214
102
{ACAD_REACTORS
330
10000213
102
}
330
10000213
100
AcDbXrecord
1000
SeF9h
  0
XRECORD
  5
10000217
102
{ACAD_REACTORS
330
10000216
102
}
330
10000216
100
AcDbXrecord
1000
SeFFi
  0
XRECORD
  5
1000021A
102
{ACAD_REACTORS
330
10000219
102
}
330
10000219
100
AcDbXrecord
1000
SeFNi
  0
XRECORD
  5
1000021D
102
{ACAD_REACTORS
330
1000021C
102
}
330
1000021C
100
AcDbXrecord
1000
SeFVi
  0
XRECORD
  5
10000220
102
{ACAD_REACTORS
330
1000021F
102
}
330
1000021F
100
AcDbXrecord
1000
SeFdi
  0
XRECORD
  5
10000223
102
{ACAD_REACTORS
330
10000222
102
}
330
10000222
100
AcDbXrecord
1000
SeFli
  0
XRECORD
  5
10000226
102
{ACAD_REACTORS
330
10000225
102
}
330
10000225
100
AcDbXrecord
1000
SeF1Y
  0
XRECORD
  5
10000229
102
{ACAD_REACTORS
330
10000228
102
}
330
10000228
100
AcDbXrecord
1000
SeF9Y
  0
XRECORD
  5
1000022C
102
{ACAD_REACTORS
330
1000022B
102
}
330
1000022B
100
AcDbXrecord
1000
SeFFZ
  0
XRECORD
  5
1000022F
102
{ACAD_REACTORS
330
1000022E
102
}
330
1000022E
100
AcDbXrecord
1000
SeFNZ
  0
XRECORD
  5
10000232
102
{ACAD_REACTORS
330
10000231
102
}
330
10000231
100
AcDbXrecord
1000
SeFVZ
  0
XRECORD
  5
10000235
102
{ACAD_REACTORS
330
10000234
102
}
330
10000234
100
AcDbXrecord
1000
SeFdZ
  0
XRECORD
  5
10000238
102
{ACAD_REACTORS
330
10000237
102
}
330
10000237
100
AcDbXrecord
1000
SeFVX
  0
XRECORD
  5
1000023B
102
{ACAD_REACTORS
330
1000023A
102
}
330
1000023A
100
AcDbXrecord
1000
SeFdX
  0
XRECORD
  5
1000023E
102
{ACAD_REACTORS
330
1000023D
102
}
330
1000023D
100
AcDbXrecord
1000
SeFlX
  0
XRECORD
  5
10000241
102
{ACAD_REACTORS
330
10000240
102
}
330
10000240
100
AcDbXrecord
1000
SeFtX
  0
XRECORD
  5
10000244
102
{ACAD_REACTORS
330
10000243
102
}
330
10000243
100
AcDbXrecord
1000
SeF1X
  0
XRECORD
  5
10000247
102
{ACAD_REACTORS
330
10000246
102
}
330
10000246
100
AcDbXrecord
1000
SeF9X
  0
XRECORD
  5
1000024A
102
{ACAD_REACTORS
330
10000249
102
}
330
10000249
100
AcDbXrecord
1000
SeFFY
  0
XRECORD
  5
1000024D
102
{ACAD_REACTORS
330
1000024C
102
}
330
1000024C
100
AcDbXrecord
1000
SeFNY
  0
XRECORD
  5
10000250
102
{ACAD_REACTORS
330
1000024F
102
}
330
1000024F
100
AcDbXrecord
1000
SeFFU
  0
XRECORD
  5
10000253
102
{ACAD_REACTORS
330
10000252
102
}
330
10000252
100
AcDbXrecord
1000
SeFNU
  0
XRECORD
  5
10000256
102
{ACAD_REACTORS
330
10000255
102
}
330
10000255
100
AcDbXrecord
1000
SeFVU
  0
XRECORD
  5
10000259
102
{ACAD_REACTORS
330
10000258
102
}
330
10000258
100
AcDbXrecord
1000
SeFdU
  0
XRECORD
  5
1000025C
102
{ACAD_REACTORS
330
1000025B
102
}
330
1000025B
100
AcDbXrecord
1000
SeFlU
  0
XRECORD
  5
1000025F
102
{ACAD_REACTORS
330
1000025E
102
}
330
1000025E
100
AcDbXrecord
1000
SeFtU
  0
XRECORD
  5
10000262
102
{ACAD_REACTORS
330
10000261
102
}
330
10000261
100
AcDbXrecord
1000
SeF1U
  0
XRECORD
  5
10000265
102
{ACAD_REACTORS
330
10000264
102
}
330
10000264
100
AcDbXrecord
1000
SeF9U
  0
XRECORD
  5
10000268
102
{ACAD_REACTORS
330
10000267
102
}
330
10000267
100
AcDbXrecord
1000
SeFFV
  0
XRECORD
  5
1000026B
102
{ACAD_REACTORS
330
1000026A
102
}
330
1000026A
100
AcDbXrecord
1000
SeFNV
  0
XRECORD
  5
1000026E
102
{ACAD_REACTORS
330
1000026D
102
}
330
1000026D
100
AcDbXrecord
1000
SeFVV
  0
XRECORD
  5
10000271
102
{ACAD_REACTORS
330
10000270
102
}
330
10000270
100
AcDbXrecord
1000
SeFdV
  0
XRECORD
  5
10000274
102
{ACAD_REACTORS
330
10000273
102
}
330
10000273
100
AcDbXrecord
1000
SeFFR
  0
XRECORD
  5
10000277
102
{ACAD_REACTORS
330
10000276
102
}
330
10000276
100
AcDbXrecord
1000
SeFNR
  0
XRECORD
  5
1000027A
102
{ACAD_REACTORS
330
10000279
102
}
330
10000279
100
AcDbXrecord
1000
SeFVR
  0
XRECORD
  5
1000027D
102
{ACAD_REACTORS
330
1000027C
102
}
330
1000027C
100
AcDbXrecord
1000
SeFdR
  0
XRECORD
  5
10000280
102
{ACAD_REACTORS
330
1000027F
102
}
330
1000027F
100
AcDbXrecord
1000
SeFlR
  0
XRECORD
  5
10000283
102
{ACAD_REACTORS
330
10000282
102
}
330
10000282
100
AcDbXrecord
1000
SeFtR
  0
XRECORD
  5
10000286
102
{ACAD_REACTORS
330
10000285
102
}
330
10000285
100
AcDbXrecord
1000
SeF1R
  0
XRECORD
  5
10000289
102
{ACAD_REACTORS
330
10000288
102
}
330
10000288
100
AcDbXrecord
1000
SeF9R
  0
XRECORD
  5
1000028C
102
{ACAD_REACTORS
330
1000028B
102
}
330
1000028B
100
AcDbXrecord
1000
SeFFS
  0
XRECORD
  5
1000028F
102
{ACAD_REACTORS
330
1000028E
102
}
330
1000028E
100
AcDbXrecord
1000
SeFNS
  0
XRECORD
  5
10000292
102
{ACAD_REACTORS
330
10000291
102
}
330
10000291
100
AcDbXrecord
1000
SeFVS
  0
XRECORD
  5
10000295
102
{ACAD_REACTORS
330
10000294
102
}
330
10000294
100
AcDbXrecord
1000
SeFdS
  0
XRECORD
  5
10000298
102
{ACAD_REACTORS
330
10000297
102
}
330
10000297
100
AcDbXrecord
1000
SeFlS
  0
XRECORD
  5
1000029B
102
{ACAD_REACTORS
330
1000029A
102
}
330
1000029A
100
AcDbXrecord
1000
SeFtS
  0
MATERIAL
  5
45
102
{ACAD_REACTORS
330
43
102
}
102
{ACAD_XDICTIONARY
360
100002CD
102
}
330
43
100
AcDbMaterial
  1
BYBLOCK
  0
MATERIAL
  5
44
102
{ACAD_REACTORS
330
43
102
}
102
{ACAD_XDICTIONARY
360
100002CB
102
}
330
43
100
AcDbMaterial
  1
BYLAYER
  0
MATERIAL
  5
46
102
{ACAD_REACTORS
330
43
102
}
102
{ACAD_XDICTIONARY
360
100002CF
102
}
330
43
100
AcDbMaterial
  1
GLOBAL
  0
ACAD_PROXY_OBJECT
  5
6C
102
{ACAD_REACTORS
330
6B
102
}
330
6B
100
AcDbProxyObject
 90
      499
 91
      505
 93
      610
310
40901902A4063FBFFFFFE056BD1B81E855B9FC0AD7A3703D0AD73F4214DD185B99185C9900AD7A3703D0AC73F90141901A02B5E8DC0F42B1CFC02B5E8DC0F42B1CFE5764000000000000300FC0
340
14
340
0
340
11
340
0
 94
        0
1001
ACAD_MLEADERVER
1070
     2
  0
MLINESTYLE
  5
18
102
{ACAD_REACTORS
330
17
102
}
330
17
100
AcDbMlineStyle
  2
Standard
 70
     0
  3

 62
   256
 51
90.0
 52
90.0
 71
     2
 49
0.5
 62
   256
  6
BYLAYER
 49
-0.5
 62
   256
  6
BYLAYER
  0
ACAD_PROXY_OBJECT
  5
10000023
102
{ACAD_REACTORS
330
47
102
}
330
47
100
AcDbProxyObject
 90
      499
 91
      503
 93
      121
310
9053130303A310000000000001650100
  0
ACAD_PROXY_OBJECT
  5
1000001D
102
{ACAD_REACTORS
330
47
102
}
330
47
100
AcDbProxyObject
 90
      499
 91
      503
 93
      113
310
90431303A310000000000000910100
  0
ACAD_PROXY_OBJECT
  5
1000001E
102
{ACAD_REACTORS
330
47
102
}
330
47
100
AcDbProxyObject
 90
      499
 91
      503
 93
      113
310
90431323A310000000000000A10100
  0
ACAD_PROXY_OBJECT
  5
1000001F
102
{ACAD_REACTORS
330
47
102
}
330
47
100
AcDbProxyObject
 90
      499
 91
      503
 93
      113
310
90431363A310000000000000C10100
  0
ACAD_PROXY_OBJECT
  5
10000006
102
{ACAD_REACTORS
330
47
102
}
330
47
100
AcDbProxyObject
 90
      499
 91
      503
 93
       41
310
903313A31500
  0
ACAD_PROXY_OBJECT
  5
1000000D
102
{ACAD_REACTORS
330
47
102
}
330
47
100
AcDbProxyObject
 90
      499
 91
      503
 93
      113
310
904313A31304000000000000244000
  0
ACAD_PROXY_OBJECT
  5
10000016
102
{ACAD_REACTORS
330
47
102
}
330
47
100
AcDbProxyObject
 90
      499
 91
      503
 93
      121
310
905313A3130304000000000000594000
  0
ACAD_PROXY_OBJECT
  5
1000000E
102
{ACAD_REACTORS
330
47
102
}
330
47
100
AcDbProxyObject
 90
      499
 91
      503
 93
      113
310
904313A31324000000000000284000
  0
ACAD_PROXY_OBJECT
  5
1000000F
102
{ACAD_REACTORS
330
47
102
}
330
47
100
AcDbProxyObject
 90
      499
 91
      503
 93
      113
310
904313A31364000000000000304000
  0
ACAD_PROXY_OBJECT
  5
10000007
102
{ACAD_REACTORS
330
47
102
}
330
47
100
AcDbProxyObject
 90
      499
 91
      503
 93
      105
310
903313A324000000000000004000
  0
ACAD_PROXY_OBJECT
  5
10000010
102
{ACAD_REACTORS
330
47
102
}
330
47
100
AcDbProxyObject
 90
      499
 91
      503
 93
      113
310
904313A32304000000000000344000
  0
ACAD_PROXY_OBJECT
  5
10000011
102
{ACAD_REACTORS
330
47
102
}
330
47
100
AcDbProxyObject
 90
      499
 91
      503
 93
      113
310
904313A32354000000000000394000
  0
ACAD_PROXY_OBJECT
  5
10000008
102
{ACAD_REACTORS
330
47
102
}
330
47
100
AcDbProxyObject
 90
      499
 91
      503
 93
      105
310
903313A334000000000000084000
  0
ACAD_PROXY_OBJECT
  5
10000012
102
{ACAD_REACTORS
330
47
102
}
330
47
100
AcDbProxyObject
 90
      499
 91
      503
 93
      113
310
904313A33324000000000000404000
  0
ACAD_PROXY_OBJECT
  5
10000009
102
{ACAD_REACTORS
330
47
102
}
330
47
100
AcDbProxyObject
 90
      499
 91
      503
 93
      105
310
903313A344000000000000104000
  0
ACAD_PROXY_OBJECT
  5
10000013
102
{ACAD_REACTORS
330
47
102
}
330
47
100
AcDbProxyObject
 90
      499
 91
      503
 93
      113
310
904313A34304000000000000444000
  0
ACAD_PROXY_OBJECT
  5
1000000A
102
{ACAD_REACTORS
330
47
102
}
330
47
100
AcDbProxyObject
 90
      499
 91
      503
 93
      105
310
903313A354000000000000144000
  0
ACAD_PROXY_OBJECT
  5
10000014
102
{ACAD_REACTORS
330
47
102
}
330
47
100
AcDbProxyObject
 90
      499
 91
      503
 93
      113
310
904313A35304000000000000494000
  0
ACAD_PROXY_OBJECT
  5
1000000B
102
{ACAD_REACTORS
330
47
102
}
330
47
100
AcDbProxyObject
 90
      499
 91
      503
 93
      105
310
903313A364000000000000184000
  0
ACAD_PROXY_OBJECT
  5
1000000C
102
{ACAD_REACTORS
330
47
102
}
330
47
100
AcDbProxyObject
 90
      499
 91
      503
 93
      105
310
903313A384000000000000204000
  0
ACAD_PROXY_OBJECT
  5
10000015
102
{ACAD_REACTORS
330
47
102
}
330
47
100
AcDbProxyObject
 90
      499
 91
      503
 93
      113
310
904313A38304000000000000544000
  0
ACAD_PROXY_OBJECT
  5
10000020
102
{ACAD_REACTORS
330
47
102
}
330
47
100
AcDbProxyObject
 90
      499
 91
      503
 93
      113
310
90432303A310000000000000D10100
  0
ACAD_PROXY_OBJECT
  5
10000017
102
{ACAD_REACTORS
330
47
102
}
330
47
100
AcDbProxyObject
 90
      499
 91
      503
 93
      105
310
903323A310000000000000010100
  0
ACAD_PROXY_OBJECT
  5
10000021
102
{ACAD_REACTORS
330
47
102
}
330
47
100
AcDbProxyObject
 90
      499
 91
      503
 93
      113
310
90433323A310000000000001010100
  0
ACAD_PROXY_OBJECT
  5
10000018
102
{ACAD_REACTORS
330
47
102
}
330
47
100
AcDbProxyObject
 90
      499
 91
      503
 93
      105
310
903333A310000000000000210100
  0
ACAD_PROXY_OBJECT
  5
10000019
102
{ACAD_REACTORS
330
47
102
}
330
47
100
AcDbProxyObject
 90
      499
 91
      503
 93
      105
310
903343A310000000000000410100
  0
ACAD_PROXY_OBJECT
  5
10000022
102
{ACAD_REACTORS
330
47
102
}
330
47
100
AcDbProxyObject
 90
      499
 91
      503
 93
      113
310
90435303A310000000000001250100
  0
ACAD_PROXY_OBJECT
  5
1000001A
102
{ACAD_REACTORS
330
47
102
}
330
47
100
AcDbProxyObject
 90
      499
 91
      503
 93
      105
310
903353A310000000000000510100
  0
ACAD_PROXY_OBJECT
  5
1000001B
102
{ACAD_REACTORS
330
47
102
}
330
47
100
AcDbProxyObject
 90
      499
 91
      503
 93
      105
310
903363A310000000000000610100
  0
ACAD_PROXY_OBJECT
  5
1000001C
102
{ACAD_REACTORS
330
47
102
}
330
47
100
AcDbProxyObject
 90
      499
 91
      503
 93
      105
310
903383A310000000000000810100
  0
ACAD_PROXY_OBJECT
  5
2F
102
{ACAD_REACTORS
330
2A
102
}
330
2A
100
AcDbProxyObject
 90
      499
 91
      501
 93
      436
310
42CC9915DA5C99599C985B595049028333333333333E33F0000000000000F90107901411070040501600405405064090741402480A0340
1001
ACAD
1000
AcDbSavedByObjectVersion
1070
     0
  0
ACAD_PROXY_OBJECT
  5
32
102
{ACAD_REACTORS
330
2A
102
}
330
2A
100
AcDbProxyObject
 90
      499
 91
      501
 93
      388
310
4150985CDA58D07406404333333333333E33F0000000000000F90107A41107004050150841D405064090741402480A0350
1001
ACAD
1000
AcDbSavedByObjectVersion
1070
     0
  0
ACAD_PROXY_OBJECT
  5
36
102
{ACAD_REACTORS
330
2A
102
}
330
2A
100
AcDbProxyObject
 90
      499
 91
      501
 93
      428
310
42109C9A59DA1D195B90C409028333333333333E33F0000000000000F9010790141107004050150841D405064090741402480A029950
1001
ACAD
1000
AcDbSavedByObjectVersion
1070
     0
  0
ACAD_PROXY_OBJECT
  5
3A
102
{ACAD_REACTORS
330
2A
102
}
330
2A
100
AcDbProxyObject
 90
      499
 91
      501
 93
      452
310
42D0DBDB1BDC90DA185B99D95104090240C333333333333E33F0000000000000F90108901411070040501508421405064090741402480A0350
1001
ACAD
1000
AcDbSavedByObjectVersion
1070
     0
  0
ACAD_PROXY_OBJECT
  5
34
102
{ACAD_REACTORS
330
2A
102
}
330
2A
100
AcDbProxyObject
 90
      499
 91
      501
 93
      500
310
4290DBDB98D95C1D1D585B10940D028333333333333E33F0000000000000F90107902409070040501000000000018199010841D405064090740C02480A0340
1001
ACAD
1000
AcDbSavedByObjectVersion
1070
     0
  0
ACAD_PROXY_OBJECT
  5
35
102
{ACAD_REACTORS
330
2A
102
}
330
2A
100
AcDbProxyObject
 90
      499
 91
      501
 93
      412
310
40D11A5B50B409028333333333333E33F0000000000000F9010790141107004050150841D405064090741402480A02677FFFFFD0
1001
ACAD
1000
AcDbSavedByObjectVersion
1070
     0
  0
ACAD_PROXY_OBJECT
  5
3D
102
{ACAD_REACTORS
330
2A
102
}
330
2A
100
AcDbProxyObject
 90
      499
 91
      501
 93
      452
310
43115919D950DBDB1BDC93D999916409028333333333333E33F0000000000000F9010790141107004050150841D405064090741402480A0350
1001
ACAD
1000
AcDbSavedByObjectVersion
1070
     0
  0
ACAD_PROXY_OBJECT
  5
39
102
{ACAD_REACTORS
330
2A
102
}
330
2A
100
AcDbProxyObject
 90
      499
 91
      501
 93
      444
310
42D19858D95C185D1D195C9B90F409028333333333333E33F0000000000000F9010790141107004050150841D405064090741402480A0350
1001
ACAD
1000
AcDbSavedByObjectVersion
1070
     0
  0
ACAD_PROXY_OBJECT
  5
2B
102
{ACAD_REACTORS
330
2A
102
}
330
2A
100
AcDbProxyObject
 90
      499
 91
      501
 93
      380
310
41119B185D240901404333333333333E33F0000000000000F9010740A907004050150841D405064090741402480A1B50
1001
ACAD
1000
AcDbSavedByObjectVersion
1070
     0
  0
ACAD_PROXY_OBJECT
  5
2C
102
{ACAD_REACTORS
330
2A
102
}
330
2A
100
AcDbProxyObject
 90
      499
 91
      501
 93
      468
310
43519B185D15DA5D1A115919D95CD0140901404333333333333E33F0000000000000F90107409019070040501600405405064090741402480A1B50
1001
ACAD
1000
AcDbSavedByObjectVersion
1070
     0
  0
ACAD_PROXY_OBJECT
  5
2D
102
{ACAD_REACTORS
330
2A
102
}
330
2A
100
AcDbProxyObject
 90
      499
 91
      501
 93
      404
310
41D1DBDD5C985D5910240902404333333333333E33F0000000000000F9010740A9070040501641D405064090741402480A1B50
1001
ACAD
1000
AcDbSavedByObjectVersion
1070
     0
  0
ACAD_PROXY_OBJECT
  5
2E
102
{ACAD_REACTORS
330
2A
102
}
330
2A
100
AcDbProxyObject
 90
      499
 91
      501
 93
      492
310
4411DBDD5C985D5915DA5D1A115919D95CD0340902404333333333333E33F0000000000000F90107409019070040501600405405064090741402480A1B50
1001
ACAD
1000
AcDbSavedByObjectVersion
1070
     0
  0
ACAD_PROXY_OBJECT
  5
31
102
{ACAD_REACTORS
330
2A
102
}
330
2A
100
AcDbProxyObject
 90
      499
 91
      501
 93
      476
310
41921A5919195B90640502408333333333333E33F0000000000000F901079024090700405020000000000001110200405405064090740C02480A0340
1001
ACAD
1000
AcDbSavedByObjectVersion
1070
     0
  0
ACAD_PROXY_OBJECT
  5
3B
102
{ACAD_REACTORS
330
2A
102
}
330
2A
100
AcDbProxyObject
 90
      499
 91
      501
 93
      428
310
42529A5D1D195C93D999914409028333333333333E33F0000000000000F9010790141107004050150A41D405064090741402480A0350
1001
ACAD
1000
AcDbSavedByObjectVersion
1070
     0
  0
ACAD_PROXY_OBJECT
  5
38
102
{ACAD_REACTORS
330
2A
102
}
330
2A
100
AcDbProxyObject
 90
      499
 91
      501
 93
      444
310
42D31A5B995C185D1D195C9B90E409028333333333333E33F0000000000000F9010790141107004050750841D405064090741402483A0350
1001
ACAD
1000
AcDbSavedByObjectVersion
1070
     0
  0
ACAD_PROXY_OBJECT
  5
3C
102
{ACAD_REACTORS
330
2A
102
}
330
2A
100
AcDbProxyObject
 90
      499
 91
      501
 93
      444
310
42D3DD995C9A185B99D3D999915409028333333333333E33F0000000000000F9010790141107004050150941D405064090741402480A0350
1001
ACAD
1000
AcDbSavedByObjectVersion
1070
     0
  0
ACAD_PROXY_OBJECT
  5
33
102
{ACAD_REACTORS
330
2A
102
}
330
2A
100
AcDbProxyObject
 90
      499
 91
      501
 93
      428
310
425499585B1A5CDD1A58D08409038333333333333E33F0000000000000F9010740A907004050150800405405064090740C02480A1B40
1001
ACAD
1000
AcDbSavedByObjectVersion
1070
     0
  0
ACAD_PROXY_OBJECT
  5
42
102
{ACAD_REACTORS
330
2A
102
}
330
2A
100
AcDbProxyObject
 90
      499
 91
      501
 93
      420
310
4194DA1859195911B40902404333333333333E33F0000000000000F9010740A41107004050150800405405064090840C02480A0B40
1001
ACAD
1000
AcDbSavedByObjectVersion
1070
     0
  0
ACAD_PROXY_OBJECT
  5
41
102
{ACAD_REACTORS
330
2A
102
}
330
2A
100
AcDbProxyObject
 90
      499
 91
      501
 93
      516
310
4454DA18591959081DDA5D1A08195919D95CD1A40902404333333333333E33F0000000000000F901074090142907004050250800405405064090740C02480A0B40
1001
ACAD
1000
AcDbSavedByObjectVersion
1070
     0
  0
ACAD_PROXY_OBJECT
  5
3E
102
{ACAD_REACTORS
330
2A
102
}
330
2A
100
AcDbProxyObject
 90
      499
 91
      501
 93
      532
310
4394DA1859195CC81BD98811DC985E5174090240C333333333333E33F0000000000000F901079024090741D01000000000000111010841D405064090740C02480A0340
1001
ACAD
1000
AcDbSavedByObjectVersion
1070
     0
  0
ACAD_PROXY_OBJECT
  5
3F
102
{ACAD_REACTORS
330
2A
102
}
330
2A
100
AcDbProxyObject
 90
      499
 91
      501
 93
      476
310
41D4DAD95D18DA1E51840502408333333333333E33F0000000000000F901079024090741D01000000000000111010B41D405064090741802480A0340
1001
ACAD
1000
AcDbSavedByObjectVersion
1070
     0
  0
ACAD_PROXY_OBJECT
  5
37
102
{ACAD_REACTORS
330
2A
102
}
330
2A
100
AcDbProxyObject
 90
      499
 91
      501
 93
      412
310
41D51A1A58DAD95B90D409028333333333333E33F0000000000000F9010790141107004050150C41D405064090741402480A0350
1001
ACAD
1000
AcDbSavedByObjectVersion
1070
     0
  0
ACAD_PROXY_OBJECT
  5
30
102
{ACAD_REACTORS
330
2A
102
}
330
2A
100
AcDbProxyObject
 90
      499
 91
      501
 93
      420
310
4255DA5C99599C985B595059028333333333333E33F0000000000000F90107901411070040501600405405064090740C02480A0340
1001
ACAD
1000
AcDbSavedByObjectVersion
1070
     0
  0
ACAD_PROXY_OBJECT
  5
40
102
{ACAD_REACTORS
330
2A
102
}
330
2A
100
AcDbProxyObject
 90
      499
 91
      501
 93
      404
310
41560B54985E51940902404000000000000E03F0000000000000F9010740501907004050150841D405064090740C02480A1B40
1001
ACAD
1000
AcDbSavedByObjectVersion
1070
     0
  0
XRECORD
  5
100002A8
102
{ACAD_REACTORS
330
1000029E
102
}
330
1000029E
100
AcDbXrecord
340
0
  0
XRECORD
  5
100002A7
102
{ACAD_REACTORS
330
1000029E
102
}
330
1000029E
100
AcDbXrecord
 90
        0
  0
XRECORD
  5
100002BE
102
{ACAD_REACTORS
330
1000029E
102
}
330
1000029E
100
AcDbXrecord
1000
DSTYLE
1002
{
1070
   143
 40
0.0393700787401575
1070
   340
340
11
1002
}
  0
XRECORD
  5
100002A9
102
{ACAD_REACTORS
330
1000029E
102
}
330
1000029E
100
AcDbXrecord
  1
{b1e37433-7571-6363-f674-3232623036b7}
  0
XRECORD
  5
100002A1
102
{ACAD_REACTORS
330
1000029E
102
}
330
1000029E
100
AcDbXrecord
  1

  0
XRECORD
  5
100002A6
102
{ACAD_REACTORS
330
1000029E
102
}
330
1000029E
100
AcDbXrecord
 90
        1
  0
XRECORD
  5
100002A3
102
{ACAD_REACTORS
330
1000029E
102
}
330
1000029E
100
AcDbXrecord
340
1A
  0
XRECORD
  5
100002A5
102
{ACAD_REACTORS
330
1000029E
102
}
330
1000029E
100
AcDbXrecord
 90
    10781
  0
XRECORD
  5
100002A4
102
{ACAD_REACTORS
330
1000029E
102
}
330
1000029E
100
AcDbXrecord
340
19
  0
XRECORD
  5
100002AB
102
{ACAD_REACTORS
330
1000029E
102
}
330
1000029E
100
AcDbXrecord
 40
0.0
  0
XRECORD
  5
100002AE
102
{ACAD_REACTORS
330
1000029E
102
}
330
1000029E
100
AcDbXrecord
340
0
  0
XRECORD
  5
100002B4
102
{ACAD_REACTORS
330
1000029E
102
}
330
1000029E
100
AcDbXrecord
 10
0.0
 20
0.0
 30
0.0
  0
XRECORD
  5
100002B0
102
{ACAD_REACTORS
330
1000029E
102
}
330
1000029E
100
AcDbXrecord
 10
0.0
 20
0.0
 30
0.0
  0
XRECORD
  5
100002B3
102
{ACAD_REACTORS
330
1000029E
102
}
330
1000029E
100
AcDbXrecord
 10
0.0
 20
0.0
 30
0.0
  0
XRECORD
  5
100002B1
102
{ACAD_REACTORS
330
1000029E
102
}
330
1000029E
100
AcDbXrecord
 10
0.0
 20
0.0
 30
0.0
  0
XRECORD
  5
100002B2
102
{ACAD_REACTORS
330
1000029E
102
}
330
1000029E
100
AcDbXrecord
 10
0.0
 20
0.0
 30
0.0
  0
XRECORD
  5
100002AF
102
{ACAD_REACTORS
330
1000029E
102
}
330
1000029E
100
AcDbXrecord
 10
0.0
 20
0.0
 30
0.0
  0
XRECORD
  5
100002AC
102
{ACAD_REACTORS
330
1000029E
102
}
330
1000029E
100
AcDbXrecord
340
0
  0
XRECORD
  5
100002AD
102
{ACAD_REACTORS
330
1000029E
102
}
330
1000029E
100
AcDbXrecord
 70
     0
  0
XRECORD
  5
100002A2
102
{ACAD_REACTORS
330
1000029E
102
}
330
1000029E
100
AcDbXrecord
  1

  0
XRECORD
  5
1000029F
102
{ACAD_REACTORS
330
1000029E
102
}
330
1000029E
100
AcDbXrecord
 90
        1
  0
XRECORD
  5
100002A0
102
{ACAD_REACTORS
330
1000029E
102
}
330
1000029E
100
AcDbXrecord
 90
       70
  0
XRECORD
  5
100002B7
102
{ACAD_REACTORS
330
1000029E
102
}
330
1000029E
100
AcDbXrecord
340
0
  0
XRECORD
  5
100002BD
102
{ACAD_REACTORS
330
1000029E
102
}
330
1000029E
100
AcDbXrecord
 10
0.0
 20
0.0
 30
0.0
  0
XRECORD
  5
100002B9
102
{ACAD_REACTORS
330
1000029E
102
}
330
1000029E
100
AcDbXrecord
 10
0.0
 20
0.0
 30
0.0
  0
XRECORD
  5
100002BC
102
{ACAD_REACTORS
330
1000029E
102
}
330
1000029E
100
AcDbXrecord
 10
0.0
 20
0.0
 30
0.0
  0
XRECORD
  5
100002BA
102
{ACAD_REACTORS
330
1000029E
102
}
330
1000029E
100
AcDbXrecord
 10
0.0
 20
0.0
 30
0.0
  0
XRECORD
  5
100002BB
102
{ACAD_REACTORS
330
1000029E
102
}
330
1000029E
100
AcDbXrecord
 10
0.0
 20
0.0
 30
0.0
  0
XRECORD
  5
100002B8
102
{ACAD_REACTORS
330
1000029E
102
}
330
1000029E
100
AcDbXrecord
 10
0.0
 20
0.0
 30
0.0
  0
XRECORD
  5
100002B5
102
{ACAD_REACTORS
330
1000029E
102
}
330
1000029E
100
AcDbXrecord
340
0
  0
XRECORD
  5
100002B6
102
{ACAD_REACTORS
330
1000029E
102
}
330
1000029E
100
AcDbXrecord
 70
     0
  0
XRECORD
  5
100002AA
102
{ACAD_REACTORS
330
1000029E
102
}
330
1000029E
100
AcDbXrecord
  1
{FAEB1C32-E019-11D5-929B-00C0DF256EC4}
  0
DICTIONARYVAR
  5
100002C9
102
{ACAD_REACTORS
330
100002BF
102
}
330
100002BF
100
DictionaryVariables
280
     0
  1
1:1
  0
DICTIONARYVAR
  5
100002C1
102
{ACAD_REACTORS
330
100002BF
102
}
330
100002BF
100
DictionaryVariables
280
     0
  1
Standard
  0
DICTIONARYVAR
  5
100002C0
102
{ACAD_REACTORS
330
100002BF
102
}
330
100002BF
100
DictionaryVariables
280
     0
  1
Standard
  0
DICTIONARYVAR
  5
100002C4
102
{ACAD_REACTORS
330
100002BF
102
}
330
100002BF
100
DictionaryVariables
280
     0
  1
2
  0
DICTIONARYVAR
  5
100002C5
102
{ACAD_REACTORS
330
100002BF
102
}
330
100002BF
100
DictionaryVariables
280
     0
  1
1
  0
DICTIONARYVAR
  5
100002CA
102
{ACAD_REACTORS
330
100002BF
102
}
330
100002BF
100
DictionaryVariables
280
     0
  1
1
  0
XRECORD
  5
10000003
102
{ACAD_REACTORS
330
10000001
102
}
330
10000001
100
AcDbXrecord
 70
     4
  0
XRECORD
  5
10000002
102
{ACAD_REACTORS
330
10000001
102
}
330
10000001
100
AcDbXrecord
1040
87.0
  0
ACAD_PROXY_OBJECT
  5
10000005
102
{ACAD_REACTORS
330
10000001
102
}
330
10000001
100
AcDbProxyObject
 90
      499
 91
      509
 93
       34
310
40C8804000
  0
DICTIONARY
  5
100002CD
330
45
100
AcDbDictionary
280
     1
  3
ACAD_XREC_ROUNDTRIP
360
100002CE
  0
DICTIONARY
  5
100002CB
330
44
100
AcDbDictionary
280
     1
  3
ACAD_XREC_ROUNDTRIP
360
100002CC
  0
DICTIONARY
  5
100002CF
330
46
100
AcDbDictionary
280
     1
  3
ACAD_XREC_ROUNDTRIP
360
100002D0
  0
XRECORD
  5
100002CE
102
{ACAD_REACTORS
330
100002CD
102
}
330
100002CD
100
AcDbXrecord
102
MATERIAL
148
0.0
149
0.0
149
0.0
 93
        0
 94
      127
282
     0
 72
     1
 77
     1
171
     1
175
     1
179
     1
273
     0
  0
XRECORD
  5
100002CC
102
{ACAD_REACTORS
330
100002CB
102
}
330
100002CB
100
AcDbXrecord
102
MATERIAL
148
0.0
149
0.0
149
0.0
 93
        0
 94
      127
282
     0
 72
     1
 77
     1
171
     1
175
     1
179
     1
273
     0
  0
XRECORD
  5
100002D0
102
{ACAD_REACTORS
330
100002CF
102
}
330
100002CF
100
AcDbXrecord
102
MATERIAL
148
0.0
149
0.0
149
0.0
 93
        0
 94
      127
282
     0
 72
     1
 77
     1
171
     1
175
     1
179
     1
273
     0
  0
ENDSEC
  0
EOF
