  0
SECTION
  2
BLOCKS
  0
ENDSEC
  0
SECTION
  2
ENTITIES
  0
LINE
  8
0
 10
31.4127
 20
76.2918
 11
30.6921
 21
74.5521
  0
LINE
  8
0
 10
30.6921
 20
74.5521
 11
29.7082
 21
72.9466
  0
LINE
  8
0
 10
29.7082
 20
72.9466
 11
28.4853
 21
71.5147
  0
LINE
  8
0
 10
28.4853
 20
71.5147
 11
27.0534
 21
70.2918
  0
LINE
  8
0
 10
27.0534
 20
70.2918
 11
25.4479
 21
69.3079
  0
LINE
  8
0
 10
25.4479
 20
69.3079
 11
23.7082
 21
68.5873
  0
LINE
  8
0
 10
23.7082
 20
68.5873
 11
21.8772
 21
68.1477
  0
LINE
  8
0
 10
21.8772
 20
68.1477
 11
20
 21
68
  0
LINE
  8
0
 10
20
 20
68
 11
0
 21
68
  0
LINE
  8
0
 10
0
 20
68
 11
0
 21
28
  0
LINE
  8
0
 10
0
 20
28
 11
128
 21
28
  0
LINE
  8
0
 10
128
 20
28
 11
128
 21
100
  0
LINE
  8
0
 10
128
 20
100
 11
93.5
 21
100
  0
LINE
  8
0
 10
93.5
 20
100
 11
93.5
 21
96
  0
LINE
  8
0
 10
93.5
 20
96
 11
93.4323
 21
95.1396
  0
LINE
  8
0
 10
93.4323
 20
95.1396
 11
93.2308
 21
94.3004
  0
LINE
  8
0
 10
93.2308
 20
94.3004
 11
92.9005
 21
93.5031
  0
LINE
  8
0
 10
92.9005
 20
93.5031
 11
92.4496
 21
92.7672
  0
LINE
  8
0
 10
92.4496
 20
92.7672
 11
91.8891
 21
92.1109
  0
LINE
  8
0
 10
91.8891
 20
92.1109
 11
91.2328
 21
91.5504
  0
LINE
  8
0
 10
91.2328
 20
91.5504
 11
90.4969
 21
91.0995
  0
LINE
  8
0
 10
90.4969
 20
91.0995
 11
89.6996
 21
90.7692
  0
LINE
  8
0
 10
89.6996
 20
90.7692
 11
88.8604
 21
90.5677
  0
LINE
  8
0
 10
88.8604
 20
90.5677
 11
88
 21
90.5
  0
LINE
  8
0
 10
88
 20
90.5
 11
87.1396
 21
90.5677
  0
LINE
  8
0
 10
87.1396
 20
90.5677
 11
86.3004
 21
90.7692
  0
LINE
  8
0
 10
86.3004
 20
90.7692
 11
85.5031
 21
91.0995
  0
LINE
  8
0
 10
85.5031
 20
91.0995
 11
84.7672
 21
91.5504
  0
LINE
  8
0
 10
84.7672
 20
91.5504
 11
84.1109
 21
92.1109
  0
LINE
  8
0
 10
84.1109
 20
92.1109
 11
83.5504
 21
92.7672
  0
LINE
  8
0
 10
83.5504
 20
92.7672
 11
83.0995
 21
93.5031
  0
LINE
  8
0
 10
83.0995
 20
93.5031
 11
82.7692
 21
94.3004
  0
LINE
  8
0
 10
82.7692
 20
94.3004
 11
82.5677
 21
95.1396
  0
LINE
  8
0
 10
82.5677
 20
95.1396
 11
82.5
 21
96
  0
LINE
  8
0
 10
82.5
 20
96
 11
82.5
 21
100
  0
LINE
  8
0
 10
82.5
 20
100
 11
32
 21
100
  0
LINE
  8
0
 10
32
 20
100
 11
32
 21
80
  0
LINE
  8
0
 10
32
 20
80
 11
31.8522
 21
78.1228
  0
LINE
  8
0
 10
31.8522
 20
78.1228
 11
31.4127
 21
76.2918
  0
LINE
  8
0
 10
40.3495
 20
83.7855
 11
41.0852
 21
85.5614
  0
LINE
  8
0
 10
41.0852
 20
85.5614
 11
42.0895
 21
87.2004
  0
LINE
  8
0
 10
42.0895
 20
87.2004
 11
43.3379
 21
88.662
  0
LINE
  8
0
 10
43.3379
 20
88.662
 11
44.7996
 21
89.9105
  0
LINE
  8
0
 10
44.7996
 20
89.9105
 11
46.4386
 21
90.9148
  0
LINE
  8
0
 10
46.4386
 20
90.9148
 11
48.2145
 21
91.6504
  0
LINE
  8
0
 10
48.2145
 20
91.6504
 11
50.0837
 21
92.0992
  0
LINE
  8
0
 10
50.0837
 20
92.0992
 11
51.99
 21
92.2492
  0
LINE
  8
0
 10
51.99
 20
92.2492
 11
51.99
 21
92.25
  0
LINE
  8
0
 10
51.99
 20
92.25
 11
61.0348
 21
92.25
  0
LINE
  8
0
 10
61.0348
 20
92.25
 11
61.0489
 21
92.309
  0
LINE
  8
0
 10
61.0489
 20
92.309
 11
61.109
 21
92.454
  0
LINE
  8
0
 10
61.109
 20
92.454
 11
61.191
 21
92.5878
  0
LINE
  8
0
 10
61.191
 20
92.5878
 11
61.2929
 21
92.7071
  0
LINE
  8
0
 10
61.2929
 20
92.7071
 11
61.4122
 21
92.809
  0
LINE
  8
0
 10
61.4122
 20
92.809
 11
61.546
 21
92.891
  0
LINE
  8
0
 10
61.546
 20
92.891
 11
61.691
 21
92.951
  0
LINE
  8
0
 10
61.691
 20
92.951
 11
61.8436
 21
92.9877
  0
LINE
  8
0
 10
61.8436
 20
92.9877
 11
62
 21
93
  0
LINE
  8
0
 10
62
 20
93
 11
62.1564
 21
92.9877
  0
LINE
  8
0
 10
62.1564
 20
92.9877
 11
62.309
 21
92.951
  0
LINE
  8
0
 10
62.309
 20
92.951
 11
62.454
 21
92.891
  0
LINE
  8
0
 10
62.454
 20
92.891
 11
62.5878
 21
92.809
  0
LINE
  8
0
 10
62.5878
 20
92.809
 11
62.7071
 21
92.7071
  0
LINE
  8
0
 10
62.7071
 20
92.7071
 11
62.809
 21
92.5878
  0
LINE
  8
0
 10
62.809
 20
92.5878
 11
62.891
 21
92.454
  0
LINE
  8
0
 10
62.891
 20
92.454
 11
62.951
 21
92.309
  0
LINE
  8
0
 10
62.951
 20
92.309
 11
62.9877
 21
92.1564
  0
LINE
  8
0
 10
62.9877
 20
92.1564
 11
63
 21
92
  0
LINE
  8
0
 10
63
 20
92
 11
62.9877
 21
91.8436
  0
LINE
  8
0
 10
62.9877
 20
91.8436
 11
62.951
 21
91.691
  0
LINE
  8
0
 10
62.951
 20
91.691
 11
62.891
 21
91.546
  0
LINE
  8
0
 10
62.891
 20
91.546
 11
62.809
 21
91.4122
  0
LINE
  8
0
 10
62.809
 20
91.4122
 11
62.7071
 21
91.2929
  0
LINE
  8
0
 10
62.7071
 20
91.2929
 11
62.5878
 21
91.191
  0
LINE
  8
0
 10
62.5878
 20
91.191
 11
62.454
 21
91.109
  0
LINE
  8
0
 10
62.454
 20
91.109
 11
62.309
 21
91.0489
  0
LINE
  8
0
 10
62.309
 20
91.0489
 11
62.1564
 21
91.0123
  0
LINE
  8
0
 10
62.1564
 20
91.0123
 11
62
 21
91
  0
LINE
  8
0
 10
62
 20
91
 11
61.8436
 21
91.0123
  0
LINE
  8
0
 10
61.8436
 20
91.0123
 11
61.691
 21
91.0489
  0
LINE
  8
0
 10
61.691
 20
91.0489
 11
61.546
 21
91.109
  0
LINE
  8
0
 10
61.546
 20
91.109
 11
61.4122
 21
91.191
  0
LINE
  8
0
 10
61.4122
 20
91.191
 11
61.2929
 21
91.2929
  0
LINE
  8
0
 10
61.2929
 20
91.2929
 11
61.191
 21
91.4122
  0
LINE
  8
0
 10
61.191
 20
91.4122
 11
61.109
 21
91.546
  0
LINE
  8
0
 10
61.109
 20
91.546
 11
61.0489
 21
91.691
  0
LINE
  8
0
 10
61.0489
 20
91.691
 11
61.0348
 21
91.75
  0
LINE
  8
0
 10
61.0348
 20
91.75
 11
52
 21
91.75
  0
LINE
  8
0
 10
52
 20
91.75
 11
50.1619
 21
91.6053
  0
LINE
  8
0
 10
50.1619
 20
91.6053
 11
48.369
 21
91.1749
  0
LINE
  8
0
 10
48.369
 20
91.1749
 11
46.6656
 21
90.4693
  0
LINE
  8
0
 10
46.6656
 20
90.4693
 11
45.0935
 21
89.506
  0
LINE
  8
0
 10
45.0935
 20
89.506
 11
43.6915
 21
88.3085
  0
LINE
  8
0
 10
43.6915
 20
88.3085
 11
42.494
 21
86.9065
  0
LINE
  8
0
 10
42.494
 20
86.9065
 11
41.5307
 21
85.3344
  0
LINE
  8
0
 10
41.5307
 20
85.3344
 11
40.8251
 21
83.631
  0
LINE
  8
0
 10
40.8251
 20
83.631
 11
40.3947
 21
81.8381
  0
LINE
  8
0
 10
40.3947
 20
81.8381
 11
40.25
 21
80
  0
LINE
  8
0
 10
40.25
 20
80
 11
40.3947
 21
78.1619
  0
LINE
  8
0
 10
40.3947
 20
78.1619
 11
40.8251
 21
76.369
  0
LINE
  8
0
 10
40.8251
 20
76.369
 11
41.5307
 21
74.6656
  0
LINE
  8
0
 10
41.5307
 20
74.6656
 11
42.494
 21
73.0935
  0
LINE
  8
0
 10
42.494
 20
73.0935
 11
43.6915
 21
71.6915
  0
LINE
  8
0
 10
43.6915
 20
71.6915
 11
45.0935
 21
70.494
  0
LINE
  8
0
 10
45.0935
 20
70.494
 11
46.6656
 21
69.5307
  0
LINE
  8
0
 10
46.6656
 20
69.5307
 11
48.369
 21
68.8251
  0
LINE
  8
0
 10
48.369
 20
68.8251
 11
50.1619
 21
68.3947
  0
LINE
  8
0
 10
50.1619
 20
68.3947
 11
52
 21
68.25
  0
LINE
  8
0
 10
52
 20
68.25
 11
61.0348
 21
68.25
  0
LINE
  8
0
 10
61.0348
 20
68.25
 11
61.0489
 21
68.309
  0
LINE
  8
0
 10
61.0489
 20
68.309
 11
61.109
 21
68.454
  0
LINE
  8
0
 10
61.109
 20
68.454
 11
61.191
 21
68.5878
  0
LINE
  8
0
 10
61.191
 20
68.5878
 11
61.2929
 21
68.7071
  0
LINE
  8
0
 10
61.2929
 20
68.7071
 11
61.4122
 21
68.809
  0
LINE
  8
0
 10
61.4122
 20
68.809
 11
61.546
 21
68.891
  0
LINE
  8
0
 10
61.546
 20
68.891
 11
61.691
 21
68.951
  0
LINE
  8
0
 10
61.691
 20
68.951
 11
61.8436
 21
68.9877
  0
LINE
  8
0
 10
61.8436
 20
68.9877
 11
62
 21
69
  0
LINE
  8
0
 10
62
 20
69
 11
62.1564
 21
68.9877
  0
LINE
  8
0
 10
62.1564
 20
68.9877
 11
62.309
 21
68.951
  0
LINE
  8
0
 10
62.309
 20
68.951
 11
62.454
 21
68.891
  0
LINE
  8
0
 10
62.454
 20
68.891
 11
62.5878
 21
68.809
  0
LINE
  8
0
 10
62.5878
 20
68.809
 11
62.7071
 21
68.7071
  0
LINE
  8
0
 10
62.7071
 20
68.7071
 11
62.809
 21
68.5878
  0
LINE
  8
0
 10
62.809
 20
68.5878
 11
62.891
 21
68.454
  0
LINE
  8
0
 10
62.891
 20
68.454
 11
62.951
 21
68.309
  0
LINE
  8
0
 10
62.951
 20
68.309
 11
62.9877
 21
68.1564
  0
LINE
  8
0
 10
62.9877
 20
68.1564
 11
63
 21
68
  0
LINE
  8
0
 10
63
 20
68
 11
62.9877
 21
67.8436
  0
LINE
  8
0
 10
62.9877
 20
67.8436
 11
62.951
 21
67.691
  0
LINE
  8
0
 10
62.951
 20
67.691
 11
62.891
 21
67.546
  0
LINE
  8
0
 10
62.891
 20
67.546
 11
62.809
 21
67.4122
  0
LINE
  8
0
 10
62.809
 20
67.4122
 11
62.7071
 21
67.2929
  0
LINE
  8
0
 10
62.7071
 20
67.2929
 11
62.5878
 21
67.191
  0
LINE
  8
0
 10
62.5878
 20
67.191
 11
62.454
 21
67.109
  0
LINE
  8
0
 10
62.454
 20
67.109
 11
62.309
 21
67.0489
  0
LINE
  8
0
 10
62.309
 20
67.0489
 11
62.1564
 21
67.0123
  0
LINE
  8
0
 10
62.1564
 20
67.0123
 11
62
 21
67
  0
LINE
  8
0
 10
62
 20
67
 11
61.8436
 21
67.0123
  0
LINE
  8
0
 10
61.8436
 20
67.0123
 11
61.691
 21
67.0489
  0
LINE
  8
0
 10
61.691
 20
67.0489
 11
61.546
 21
67.109
  0
LINE
  8
0
 10
61.546
 20
67.109
 11
61.4122
 21
67.191
  0
LINE
  8
0
 10
61.4122
 20
67.191
 11
61.2929
 21
67.2929
  0
LINE
  8
0
 10
61.2929
 20
67.2929
 11
61.191
 21
67.4122
  0
LINE
  8
0
 10
61.191
 20
67.4122
 11
61.109
 21
67.546
  0
LINE
  8
0
 10
61.109
 20
67.546
 11
61.0489
 21
67.691
  0
LINE
  8
0
 10
61.0489
 20
67.691
 11
61.0348
 21
67.75
  0
LINE
  8
0
 10
61.0348
 20
67.75
 11
51.99
 21
67.75
  0
LINE
  8
0
 10
51.99
 20
67.75
 11
51.99
 21
67.7508
  0
LINE
  8
0
 10
51.99
 20
67.7508
 11
50.0837
 21
67.9008
  0
LINE
  8
0
 10
50.0837
 20
67.9008
 11
48.2145
 21
68.3495
  0
LINE
  8
0
 10
48.2145
 20
68.3495
 11
46.4386
 21
69.0852
  0
LINE
  8
0
 10
46.4386
 20
69.0852
 11
44.7996
 21
70.0895
  0
LINE
  8
0
 10
44.7996
 20
70.0895
 11
43.3379
 21
71.3379
  0
LINE
  8
0
 10
43.3379
 20
71.3379
 11
42.0895
 21
72.7996
  0
LINE
  8
0
 10
42.0895
 20
72.7996
 11
41.0852
 21
74.4386
  0
LINE
  8
0
 10
41.0852
 20
74.4386
 11
40.3495
 21
76.2145
  0
LINE
  8
0
 10
40.3495
 20
76.2145
 11
39.9008
 21
78.0837
  0
LINE
  8
0
 10
39.9008
 20
78.0837
 11
39.75
 21
80
  0
LINE
  8
0
 10
39.75
 20
80
 11
39.9008
 21
81.9163
  0
LINE
  8
0
 10
39.9008
 20
81.9163
 11
40.3495
 21
83.7855
  0
LINE
  8
0
 10
35.7262
 20
94.2715
 11
35.4592
 21
94.3356
  0
LINE
  8
0
 10
35.4592
 20
94.3356
 11
35.2055
 21
94.4407
  0
LINE
  8
0
 10
35.2055
 20
94.4407
 11
34.9714
 21
94.5842
  0
LINE
  8
0
 10
34.9714
 20
94.5842
 11
34.7626
 21
94.7626
  0
LINE
  8
0
 10
34.7626
 20
94.7626
 11
34.5842
 21
94.9714
  0
LINE
  8
0
 10
34.5842
 20
94.9714
 11
34.4407
 21
95.2055
  0
LINE
  8
0
 10
34.4407
 20
95.2055
 11
34.3356
 21
95.4592
  0
LINE
  8
0
 10
34.3356
 20
95.4592
 11
34.2715
 21
95.7262
  0
LINE
  8
0
 10
34.2715
 20
95.7262
 11
34.25
 21
96
  0
LINE
  8
0
 10
34.25
 20
96
 11
34.2715
 21
96.2738
  0
LINE
  8
0
 10
34.2715
 20
96.2738
 11
34.3356
 21
96.5408
  0
LINE
  8
0
 10
34.3356
 20
96.5408
 11
34.4407
 21
96.7945
  0
LINE
  8
0
 10
34.4407
 20
96.7945
 11
34.5842
 21
97.0286
  0
LINE
  8
0
 10
34.5842
 20
97.0286
 11
34.7626
 21
97.2374
  0
LINE
  8
0
 10
34.7626
 20
97.2374
 11
34.9714
 21
97.4158
  0
LINE
  8
0
 10
34.9714
 20
97.4158
 11
35.2055
 21
97.5593
  0
LINE
  8
0
 10
35.2055
 20
97.5593
 11
35.4592
 21
97.6644
  0
LINE
  8
0
 10
35.4592
 20
97.6644
 11
35.7262
 21
97.7285
  0
LINE
  8
0
 10
35.7262
 20
97.7285
 11
36
 21
97.75
  0
LINE
  8
0
 10
36
 20
97.75
 11
36.2738
 21
97.7285
  0
LINE
  8
0
 10
36.2738
 20
97.7285
 11
36.5408
 21
97.6644
  0
LINE
  8
0
 10
36.5408
 20
97.6644
 11
36.7945
 21
97.5593
  0
LINE
  8
0
 10
36.7945
 20
97.5593
 11
37.0286
 21
97.4158
  0
LINE
  8
0
 10
37.0286
 20
97.4158
 11
37.2374
 21
97.2374
  0
LINE
  8
0
 10
37.2374
 20
97.2374
 11
37.4158
 21
97.0286
  0
LINE
  8
0
 10
37.4158
 20
97.0286
 11
37.5592
 21
96.7945
  0
LINE
  8
0
 10
37.5592
 20
96.7945
 11
37.6643
 21
96.5408
  0
LINE
  8
0
 10
37.6643
 20
96.5408
 11
37.7285
 21
96.2738
  0
LINE
  8
0
 10
37.7285
 20
96.2738
 11
37.75
 21
96
  0
LINE
  8
0
 10
37.75
 20
96
 11
37.7285
 21
95.7262
  0
LINE
  8
0
 10
37.7285
 20
95.7262
 11
37.6643
 21
95.4592
  0
LINE
  8
0
 10
37.6643
 20
95.4592
 11
37.5592
 21
95.2055
  0
LINE
  8
0
 10
37.5592
 20
95.2055
 11
37.4158
 21
94.9714
  0
LINE
  8
0
 10
37.4158
 20
94.9714
 11
37.2374
 21
94.7626
  0
LINE
  8
0
 10
37.2374
 20
94.7626
 11
37.0286
 21
94.5842
  0
LINE
  8
0
 10
37.0286
 20
94.5842
 11
36.7945
 21
94.4407
  0
LINE
  8
0
 10
36.7945
 20
94.4407
 11
36.5408
 21
94.3356
  0
LINE
  8
0
 10
36.5408
 20
94.3356
 11
36.2738
 21
94.2715
  0
LINE
  8
0
 10
36.2738
 20
94.2715
 11
36
 21
94.25
  0
LINE
  8
0
 10
36
 20
94.25
 11
35.7262
 21
94.2715
  0
LINE
  8
0
 10
123.726
 20
94.2715
 11
123.459
 21
94.3356
  0
LINE
  8
0
 10
123.459
 20
94.3356
 11
123.206
 21
94.4407
  0
LINE
  8
0
 10
123.206
 20
94.4407
 11
122.971
 21
94.5842
  0
LINE
  8
0
 10
122.971
 20
94.5842
 11
122.763
 21
94.7626
  0
LINE
  8
0
 10
122.763
 20
94.7626
 11
122.584
 21
94.9714
  0
LINE
  8
0
 10
122.584
 20
94.9714
 11
122.441
 21
95.2055
  0
LINE
  8
0
 10
122.441
 20
95.2055
 11
122.336
 21
95.4592
  0
LINE
  8
0
 10
122.336
 20
95.4592
 11
122.272
 21
95.7262
  0
LINE
  8
0
 10
122.272
 20
95.7262
 11
122.25
 21
96
  0
LINE
  8
0
 10
122.25
 20
96
 11
122.272
 21
96.2738
  0
LINE
  8
0
 10
122.272
 20
96.2738
 11
122.336
 21
96.5408
  0
LINE
  8
0
 10
122.336
 20
96.5408
 11
122.441
 21
96.7945
  0
LINE
  8
0
 10
122.441
 20
96.7945
 11
122.584
 21
97.0286
  0
LINE
  8
0
 10
122.584
 20
97.0286
 11
122.763
 21
97.2374
  0
LINE
  8
0
 10
122.763
 20
97.2374
 11
122.971
 21
97.4158
  0
LINE
  8
0
 10
122.971
 20
97.4158
 11
123.206
 21
97.5593
  0
LINE
  8
0
 10
123.206
 20
97.5593
 11
123.459
 21
97.6644
  0
LINE
  8
0
 10
123.459
 20
97.6644
 11
123.726
 21
97.7285
  0
LINE
  8
0
 10
123.726
 20
97.7285
 11
124
 21
97.75
  0
LINE
  8
0
 10
124
 20
97.75
 11
124.274
 21
97.7285
  0
LINE
  8
0
 10
124.274
 20
97.7285
 11
124.541
 21
97.6644
  0
LINE
  8
0
 10
124.541
 20
97.6644
 11
124.794
 21
97.5593
  0
LINE
  8
0
 10
124.794
 20
97.5593
 11
125.029
 21
97.4158
  0
LINE
  8
0
 10
125.029
 20
97.4158
 11
125.237
 21
97.2374
  0
LINE
  8
0
 10
125.237
 20
97.2374
 11
125.416
 21
97.0286
  0
LINE
  8
0
 10
125.416
 20
97.0286
 11
125.559
 21
96.7945
  0
LINE
  8
0
 10
125.559
 20
96.7945
 11
125.664
 21
96.5408
  0
LINE
  8
0
 10
125.664
 20
96.5408
 11
125.728
 21
96.2738
  0
LINE
  8
0
 10
125.728
 20
96.2738
 11
125.75
 21
96
  0
LINE
  8
0
 10
125.75
 20
96
 11
125.728
 21
95.7262
  0
LINE
  8
0
 10
125.728
 20
95.7262
 11
125.664
 21
95.4592
  0
LINE
  8
0
 10
125.664
 20
95.4592
 11
125.559
 21
95.2055
  0
LINE
  8
0
 10
125.559
 20
95.2055
 11
125.416
 21
94.9714
  0
LINE
  8
0
 10
125.416
 20
94.9714
 11
125.237
 21
94.7626
  0
LINE
  8
0
 10
125.237
 20
94.7626
 11
125.029
 21
94.5842
  0
LINE
  8
0
 10
125.029
 20
94.5842
 11
124.794
 21
94.4407
  0
LINE
  8
0
 10
124.794
 20
94.4407
 11
124.541
 21
94.3356
  0
LINE
  8
0
 10
124.541
 20
94.3356
 11
124.274
 21
94.2715
  0
LINE
  8
0
 10
124.274
 20
94.2715
 11
124
 21
94.25
  0
LINE
  8
0
 10
124
 20
94.25
 11
123.726
 21
94.2715
  0
LINE
  8
0
 10
75.7262
 20
94.2715
 11
75.4592
 21
94.3356
  0
LINE
  8
0
 10
75.4592
 20
94.3356
 11
75.2055
 21
94.4407
  0
LINE
  8
0
 10
75.2055
 20
94.4407
 11
74.9714
 21
94.5842
  0
LINE
  8
0
 10
74.9714
 20
94.5842
 11
74.7626
 21
94.7626
  0
LINE
  8
0
 10
74.7626
 20
94.7626
 11
74.5842
 21
94.9714
  0
LINE
  8
0
 10
74.5842
 20
94.9714
 11
74.4407
 21
95.2055
  0
LINE
  8
0
 10
74.4407
 20
95.2055
 11
74.3356
 21
95.4592
  0
LINE
  8
0
 10
74.3356
 20
95.4592
 11
74.2715
 21
95.7262
  0
LINE
  8
0
 10
74.2715
 20
95.7262
 11
74.25
 21
96
  0
LINE
  8
0
 10
74.25
 20
96
 11
74.2715
 21
96.2738
  0
LINE
  8
0
 10
74.2715
 20
96.2738
 11
74.3356
 21
96.5408
  0
LINE
  8
0
 10
74.3356
 20
96.5408
 11
74.4407
 21
96.7945
  0
LINE
  8
0
 10
74.4407
 20
96.7945
 11
74.5842
 21
97.0286
  0
LINE
  8
0
 10
74.5842
 20
97.0286
 11
74.7626
 21
97.2374
  0
LINE
  8
0
 10
74.7626
 20
97.2374
 11
74.9714
 21
97.4158
  0
LINE
  8
0
 10
74.9714
 20
97.4158
 11
75.2055
 21
97.5593
  0
LINE
  8
0
 10
75.2055
 20
97.5593
 11
75.4592
 21
97.6644
  0
LINE
  8
0
 10
75.4592
 20
97.6644
 11
75.7262
 21
97.7285
  0
LINE
  8
0
 10
75.7262
 20
97.7285
 11
76
 21
97.75
  0
LINE
  8
0
 10
76
 20
97.75
 11
76.2738
 21
97.7285
  0
LINE
  8
0
 10
76.2738
 20
97.7285
 11
76.5408
 21
97.6644
  0
LINE
  8
0
 10
76.5408
 20
97.6644
 11
76.7945
 21
97.5593
  0
LINE
  8
0
 10
76.7945
 20
97.5593
 11
77.0286
 21
97.4158
  0
LINE
  8
0
 10
77.0286
 20
97.4158
 11
77.2374
 21
97.2374
  0
LINE
  8
0
 10
77.2374
 20
97.2374
 11
77.4158
 21
97.0286
  0
LINE
  8
0
 10
77.4158
 20
97.0286
 11
77.5593
 21
96.7945
  0
LINE
  8
0
 10
77.5593
 20
96.7945
 11
77.6644
 21
96.5408
  0
LINE
  8
0
 10
77.6644
 20
96.5408
 11
77.7285
 21
96.2738
  0
LINE
  8
0
 10
77.7285
 20
96.2738
 11
77.75
 21
96
  0
LINE
  8
0
 10
77.75
 20
96
 11
77.7285
 21
95.7262
  0
LINE
  8
0
 10
77.7285
 20
95.7262
 11
77.6644
 21
95.4592
  0
LINE
  8
0
 10
77.6644
 20
95.4592
 11
77.5593
 21
95.2055
  0
LINE
  8
0
 10
77.5593
 20
95.2055
 11
77.4158
 21
94.9714
  0
LINE
  8
0
 10
77.4158
 20
94.9714
 11
77.2374
 21
94.7626
  0
LINE
  8
0
 10
77.2374
 20
94.7626
 11
77.0286
 21
94.5842
  0
LINE
  8
0
 10
77.0286
 20
94.5842
 11
76.7945
 21
94.4407
  0
LINE
  8
0
 10
76.7945
 20
94.4407
 11
76.5408
 21
94.3356
  0
LINE
  8
0
 10
76.5408
 20
94.3356
 11
76.2738
 21
94.2715
  0
LINE
  8
0
 10
76.2738
 20
94.2715
 11
76
 21
94.25
  0
LINE
  8
0
 10
76
 20
94.25
 11
75.7262
 21
94.2715
  0
LINE
  8
0
 10
117.844
 20
67.0123
 11
117.691
 21
67.0489
  0
LINE
  8
0
 10
117.691
 20
67.0489
 11
117.546
 21
67.109
  0
LINE
  8
0
 10
117.546
 20
67.109
 11
117.412
 21
67.191
  0
LINE
  8
0
 10
117.412
 20
67.191
 11
117.293
 21
67.2929
  0
LINE
  8
0
 10
117.293
 20
67.2929
 11
117.191
 21
67.4122
  0
LINE
  8
0
 10
117.191
 20
67.4122
 11
117.109
 21
67.546
  0
LINE
  8
0
 10
117.109
 20
67.546
 11
117.049
 21
67.691
  0
LINE
  8
0
 10
117.049
 20
67.691
 11
117.035
 21
67.75
  0
LINE
  8
0
 10
117.035
 20
67.75
 11
107.99
 21
67.75
  0
LINE
  8
0
 10
107.99
 20
67.75
 11
107.99
 21
67.7508
  0
LINE
  8
0
 10
107.99
 20
67.7508
 11
106.084
 21
67.9008
  0
LINE
  8
0
 10
106.084
 20
67.9008
 11
104.215
 21
68.3495
  0
LINE
  8
0
 10
104.215
 20
68.3495
 11
102.439
 21
69.0852
  0
LINE
  8
0
 10
102.439
 20
69.0852
 11
100.8
 21
70.0895
  0
LINE
  8
0
 10
100.8
 20
70.0895
 11
99.3379
 21
71.3379
  0
LINE
  8
0
 10
99.3379
 20
71.3379
 11
98.0895
 21
72.7996
  0
LINE
  8
0
 10
98.0895
 20
72.7996
 11
97.0852
 21
74.4386
  0
LINE
  8
0
 10
97.0852
 20
74.4386
 11
96.3495
 21
76.2145
  0
LINE
  8
0
 10
96.3495
 20
76.2145
 11
95.9008
 21
78.0837
  0
LINE
  8
0
 10
95.9008
 20
78.0837
 11
95.75
 21
80
  0
LINE
  8
0
 10
95.75
 20
80
 11
95.9008
 21
81.9163
  0
LINE
  8
0
 10
95.9008
 20
81.9163
 11
96.3495
 21
83.7855
  0
LINE
  8
0
 10
96.3495
 20
83.7855
 11
97.0852
 21
85.5614
  0
LINE
  8
0
 10
97.0852
 20
85.5614
 11
98.0895
 21
87.2004
  0
LINE
  8
0
 10
98.0895
 20
87.2004
 11
99.3379
 21
88.662
  0
LINE
  8
0
 10
99.3379
 20
88.662
 11
100.8
 21
89.9105
  0
LINE
  8
0
 10
100.8
 20
89.9105
 11
102.439
 21
90.9148
  0
LINE
  8
0
 10
102.439
 20
90.9148
 11
104.215
 21
91.6504
  0
LINE
  8
0
 10
104.215
 20
91.6504
 11
106.084
 21
92.0992
  0
LINE
  8
0
 10
106.084
 20
92.0992
 11
107.99
 21
92.2492
  0
LINE
  8
0
 10
107.99
 20
92.2492
 11
107.99
 21
92.25
  0
LINE
  8
0
 10
107.99
 20
92.25
 11
117.035
 21
92.25
  0
LINE
  8
0
 10
117.035
 20
92.25
 11
117.049
 21
92.309
  0
LINE
  8
0
 10
117.049
 20
92.309
 11
117.109
 21
92.454
  0
LINE
  8
0
 10
117.109
 20
92.454
 11
117.191
 21
92.5878
  0
LINE
  8
0
 10
117.191
 20
92.5878
 11
117.293
 21
92.7071
  0
LINE
  8
0
 10
117.293
 20
92.7071
 11
117.412
 21
92.809
  0
LINE
  8
0
 10
117.412
 20
92.809
 11
117.546
 21
92.891
  0
LINE
  8
0
 10
117.546
 20
92.891
 11
117.691
 21
92.951
  0
LINE
  8
0
 10
117.691
 20
92.951
 11
117.844
 21
92.9877
  0
LINE
  8
0
 10
117.844
 20
92.9877
 11
118
 21
93
  0
LINE
  8
0
 10
118
 20
93
 11
118.156
 21
92.9877
  0
LINE
  8
0
 10
118.156
 20
92.9877
 11
118.309
 21
92.951
  0
LINE
  8
0
 10
118.309
 20
92.951
 11
118.454
 21
92.891
  0
LINE
  8
0
 10
118.454
 20
92.891
 11
118.588
 21
92.809
  0
LINE
  8
0
 10
118.588
 20
92.809
 11
118.707
 21
92.7071
  0
LINE
  8
0
 10
118.707
 20
92.7071
 11
118.809
 21
92.5878
  0
LINE
  8
0
 10
118.809
 20
92.5878
 11
118.891
 21
92.454
  0
LINE
  8
0
 10
118.891
 20
92.454
 11
118.951
 21
92.309
  0
LINE
  8
0
 10
118.951
 20
92.309
 11
118.988
 21
92.1564
  0
LINE
  8
0
 10
118.988
 20
92.1564
 11
119
 21
92
  0
LINE
  8
0
 10
119
 20
92
 11
118.988
 21
91.8436
  0
LINE
  8
0
 10
118.988
 20
91.8436
 11
118.951
 21
91.691
  0
LINE
  8
0
 10
118.951
 20
91.691
 11
118.891
 21
91.546
  0
LINE
  8
0
 10
118.891
 20
91.546
 11
118.809
 21
91.4122
  0
LINE
  8
0
 10
118.809
 20
91.4122
 11
118.707
 21
91.2929
  0
LINE
  8
0
 10
118.707
 20
91.2929
 11
118.588
 21
91.191
  0
LINE
  8
0
 10
118.588
 20
91.191
 11
118.454
 21
91.109
  0
LINE
  8
0
 10
118.454
 20
91.109
 11
118.309
 21
91.0489
  0
LINE
  8
0
 10
118.309
 20
91.0489
 11
118.156
 21
91.0123
  0
LINE
  8
0
 10
118.156
 20
91.0123
 11
118
 21
91
  0
LINE
  8
0
 10
118
 20
91
 11
117.844
 21
91.0123
  0
LINE
  8
0
 10
117.844
 20
91.0123
 11
117.691
 21
91.0489
  0
LINE
  8
0
 10
117.691
 20
91.0489
 11
117.546
 21
91.109
  0
LINE
  8
0
 10
117.546
 20
91.109
 11
117.412
 21
91.191
  0
LINE
  8
0
 10
117.412
 20
91.191
 11
117.293
 21
91.2929
  0
LINE
  8
0
 10
117.293
 20
91.2929
 11
117.191
 21
91.4122
  0
LINE
  8
0
 10
117.191
 20
91.4122
 11
117.109
 21
91.546
  0
LINE
  8
0
 10
117.109
 20
91.546
 11
117.049
 21
91.691
  0
LINE
  8
0
 10
117.049
 20
91.691
 11
117.035
 21
91.75
  0
LINE
  8
0
 10
117.035
 20
91.75
 11
108
 21
91.75
  0
LINE
  8
0
 10
108
 20
91.75
 11
106.162
 21
91.6053
  0
LINE
  8
0
 10
106.162
 20
91.6053
 11
104.369
 21
91.1749
  0
LINE
  8
0
 10
104.369
 20
91.1749
 11
102.666
 21
90.4693
  0
LINE
  8
0
 10
102.666
 20
90.4693
 11
101.094
 21
89.506
  0
LINE
  8
0
 10
101.094
 20
89.506
 11
99.6915
 21
88.3085
  0
LINE
  8
0
 10
99.6915
 20
88.3085
 11
98.494
 21
86.9065
  0
LINE
  8
0
 10
98.494
 20
86.9065
 11
97.5307
 21
85.3344
  0
LINE
  8
0
 10
97.5307
 20
85.3344
 11
96.8251
 21
83.631
  0
LINE
  8
0
 10
96.8251
 20
83.631
 11
96.3947
 21
81.8381
  0
LINE
  8
0
 10
96.3947
 20
81.8381
 11
96.25
 21
80
  0
LINE
  8
0
 10
96.25
 20
80
 11
96.3947
 21
78.1619
  0
LINE
  8
0
 10
96.3947
 20
78.1619
 11
96.8251
 21
76.369
  0
LINE
  8
0
 10
96.8251
 20
76.369
 11
97.5307
 21
74.6656
  0
LINE
  8
0
 10
97.5307
 20
74.6656
 11
98.494
 21
73.0935
  0
LINE
  8
0
 10
98.494
 20
73.0935
 11
99.6915
 21
71.6915
  0
LINE
  8
0
 10
99.6915
 20
71.6915
 11
101.094
 21
70.494
  0
LINE
  8
0
 10
101.094
 20
70.494
 11
102.666
 21
69.5307
  0
LINE
  8
0
 10
102.666
 20
69.5307
 11
104.369
 21
68.8251
  0
LINE
  8
0
 10
104.369
 20
68.8251
 11
106.162
 21
68.3947
  0
LINE
  8
0
 10
106.162
 20
68.3947
 11
108
 21
68.25
  0
LINE
  8
0
 10
108
 20
68.25
 11
117.035
 21
68.25
  0
LINE
  8
0
 10
117.035
 20
68.25
 11
117.049
 21
68.309
  0
LINE
  8
0
 10
117.049
 20
68.309
 11
117.109
 21
68.454
  0
LINE
  8
0
 10
117.109
 20
68.454
 11
117.191
 21
68.5878
  0
LINE
  8
0
 10
117.191
 20
68.5878
 11
117.293
 21
68.7071
  0
LINE
  8
0
 10
117.293
 20
68.7071
 11
117.412
 21
68.809
  0
LINE
  8
0
 10
117.412
 20
68.809
 11
117.546
 21
68.891
  0
LINE
  8
0
 10
117.546
 20
68.891
 11
117.691
 21
68.951
  0
LINE
  8
0
 10
117.691
 20
68.951
 11
117.844
 21
68.9877
  0
LINE
  8
0
 10
117.844
 20
68.9877
 11
118
 21
69
  0
LINE
  8
0
 10
118
 20
69
 11
118.156
 21
68.9877
  0
LINE
  8
0
 10
118.156
 20
68.9877
 11
118.309
 21
68.951
  0
LINE
  8
0
 10
118.309
 20
68.951
 11
118.454
 21
68.891
  0
LINE
  8
0
 10
118.454
 20
68.891
 11
118.588
 21
68.809
  0
LINE
  8
0
 10
118.588
 20
68.809
 11
118.707
 21
68.7071
  0
LINE
  8
0
 10
118.707
 20
68.7071
 11
118.809
 21
68.5878
  0
LINE
  8
0
 10
118.809
 20
68.5878
 11
118.891
 21
68.454
  0
LINE
  8
0
 10
118.891
 20
68.454
 11
118.951
 21
68.309
  0
LINE
  8
0
 10
118.951
 20
68.309
 11
118.988
 21
68.1564
  0
LINE
  8
0
 10
118.988
 20
68.1564
 11
119
 21
68
  0
LINE
  8
0
 10
119
 20
68
 11
118.988
 21
67.8436
  0
LINE
  8
0
 10
118.988
 20
67.8436
 11
118.951
 21
67.691
  0
LINE
  8
0
 10
118.951
 20
67.691
 11
118.891
 21
67.546
  0
LINE
  8
0
 10
118.891
 20
67.546
 11
118.809
 21
67.4122
  0
LINE
  8
0
 10
118.809
 20
67.4122
 11
118.707
 21
67.2929
  0
LINE
  8
0
 10
118.707
 20
67.2929
 11
118.588
 21
67.191
  0
LINE
  8
0
 10
118.588
 20
67.191
 11
118.454
 21
67.109
  0
LINE
  8
0
 10
118.454
 20
67.109
 11
118.309
 21
67.0489
  0
LINE
  8
0
 10
118.309
 20
67.0489
 11
118.156
 21
67.0123
  0
LINE
  8
0
 10
118.156
 20
67.0123
 11
118
 21
67
  0
LINE
  8
0
 10
118
 20
67
 11
117.844
 21
67.0123
  0
LINE
  8
0
 10
79.2178
 20
71.8116
 11
78.4549
 21
71.9947
  0
LINE
  8
0
 10
78.4549
 20
71.9947
 11
77.73
 21
72.295
  0
LINE
  8
0
 10
77.73
 20
72.295
 11
77.0611
 21
72.7049
  0
LINE
  8
0
 10
77.0611
 20
72.7049
 11
76.4645
 21
73.2145
  0
LINE
  8
0
 10
76.4645
 20
73.2145
 11
75.9549
 21
73.8111
  0
LINE
  8
0
 10
75.9549
 20
73.8111
 11
75.545
 21
74.48
  0
LINE
  8
0
 10
75.545
 20
74.48
 11
75.2447
 21
75.2049
  0
LINE
  8
0
 10
75.2447
 20
75.2049
 11
75.0616
 21
75.9678
  0
LINE
  8
0
 10
75.0616
 20
75.9678
 11
75
 21
76.75
  0
LINE
  8
0
 10
75
 20
76.75
 11
75
 21
83.25
  0
LINE
  8
0
 10
75
 20
83.25
 11
75.0616
 21
84.0322
  0
LINE
  8
0
 10
75.0616
 20
84.0322
 11
75.2447
 21
84.7951
  0
LINE
  8
0
 10
75.2447
 20
84.7951
 11
75.545
 21
85.5199
  0
LINE
  8
0
 10
75.545
 20
85.5199
 11
75.9549
 21
86.1889
  0
LINE
  8
0
 10
75.9549
 20
86.1889
 11
76.4645
 21
86.7855
  0
LINE
  8
0
 10
76.4645
 20
86.7855
 11
77.0611
 21
87.2951
  0
LINE
  8
0
 10
77.0611
 20
87.2951
 11
77.73
 21
87.705
  0
LINE
  8
0
 10
77.73
 20
87.705
 11
78.4549
 21
88.0053
  0
LINE
  8
0
 10
78.4549
 20
88.0053
 11
79.2178
 21
88.1884
  0
LINE
  8
0
 10
79.2178
 20
88.1884
 11
80
 21
88.25
  0
LINE
  8
0
 10
80
 20
88.25
 11
80.7822
 21
88.1884
  0
LINE
  8
0
 10
80.7822
 20
88.1884
 11
81.5451
 21
88.0053
  0
LINE
  8
0
 10
81.5451
 20
88.0053
 11
82.2699
 21
87.705
  0
LINE
  8
0
 10
82.2699
 20
87.705
 11
82.9389
 21
87.2951
  0
LINE
  8
0
 10
82.9389
 20
87.2951
 11
83.5355
 21
86.7855
  0
LINE
  8
0
 10
83.5355
 20
86.7855
 11
84.0451
 21
86.1889
  0
LINE
  8
0
 10
84.0451
 20
86.1889
 11
84.455
 21
85.5199
  0
LINE
  8
0
 10
84.455
 20
85.5199
 11
84.7553
 21
84.7951
  0
LINE
  8
0
 10
84.7553
 20
84.7951
 11
84.9384
 21
84.0322
  0
LINE
  8
0
 10
84.9384
 20
84.0322
 11
85
 21
83.25
  0
LINE
  8
0
 10
85
 20
83.25
 11
85
 21
76.75
  0
LINE
  8
0
 10
85
 20
76.75
 11
84.9384
 21
75.9678
  0
LINE
  8
0
 10
84.9384
 20
75.9678
 11
84.7553
 21
75.2049
  0
LINE
  8
0
 10
84.7553
 20
75.2049
 11
84.455
 21
74.48
  0
LINE
  8
0
 10
84.455
 20
74.48
 11
84.0451
 21
73.8111
  0
LINE
  8
0
 10
84.0451
 20
73.8111
 11
83.5355
 21
73.2145
  0
LINE
  8
0
 10
83.5355
 20
73.2145
 11
82.9389
 21
72.7049
  0
LINE
  8
0
 10
82.9389
 20
72.7049
 11
82.2699
 21
72.295
  0
LINE
  8
0
 10
82.2699
 20
72.295
 11
81.5451
 21
71.9947
  0
LINE
  8
0
 10
81.5451
 20
71.9947
 11
80.7822
 21
71.8116
  0
LINE
  8
0
 10
80.7822
 20
71.8116
 11
80
 21
71.75
  0
LINE
  8
0
 10
80
 20
71.75
 11
79.2178
 21
71.8116
  0
LINE
  8
0
 10
3.72623
 20
62.2715
 11
3.45921
 21
62.3356
  0
LINE
  8
0
 10
3.45921
 20
62.3356
 11
3.20551
 21
62.4407
  0
LINE
  8
0
 10
3.20551
 20
62.4407
 11
2.97137
 21
62.5842
  0
LINE
  8
0
 10
2.97137
 20
62.5842
 11
2.76256
 21
62.7626
  0
LINE
  8
0
 10
2.76256
 20
62.7626
 11
2.58421
 21
62.9714
  0
LINE
  8
0
 10
2.58421
 20
62.9714
 11
2.44073
 21
63.2055
  0
LINE
  8
0
 10
2.44073
 20
63.2055
 11
2.33565
 21
63.4592
  0
LINE
  8
0
 10
2.33565
 20
63.4592
 11
2.27153
 21
63.7262
  0
LINE
  8
0
 10
2.27153
 20
63.7262
 11
2.25
 21
64
  0
LINE
  8
0
 10
2.25
 20
64
 11
2.27153
 21
64.2738
  0
LINE
  8
0
 10
2.27153
 20
64.2738
 11
2.33565
 21
64.5408
  0
LINE
  8
0
 10
2.33565
 20
64.5408
 11
2.44073
 21
64.7945
  0
LINE
  8
0
 10
2.44073
 20
64.7945
 11
2.58421
 21
65.0286
  0
LINE
  8
0
 10
2.58421
 20
65.0286
 11
2.76256
 21
65.2374
  0
LINE
  8
0
 10
2.76256
 20
65.2374
 11
2.97137
 21
65.4158
  0
LINE
  8
0
 10
2.97137
 20
65.4158
 11
3.20551
 21
65.5593
  0
LINE
  8
0
 10
3.20551
 20
65.5593
 11
3.45921
 21
65.6644
  0
LINE
  8
0
 10
3.45921
 20
65.6644
 11
3.72623
 21
65.7285
  0
LINE
  8
0
 10
3.72623
 20
65.7285
 11
4
 21
65.75
  0
LINE
  8
0
 10
4
 20
65.75
 11
4.27376
 21
65.7285
  0
LINE
  8
0
 10
4.27376
 20
65.7285
 11
4.54077
 21
65.6644
  0
LINE
  8
0
 10
4.54077
 20
65.6644
 11
4.79448
 21
65.5593
  0
LINE
  8
0
 10
4.79448
 20
65.5593
 11
5.02861
 21
65.4158
  0
LINE
  8
0
 10
5.02861
 20
65.4158
 11
5.23743
 21
65.2374
  0
LINE
  8
0
 10
5.23743
 20
65.2374
 11
5.41577
 21
65.0286
  0
LINE
  8
0
 10
5.41577
 20
65.0286
 11
5.55925
 21
64.7945
  0
LINE
  8
0
 10
5.55925
 20
64.7945
 11
5.66434
 21
64.5408
  0
LINE
  8
0
 10
5.66434
 20
64.5408
 11
5.72845
 21
64.2738
  0
LINE
  8
0
 10
5.72845
 20
64.2738
 11
5.75
 21
64
  0
LINE
  8
0
 10
5.75
 20
64
 11
5.72845
 21
63.7262
  0
LINE
  8
0
 10
5.72845
 20
63.7262
 11
5.66434
 21
63.4592
  0
LINE
  8
0
 10
5.66434
 20
63.4592
 11
5.55925
 21
63.2055
  0
LINE
  8
0
 10
5.55925
 20
63.2055
 11
5.41577
 21
62.9714
  0
LINE
  8
0
 10
5.41577
 20
62.9714
 11
5.23743
 21
62.7626
  0
LINE
  8
0
 10
5.23743
 20
62.7626
 11
5.02861
 21
62.5842
  0
LINE
  8
0
 10
5.02861
 20
62.5842
 11
4.79448
 21
62.4407
  0
LINE
  8
0
 10
4.79448
 20
62.4407
 11
4.54077
 21
62.3356
  0
LINE
  8
0
 10
4.54077
 20
62.3356
 11
4.27376
 21
62.2715
  0
LINE
  8
0
 10
4.27376
 20
62.2715
 11
4
 21
62.25
  0
LINE
  8
0
 10
4
 20
62.25
 11
3.72623
 21
62.2715
  0
LINE
  8
0
 10
123.726
 20
62.2715
 11
123.459
 21
62.3356
  0
LINE
  8
0
 10
123.459
 20
62.3356
 11
123.206
 21
62.4407
  0
LINE
  8
0
 10
123.206
 20
62.4407
 11
122.971
 21
62.5842
  0
LINE
  8
0
 10
122.971
 20
62.5842
 11
122.763
 21
62.7626
  0
LINE
  8
0
 10
122.763
 20
62.7626
 11
122.584
 21
62.9714
  0
LINE
  8
0
 10
122.584
 20
62.9714
 11
122.441
 21
63.2055
  0
LINE
  8
0
 10
122.441
 20
63.2055
 11
122.336
 21
63.4592
  0
LINE
  8
0
 10
122.336
 20
63.4592
 11
122.272
 21
63.7262
  0
LINE
  8
0
 10
122.272
 20
63.7262
 11
122.25
 21
64
  0
LINE
  8
0
 10
122.25
 20
64
 11
122.272
 21
64.2738
  0
LINE
  8
0
 10
122.272
 20
64.2738
 11
122.336
 21
64.5408
  0
LINE
  8
0
 10
122.336
 20
64.5408
 11
122.441
 21
64.7945
  0
LINE
  8
0
 10
122.441
 20
64.7945
 11
122.584
 21
65.0286
  0
LINE
  8
0
 10
122.584
 20
65.0286
 11
122.763
 21
65.2374
  0
LINE
  8
0
 10
122.763
 20
65.2374
 11
122.971
 21
65.4158
  0
LINE
  8
0
 10
122.971
 20
65.4158
 11
123.206
 21
65.5593
  0
LINE
  8
0
 10
123.206
 20
65.5593
 11
123.459
 21
65.6644
  0
LINE
  8
0
 10
123.459
 20
65.6644
 11
123.726
 21
65.7285
  0
LINE
  8
0
 10
123.726
 20
65.7285
 11
124
 21
65.75
  0
LINE
  8
0
 10
124
 20
65.75
 11
124.274
 21
65.7285
  0
LINE
  8
0
 10
124.274
 20
65.7285
 11
124.541
 21
65.6644
  0
LINE
  8
0
 10
124.541
 20
65.6644
 11
124.794
 21
65.5593
  0
LINE
  8
0
 10
124.794
 20
65.5593
 11
125.029
 21
65.4158
  0
LINE
  8
0
 10
125.029
 20
65.4158
 11
125.237
 21
65.2374
  0
LINE
  8
0
 10
125.237
 20
65.2374
 11
125.416
 21
65.0286
  0
LINE
  8
0
 10
125.416
 20
65.0286
 11
125.559
 21
64.7945
  0
LINE
  8
0
 10
125.559
 20
64.7945
 11
125.664
 21
64.5408
  0
LINE
  8
0
 10
125.664
 20
64.5408
 11
125.728
 21
64.2738
  0
LINE
  8
0
 10
125.728
 20
64.2738
 11
125.75
 21
64
  0
LINE
  8
0
 10
125.75
 20
64
 11
125.728
 21
63.7262
  0
LINE
  8
0
 10
125.728
 20
63.7262
 11
125.664
 21
63.4592
  0
LINE
  8
0
 10
125.664
 20
63.4592
 11
125.559
 21
63.2055
  0
LINE
  8
0
 10
125.559
 20
63.2055
 11
125.416
 21
62.9714
  0
LINE
  8
0
 10
125.416
 20
62.9714
 11
125.237
 21
62.7626
  0
LINE
  8
0
 10
125.237
 20
62.7626
 11
125.029
 21
62.5842
  0
LINE
  8
0
 10
125.029
 20
62.5842
 11
124.794
 21
62.4407
  0
LINE
  8
0
 10
124.794
 20
62.4407
 11
124.541
 21
62.3356
  0
LINE
  8
0
 10
124.541
 20
62.3356
 11
124.274
 21
62.2715
  0
LINE
  8
0
 10
124.274
 20
62.2715
 11
124
 21
62.25
  0
LINE
  8
0
 10
124
 20
62.25
 11
123.726
 21
62.2715
  0
LINE
  8
0
 10
85.7262
 20
62.2715
 11
85.4592
 21
62.3356
  0
LINE
  8
0
 10
85.4592
 20
62.3356
 11
85.2055
 21
62.4407
  0
LINE
  8
0
 10
85.2055
 20
62.4407
 11
84.9714
 21
62.5842
  0
LINE
  8
0
 10
84.9714
 20
62.5842
 11
84.7626
 21
62.7626
  0
LINE
  8
0
 10
84.7626
 20
62.7626
 11
84.5842
 21
62.9714
  0
LINE
  8
0
 10
84.5842
 20
62.9714
 11
84.4407
 21
63.2055
  0
LINE
  8
0
 10
84.4407
 20
63.2055
 11
84.3356
 21
63.4592
  0
LINE
  8
0
 10
84.3356
 20
63.4592
 11
84.2715
 21
63.7262
  0
LINE
  8
0
 10
84.2715
 20
63.7262
 11
84.25
 21
64
  0
LINE
  8
0
 10
84.25
 20
64
 11
84.2715
 21
64.2738
  0
LINE
  8
0
 10
84.2715
 20
64.2738
 11
84.3356
 21
64.5408
  0
LINE
  8
0
 10
84.3356
 20
64.5408
 11
84.4407
 21
64.7945
  0
LINE
  8
0
 10
84.4407
 20
64.7945
 11
84.5842
 21
65.0286
  0
LINE
  8
0
 10
84.5842
 20
65.0286
 11
84.7626
 21
65.2374
  0
LINE
  8
0
 10
84.7626
 20
65.2374
 11
84.9714
 21
65.4158
  0
LINE
  8
0
 10
84.9714
 20
65.4158
 11
85.2055
 21
65.5593
  0
LINE
  8
0
 10
85.2055
 20
65.5593
 11
85.4592
 21
65.6644
  0
LINE
  8
0
 10
85.4592
 20
65.6644
 11
85.7262
 21
65.7285
  0
LINE
  8
0
 10
85.7262
 20
65.7285
 11
86
 21
65.75
  0
LINE
  8
0
 10
86
 20
65.75
 11
86.2738
 21
65.7285
  0
LINE
  8
0
 10
86.2738
 20
65.7285
 11
86.5408
 21
65.6644
  0
LINE
  8
0
 10
86.5408
 20
65.6644
 11
86.7945
 21
65.5593
  0
LINE
  8
0
 10
86.7945
 20
65.5593
 11
87.0286
 21
65.4158
  0
LINE
  8
0
 10
87.0286
 20
65.4158
 11
87.2374
 21
65.2374
  0
LINE
  8
0
 10
87.2374
 20
65.2374
 11
87.4158
 21
65.0286
  0
LINE
  8
0
 10
87.4158
 20
65.0286
 11
87.5593
 21
64.7945
  0
LINE
  8
0
 10
87.5593
 20
64.7945
 11
87.6644
 21
64.5408
  0
LINE
  8
0
 10
87.6644
 20
64.5408
 11
87.7285
 21
64.2738
  0
LINE
  8
0
 10
87.7285
 20
64.2738
 11
87.75
 21
64
  0
LINE
  8
0
 10
87.75
 20
64
 11
87.7285
 21
63.7262
  0
LINE
  8
0
 10
87.7285
 20
63.7262
 11
87.6644
 21
63.4592
  0
LINE
  8
0
 10
87.6644
 20
63.4592
 11
87.5593
 21
63.2055
  0
LINE
  8
0
 10
87.5593
 20
63.2055
 11
87.4158
 21
62.9714
  0
LINE
  8
0
 10
87.4158
 20
62.9714
 11
87.2374
 21
62.7626
  0
LINE
  8
0
 10
87.2374
 20
62.7626
 11
87.0286
 21
62.5842
  0
LINE
  8
0
 10
87.0286
 20
62.5842
 11
86.7945
 21
62.4407
  0
LINE
  8
0
 10
86.7945
 20
62.4407
 11
86.5408
 21
62.3356
  0
LINE
  8
0
 10
86.5408
 20
62.3356
 11
86.2738
 21
62.2715
  0
LINE
  8
0
 10
86.2738
 20
62.2715
 11
86
 21
62.25
  0
LINE
  8
0
 10
86
 20
62.25
 11
85.7262
 21
62.2715
  0
LINE
  8
0
 10
35.7262
 20
62.2715
 11
35.4592
 21
62.3356
  0
LINE
  8
0
 10
35.4592
 20
62.3356
 11
35.2055
 21
62.4407
  0
LINE
  8
0
 10
35.2055
 20
62.4407
 11
34.9714
 21
62.5842
  0
LINE
  8
0
 10
34.9714
 20
62.5842
 11
34.7626
 21
62.7626
  0
LINE
  8
0
 10
34.7626
 20
62.7626
 11
34.5842
 21
62.9714
  0
LINE
  8
0
 10
34.5842
 20
62.9714
 11
34.4407
 21
63.2055
  0
LINE
  8
0
 10
34.4407
 20
63.2055
 11
34.3356
 21
63.4592
  0
LINE
  8
0
 10
34.3356
 20
63.4592
 11
34.2715
 21
63.7262
  0
LINE
  8
0
 10
34.2715
 20
63.7262
 11
34.25
 21
64
  0
LINE
  8
0
 10
34.25
 20
64
 11
34.2715
 21
64.2738
  0
LINE
  8
0
 10
34.2715
 20
64.2738
 11
34.3356
 21
64.5408
  0
LINE
  8
0
 10
34.3356
 20
64.5408
 11
34.4407
 21
64.7945
  0
LINE
  8
0
 10
34.4407
 20
64.7945
 11
34.5842
 21
65.0286
  0
LINE
  8
0
 10
34.5842
 20
65.0286
 11
34.7626
 21
65.2374
  0
LINE
  8
0
 10
34.7626
 20
65.2374
 11
34.9714
 21
65.4158
  0
LINE
  8
0
 10
34.9714
 20
65.4158
 11
35.2055
 21
65.5593
  0
LINE
  8
0
 10
35.2055
 20
65.5593
 11
35.4592
 21
65.6644
  0
LINE
  8
0
 10
35.4592
 20
65.6644
 11
35.7262
 21
65.7285
  0
LINE
  8
0
 10
35.7262
 20
65.7285
 11
36
 21
65.75
  0
LINE
  8
0
 10
36
 20
65.75
 11
36.2738
 21
65.7285
  0
LINE
  8
0
 10
36.2738
 20
65.7285
 11
36.5408
 21
65.6644
  0
LINE
  8
0
 10
36.5408
 20
65.6644
 11
36.7945
 21
65.5593
  0
LINE
  8
0
 10
36.7945
 20
65.5593
 11
37.0286
 21
65.4158
  0
LINE
  8
0
 10
37.0286
 20
65.4158
 11
37.2374
 21
65.2374
  0
LINE
  8
0
 10
37.2374
 20
65.2374
 11
37.4158
 21
65.0286
  0
LINE
  8
0
 10
37.4158
 20
65.0286
 11
37.5592
 21
64.7945
  0
LINE
  8
0
 10
37.5592
 20
64.7945
 11
37.6643
 21
64.5408
  0
LINE
  8
0
 10
37.6643
 20
64.5408
 11
37.7285
 21
64.2738
  0
LINE
  8
0
 10
37.7285
 20
64.2738
 11
37.75
 21
64
  0
LINE
  8
0
 10
37.75
 20
64
 11
37.7285
 21
63.7262
  0
LINE
  8
0
 10
37.7285
 20
63.7262
 11
37.6643
 21
63.4592
  0
LINE
  8
0
 10
37.6643
 20
63.4592
 11
37.5592
 21
63.2055
  0
LINE
  8
0
 10
37.5592
 20
63.2055
 11
37.4158
 21
62.9714
  0
LINE
  8
0
 10
37.4158
 20
62.9714
 11
37.2374
 21
62.7626
  0
LINE
  8
0
 10
37.2374
 20
62.7626
 11
37.0286
 21
62.5842
  0
LINE
  8
0
 10
37.0286
 20
62.5842
 11
36.7945
 21
62.4407
  0
LINE
  8
0
 10
36.7945
 20
62.4407
 11
36.5408
 21
62.3356
  0
LINE
  8
0
 10
36.5408
 20
62.3356
 11
36.2738
 21
62.2715
  0
LINE
  8
0
 10
36.2738
 20
62.2715
 11
36
 21
62.25
  0
LINE
  8
0
 10
36
 20
62.25
 11
35.7262
 21
62.2715
  0
LINE
  8
0
 10
8.89101
 20
57.546
 11
8.80901
 21
57.4122
  0
LINE
  8
0
 10
8.80901
 20
57.4122
 11
8.70711
 21
57.2929
  0
LINE
  8
0
 10
8.70711
 20
57.2929
 11
8.58778
 21
57.191
  0
LINE
  8
0
 10
8.58778
 20
57.191
 11
8.45398
 21
57.109
  0
LINE
  8
0
 10
8.45398
 20
57.109
 11
8.30901
 21
57.0489
  0
LINE
  8
0
 10
8.30901
 20
57.0489
 11
8.25
 21
57.0348
  0
LINE
  8
0
 10
8.25
 20
57.0348
 11
8.25
 21
48
  0
LINE
  8
0
 10
8.25
 20
48
 11
8.39465
 21
46.1619
  0
LINE
  8
0
 10
8.39465
 20
46.1619
 11
8.82507
 21
44.369
  0
LINE
  8
0
 10
8.82507
 20
44.369
 11
9.53067
 21
42.6656
  0
LINE
  8
0
 10
9.53067
 20
42.6656
 11
10.494
 21
41.0935
  0
LINE
  8
0
 10
10.494
 20
41.0935
 11
11.6915
 21
39.6915
  0
LINE
  8
0
 10
11.6915
 20
39.6915
 11
13.0935
 21
38.494
  0
LINE
  8
0
 10
13.0935
 20
38.494
 11
14.6656
 21
37.5307
  0
LINE
  8
0
 10
14.6656
 20
37.5307
 11
16.369
 21
36.8251
  0
LINE
  8
0
 10
16.369
 20
36.8251
 11
18.1619
 21
36.3947
  0
LINE
  8
0
 10
18.1619
 20
36.3947
 11
20
 21
36.25
  0
LINE
  8
0
 10
20
 20
36.25
 11
21.8381
 21
36.3947
  0
LINE
  8
0
 10
21.8381
 20
36.3947
 11
23.6309
 21
36.8251
  0
LINE
  8
0
 10
23.6309
 20
36.8251
 11
25.3344
 21
37.5307
  0
LINE
  8
0
 10
25.3344
 20
37.5307
 11
26.9065
 21
38.494
  0
LINE
  8
0
 10
26.9065
 20
38.494
 11
28.3085
 21
39.6915
  0
LINE
  8
0
 10
28.3085
 20
39.6915
 11
29.5059
 21
41.0935
  0
LINE
  8
0
 10
29.5059
 20
41.0935
 11
30.4693
 21
42.6656
  0
LINE
  8
0
 10
30.4693
 20
42.6656
 11
31.1749
 21
44.369
  0
LINE
  8
0
 10
31.1749
 20
44.369
 11
31.6053
 21
46.1619
  0
LINE
  8
0
 10
31.6053
 20
46.1619
 11
31.75
 21
48
  0
LINE
  8
0
 10
31.75
 20
48
 11
31.75
 21
57.0348
  0
LINE
  8
0
 10
31.75
 20
57.0348
 11
31.691
 21
57.0489
  0
LINE
  8
0
 10
31.691
 20
57.0489
 11
31.546
 21
57.109
  0
LINE
  8
0
 10
31.546
 20
57.109
 11
31.4122
 21
57.191
  0
LINE
  8
0
 10
31.4122
 20
57.191
 11
31.2929
 21
57.2929
  0
LINE
  8
0
 10
31.2929
 20
57.2929
 11
31.191
 21
57.4122
  0
LINE
  8
0
 10
31.191
 20
57.4122
 11
31.109
 21
57.546
  0
LINE
  8
0
 10
31.109
 20
57.546
 11
31.0489
 21
57.691
  0
LINE
  8
0
 10
31.0489
 20
57.691
 11
31.0123
 21
57.8436
  0
LINE
  8
0
 10
31.0123
 20
57.8436
 11
31
 21
58
  0
LINE
  8
0
 10
31
 20
58
 11
31.0123
 21
58.1564
  0
LINE
  8
0
 10
31.0123
 20
58.1564
 11
31.0489
 21
58.309
  0
LINE
  8
0
 10
31.0489
 20
58.309
 11
31.109
 21
58.454
  0
LINE
  8
0
 10
31.109
 20
58.454
 11
31.191
 21
58.5878
  0
LINE
  8
0
 10
31.191
 20
58.5878
 11
31.2929
 21
58.7071
  0
LINE
  8
0
 10
31.2929
 20
58.7071
 11
31.4122
 21
58.809
  0
LINE
  8
0
 10
31.4122
 20
58.809
 11
31.546
 21
58.891
  0
LINE
  8
0
 10
31.546
 20
58.891
 11
31.691
 21
58.951
  0
LINE
  8
0
 10
31.691
 20
58.951
 11
31.8436
 21
58.9877
  0
LINE
  8
0
 10
31.8436
 20
58.9877
 11
32
 21
59
  0
LINE
  8
0
 10
32
 20
59
 11
32.1564
 21
58.9877
  0
LINE
  8
0
 10
32.1564
 20
58.9877
 11
32.309
 21
58.951
  0
LINE
  8
0
 10
32.309
 20
58.951
 11
32.454
 21
58.891
  0
LINE
  8
0
 10
32.454
 20
58.891
 11
32.5878
 21
58.809
  0
LINE
  8
0
 10
32.5878
 20
58.809
 11
32.7071
 21
58.7071
  0
LINE
  8
0
 10
32.7071
 20
58.7071
 11
32.809
 21
58.5878
  0
LINE
  8
0
 10
32.809
 20
58.5878
 11
32.891
 21
58.454
  0
LINE
  8
0
 10
32.891
 20
58.454
 11
32.951
 21
58.309
  0
LINE
  8
0
 10
32.951
 20
58.309
 11
32.9877
 21
58.1564
  0
LINE
  8
0
 10
32.9877
 20
58.1564
 11
33
 21
58
  0
LINE
  8
0
 10
33
 20
58
 11
32.9877
 21
57.8436
  0
LINE
  8
0
 10
32.9877
 20
57.8436
 11
32.951
 21
57.691
  0
LINE
  8
0
 10
32.951
 20
57.691
 11
32.891
 21
57.546
  0
LINE
  8
0
 10
32.891
 20
57.546
 11
32.809
 21
57.4122
  0
LINE
  8
0
 10
32.809
 20
57.4122
 11
32.7071
 21
57.2929
  0
LINE
  8
0
 10
32.7071
 20
57.2929
 11
32.5878
 21
57.191
  0
LINE
  8
0
 10
32.5878
 20
57.191
 11
32.454
 21
57.109
  0
LINE
  8
0
 10
32.454
 20
57.109
 11
32.309
 21
57.0489
  0
LINE
  8
0
 10
32.309
 20
57.0489
 11
32.25
 21
57.0348
  0
LINE
  8
0
 10
32.25
 20
57.0348
 11
32.25
 21
47.99
  0
LINE
  8
0
 10
32.25
 20
47.99
 11
32.2492
 21
47.99
  0
LINE
  8
0
 10
32.2492
 20
47.99
 11
32.0992
 21
46.0837
  0
LINE
  8
0
 10
32.0992
 20
46.0837
 11
31.6504
 21
44.2145
  0
LINE
  8
0
 10
31.6504
 20
44.2145
 11
30.9148
 21
42.4386
  0
LINE
  8
0
 10
30.9148
 20
42.4386
 11
29.9104
 21
40.7996
  0
LINE
  8
0
 10
29.9104
 20
40.7996
 11
28.662
 21
39.3379
  0
LINE
  8
0
 10
28.662
 20
39.3379
 11
27.2004
 21
38.0895
  0
LINE
  8
0
 10
27.2004
 20
38.0895
 11
25.5614
 21
37.0852
  0
LINE
  8
0
 10
25.5614
 20
37.0852
 11
23.7854
 21
36.3495
  0
LINE
  8
0
 10
23.7854
 20
36.3495
 11
21.9163
 21
35.9008
  0
LINE
  8
0
 10
21.9163
 20
35.9008
 11
20
 21
35.75
  0
LINE
  8
0
 10
20
 20
35.75
 11
18.0837
 21
35.9008
  0
LINE
  8
0
 10
18.0837
 20
35.9008
 11
16.2145
 21
36.3495
  0
LINE
  8
0
 10
16.2145
 20
36.3495
 11
14.4386
 21
37.0852
  0
LINE
  8
0
 10
14.4386
 20
37.0852
 11
12.7996
 21
38.0895
  0
LINE
  8
0
 10
12.7996
 20
38.0895
 11
11.3379
 21
39.3379
  0
LINE
  8
0
 10
11.3379
 20
39.3379
 11
10.0895
 21
40.7996
  0
LINE
  8
0
 10
10.0895
 20
40.7996
 11
9.08516
 21
42.4386
  0
LINE
  8
0
 10
9.08516
 20
42.4386
 11
8.34955
 21
44.2145
  0
LINE
  8
0
 10
8.34955
 20
44.2145
 11
7.90082
 21
46.0837
  0
LINE
  8
0
 10
7.90082
 20
46.0837
 11
7.75078
 21
47.99
  0
LINE
  8
0
 10
7.75078
 20
47.99
 11
7.75
 21
47.99
  0
LINE
  8
0
 10
7.75
 20
47.99
 11
7.75
 21
57.0348
  0
LINE
  8
0
 10
7.75
 20
57.0348
 11
7.69098
 21
57.0489
  0
LINE
  8
0
 10
7.69098
 20
57.0489
 11
7.54601
 21
57.109
  0
LINE
  8
0
 10
7.54601
 20
57.109
 11
7.4122
 21
57.191
  0
LINE
  8
0
 10
7.4122
 20
57.191
 11
7.29289
 21
57.2929
  0
LINE
  8
0
 10
7.29289
 20
57.2929
 11
7.19098
 21
57.4122
  0
LINE
  8
0
 10
7.19098
 20
57.4122
 11
7.10899
 21
57.546
  0
LINE
  8
0
 10
7.10899
 20
57.546
 11
7.04893
 21
57.691
  0
LINE
  8
0
 10
7.04893
 20
57.691
 11
7.0123
 21
57.8436
  0
LINE
  8
0
 10
7.0123
 20
57.8436
 11
7
 21
58
  0
LINE
  8
0
 10
7
 20
58
 11
7.0123
 21
58.1564
  0
LINE
  8
0
 10
7.0123
 20
58.1564
 11
7.04893
 21
58.309
  0
LINE
  8
0
 10
7.04893
 20
58.309
 11
7.10899
 21
58.454
  0
LINE
  8
0
 10
7.10899
 20
58.454
 11
7.19098
 21
58.5878
  0
LINE
  8
0
 10
7.19098
 20
58.5878
 11
7.29289
 21
58.7071
  0
LINE
  8
0
 10
7.29289
 20
58.7071
 11
7.4122
 21
58.809
  0
LINE
  8
0
 10
7.4122
 20
58.809
 11
7.54601
 21
58.891
  0
LINE
  8
0
 10
7.54601
 20
58.891
 11
7.69098
 21
58.951
  0
LINE
  8
0
 10
7.69098
 20
58.951
 11
7.84355
 21
58.9877
  0
LINE
  8
0
 10
7.84355
 20
58.9877
 11
8
 21
59
  0
LINE
  8
0
 10
8
 20
59
 11
8.15643
 21
58.9877
  0
LINE
  8
0
 10
8.15643
 20
58.9877
 11
8.30901
 21
58.951
  0
LINE
  8
0
 10
8.30901
 20
58.951
 11
8.45398
 21
58.891
  0
LINE
  8
0
 10
8.45398
 20
58.891
 11
8.58778
 21
58.809
  0
LINE
  8
0
 10
8.58778
 20
58.809
 11
8.70711
 21
58.7071
  0
LINE
  8
0
 10
8.70711
 20
58.7071
 11
8.80901
 21
58.5878
  0
LINE
  8
0
 10
8.80901
 20
58.5878
 11
8.89101
 21
58.454
  0
LINE
  8
0
 10
8.89101
 20
58.454
 11
8.95105
 21
58.309
  0
LINE
  8
0
 10
8.95105
 20
58.309
 11
8.98769
 21
58.1564
  0
LINE
  8
0
 10
8.98769
 20
58.1564
 11
9
 21
58
  0
LINE
  8
0
 10
9
 20
58
 11
8.98769
 21
57.8436
  0
LINE
  8
0
 10
8.98769
 20
57.8436
 11
8.95105
 21
57.691
  0
LINE
  8
0
 10
8.95105
 20
57.691
 11
8.89101
 21
57.546
  0
LINE
  8
0
 10
106.084
 20
35.9008
 11
104.215
 21
36.3495
  0
LINE
  8
0
 10
104.215
 20
36.3495
 11
102.439
 21
37.0852
  0
LINE
  8
0
 10
102.439
 20
37.0852
 11
100.8
 21
38.0895
  0
LINE
  8
0
 10
100.8
 20
38.0895
 11
99.3379
 21
39.3379
  0
LINE
  8
0
 10
99.3379
 20
39.3379
 11
98.0895
 21
40.7996
  0
LINE
  8
0
 10
98.0895
 20
40.7996
 11
97.0852
 21
42.4386
  0
LINE
  8
0
 10
97.0852
 20
42.4386
 11
96.3495
 21
44.2145
  0
LINE
  8
0
 10
96.3495
 20
44.2145
 11
95.9008
 21
46.0837
  0
LINE
  8
0
 10
95.9008
 20
46.0837
 11
95.7508
 21
47.99
  0
LINE
  8
0
 10
95.7508
 20
47.99
 11
95.75
 21
47.99
  0
LINE
  8
0
 10
95.75
 20
47.99
 11
95.75
 21
57.0348
  0
LINE
  8
0
 10
95.75
 20
57.0348
 11
95.691
 21
57.0489
  0
LINE
  8
0
 10
95.691
 20
57.0489
 11
95.546
 21
57.109
  0
LINE
  8
0
 10
95.546
 20
57.109
 11
95.4122
 21
57.191
  0
LINE
  8
0
 10
95.4122
 20
57.191
 11
95.2929
 21
57.2929
  0
LINE
  8
0
 10
95.2929
 20
57.2929
 11
95.191
 21
57.4122
  0
LINE
  8
0
 10
95.191
 20
57.4122
 11
95.109
 21
57.546
  0
LINE
  8
0
 10
95.109
 20
57.546
 11
95.0489
 21
57.691
  0
LINE
  8
0
 10
95.0489
 20
57.691
 11
95.0123
 21
57.8436
  0
LINE
  8
0
 10
95.0123
 20
57.8436
 11
95
 21
58
  0
LINE
  8
0
 10
95
 20
58
 11
95.0123
 21
58.1564
  0
LINE
  8
0
 10
95.0123
 20
58.1564
 11
95.0489
 21
58.309
  0
LINE
  8
0
 10
95.0489
 20
58.309
 11
95.109
 21
58.454
  0
LINE
  8
0
 10
95.109
 20
58.454
 11
95.191
 21
58.5878
  0
LINE
  8
0
 10
95.191
 20
58.5878
 11
95.2929
 21
58.7071
  0
LINE
  8
0
 10
95.2929
 20
58.7071
 11
95.4122
 21
58.809
  0
LINE
  8
0
 10
95.4122
 20
58.809
 11
95.546
 21
58.891
  0
LINE
  8
0
 10
95.546
 20
58.891
 11
95.691
 21
58.951
  0
LINE
  8
0
 10
95.691
 20
58.951
 11
95.8436
 21
58.9877
  0
LINE
  8
0
 10
95.8436
 20
58.9877
 11
96
 21
59
  0
LINE
  8
0
 10
96
 20
59
 11
96.1564
 21
58.9877
  0
LINE
  8
0
 10
96.1564
 20
58.9877
 11
96.309
 21
58.951
  0
LINE
  8
0
 10
96.309
 20
58.951
 11
96.454
 21
58.891
  0
LINE
  8
0
 10
96.454
 20
58.891
 11
96.5878
 21
58.809
  0
LINE
  8
0
 10
96.5878
 20
58.809
 11
96.7071
 21
58.7071
  0
LINE
  8
0
 10
96.7071
 20
58.7071
 11
96.809
 21
58.5878
  0
LINE
  8
0
 10
96.809
 20
58.5878
 11
96.891
 21
58.454
  0
LINE
  8
0
 10
96.891
 20
58.454
 11
96.951
 21
58.309
  0
LINE
  8
0
 10
96.951
 20
58.309
 11
96.9877
 21
58.1564
  0
LINE
  8
0
 10
96.9877
 20
58.1564
 11
97
 21
58
  0
LINE
  8
0
 10
97
 20
58
 11
96.9877
 21
57.8436
  0
LINE
  8
0
 10
96.9877
 20
57.8436
 11
96.951
 21
57.691
  0
LINE
  8
0
 10
96.951
 20
57.691
 11
96.891
 21
57.546
  0
LINE
  8
0
 10
96.891
 20
57.546
 11
96.809
 21
57.4122
  0
LINE
  8
0
 10
96.809
 20
57.4122
 11
96.7071
 21
57.2929
  0
LINE
  8
0
 10
96.7071
 20
57.2929
 11
96.5878
 21
57.191
  0
LINE
  8
0
 10
96.5878
 20
57.191
 11
96.454
 21
57.109
  0
LINE
  8
0
 10
96.454
 20
57.109
 11
96.309
 21
57.0489
  0
LINE
  8
0
 10
96.309
 20
57.0489
 11
96.25
 21
57.0348
  0
LINE
  8
0
 10
96.25
 20
57.0348
 11
96.25
 21
48
  0
LINE
  8
0
 10
96.25
 20
48
 11
96.3947
 21
46.1619
  0
LINE
  8
0
 10
96.3947
 20
46.1619
 11
96.8251
 21
44.369
  0
LINE
  8
0
 10
96.8251
 20
44.369
 11
97.5307
 21
42.6656
  0
LINE
  8
0
 10
97.5307
 20
42.6656
 11
98.494
 21
41.0935
  0
LINE
  8
0
 10
98.494
 20
41.0935
 11
99.6915
 21
39.6915
  0
LINE
  8
0
 10
99.6915
 20
39.6915
 11
101.094
 21
38.494
  0
LINE
  8
0
 10
101.094
 20
38.494
 11
102.666
 21
37.5307
  0
LINE
  8
0
 10
102.666
 20
37.5307
 11
104.369
 21
36.8251
  0
LINE
  8
0
 10
104.369
 20
36.8251
 11
106.162
 21
36.3947
  0
LINE
  8
0
 10
106.162
 20
36.3947
 11
108
 21
36.25
  0
LINE
  8
0
 10
108
 20
36.25
 11
109.838
 21
36.3947
  0
LINE
  8
0
 10
109.838
 20
36.3947
 11
111.631
 21
36.8251
  0
LINE
  8
0
 10
111.631
 20
36.8251
 11
113.334
 21
37.5307
  0
LINE
  8
0
 10
113.334
 20
37.5307
 11
114.906
 21
38.494
  0
LINE
  8
0
 10
114.906
 20
38.494
 11
116.309
 21
39.6915
  0
LINE
  8
0
 10
116.309
 20
39.6915
 11
117.506
 21
41.0935
  0
LINE
  8
0
 10
117.506
 20
41.0935
 11
118.469
 21
42.6656
  0
LINE
  8
0
 10
118.469
 20
42.6656
 11
119.175
 21
44.369
  0
LINE
  8
0
 10
119.175
 20
44.369
 11
119.605
 21
46.1619
  0
LINE
  8
0
 10
119.605
 20
46.1619
 11
119.75
 21
48
  0
LINE
  8
0
 10
119.75
 20
48
 11
119.75
 21
57.0348
  0
LINE
  8
0
 10
119.75
 20
57.0348
 11
119.691
 21
57.0489
  0
LINE
  8
0
 10
119.691
 20
57.0489
 11
119.546
 21
57.109
  0
LINE
  8
0
 10
119.546
 20
57.109
 11
119.412
 21
57.191
  0
LINE
  8
0
 10
119.412
 20
57.191
 11
119.293
 21
57.2929
  0
LINE
  8
0
 10
119.293
 20
57.2929
 11
119.191
 21
57.4122
  0
LINE
  8
0
 10
119.191
 20
57.4122
 11
119.109
 21
57.546
  0
LINE
  8
0
 10
119.109
 20
57.546
 11
119.049
 21
57.691
  0
LINE
  8
0
 10
119.049
 20
57.691
 11
119.012
 21
57.8436
  0
LINE
  8
0
 10
119.012
 20
57.8436
 11
119
 21
58
  0
LINE
  8
0
 10
119
 20
58
 11
119.012
 21
58.1564
  0
LINE
  8
0
 10
119.012
 20
58.1564
 11
119.049
 21
58.309
  0
LINE
  8
0
 10
119.049
 20
58.309
 11
119.109
 21
58.454
  0
LINE
  8
0
 10
119.109
 20
58.454
 11
119.191
 21
58.5878
  0
LINE
  8
0
 10
119.191
 20
58.5878
 11
119.293
 21
58.7071
  0
LINE
  8
0
 10
119.293
 20
58.7071
 11
119.412
 21
58.809
  0
LINE
  8
0
 10
119.412
 20
58.809
 11
119.546
 21
58.891
  0
LINE
  8
0
 10
119.546
 20
58.891
 11
119.691
 21
58.951
  0
LINE
  8
0
 10
119.691
 20
58.951
 11
119.844
 21
58.9877
  0
LINE
  8
0
 10
119.844
 20
58.9877
 11
120
 21
59
  0
LINE
  8
0
 10
120
 20
59
 11
120.156
 21
58.9877
  0
LINE
  8
0
 10
120.156
 20
58.9877
 11
120.309
 21
58.951
  0
LINE
  8
0
 10
120.309
 20
58.951
 11
120.454
 21
58.891
  0
LINE
  8
0
 10
120.454
 20
58.891
 11
120.588
 21
58.809
  0
LINE
  8
0
 10
120.588
 20
58.809
 11
120.707
 21
58.7071
  0
LINE
  8
0
 10
120.707
 20
58.7071
 11
120.809
 21
58.5878
  0
LINE
  8
0
 10
120.809
 20
58.5878
 11
120.891
 21
58.454
  0
LINE
  8
0
 10
120.891
 20
58.454
 11
120.951
 21
58.309
  0
LINE
  8
0
 10
120.951
 20
58.309
 11
120.988
 21
58.1564
  0
LINE
  8
0
 10
120.988
 20
58.1564
 11
121
 21
58
  0
LINE
  8
0
 10
121
 20
58
 11
120.988
 21
57.8436
  0
LINE
  8
0
 10
120.988
 20
57.8436
 11
120.951
 21
57.691
  0
LINE
  8
0
 10
120.951
 20
57.691
 11
120.891
 21
57.546
  0
LINE
  8
0
 10
120.891
 20
57.546
 11
120.809
 21
57.4122
  0
LINE
  8
0
 10
120.809
 20
57.4122
 11
120.707
 21
57.2929
  0
LINE
  8
0
 10
120.707
 20
57.2929
 11
120.588
 21
57.191
  0
LINE
  8
0
 10
120.588
 20
57.191
 11
120.454
 21
57.109
  0
LINE
  8
0
 10
120.454
 20
57.109
 11
120.309
 21
57.0489
  0
LINE
  8
0
 10
120.309
 20
57.0489
 11
120.25
 21
57.0348
  0
LINE
  8
0
 10
120.25
 20
57.0348
 11
120.25
 21
47.99
  0
LINE
  8
0
 10
120.25
 20
47.99
 11
120.249
 21
47.99
  0
LINE
  8
0
 10
120.249
 20
47.99
 11
120.099
 21
46.0837
  0
LINE
  8
0
 10
120.099
 20
46.0837
 11
119.65
 21
44.2145
  0
LINE
  8
0
 10
119.65
 20
44.2145
 11
118.915
 21
42.4386
  0
LINE
  8
0
 10
118.915
 20
42.4386
 11
117.91
 21
40.7996
  0
LINE
  8
0
 10
117.91
 20
40.7996
 11
116.662
 21
39.3379
  0
LINE
  8
0
 10
116.662
 20
39.3379
 11
115.2
 21
38.0895
  0
LINE
  8
0
 10
115.2
 20
38.0895
 11
113.561
 21
37.0852
  0
LINE
  8
0
 10
113.561
 20
37.0852
 11
111.785
 21
36.3495
  0
LINE
  8
0
 10
111.785
 20
36.3495
 11
109.916
 21
35.9008
  0
LINE
  8
0
 10
109.916
 20
35.9008
 11
108
 21
35.75
  0
LINE
  8
0
 10
108
 20
35.75
 11
106.084
 21
35.9008
  0
LINE
  8
0
 10
123.726
 20
30.2715
 11
123.459
 21
30.3356
  0
LINE
  8
0
 10
123.459
 20
30.3356
 11
123.206
 21
30.4407
  0
LINE
  8
0
 10
123.206
 20
30.4407
 11
122.971
 21
30.5842
  0
LINE
  8
0
 10
122.971
 20
30.5842
 11
122.763
 21
30.7626
  0
LINE
  8
0
 10
122.763
 20
30.7626
 11
122.584
 21
30.9714
  0
LINE
  8
0
 10
122.584
 20
30.9714
 11
122.441
 21
31.2055
  0
LINE
  8
0
 10
122.441
 20
31.2055
 11
122.336
 21
31.4592
  0
LINE
  8
0
 10
122.336
 20
31.4592
 11
122.272
 21
31.7262
  0
LINE
  8
0
 10
122.272
 20
31.7262
 11
122.25
 21
32
  0
LINE
  8
0
 10
122.25
 20
32
 11
122.272
 21
32.2738
  0
LINE
  8
0
 10
122.272
 20
32.2738
 11
122.336
 21
32.5408
  0
LINE
  8
0
 10
122.336
 20
32.5408
 11
122.441
 21
32.7945
  0
LINE
  8
0
 10
122.441
 20
32.7945
 11
122.584
 21
33.0286
  0
LINE
  8
0
 10
122.584
 20
33.0286
 11
122.763
 21
33.2374
  0
LINE
  8
0
 10
122.763
 20
33.2374
 11
122.971
 21
33.4158
  0
LINE
  8
0
 10
122.971
 20
33.4158
 11
123.206
 21
33.5592
  0
LINE
  8
0
 10
123.206
 20
33.5592
 11
123.459
 21
33.6643
  0
LINE
  8
0
 10
123.459
 20
33.6643
 11
123.726
 21
33.7285
  0
LINE
  8
0
 10
123.726
 20
33.7285
 11
124
 21
33.75
  0
LINE
  8
0
 10
124
 20
33.75
 11
124.274
 21
33.7285
  0
LINE
  8
0
 10
124.274
 20
33.7285
 11
124.541
 21
33.6643
  0
LINE
  8
0
 10
124.541
 20
33.6643
 11
124.794
 21
33.5592
  0
LINE
  8
0
 10
124.794
 20
33.5592
 11
125.029
 21
33.4158
  0
LINE
  8
0
 10
125.029
 20
33.4158
 11
125.237
 21
33.2374
  0
LINE
  8
0
 10
125.237
 20
33.2374
 11
125.416
 21
33.0286
  0
LINE
  8
0
 10
125.416
 20
33.0286
 11
125.559
 21
32.7945
  0
LINE
  8
0
 10
125.559
 20
32.7945
 11
125.664
 21
32.5408
  0
LINE
  8
0
 10
125.664
 20
32.5408
 11
125.728
 21
32.2738
  0
LINE
  8
0
 10
125.728
 20
32.2738
 11
125.75
 21
32
  0
LINE
  8
0
 10
125.75
 20
32
 11
125.728
 21
31.7262
  0
LINE
  8
0
 10
125.728
 20
31.7262
 11
125.664
 21
31.4592
  0
LINE
  8
0
 10
125.664
 20
31.4592
 11
125.559
 21
31.2055
  0
LINE
  8
0
 10
125.559
 20
31.2055
 11
125.416
 21
30.9714
  0
LINE
  8
0
 10
125.416
 20
30.9714
 11
125.237
 21
30.7626
  0
LINE
  8
0
 10
125.237
 20
30.7626
 11
125.029
 21
30.5842
  0
LINE
  8
0
 10
125.029
 20
30.5842
 11
124.794
 21
30.4407
  0
LINE
  8
0
 10
124.794
 20
30.4407
 11
124.541
 21
30.3356
  0
LINE
  8
0
 10
124.541
 20
30.3356
 11
124.274
 21
30.2715
  0
LINE
  8
0
 10
124.274
 20
30.2715
 11
124
 21
30.25
  0
LINE
  8
0
 10
124
 20
30.25
 11
123.726
 21
30.2715
  0
LINE
  8
0
 10
85.7262
 20
30.2715
 11
85.4592
 21
30.3356
  0
LINE
  8
0
 10
85.4592
 20
30.3356
 11
85.2055
 21
30.4407
  0
LINE
  8
0
 10
85.2055
 20
30.4407
 11
84.9714
 21
30.5842
  0
LINE
  8
0
 10
84.9714
 20
30.5842
 11
84.7626
 21
30.7626
  0
LINE
  8
0
 10
84.7626
 20
30.7626
 11
84.5842
 21
30.9714
  0
LINE
  8
0
 10
84.5842
 20
30.9714
 11
84.4407
 21
31.2055
  0
LINE
  8
0
 10
84.4407
 20
31.2055
 11
84.3356
 21
31.4592
  0
LINE
  8
0
 10
84.3356
 20
31.4592
 11
84.2715
 21
31.7262
  0
LINE
  8
0
 10
84.2715
 20
31.7262
 11
84.25
 21
32
  0
LINE
  8
0
 10
84.25
 20
32
 11
84.2715
 21
32.2738
  0
LINE
  8
0
 10
84.2715
 20
32.2738
 11
84.3356
 21
32.5408
  0
LINE
  8
0
 10
84.3356
 20
32.5408
 11
84.4407
 21
32.7945
  0
LINE
  8
0
 10
84.4407
 20
32.7945
 11
84.5842
 21
33.0286
  0
LINE
  8
0
 10
84.5842
 20
33.0286
 11
84.7626
 21
33.2374
  0
LINE
  8
0
 10
84.7626
 20
33.2374
 11
84.9714
 21
33.4158
  0
LINE
  8
0
 10
84.9714
 20
33.4158
 11
85.2055
 21
33.5592
  0
LINE
  8
0
 10
85.2055
 20
33.5592
 11
85.4592
 21
33.6643
  0
LINE
  8
0
 10
85.4592
 20
33.6643
 11
85.7262
 21
33.7285
  0
LINE
  8
0
 10
85.7262
 20
33.7285
 11
86
 21
33.75
  0
LINE
  8
0
 10
86
 20
33.75
 11
86.2738
 21
33.7285
  0
LINE
  8
0
 10
86.2738
 20
33.7285
 11
86.5408
 21
33.6643
  0
LINE
  8
0
 10
86.5408
 20
33.6643
 11
86.7945
 21
33.5592
  0
LINE
  8
0
 10
86.7945
 20
33.5592
 11
87.0286
 21
33.4158
  0
LINE
  8
0
 10
87.0286
 20
33.4158
 11
87.2374
 21
33.2374
  0
LINE
  8
0
 10
87.2374
 20
33.2374
 11
87.4158
 21
33.0286
  0
LINE
  8
0
 10
87.4158
 20
33.0286
 11
87.5593
 21
32.7945
  0
LINE
  8
0
 10
87.5593
 20
32.7945
 11
87.6644
 21
32.5408
  0
LINE
  8
0
 10
87.6644
 20
32.5408
 11
87.7285
 21
32.2738
  0
LINE
  8
0
 10
87.7285
 20
32.2738
 11
87.75
 21
32
  0
LINE
  8
0
 10
87.75
 20
32
 11
87.7285
 21
31.7262
  0
LINE
  8
0
 10
87.7285
 20
31.7262
 11
87.6644
 21
31.4592
  0
LINE
  8
0
 10
87.6644
 20
31.4592
 11
87.5593
 21
31.2055
  0
LINE
  8
0
 10
87.5593
 20
31.2055
 11
87.4158
 21
30.9714
  0
LINE
  8
0
 10
87.4158
 20
30.9714
 11
87.2374
 21
30.7626
  0
LINE
  8
0
 10
87.2374
 20
30.7626
 11
87.0286
 21
30.5842
  0
LINE
  8
0
 10
87.0286
 20
30.5842
 11
86.7945
 21
30.4407
  0
LINE
  8
0
 10
86.7945
 20
30.4407
 11
86.5408
 21
30.3356
  0
LINE
  8
0
 10
86.5408
 20
30.3356
 11
86.2738
 21
30.2715
  0
LINE
  8
0
 10
86.2738
 20
30.2715
 11
86
 21
30.25
  0
LINE
  8
0
 10
86
 20
30.25
 11
85.7262
 21
30.2715
  0
LINE
  8
0
 10
41.7262
 20
30.2715
 11
41.4592
 21
30.3356
  0
LINE
  8
0
 10
41.4592
 20
30.3356
 11
41.2055
 21
30.4407
  0
LINE
  8
0
 10
41.2055
 20
30.4407
 11
40.9714
 21
30.5842
  0
LINE
  8
0
 10
40.9714
 20
30.5842
 11
40.7626
 21
30.7626
  0
LINE
  8
0
 10
40.7626
 20
30.7626
 11
40.5842
 21
30.9714
  0
LINE
  8
0
 10
40.5842
 20
30.9714
 11
40.4407
 21
31.2055
  0
LINE
  8
0
 10
40.4407
 20
31.2055
 11
40.3356
 21
31.4592
  0
LINE
  8
0
 10
40.3356
 20
31.4592
 11
40.2715
 21
31.7262
  0
LINE
  8
0
 10
40.2715
 20
31.7262
 11
40.25
 21
32
  0
LINE
  8
0
 10
40.25
 20
32
 11
40.2715
 21
32.2738
  0
LINE
  8
0
 10
40.2715
 20
32.2738
 11
40.3356
 21
32.5408
  0
LINE
  8
0
 10
40.3356
 20
32.5408
 11
40.4407
 21
32.7945
  0
LINE
  8
0
 10
40.4407
 20
32.7945
 11
40.5842
 21
33.0286
  0
LINE
  8
0
 10
40.5842
 20
33.0286
 11
40.7626
 21
33.2374
  0
LINE
  8
0
 10
40.7626
 20
33.2374
 11
40.9714
 21
33.4158
  0
LINE
  8
0
 10
40.9714
 20
33.4158
 11
41.2055
 21
33.5592
  0
LINE
  8
0
 10
41.2055
 20
33.5592
 11
41.4592
 21
33.6643
  0
LINE
  8
0
 10
41.4592
 20
33.6643
 11
41.7262
 21
33.7285
  0
LINE
  8
0
 10
41.7262
 20
33.7285
 11
42
 21
33.75
  0
LINE
  8
0
 10
42
 20
33.75
 11
42.2738
 21
33.7285
  0
LINE
  8
0
 10
42.2738
 20
33.7285
 11
42.5408
 21
33.6643
  0
LINE
  8
0
 10
42.5408
 20
33.6643
 11
42.7945
 21
33.5592
  0
LINE
  8
0
 10
42.7945
 20
33.5592
 11
43.0286
 21
33.4158
  0
LINE
  8
0
 10
43.0286
 20
33.4158
 11
43.2374
 21
33.2374
  0
LINE
  8
0
 10
43.2374
 20
33.2374
 11
43.4158
 21
33.0286
  0
LINE
  8
0
 10
43.4158
 20
33.0286
 11
43.5592
 21
32.7945
  0
LINE
  8
0
 10
43.5592
 20
32.7945
 11
43.6643
 21
32.5408
  0
LINE
  8
0
 10
43.6643
 20
32.5408
 11
43.7285
 21
32.2738
  0
LINE
  8
0
 10
43.7285
 20
32.2738
 11
43.75
 21
32
  0
LINE
  8
0
 10
43.75
 20
32
 11
43.7285
 21
31.7262
  0
LINE
  8
0
 10
43.7285
 20
31.7262
 11
43.6643
 21
31.4592
  0
LINE
  8
0
 10
43.6643
 20
31.4592
 11
43.5592
 21
31.2055
  0
LINE
  8
0
 10
43.5592
 20
31.2055
 11
43.4158
 21
30.9714
  0
LINE
  8
0
 10
43.4158
 20
30.9714
 11
43.2374
 21
30.7626
  0
LINE
  8
0
 10
43.2374
 20
30.7626
 11
43.0286
 21
30.5842
  0
LINE
  8
0
 10
43.0286
 20
30.5842
 11
42.7945
 21
30.4407
  0
LINE
  8
0
 10
42.7945
 20
30.4407
 11
42.5408
 21
30.3356
  0
LINE
  8
0
 10
42.5408
 20
30.3356
 11
42.2738
 21
30.2715
  0
LINE
  8
0
 10
42.2738
 20
30.2715
 11
42
 21
30.25
  0
LINE
  8
0
 10
42
 20
30.25
 11
41.7262
 21
30.2715
  0
LINE
  8
0
 10
3.72623
 20
30.2715
 11
3.45921
 21
30.3356
  0
LINE
  8
0
 10
3.45921
 20
30.3356
 11
3.20551
 21
30.4407
  0
LINE
  8
0
 10
3.20551
 20
30.4407
 11
2.97137
 21
30.5842
  0
LINE
  8
0
 10
2.97137
 20
30.5842
 11
2.76256
 21
30.7626
  0
LINE
  8
0
 10
2.76256
 20
30.7626
 11
2.58421
 21
30.9714
  0
LINE
  8
0
 10
2.58421
 20
30.9714
 11
2.44073
 21
31.2055
  0
LINE
  8
0
 10
2.44073
 20
31.2055
 11
2.33565
 21
31.4592
  0
LINE
  8
0
 10
2.33565
 20
31.4592
 11
2.27153
 21
31.7262
  0
LINE
  8
0
 10
2.27153
 20
31.7262
 11
2.25
 21
32
  0
LINE
  8
0
 10
2.25
 20
32
 11
2.27153
 21
32.2738
  0
LINE
  8
0
 10
2.27153
 20
32.2738
 11
2.33565
 21
32.5408
  0
LINE
  8
0
 10
2.33565
 20
32.5408
 11
2.44073
 21
32.7945
  0
LINE
  8
0
 10
2.44073
 20
32.7945
 11
2.58421
 21
33.0286
  0
LINE
  8
0
 10
2.58421
 20
33.0286
 11
2.76256
 21
33.2374
  0
LINE
  8
0
 10
2.76256
 20
33.2374
 11
2.97137
 21
33.4158
  0
LINE
  8
0
 10
2.97137
 20
33.4158
 11
3.20551
 21
33.5592
  0
LINE
  8
0
 10
3.20551
 20
33.5592
 11
3.45921
 21
33.6643
  0
LINE
  8
0
 10
3.45921
 20
33.6643
 11
3.72623
 21
33.7285
  0
LINE
  8
0
 10
3.72623
 20
33.7285
 11
4
 21
33.75
  0
LINE
  8
0
 10
4
 20
33.75
 11
4.27376
 21
33.7285
  0
LINE
  8
0
 10
4.27376
 20
33.7285
 11
4.54077
 21
33.6643
  0
LINE
  8
0
 10
4.54077
 20
33.6643
 11
4.79448
 21
33.5592
  0
LINE
  8
0
 10
4.79448
 20
33.5592
 11
5.02861
 21
33.4158
  0
LINE
  8
0
 10
5.02861
 20
33.4158
 11
5.23743
 21
33.2374
  0
LINE
  8
0
 10
5.23743
 20
33.2374
 11
5.41577
 21
33.0286
  0
LINE
  8
0
 10
5.41577
 20
33.0286
 11
5.55925
 21
32.7945
  0
LINE
  8
0
 10
5.55925
 20
32.7945
 11
5.66434
 21
32.5408
  0
LINE
  8
0
 10
5.66434
 20
32.5408
 11
5.72845
 21
32.2738
  0
LINE
  8
0
 10
5.72845
 20
32.2738
 11
5.75
 21
32
  0
LINE
  8
0
 10
5.75
 20
32
 11
5.72845
 21
31.7262
  0
LINE
  8
0
 10
5.72845
 20
31.7262
 11
5.66434
 21
31.4592
  0
LINE
  8
0
 10
5.66434
 20
31.4592
 11
5.55925
 21
31.2055
  0
LINE
  8
0
 10
5.55925
 20
31.2055
 11
5.41577
 21
30.9714
  0
LINE
  8
0
 10
5.41577
 20
30.9714
 11
5.23743
 21
30.7626
  0
LINE
  8
0
 10
5.23743
 20
30.7626
 11
5.02861
 21
30.5842
  0
LINE
  8
0
 10
5.02861
 20
30.5842
 11
4.79448
 21
30.4407
  0
LINE
  8
0
 10
4.79448
 20
30.4407
 11
4.54077
 21
30.3356
  0
LINE
  8
0
 10
4.54077
 20
30.3356
 11
4.27376
 21
30.2715
  0
LINE
  8
0
 10
4.27376
 20
30.2715
 11
4
 21
30.25
  0
LINE
  8
0
 10
4
 20
30.25
 11
3.72623
 21
30.2715
  0
ENDSEC
  0
SECTION
  2
OBJECTS
  0
DICTIONARY
  0
ENDSEC
  0
EOF
