solid OpenSCAD_Model
  facet normal -1 0 0
    outer loop
      vertex 0 2 0
      vertex 0 0 0
      vertex 0 2 5
    endloop
  endfacet
  facet normal -1 0 0
    outer loop
      vertex 0 52 5
      vertex 0 54 0
      vertex 0 52 0
    endloop
  endfacet
  facet normal -1 0 0
    outer loop
      vertex 0 54 0
      vertex 0 52 5
      vertex 0 54 5.25
    endloop
  endfacet
  facet normal -1 0 0
    outer loop
      vertex 0 2 5
      vertex 0 54 5.25
      vertex 0 52 5
    endloop
  endfacet
  facet normal -1 0 0
    outer loop
      vertex 0 2 5
      vertex 0 0 5.25
      vertex 0 54 5.25
    endloop
  endfacet
  facet normal -1 0 0
    outer loop
      vertex 0 0 5.25
      vertex 0 2 5
      vertex 0 0 0
    endloop
  endfacet
  facet normal -0 0 1
    outer loop
      vertex 0 54 5.25
      vertex 0.349999 0 5.25
      vertex 0.349999 54 5.25
    endloop
  endfacet
  facet normal 0 0 1
    outer loop
      vertex 0.349999 0 5.25
      vertex 0 54 5.25
      vertex 0 0 5.25
    endloop
  endfacet
  facet normal 1 0 0
    outer loop
      vertex 0.349999 54 5.25
      vertex 0.349999 52 5
      vertex 0.349999 54 5
    endloop
  endfacet
  facet normal 1 0 0
    outer loop
      vertex 0.349999 54 5.25
      vertex 0.349999 2 5
      vertex 0.349999 52 5
    endloop
  endfacet
  facet normal 1 -0 0
    outer loop
      vertex 0.349999 0 5.25
      vertex 0.349999 2 5
      vertex 0.349999 54 5.25
    endloop
  endfacet
  facet normal 1 0 0
    outer loop
      vertex 0.349999 2 5
      vertex 0.349999 0 5.25
      vertex 0.349999 0 5
    endloop
  endfacet
  facet normal 0 1 -0
    outer loop
      vertex 10 54 0
      vertex 4.55 54 5
      vertex 10 54 5
    endloop
  endfacet
  facet normal 0 1 0
    outer loop
      vertex 0 54 0
      vertex 4.55 54 5
      vertex 10 54 0
    endloop
  endfacet
  facet normal 0 1 0
    outer loop
      vertex 4.55 54 5
      vertex 0 54 0
      vertex 4.2 54 5
    endloop
  endfacet
  facet normal 0 1 0
    outer loop
      vertex 4.2 54 5
      vertex 0 54 0
      vertex 3.85 54 5
    endloop
  endfacet
  facet normal 0 1 0
    outer loop
      vertex 3.85 54 5
      vertex 0 54 0
      vertex 3.5 54 5
    endloop
  endfacet
  facet normal 0 1 0
    outer loop
      vertex 3.5 54 5
      vertex 0 54 0
      vertex 3.15 54 5
    endloop
  endfacet
  facet normal 0 1 0
    outer loop
      vertex 3.15 54 5
      vertex 0 54 0
      vertex 2.8 54 5
    endloop
  endfacet
  facet normal 0 1 0
    outer loop
      vertex 2.8 54 5
      vertex 0 54 0
      vertex 2.45 54 5
    endloop
  endfacet
  facet normal 0 1 0
    outer loop
      vertex 2.45 54 5
      vertex 0 54 0
      vertex 2.1 54 5
    endloop
  endfacet
  facet normal 0 1 0
    outer loop
      vertex 2.1 54 5
      vertex 0 54 0
      vertex 1.75 54 5
    endloop
  endfacet
  facet normal 0 1 0
    outer loop
      vertex 1.75 54 5
      vertex 0 54 0
      vertex 1.4 54 5
    endloop
  endfacet
  facet normal 0 1 0
    outer loop
      vertex 1.4 54 5
      vertex 0 54 0
      vertex 1.05 54 5
    endloop
  endfacet
  facet normal 0 1 0
    outer loop
      vertex 1.05 54 5
      vertex 0 54 0
      vertex 0.7 54 5
    endloop
  endfacet
  facet normal 0 1 -0
    outer loop
      vertex 4.55 54 5
      vertex 4.2 54 5.25
      vertex 4.55 54 5.25
    endloop
  endfacet
  facet normal 0 1 0
    outer loop
      vertex 4.2 54 5.25
      vertex 4.55 54 5
      vertex 4.2 54 5
    endloop
  endfacet
  facet normal 0 1 -0
    outer loop
      vertex 3.85 54 5
      vertex 3.5 54 5.25
      vertex 3.85 54 5.25
    endloop
  endfacet
  facet normal 0 1 0
    outer loop
      vertex 3.5 54 5.25
      vertex 3.85 54 5
      vertex 3.5 54 5
    endloop
  endfacet
  facet normal 0 1 -0
    outer loop
      vertex 3.15 54 5
      vertex 2.8 54 5.25
      vertex 3.15 54 5.25
    endloop
  endfacet
  facet normal 0 1 0
    outer loop
      vertex 2.8 54 5.25
      vertex 3.15 54 5
      vertex 2.8 54 5
    endloop
  endfacet
  facet normal 0 1 -0
    outer loop
      vertex 2.45 54 5
      vertex 2.1 54 5.25
      vertex 2.45 54 5.25
    endloop
  endfacet
  facet normal 0 1 0
    outer loop
      vertex 2.1 54 5.25
      vertex 2.45 54 5
      vertex 2.1 54 5
    endloop
  endfacet
  facet normal 0 1 -0
    outer loop
      vertex 1.75 54 5
      vertex 1.4 54 5.25
      vertex 1.75 54 5.25
    endloop
  endfacet
  facet normal 0 1 0
    outer loop
      vertex 1.4 54 5.25
      vertex 1.75 54 5
      vertex 1.4 54 5
    endloop
  endfacet
  facet normal 0 1 -0
    outer loop
      vertex 1.05 54 5
      vertex 0.7 54 5.25
      vertex 1.05 54 5.25
    endloop
  endfacet
  facet normal 0 1 0
    outer loop
      vertex 0.7 54 5.25
      vertex 1.05 54 5
      vertex 0.7 54 5
    endloop
  endfacet
  facet normal 0 1 -0
    outer loop
      vertex 0.349999 54 5
      vertex 0 54 5.25
      vertex 0.349999 54 5.25
    endloop
  endfacet
  facet normal 0 1 0
    outer loop
      vertex 0.349999 54 5
      vertex 0 54 0
      vertex 0 54 5.25
    endloop
  endfacet
  facet normal 0 1 0
    outer loop
      vertex 0.7 54 5
      vertex 0 54 0
      vertex 0.349999 54 5
    endloop
  endfacet
  facet normal 0 0 1
    outer loop
      vertex 5 2 5
      vertex 4.55 2 5
      vertex 5 1 5
    endloop
  endfacet
  facet normal 0 0 1
    outer loop
      vertex 5.7 2 5
      vertex 5.35 2 5
      vertex 5.7 1 5
    endloop
  endfacet
  facet normal 0 0 1
    outer loop
      vertex 6.4 2 5
      vertex 6.05 2 5
      vertex 6.4 1 5
    endloop
  endfacet
  facet normal 0 0 1
    outer loop
      vertex 7.1 2 5
      vertex 6.75 2 5
      vertex 7.1 1 5
    endloop
  endfacet
  facet normal 0 0 1
    outer loop
      vertex 7.8 2 5
      vertex 7.45 2 5
      vertex 7.8 1 5
    endloop
  endfacet
  facet normal 0 0 1
    outer loop
      vertex 8.5 2 5
      vertex 8.15 2 5
      vertex 8.5 1 5
    endloop
  endfacet
  facet normal 0 0 1
    outer loop
      vertex 9.2 2 5
      vertex 8.85 2 5
      vertex 9.2 1 5
    endloop
  endfacet
  facet normal 0 0 1
    outer loop
      vertex 9.55 1 5
      vertex 10 2 5
      vertex 9.55 2 5
    endloop
  endfacet
  facet normal 0 0 1
    outer loop
      vertex 10 2 5
      vertex 9.55 1 5
      vertex 10 0 5
    endloop
  endfacet
  facet normal -0 0 1
    outer loop
      vertex 9.2 1 5
      vertex 10 0 5
      vertex 9.55 1 5
    endloop
  endfacet
  facet normal 0 0 1
    outer loop
      vertex 8.85 1 5
      vertex 9.2 1 5
      vertex 8.85 2 5
    endloop
  endfacet
  facet normal -0 0 1
    outer loop
      vertex 8.85 1 5
      vertex 10 0 5
      vertex 9.2 1 5
    endloop
  endfacet
  facet normal -0 0 1
    outer loop
      vertex 8.5 1 5
      vertex 10 0 5
      vertex 8.85 1 5
    endloop
  endfacet
  facet normal 0 0 1
    outer loop
      vertex 8.15 1 5
      vertex 8.5 1 5
      vertex 8.15 2 5
    endloop
  endfacet
  facet normal -0 0 1
    outer loop
      vertex 8.15 1 5
      vertex 10 0 5
      vertex 8.5 1 5
    endloop
  endfacet
  facet normal -0 0 1
    outer loop
      vertex 7.8 1 5
      vertex 10 0 5
      vertex 8.15 1 5
    endloop
  endfacet
  facet normal 0 0 1
    outer loop
      vertex 7.45 1 5
      vertex 7.8 1 5
      vertex 7.45 2 5
    endloop
  endfacet
  facet normal -0 0 1
    outer loop
      vertex 7.45 1 5
      vertex 10 0 5
      vertex 7.8 1 5
    endloop
  endfacet
  facet normal -0 0 1
    outer loop
      vertex 7.1 1 5
      vertex 10 0 5
      vertex 7.45 1 5
    endloop
  endfacet
  facet normal 0 0 1
    outer loop
      vertex 6.75 1 5
      vertex 7.1 1 5
      vertex 6.75 2 5
    endloop
  endfacet
  facet normal 0 0 1
    outer loop
      vertex 4.55 0 5
      vertex 7.1 1 5
      vertex 6.75 1 5
    endloop
  endfacet
  facet normal 0 0 1
    outer loop
      vertex 4.55 0 5
      vertex 6.75 1 5
      vertex 6.4 1 5
    endloop
  endfacet
  facet normal 0 0 1
    outer loop
      vertex 6.05 1 5
      vertex 6.4 1 5
      vertex 6.05 2 5
    endloop
  endfacet
  facet normal 0 0 1
    outer loop
      vertex 4.55 0 5
      vertex 6.4 1 5
      vertex 6.05 1 5
    endloop
  endfacet
  facet normal 0 0 1
    outer loop
      vertex 4.55 0 5
      vertex 6.05 1 5
      vertex 5.7 1 5
    endloop
  endfacet
  facet normal 0 0 1
    outer loop
      vertex 5.35 1 5
      vertex 5.7 1 5
      vertex 5.35 2 5
    endloop
  endfacet
  facet normal 0 0 1
    outer loop
      vertex 4.55 0 5
      vertex 5.7 1 5
      vertex 5.35 1 5
    endloop
  endfacet
  facet normal 0 0 1
    outer loop
      vertex 4.55 0 5
      vertex 5.35 1 5
      vertex 5 1 5
    endloop
  endfacet
  facet normal 0 0 1
    outer loop
      vertex 7.1 1 5
      vertex 4.55 0 5
      vertex 10 0 5
    endloop
  endfacet
  facet normal 0 0 1
    outer loop
      vertex 4.55 0 5
      vertex 5 1 5
      vertex 4.55 2 5
    endloop
  endfacet
  facet normal 0 0 1
    outer loop
      vertex 10 54 5
      vertex 9.55 53 5
      vertex 10 52 5
    endloop
  endfacet
  facet normal 0 0 1
    outer loop
      vertex 10 54 5
      vertex 9.2 53 5
      vertex 9.55 53 5
    endloop
  endfacet
  facet normal 0 0 1
    outer loop
      vertex 9.2 53 5
      vertex 8.85 53 5
      vertex 9.2 52 5
    endloop
  endfacet
  facet normal 0 0 1
    outer loop
      vertex 10 54 5
      vertex 8.85 53 5
      vertex 9.2 53 5
    endloop
  endfacet
  facet normal 0 0 1
    outer loop
      vertex 10 54 5
      vertex 8.5 53 5
      vertex 8.85 53 5
    endloop
  endfacet
  facet normal 0 0 1
    outer loop
      vertex 8.5 53 5
      vertex 8.15 53 5
      vertex 8.5 52 5
    endloop
  endfacet
  facet normal 0 0 1
    outer loop
      vertex 10 54 5
      vertex 8.15 53 5
      vertex 8.5 53 5
    endloop
  endfacet
  facet normal 0 0 1
    outer loop
      vertex 10 54 5
      vertex 7.8 53 5
      vertex 8.15 53 5
    endloop
  endfacet
  facet normal 0 0 1
    outer loop
      vertex 7.8 53 5
      vertex 7.45 53 5
      vertex 7.8 52 5
    endloop
  endfacet
  facet normal 0 0 1
    outer loop
      vertex 10 54 5
      vertex 7.45 53 5
      vertex 7.8 53 5
    endloop
  endfacet
  facet normal 0 0 1
    outer loop
      vertex 10 54 5
      vertex 7.1 53 5
      vertex 7.45 53 5
    endloop
  endfacet
  facet normal 0 0 1
    outer loop
      vertex 7.1 53 5
      vertex 6.75 53 5
      vertex 7.1 52 5
    endloop
  endfacet
  facet normal -0 0 1
    outer loop
      vertex 4.55 54 5
      vertex 7.1 53 5
      vertex 10 54 5
    endloop
  endfacet
  facet normal 0 0 1
    outer loop
      vertex 7.1 53 5
      vertex 4.55 54 5
      vertex 6.75 53 5
    endloop
  endfacet
  facet normal 0 0 1
    outer loop
      vertex 6.4 53 5
      vertex 6.05 53 5
      vertex 6.4 52 5
    endloop
  endfacet
  facet normal 0 0 1
    outer loop
      vertex 6.75 53 5
      vertex 4.55 54 5
      vertex 6.4 53 5
    endloop
  endfacet
  facet normal 0 0 1
    outer loop
      vertex 6.4 53 5
      vertex 4.55 54 5
      vertex 6.05 53 5
    endloop
  endfacet
  facet normal 0 0 1
    outer loop
      vertex 5.7 53 5
      vertex 5.35 53 5
      vertex 5.7 52 5
    endloop
  endfacet
  facet normal 0 0 1
    outer loop
      vertex 6.05 53 5
      vertex 4.55 54 5
      vertex 5.7 53 5
    endloop
  endfacet
  facet normal 0 0 1
    outer loop
      vertex 5.7 53 5
      vertex 4.55 54 5
      vertex 5.35 53 5
    endloop
  endfacet
  facet normal 0 0 1
    outer loop
      vertex 5.35 53 5
      vertex 4.55 54 5
      vertex 5 53 5
    endloop
  endfacet
  facet normal 0 0 1
    outer loop
      vertex 4.55 52 5
      vertex 5 53 5
      vertex 4.55 54 5
    endloop
  endfacet
  facet normal 0 0 1
    outer loop
      vertex 5 53 5
      vertex 4.55 52 5
      vertex 5 52 5
    endloop
  endfacet
  facet normal 0 0 1
    outer loop
      vertex 10 52 5
      vertex 9.55 53 5
      vertex 9.55 52 5
    endloop
  endfacet
  facet normal 0 0 1
    outer loop
      vertex 9.2 52 5
      vertex 8.85 53 5
      vertex 8.85 52 5
    endloop
  endfacet
  facet normal 0 0 1
    outer loop
      vertex 8.5 52 5
      vertex 8.15 53 5
      vertex 8.15 52 5
    endloop
  endfacet
  facet normal 0 0 1
    outer loop
      vertex 7.8 52 5
      vertex 7.45 53 5
      vertex 7.45 52 5
    endloop
  endfacet
  facet normal 0 0 1
    outer loop
      vertex 7.1 52 5
      vertex 6.75 53 5
      vertex 6.75 52 5
    endloop
  endfacet
  facet normal 0 0 1
    outer loop
      vertex 6.4 52 5
      vertex 6.05 53 5
      vertex 6.05 52 5
    endloop
  endfacet
  facet normal 0 0 1
    outer loop
      vertex 5.7 52 5
      vertex 5.35 53 5
      vertex 5.35 52 5
    endloop
  endfacet
  facet normal -0 0 1
    outer loop
      vertex 3.85 2 5
      vertex 4.2 0 5
      vertex 4.2 2 5
    endloop
  endfacet
  facet normal 0 0 1
    outer loop
      vertex 4.2 0 5
      vertex 3.85 2 5
      vertex 3.85 0 5
    endloop
  endfacet
  facet normal -0 0 1
    outer loop
      vertex 3.85 54 5
      vertex 4.2 52 5
      vertex 4.2 54 5
    endloop
  endfacet
  facet normal 0 0 1
    outer loop
      vertex 4.2 52 5
      vertex 3.85 54 5
      vertex 3.85 52 5
    endloop
  endfacet
  facet normal -0 0 1
    outer loop
      vertex 3.15 2 5
      vertex 3.5 0 5
      vertex 3.5 2 5
    endloop
  endfacet
  facet normal 0 0 1
    outer loop
      vertex 3.5 0 5
      vertex 3.15 2 5
      vertex 3.15 0 5
    endloop
  endfacet
  facet normal -0 0 1
    outer loop
      vertex 3.15 54 5
      vertex 3.5 52 5
      vertex 3.5 54 5
    endloop
  endfacet
  facet normal 0 0 1
    outer loop
      vertex 3.5 52 5
      vertex 3.15 54 5
      vertex 3.15 52 5
    endloop
  endfacet
  facet normal -0 0 1
    outer loop
      vertex 2.45 2 5
      vertex 2.8 0 5
      vertex 2.8 2 5
    endloop
  endfacet
  facet normal 0 0 1
    outer loop
      vertex 2.8 0 5
      vertex 2.45 2 5
      vertex 2.45 0 5
    endloop
  endfacet
  facet normal -0 0 1
    outer loop
      vertex 2.45 54 5
      vertex 2.8 52 5
      vertex 2.8 54 5
    endloop
  endfacet
  facet normal 0 0 1
    outer loop
      vertex 2.8 52 5
      vertex 2.45 54 5
      vertex 2.45 52 5
    endloop
  endfacet
  facet normal -0 0 1
    outer loop
      vertex 1.75 2 5
      vertex 2.1 0 5
      vertex 2.1 2 5
    endloop
  endfacet
  facet normal 0 0 1
    outer loop
      vertex 2.1 0 5
      vertex 1.75 2 5
      vertex 1.75 0 5
    endloop
  endfacet
  facet normal -0 0 1
    outer loop
      vertex 1.75 54 5
      vertex 2.1 52 5
      vertex 2.1 54 5
    endloop
  endfacet
  facet normal 0 0 1
    outer loop
      vertex 2.1 52 5
      vertex 1.75 54 5
      vertex 1.75 52 5
    endloop
  endfacet
  facet normal -0 0 1
    outer loop
      vertex 1.05 2 5
      vertex 1.4 0 5
      vertex 1.4 2 5
    endloop
  endfacet
  facet normal 0 0 1
    outer loop
      vertex 1.4 0 5
      vertex 1.05 2 5
      vertex 1.05 0 5
    endloop
  endfacet
  facet normal -0 0 1
    outer loop
      vertex 1.05 54 5
      vertex 1.4 52 5
      vertex 1.4 54 5
    endloop
  endfacet
  facet normal 0 0 1
    outer loop
      vertex 1.4 52 5
      vertex 1.05 54 5
      vertex 1.05 52 5
    endloop
  endfacet
  facet normal -0 0 1
    outer loop
      vertex 0.349999 2 5
      vertex 0.7 0 5
      vertex 0.7 2 5
    endloop
  endfacet
  facet normal 0 0 1
    outer loop
      vertex 0.7 0 5
      vertex 0.349999 2 5
      vertex 0.349999 0 5
    endloop
  endfacet
  facet normal -0 0 1
    outer loop
      vertex 0.349999 54 5
      vertex 0.7 52 5
      vertex 0.7 54 5
    endloop
  endfacet
  facet normal 0 0 1
    outer loop
      vertex 0.7 52 5
      vertex 0.349999 54 5
      vertex 0.349999 52 5
    endloop
  endfacet
  facet normal 0 0 -1
    outer loop
      vertex 0 2 5
      vertex 0.349999 52 5
      vertex 0.349999 2 5
    endloop
  endfacet
  facet normal -0 0 -1
    outer loop
      vertex 0.349999 52 5
      vertex 0 2 5
      vertex 0 52 5
    endloop
  endfacet
  facet normal 0 0 -1
    outer loop
      vertex 0.7 2 5
      vertex 1.05 52 5
      vertex 1.05 2 5
    endloop
  endfacet
  facet normal -0 0 -1
    outer loop
      vertex 1.05 52 5
      vertex 0.7 2 5
      vertex 0.7 52 5
    endloop
  endfacet
  facet normal 0 0 -1
    outer loop
      vertex 1.4 2 5
      vertex 1.75 52 5
      vertex 1.75 2 5
    endloop
  endfacet
  facet normal -0 0 -1
    outer loop
      vertex 1.75 52 5
      vertex 1.4 2 5
      vertex 1.4 52 5
    endloop
  endfacet
  facet normal 0 0 -1
    outer loop
      vertex 2.1 2 5
      vertex 2.45 52 5
      vertex 2.45 2 5
    endloop
  endfacet
  facet normal -0 0 -1
    outer loop
      vertex 2.45 52 5
      vertex 2.1 2 5
      vertex 2.1 52 5
    endloop
  endfacet
  facet normal 0 0 -1
    outer loop
      vertex 2.8 2 5
      vertex 3.15 52 5
      vertex 3.15 2 5
    endloop
  endfacet
  facet normal -0 0 -1
    outer loop
      vertex 3.15 52 5
      vertex 2.8 2 5
      vertex 2.8 52 5
    endloop
  endfacet
  facet normal 0 0 -1
    outer loop
      vertex 3.5 2 5
      vertex 3.85 52 5
      vertex 3.85 2 5
    endloop
  endfacet
  facet normal -0 0 -1
    outer loop
      vertex 3.85 52 5
      vertex 3.5 2 5
      vertex 3.5 52 5
    endloop
  endfacet
  facet normal 0 0 -1
    outer loop
      vertex 4.2 2 5
      vertex 4.55 52 5
      vertex 4.55 2 5
    endloop
  endfacet
  facet normal -0 0 -1
    outer loop
      vertex 4.55 52 5
      vertex 4.2 2 5
      vertex 4.2 52 5
    endloop
  endfacet
  facet normal 0 0 -1
    outer loop
      vertex 5 2 5
      vertex 5.35 52 5
      vertex 5.35 2 5
    endloop
  endfacet
  facet normal -0 0 -1
    outer loop
      vertex 5.35 52 5
      vertex 5 2 5
      vertex 5 52 5
    endloop
  endfacet
  facet normal 0 0 -1
    outer loop
      vertex 5.7 2 5
      vertex 6.05 52 5
      vertex 6.05 2 5
    endloop
  endfacet
  facet normal -0 0 -1
    outer loop
      vertex 6.05 52 5
      vertex 5.7 2 5
      vertex 5.7 52 5
    endloop
  endfacet
  facet normal 0 0 -1
    outer loop
      vertex 6.4 2 5
      vertex 6.75 52 5
      vertex 6.75 2 5
    endloop
  endfacet
  facet normal -0 0 -1
    outer loop
      vertex 6.75 52 5
      vertex 6.4 2 5
      vertex 6.4 52 5
    endloop
  endfacet
  facet normal 0 0 -1
    outer loop
      vertex 7.1 2 5
      vertex 7.45 52 5
      vertex 7.45 2 5
    endloop
  endfacet
  facet normal -0 0 -1
    outer loop
      vertex 7.45 52 5
      vertex 7.1 2 5
      vertex 7.1 52 5
    endloop
  endfacet
  facet normal 0 0 -1
    outer loop
      vertex 7.8 2 5
      vertex 8.15 52 5
      vertex 8.15 2 5
    endloop
  endfacet
  facet normal -0 0 -1
    outer loop
      vertex 8.15 52 5
      vertex 7.8 2 5
      vertex 7.8 52 5
    endloop
  endfacet
  facet normal 0 0 -1
    outer loop
      vertex 8.5 2 5
      vertex 8.85 52 5
      vertex 8.85 2 5
    endloop
  endfacet
  facet normal -0 0 -1
    outer loop
      vertex 8.85 52 5
      vertex 8.5 2 5
      vertex 8.5 52 5
    endloop
  endfacet
  facet normal 0 0 -1
    outer loop
      vertex 9.2 2 5
      vertex 9.55 52 5
      vertex 9.55 2 5
    endloop
  endfacet
  facet normal -0 0 -1
    outer loop
      vertex 9.55 52 5
      vertex 9.2 2 5
      vertex 9.2 52 5
    endloop
  endfacet
  facet normal 0 -1 0
    outer loop
      vertex 0 0 5.25
      vertex 0.349999 0 5
      vertex 0.349999 0 5.25
    endloop
  endfacet
  facet normal 0 -1 0
    outer loop
      vertex 0 0 0
      vertex 0.7 0 5
      vertex 0.349999 0 5
    endloop
  endfacet
  facet normal 0 -1 -0
    outer loop
      vertex 0.7 0 5
      vertex 0 0 0
      vertex 1.05 0 5
    endloop
  endfacet
  facet normal 0 -1 -0
    outer loop
      vertex 1.05 0 5
      vertex 0 0 0
      vertex 1.4 0 5
    endloop
  endfacet
  facet normal 0 -1 -0
    outer loop
      vertex 1.4 0 5
      vertex 0 0 0
      vertex 1.75 0 5
    endloop
  endfacet
  facet normal 0 -1 -0
    outer loop
      vertex 1.75 0 5
      vertex 0 0 0
      vertex 2.1 0 5
    endloop
  endfacet
  facet normal 0 -1 -0
    outer loop
      vertex 2.1 0 5
      vertex 0 0 0
      vertex 2.45 0 5
    endloop
  endfacet
  facet normal 0 -1 -0
    outer loop
      vertex 2.45 0 5
      vertex 0 0 0
      vertex 2.8 0 5
    endloop
  endfacet
  facet normal 0 -1 -0
    outer loop
      vertex 2.8 0 5
      vertex 0 0 0
      vertex 3.15 0 5
    endloop
  endfacet
  facet normal 0 -1 -0
    outer loop
      vertex 3.15 0 5
      vertex 0 0 0
      vertex 3.5 0 5
    endloop
  endfacet
  facet normal 0 -1 -0
    outer loop
      vertex 3.5 0 5
      vertex 0 0 0
      vertex 3.85 0 5
    endloop
  endfacet
  facet normal 0 -1 -0
    outer loop
      vertex 3.85 0 5
      vertex 0 0 0
      vertex 4.2 0 5
    endloop
  endfacet
  facet normal 0 -1 -0
    outer loop
      vertex 4.2 0 5
      vertex 0 0 0
      vertex 4.55 0 5
    endloop
  endfacet
  facet normal 0 -1 0
    outer loop
      vertex 0 0 0
      vertex 0.349999 0 5
      vertex 0 0 5.25
    endloop
  endfacet
  facet normal 0 -1 -0
    outer loop
      vertex 4.55 0 5
      vertex 0 0 0
      vertex 10 0 0
    endloop
  endfacet
  facet normal 0 -1 0
    outer loop
      vertex 4.55 0 5
      vertex 10 0 0
      vertex 10 0 5
    endloop
  endfacet
  facet normal 0 -1 0
    outer loop
      vertex 0.7 0 5
      vertex 1.05 0 5.25
      vertex 0.7 0 5.25
    endloop
  endfacet
  facet normal 0 -1 -0
    outer loop
      vertex 1.05 0 5.25
      vertex 0.7 0 5
      vertex 1.05 0 5
    endloop
  endfacet
  facet normal 0 -1 0
    outer loop
      vertex 1.4 0 5
      vertex 1.75 0 5.25
      vertex 1.4 0 5.25
    endloop
  endfacet
  facet normal 0 -1 -0
    outer loop
      vertex 1.75 0 5.25
      vertex 1.4 0 5
      vertex 1.75 0 5
    endloop
  endfacet
  facet normal 0 -1 0
    outer loop
      vertex 2.1 0 5
      vertex 2.45 0 5.25
      vertex 2.1 0 5.25
    endloop
  endfacet
  facet normal 0 -1 -0
    outer loop
      vertex 2.45 0 5.25
      vertex 2.1 0 5
      vertex 2.45 0 5
    endloop
  endfacet
  facet normal 0 -1 0
    outer loop
      vertex 2.8 0 5
      vertex 3.15 0 5.25
      vertex 2.8 0 5.25
    endloop
  endfacet
  facet normal 0 -1 -0
    outer loop
      vertex 3.15 0 5.25
      vertex 2.8 0 5
      vertex 3.15 0 5
    endloop
  endfacet
  facet normal 0 -1 0
    outer loop
      vertex 3.5 0 5
      vertex 3.85 0 5.25
      vertex 3.5 0 5.25
    endloop
  endfacet
  facet normal 0 -1 -0
    outer loop
      vertex 3.85 0 5.25
      vertex 3.5 0 5
      vertex 3.85 0 5
    endloop
  endfacet
  facet normal 0 -1 0
    outer loop
      vertex 4.2 0 5
      vertex 4.55 0 5.25
      vertex 4.2 0 5.25
    endloop
  endfacet
  facet normal 0 -1 -0
    outer loop
      vertex 4.55 0 5.25
      vertex 4.2 0 5
      vertex 4.55 0 5
    endloop
  endfacet
  facet normal -1 0 0
    outer loop
      vertex 0.7 52 5
      vertex 0.7 54 5.25
      vertex 0.7 54 5
    endloop
  endfacet
  facet normal -1 0 0
    outer loop
      vertex 0.7 2 5
      vertex 0.7 54 5.25
      vertex 0.7 52 5
    endloop
  endfacet
  facet normal -1 0 0
    outer loop
      vertex 0.7 0 5.25
      vertex 0.7 2 5
      vertex 0.7 0 5
    endloop
  endfacet
  facet normal -1 0 0
    outer loop
      vertex 0.7 2 5
      vertex 0.7 0 5.25
      vertex 0.7 54 5.25
    endloop
  endfacet
  facet normal -0 0 1
    outer loop
      vertex 0.7 54 5.25
      vertex 1.05 0 5.25
      vertex 1.05 54 5.25
    endloop
  endfacet
  facet normal 0 0 1
    outer loop
      vertex 1.05 0 5.25
      vertex 0.7 54 5.25
      vertex 0.7 0 5.25
    endloop
  endfacet
  facet normal 1 0 0
    outer loop
      vertex 1.05 54 5.25
      vertex 1.05 52 5
      vertex 1.05 54 5
    endloop
  endfacet
  facet normal 1 0 0
    outer loop
      vertex 1.05 54 5.25
      vertex 1.05 2 5
      vertex 1.05 52 5
    endloop
  endfacet
  facet normal 1 -0 0
    outer loop
      vertex 1.05 0 5.25
      vertex 1.05 2 5
      vertex 1.05 54 5.25
    endloop
  endfacet
  facet normal 1 0 0
    outer loop
      vertex 1.05 2 5
      vertex 1.05 0 5.25
      vertex 1.05 0 5
    endloop
  endfacet
  facet normal -1 0 0
    outer loop
      vertex 1.4 52 5
      vertex 1.4 54 5.25
      vertex 1.4 54 5
    endloop
  endfacet
  facet normal -1 0 0
    outer loop
      vertex 1.4 2 5
      vertex 1.4 54 5.25
      vertex 1.4 52 5
    endloop
  endfacet
  facet normal -1 0 0
    outer loop
      vertex 1.4 0 5.25
      vertex 1.4 2 5
      vertex 1.4 0 5
    endloop
  endfacet
  facet normal -1 0 0
    outer loop
      vertex 1.4 2 5
      vertex 1.4 0 5.25
      vertex 1.4 54 5.25
    endloop
  endfacet
  facet normal -0 0 1
    outer loop
      vertex 1.4 54 5.25
      vertex 1.75 0 5.25
      vertex 1.75 54 5.25
    endloop
  endfacet
  facet normal 0 0 1
    outer loop
      vertex 1.75 0 5.25
      vertex 1.4 54 5.25
      vertex 1.4 0 5.25
    endloop
  endfacet
  facet normal 1 0 0
    outer loop
      vertex 1.75 54 5.25
      vertex 1.75 52 5
      vertex 1.75 54 5
    endloop
  endfacet
  facet normal 1 0 0
    outer loop
      vertex 1.75 54 5.25
      vertex 1.75 2 5
      vertex 1.75 52 5
    endloop
  endfacet
  facet normal 1 -0 0
    outer loop
      vertex 1.75 0 5.25
      vertex 1.75 2 5
      vertex 1.75 54 5.25
    endloop
  endfacet
  facet normal 1 0 0
    outer loop
      vertex 1.75 2 5
      vertex 1.75 0 5.25
      vertex 1.75 0 5
    endloop
  endfacet
  facet normal -1 0 0
    outer loop
      vertex 2.1 52 5
      vertex 2.1 54 5.25
      vertex 2.1 54 5
    endloop
  endfacet
  facet normal -1 0 0
    outer loop
      vertex 2.1 2 5
      vertex 2.1 54 5.25
      vertex 2.1 52 5
    endloop
  endfacet
  facet normal -1 0 0
    outer loop
      vertex 2.1 0 5.25
      vertex 2.1 2 5
      vertex 2.1 0 5
    endloop
  endfacet
  facet normal -1 0 0
    outer loop
      vertex 2.1 2 5
      vertex 2.1 0 5.25
      vertex 2.1 54 5.25
    endloop
  endfacet
  facet normal -0 0 1
    outer loop
      vertex 2.1 54 5.25
      vertex 2.45 0 5.25
      vertex 2.45 54 5.25
    endloop
  endfacet
  facet normal 0 0 1
    outer loop
      vertex 2.45 0 5.25
      vertex 2.1 54 5.25
      vertex 2.1 0 5.25
    endloop
  endfacet
  facet normal 1 0 0
    outer loop
      vertex 2.45 54 5.25
      vertex 2.45 52 5
      vertex 2.45 54 5
    endloop
  endfacet
  facet normal 1 0 0
    outer loop
      vertex 2.45 54 5.25
      vertex 2.45 2 5
      vertex 2.45 52 5
    endloop
  endfacet
  facet normal 1 -0 0
    outer loop
      vertex 2.45 0 5.25
      vertex 2.45 2 5
      vertex 2.45 54 5.25
    endloop
  endfacet
  facet normal 1 0 0
    outer loop
      vertex 2.45 2 5
      vertex 2.45 0 5.25
      vertex 2.45 0 5
    endloop
  endfacet
  facet normal -1 0 0
    outer loop
      vertex 2.8 52 5
      vertex 2.8 54 5.25
      vertex 2.8 54 5
    endloop
  endfacet
  facet normal -1 0 0
    outer loop
      vertex 2.8 2 5
      vertex 2.8 54 5.25
      vertex 2.8 52 5
    endloop
  endfacet
  facet normal -1 0 0
    outer loop
      vertex 2.8 0 5.25
      vertex 2.8 2 5
      vertex 2.8 0 5
    endloop
  endfacet
  facet normal -1 0 0
    outer loop
      vertex 2.8 2 5
      vertex 2.8 0 5.25
      vertex 2.8 54 5.25
    endloop
  endfacet
  facet normal -0 0 1
    outer loop
      vertex 2.8 54 5.25
      vertex 3.15 0 5.25
      vertex 3.15 54 5.25
    endloop
  endfacet
  facet normal 0 0 1
    outer loop
      vertex 3.15 0 5.25
      vertex 2.8 54 5.25
      vertex 2.8 0 5.25
    endloop
  endfacet
  facet normal 1 0 0
    outer loop
      vertex 3.15 54 5.25
      vertex 3.15 52 5
      vertex 3.15 54 5
    endloop
  endfacet
  facet normal 1 0 0
    outer loop
      vertex 3.15 54 5.25
      vertex 3.15 2 5
      vertex 3.15 52 5
    endloop
  endfacet
  facet normal 1 -0 0
    outer loop
      vertex 3.15 0 5.25
      vertex 3.15 2 5
      vertex 3.15 54 5.25
    endloop
  endfacet
  facet normal 1 0 0
    outer loop
      vertex 3.15 2 5
      vertex 3.15 0 5.25
      vertex 3.15 0 5
    endloop
  endfacet
  facet normal -1 0 0
    outer loop
      vertex 3.5 52 5
      vertex 3.5 54 5.25
      vertex 3.5 54 5
    endloop
  endfacet
  facet normal -1 0 0
    outer loop
      vertex 3.5 2 5
      vertex 3.5 54 5.25
      vertex 3.5 52 5
    endloop
  endfacet
  facet normal -1 0 0
    outer loop
      vertex 3.5 0 5.25
      vertex 3.5 2 5
      vertex 3.5 0 5
    endloop
  endfacet
  facet normal -1 0 0
    outer loop
      vertex 3.5 2 5
      vertex 3.5 0 5.25
      vertex 3.5 54 5.25
    endloop
  endfacet
  facet normal -0 0 1
    outer loop
      vertex 3.5 54 5.25
      vertex 3.85 0 5.25
      vertex 3.85 54 5.25
    endloop
  endfacet
  facet normal 0 0 1
    outer loop
      vertex 3.85 0 5.25
      vertex 3.5 54 5.25
      vertex 3.5 0 5.25
    endloop
  endfacet
  facet normal 1 0 0
    outer loop
      vertex 3.85 54 5.25
      vertex 3.85 52 5
      vertex 3.85 54 5
    endloop
  endfacet
  facet normal 1 0 0
    outer loop
      vertex 3.85 54 5.25
      vertex 3.85 2 5
      vertex 3.85 52 5
    endloop
  endfacet
  facet normal 1 -0 0
    outer loop
      vertex 3.85 0 5.25
      vertex 3.85 2 5
      vertex 3.85 54 5.25
    endloop
  endfacet
  facet normal 1 0 0
    outer loop
      vertex 3.85 2 5
      vertex 3.85 0 5.25
      vertex 3.85 0 5
    endloop
  endfacet
  facet normal -1 0 0
    outer loop
      vertex 4.2 52 5
      vertex 4.2 54 5.25
      vertex 4.2 54 5
    endloop
  endfacet
  facet normal -1 0 0
    outer loop
      vertex 4.2 2 5
      vertex 4.2 54 5.25
      vertex 4.2 52 5
    endloop
  endfacet
  facet normal -1 0 0
    outer loop
      vertex 4.2 0 5.25
      vertex 4.2 2 5
      vertex 4.2 0 5
    endloop
  endfacet
  facet normal -1 0 0
    outer loop
      vertex 4.2 2 5
      vertex 4.2 0 5.25
      vertex 4.2 54 5.25
    endloop
  endfacet
  facet normal -0 0 1
    outer loop
      vertex 4.2 54 5.25
      vertex 4.55 0 5.25
      vertex 4.55 54 5.25
    endloop
  endfacet
  facet normal 0 0 1
    outer loop
      vertex 4.55 0 5.25
      vertex 4.2 54 5.25
      vertex 4.2 0 5.25
    endloop
  endfacet
  facet normal 1 0 0
    outer loop
      vertex 4.55 54 5.25
      vertex 4.55 52 5
      vertex 4.55 54 5
    endloop
  endfacet
  facet normal 1 0 0
    outer loop
      vertex 4.55 54 5.25
      vertex 4.55 2 5
      vertex 4.55 52 5
    endloop
  endfacet
  facet normal 1 -0 0
    outer loop
      vertex 4.55 0 5.25
      vertex 4.55 2 5
      vertex 4.55 54 5.25
    endloop
  endfacet
  facet normal 1 0 0
    outer loop
      vertex 4.55 2 5
      vertex 4.55 0 5.25
      vertex 4.55 0 5
    endloop
  endfacet
  facet normal -1 0 0
    outer loop
      vertex 5 52 5
      vertex 5 53 5.25
      vertex 5 53 5
    endloop
  endfacet
  facet normal -1 0 0
    outer loop
      vertex 5 2 5
      vertex 5 53 5.25
      vertex 5 52 5
    endloop
  endfacet
  facet normal -1 0 0
    outer loop
      vertex 5 1 5.25
      vertex 5 2 5
      vertex 5 1 5
    endloop
  endfacet
  facet normal -1 0 0
    outer loop
      vertex 5 2 5
      vertex 5 1 5.25
      vertex 5 53 5.25
    endloop
  endfacet
  facet normal -0 0 1
    outer loop
      vertex 5 53 5.25
      vertex 5.35 1 5.25
      vertex 5.35 53 5.25
    endloop
  endfacet
  facet normal 0 0 1
    outer loop
      vertex 5.35 1 5.25
      vertex 5 53 5.25
      vertex 5 1 5.25
    endloop
  endfacet
  facet normal 1 0 0
    outer loop
      vertex 5.35 53 5.25
      vertex 5.35 52 5
      vertex 5.35 53 5
    endloop
  endfacet
  facet normal 1 0 0
    outer loop
      vertex 5.35 53 5.25
      vertex 5.35 2 5
      vertex 5.35 52 5
    endloop
  endfacet
  facet normal 1 -0 0
    outer loop
      vertex 5.35 1 5.25
      vertex 5.35 2 5
      vertex 5.35 53 5.25
    endloop
  endfacet
  facet normal 1 0 0
    outer loop
      vertex 5.35 2 5
      vertex 5.35 1 5.25
      vertex 5.35 1 5
    endloop
  endfacet
  facet normal 0 1 -0
    outer loop
      vertex 5.35 53 5
      vertex 5 53 5.25
      vertex 5.35 53 5.25
    endloop
  endfacet
  facet normal 0 1 0
    outer loop
      vertex 5 53 5.25
      vertex 5.35 53 5
      vertex 5 53 5
    endloop
  endfacet
  facet normal 0 -1 0
    outer loop
      vertex 5 1 5
      vertex 5.35 1 5.25
      vertex 5 1 5.25
    endloop
  endfacet
  facet normal 0 -1 -0
    outer loop
      vertex 5.35 1 5.25
      vertex 5 1 5
      vertex 5.35 1 5
    endloop
  endfacet
  facet normal -1 0 0
    outer loop
      vertex 5.7 52 5
      vertex 5.7 53 5.25
      vertex 5.7 53 5
    endloop
  endfacet
  facet normal -1 0 0
    outer loop
      vertex 5.7 2 5
      vertex 5.7 53 5.25
      vertex 5.7 52 5
    endloop
  endfacet
  facet normal -1 0 0
    outer loop
      vertex 5.7 1 5.25
      vertex 5.7 2 5
      vertex 5.7 1 5
    endloop
  endfacet
  facet normal -1 0 0
    outer loop
      vertex 5.7 2 5
      vertex 5.7 1 5.25
      vertex 5.7 53 5.25
    endloop
  endfacet
  facet normal -0 0 1
    outer loop
      vertex 5.7 53 5.25
      vertex 6.05 1 5.25
      vertex 6.05 53 5.25
    endloop
  endfacet
  facet normal 0 0 1
    outer loop
      vertex 6.05 1 5.25
      vertex 5.7 53 5.25
      vertex 5.7 1 5.25
    endloop
  endfacet
  facet normal 1 0 0
    outer loop
      vertex 6.05 53 5.25
      vertex 6.05 52 5
      vertex 6.05 53 5
    endloop
  endfacet
  facet normal 1 0 0
    outer loop
      vertex 6.05 53 5.25
      vertex 6.05 2 5
      vertex 6.05 52 5
    endloop
  endfacet
  facet normal 1 -0 0
    outer loop
      vertex 6.05 1 5.25
      vertex 6.05 2 5
      vertex 6.05 53 5.25
    endloop
  endfacet
  facet normal 1 0 0
    outer loop
      vertex 6.05 2 5
      vertex 6.05 1 5.25
      vertex 6.05 1 5
    endloop
  endfacet
  facet normal 0 1 -0
    outer loop
      vertex 6.05 53 5
      vertex 5.7 53 5.25
      vertex 6.05 53 5.25
    endloop
  endfacet
  facet normal 0 1 0
    outer loop
      vertex 5.7 53 5.25
      vertex 6.05 53 5
      vertex 5.7 53 5
    endloop
  endfacet
  facet normal 0 -1 0
    outer loop
      vertex 5.7 1 5
      vertex 6.05 1 5.25
      vertex 5.7 1 5.25
    endloop
  endfacet
  facet normal 0 -1 -0
    outer loop
      vertex 6.05 1 5.25
      vertex 5.7 1 5
      vertex 6.05 1 5
    endloop
  endfacet
  facet normal -1 0 0
    outer loop
      vertex 6.4 52 5
      vertex 6.4 53 5.25
      vertex 6.4 53 5
    endloop
  endfacet
  facet normal -1 0 0
    outer loop
      vertex 6.4 2 5
      vertex 6.4 53 5.25
      vertex 6.4 52 5
    endloop
  endfacet
  facet normal -1 0 0
    outer loop
      vertex 6.4 1 5.25
      vertex 6.4 2 5
      vertex 6.4 1 5
    endloop
  endfacet
  facet normal -1 0 0
    outer loop
      vertex 6.4 2 5
      vertex 6.4 1 5.25
      vertex 6.4 53 5.25
    endloop
  endfacet
  facet normal -0 0 1
    outer loop
      vertex 6.4 53 5.25
      vertex 6.75 1 5.25
      vertex 6.75 53 5.25
    endloop
  endfacet
  facet normal 0 0 1
    outer loop
      vertex 6.75 1 5.25
      vertex 6.4 53 5.25
      vertex 6.4 1 5.25
    endloop
  endfacet
  facet normal 1 0 0
    outer loop
      vertex 6.75 53 5.25
      vertex 6.75 52 5
      vertex 6.75 53 5
    endloop
  endfacet
  facet normal 1 0 0
    outer loop
      vertex 6.75 53 5.25
      vertex 6.75 2 5
      vertex 6.75 52 5
    endloop
  endfacet
  facet normal 1 -0 0
    outer loop
      vertex 6.75 1 5.25
      vertex 6.75 2 5
      vertex 6.75 53 5.25
    endloop
  endfacet
  facet normal 1 0 0
    outer loop
      vertex 6.75 2 5
      vertex 6.75 1 5.25
      vertex 6.75 1 5
    endloop
  endfacet
  facet normal 0 -1 0
    outer loop
      vertex 6.4 1 5
      vertex 6.75 1 5.25
      vertex 6.4 1 5.25
    endloop
  endfacet
  facet normal 0 -1 -0
    outer loop
      vertex 6.75 1 5.25
      vertex 6.4 1 5
      vertex 6.75 1 5
    endloop
  endfacet
  facet normal 0 1 -0
    outer loop
      vertex 6.75 53 5
      vertex 6.4 53 5.25
      vertex 6.75 53 5.25
    endloop
  endfacet
  facet normal 0 1 0
    outer loop
      vertex 6.4 53 5.25
      vertex 6.75 53 5
      vertex 6.4 53 5
    endloop
  endfacet
  facet normal -1 0 0
    outer loop
      vertex 7.1 52 5
      vertex 7.1 53 5.25
      vertex 7.1 53 5
    endloop
  endfacet
  facet normal -1 0 0
    outer loop
      vertex 7.1 2 5
      vertex 7.1 53 5.25
      vertex 7.1 52 5
    endloop
  endfacet
  facet normal -1 0 0
    outer loop
      vertex 7.1 1 5.25
      vertex 7.1 2 5
      vertex 7.1 1 5
    endloop
  endfacet
  facet normal -1 0 0
    outer loop
      vertex 7.1 2 5
      vertex 7.1 1 5.25
      vertex 7.1 53 5.25
    endloop
  endfacet
  facet normal -0 0 1
    outer loop
      vertex 7.1 53 5.25
      vertex 7.45 1 5.25
      vertex 7.45 53 5.25
    endloop
  endfacet
  facet normal 0 0 1
    outer loop
      vertex 7.45 1 5.25
      vertex 7.1 53 5.25
      vertex 7.1 1 5.25
    endloop
  endfacet
  facet normal 1 0 0
    outer loop
      vertex 7.45 53 5.25
      vertex 7.45 52 5
      vertex 7.45 53 5
    endloop
  endfacet
  facet normal 1 0 0
    outer loop
      vertex 7.45 53 5.25
      vertex 7.45 2 5
      vertex 7.45 52 5
    endloop
  endfacet
  facet normal 1 -0 0
    outer loop
      vertex 7.45 1 5.25
      vertex 7.45 2 5
      vertex 7.45 53 5.25
    endloop
  endfacet
  facet normal 1 0 0
    outer loop
      vertex 7.45 2 5
      vertex 7.45 1 5.25
      vertex 7.45 1 5
    endloop
  endfacet
  facet normal 0 1 -0
    outer loop
      vertex 7.45 53 5
      vertex 7.1 53 5.25
      vertex 7.45 53 5.25
    endloop
  endfacet
  facet normal 0 1 0
    outer loop
      vertex 7.1 53 5.25
      vertex 7.45 53 5
      vertex 7.1 53 5
    endloop
  endfacet
  facet normal 0 -1 0
    outer loop
      vertex 7.1 1 5
      vertex 7.45 1 5.25
      vertex 7.1 1 5.25
    endloop
  endfacet
  facet normal 0 -1 -0
    outer loop
      vertex 7.45 1 5.25
      vertex 7.1 1 5
      vertex 7.45 1 5
    endloop
  endfacet
  facet normal -1 0 0
    outer loop
      vertex 7.8 52 5
      vertex 7.8 53 5.25
      vertex 7.8 53 5
    endloop
  endfacet
  facet normal -1 0 0
    outer loop
      vertex 7.8 2 5
      vertex 7.8 53 5.25
      vertex 7.8 52 5
    endloop
  endfacet
  facet normal -1 0 0
    outer loop
      vertex 7.8 1 5.25
      vertex 7.8 2 5
      vertex 7.8 1 5
    endloop
  endfacet
  facet normal -1 0 0
    outer loop
      vertex 7.8 2 5
      vertex 7.8 1 5.25
      vertex 7.8 53 5.25
    endloop
  endfacet
  facet normal -0 0 1
    outer loop
      vertex 7.8 53 5.25
      vertex 8.15 1 5.25
      vertex 8.15 53 5.25
    endloop
  endfacet
  facet normal 0 0 1
    outer loop
      vertex 8.15 1 5.25
      vertex 7.8 53 5.25
      vertex 7.8 1 5.25
    endloop
  endfacet
  facet normal 1 0 0
    outer loop
      vertex 8.15 53 5.25
      vertex 8.15 52 5
      vertex 8.15 53 5
    endloop
  endfacet
  facet normal 1 0 0
    outer loop
      vertex 8.15 53 5.25
      vertex 8.15 2 5
      vertex 8.15 52 5
    endloop
  endfacet
  facet normal 1 -0 0
    outer loop
      vertex 8.15 1 5.25
      vertex 8.15 2 5
      vertex 8.15 53 5.25
    endloop
  endfacet
  facet normal 1 0 0
    outer loop
      vertex 8.15 2 5
      vertex 8.15 1 5.25
      vertex 8.15 1 5
    endloop
  endfacet
  facet normal 0 -1 0
    outer loop
      vertex 7.8 1 5
      vertex 8.15 1 5.25
      vertex 7.8 1 5.25
    endloop
  endfacet
  facet normal 0 -1 -0
    outer loop
      vertex 8.15 1 5.25
      vertex 7.8 1 5
      vertex 8.15 1 5
    endloop
  endfacet
  facet normal 0 1 -0
    outer loop
      vertex 8.15 53 5
      vertex 7.8 53 5.25
      vertex 8.15 53 5.25
    endloop
  endfacet
  facet normal 0 1 0
    outer loop
      vertex 7.8 53 5.25
      vertex 8.15 53 5
      vertex 7.8 53 5
    endloop
  endfacet
  facet normal -1 0 0
    outer loop
      vertex 8.5 52 5
      vertex 8.5 53 5.25
      vertex 8.5 53 5
    endloop
  endfacet
  facet normal -1 0 0
    outer loop
      vertex 8.5 2 5
      vertex 8.5 53 5.25
      vertex 8.5 52 5
    endloop
  endfacet
  facet normal -1 0 0
    outer loop
      vertex 8.5 1 5.25
      vertex 8.5 2 5
      vertex 8.5 1 5
    endloop
  endfacet
  facet normal -1 0 0
    outer loop
      vertex 8.5 2 5
      vertex 8.5 1 5.25
      vertex 8.5 53 5.25
    endloop
  endfacet
  facet normal -0 0 1
    outer loop
      vertex 8.5 53 5.25
      vertex 8.85 1 5.25
      vertex 8.85 53 5.25
    endloop
  endfacet
  facet normal 0 0 1
    outer loop
      vertex 8.85 1 5.25
      vertex 8.5 53 5.25
      vertex 8.5 1 5.25
    endloop
  endfacet
  facet normal 1 0 0
    outer loop
      vertex 8.85 53 5.25
      vertex 8.85 52 5
      vertex 8.85 53 5
    endloop
  endfacet
  facet normal 1 0 0
    outer loop
      vertex 8.85 53 5.25
      vertex 8.85 2 5
      vertex 8.85 52 5
    endloop
  endfacet
  facet normal 1 -0 0
    outer loop
      vertex 8.85 1 5.25
      vertex 8.85 2 5
      vertex 8.85 53 5.25
    endloop
  endfacet
  facet normal 1 0 0
    outer loop
      vertex 8.85 2 5
      vertex 8.85 1 5.25
      vertex 8.85 1 5
    endloop
  endfacet
  facet normal 0 1 -0
    outer loop
      vertex 8.85 53 5
      vertex 8.5 53 5.25
      vertex 8.85 53 5.25
    endloop
  endfacet
  facet normal 0 1 0
    outer loop
      vertex 8.5 53 5.25
      vertex 8.85 53 5
      vertex 8.5 53 5
    endloop
  endfacet
  facet normal 0 -1 0
    outer loop
      vertex 8.5 1 5
      vertex 8.85 1 5.25
      vertex 8.5 1 5.25
    endloop
  endfacet
  facet normal 0 -1 -0
    outer loop
      vertex 8.85 1 5.25
      vertex 8.5 1 5
      vertex 8.85 1 5
    endloop
  endfacet
  facet normal -1 0 0
    outer loop
      vertex 9.2 52 5
      vertex 9.2 53 5.25
      vertex 9.2 53 5
    endloop
  endfacet
  facet normal -1 0 0
    outer loop
      vertex 9.2 2 5
      vertex 9.2 53 5.25
      vertex 9.2 52 5
    endloop
  endfacet
  facet normal -1 0 0
    outer loop
      vertex 9.2 1 5.25
      vertex 9.2 2 5
      vertex 9.2 1 5
    endloop
  endfacet
  facet normal -1 0 0
    outer loop
      vertex 9.2 2 5
      vertex 9.2 1 5.25
      vertex 9.2 53 5.25
    endloop
  endfacet
  facet normal -0 0 1
    outer loop
      vertex 9.2 53 5.25
      vertex 9.55 1 5.25
      vertex 9.55 53 5.25
    endloop
  endfacet
  facet normal 0 0 1
    outer loop
      vertex 9.55 1 5.25
      vertex 9.2 53 5.25
      vertex 9.2 1 5.25
    endloop
  endfacet
  facet normal 1 0 0
    outer loop
      vertex 9.55 53 5.25
      vertex 9.55 52 5
      vertex 9.55 53 5
    endloop
  endfacet
  facet normal 1 0 0
    outer loop
      vertex 9.55 53 5.25
      vertex 9.55 2 5
      vertex 9.55 52 5
    endloop
  endfacet
  facet normal 1 -0 0
    outer loop
      vertex 9.55 1 5.25
      vertex 9.55 2 5
      vertex 9.55 53 5.25
    endloop
  endfacet
  facet normal 1 0 0
    outer loop
      vertex 9.55 2 5
      vertex 9.55 1 5.25
      vertex 9.55 1 5
    endloop
  endfacet
  facet normal 0 1 -0
    outer loop
      vertex 9.55 53 5
      vertex 9.2 53 5.25
      vertex 9.55 53 5.25
    endloop
  endfacet
  facet normal 0 1 0
    outer loop
      vertex 9.2 53 5.25
      vertex 9.55 53 5
      vertex 9.2 53 5
    endloop
  endfacet
  facet normal 0 -1 0
    outer loop
      vertex 9.2 1 5
      vertex 9.55 1 5.25
      vertex 9.2 1 5.25
    endloop
  endfacet
  facet normal 0 -1 -0
    outer loop
      vertex 9.55 1 5.25
      vertex 9.2 1 5
      vertex 9.55 1 5
    endloop
  endfacet
  facet normal 1 -0 0
    outer loop
      vertex 10 0 5
      vertex 10 2 0
      vertex 10 2 5
    endloop
  endfacet
  facet normal 1 0 0
    outer loop
      vertex 10 2 0
      vertex 10 0 5
      vertex 10 0 0
    endloop
  endfacet
  facet normal 0 0 -1
    outer loop
      vertex 0 0 0
      vertex 10 2 0
      vertex 10 0 0
    endloop
  endfacet
  facet normal -0 0 -1
    outer loop
      vertex 10 2 0
      vertex 0 0 0
      vertex 0 2 0
    endloop
  endfacet
  facet normal 0 1 -0
    outer loop
      vertex 10 2 0
      vertex 9.55 2 5
      vertex 10 2 5
    endloop
  endfacet
  facet normal 0 1 0
    outer loop
      vertex 9.55 2 5
      vertex 10 2 0
      vertex 9.2 2 5
    endloop
  endfacet
  facet normal 0 1 0
    outer loop
      vertex 9.2 2 5
      vertex 10 2 0
      vertex 8.85 2 5
    endloop
  endfacet
  facet normal 0 1 0
    outer loop
      vertex 8.85 2 5
      vertex 10 2 0
      vertex 8.5 2 5
    endloop
  endfacet
  facet normal 0 1 0
    outer loop
      vertex 8.5 2 5
      vertex 10 2 0
      vertex 8.15 2 5
    endloop
  endfacet
  facet normal 0 1 0
    outer loop
      vertex 8.15 2 5
      vertex 10 2 0
      vertex 7.8 2 5
    endloop
  endfacet
  facet normal 0 1 0
    outer loop
      vertex 7.8 2 5
      vertex 10 2 0
      vertex 7.45 2 5
    endloop
  endfacet
  facet normal 0 1 0
    outer loop
      vertex 7.45 2 5
      vertex 10 2 0
      vertex 7.1 2 5
    endloop
  endfacet
  facet normal 0 1 0
    outer loop
      vertex 7.1 2 5
      vertex 10 2 0
      vertex 6.75 2 5
    endloop
  endfacet
  facet normal 0 1 0
    outer loop
      vertex 6.75 2 5
      vertex 10 2 0
      vertex 6.4 2 5
    endloop
  endfacet
  facet normal 0 1 0
    outer loop
      vertex 6.4 2 5
      vertex 10 2 0
      vertex 6.05 2 5
    endloop
  endfacet
  facet normal 0 1 0
    outer loop
      vertex 6.05 2 5
      vertex 10 2 0
      vertex 5.7 2 5
    endloop
  endfacet
  facet normal 0 1 0
    outer loop
      vertex 5.7 2 5
      vertex 10 2 0
      vertex 5.35 2 5
    endloop
  endfacet
  facet normal 0 1 0
    outer loop
      vertex 5.35 2 5
      vertex 10 2 0
      vertex 5 2 5
    endloop
  endfacet
  facet normal 0 1 0
    outer loop
      vertex 0 2 0
      vertex 5 2 5
      vertex 10 2 0
    endloop
  endfacet
  facet normal 0 1 0
    outer loop
      vertex 5 2 5
      vertex 0 2 0
      vertex 4.55 2 5
    endloop
  endfacet
  facet normal 0 1 0
    outer loop
      vertex 4.55 2 5
      vertex 0 2 0
      vertex 4.2 2 5
    endloop
  endfacet
  facet normal 0 1 0
    outer loop
      vertex 4.2 2 5
      vertex 0 2 0
      vertex 3.85 2 5
    endloop
  endfacet
  facet normal 0 1 0
    outer loop
      vertex 3.85 2 5
      vertex 0 2 0
      vertex 3.5 2 5
    endloop
  endfacet
  facet normal 0 1 0
    outer loop
      vertex 3.5 2 5
      vertex 0 2 0
      vertex 3.15 2 5
    endloop
  endfacet
  facet normal 0 1 0
    outer loop
      vertex 3.15 2 5
      vertex 0 2 0
      vertex 2.8 2 5
    endloop
  endfacet
  facet normal 0 1 0
    outer loop
      vertex 2.8 2 5
      vertex 0 2 0
      vertex 2.45 2 5
    endloop
  endfacet
  facet normal 0 1 0
    outer loop
      vertex 2.45 2 5
      vertex 0 2 0
      vertex 2.1 2 5
    endloop
  endfacet
  facet normal 0 1 0
    outer loop
      vertex 2.1 2 5
      vertex 0 2 0
      vertex 1.75 2 5
    endloop
  endfacet
  facet normal 0 1 0
    outer loop
      vertex 1.75 2 5
      vertex 0 2 0
      vertex 1.4 2 5
    endloop
  endfacet
  facet normal 0 1 0
    outer loop
      vertex 1.4 2 5
      vertex 0 2 0
      vertex 1.05 2 5
    endloop
  endfacet
  facet normal 0 1 0
    outer loop
      vertex 1.05 2 5
      vertex 0 2 0
      vertex 0.7 2 5
    endloop
  endfacet
  facet normal 0 1 0
    outer loop
      vertex 0.7 2 5
      vertex 0 2 0
      vertex 0.349999 2 5
    endloop
  endfacet
  facet normal 0 1 0
    outer loop
      vertex 0.349999 2 5
      vertex 0 2 0
      vertex 0 2 5
    endloop
  endfacet
  facet normal 1 -0 0
    outer loop
      vertex 10 52 5
      vertex 10 54 0
      vertex 10 54 5
    endloop
  endfacet
  facet normal 1 0 0
    outer loop
      vertex 10 54 0
      vertex 10 52 5
      vertex 10 52 0
    endloop
  endfacet
  facet normal 0 0 -1
    outer loop
      vertex 0 52 0
      vertex 10 54 0
      vertex 10 52 0
    endloop
  endfacet
  facet normal -0 0 -1
    outer loop
      vertex 10 54 0
      vertex 0 52 0
      vertex 0 54 0
    endloop
  endfacet
  facet normal 0 -1 0
    outer loop
      vertex 0 52 0
      vertex 0.349999 52 5
      vertex 0 52 5
    endloop
  endfacet
  facet normal 0 -1 -0
    outer loop
      vertex 0.349999 52 5
      vertex 0 52 0
      vertex 0.7 52 5
    endloop
  endfacet
  facet normal 0 -1 -0
    outer loop
      vertex 0.7 52 5
      vertex 0 52 0
      vertex 1.05 52 5
    endloop
  endfacet
  facet normal 0 -1 -0
    outer loop
      vertex 1.05 52 5
      vertex 0 52 0
      vertex 1.4 52 5
    endloop
  endfacet
  facet normal 0 -1 -0
    outer loop
      vertex 1.4 52 5
      vertex 0 52 0
      vertex 1.75 52 5
    endloop
  endfacet
  facet normal 0 -1 -0
    outer loop
      vertex 1.75 52 5
      vertex 0 52 0
      vertex 2.1 52 5
    endloop
  endfacet
  facet normal 0 -1 -0
    outer loop
      vertex 2.1 52 5
      vertex 0 52 0
      vertex 2.45 52 5
    endloop
  endfacet
  facet normal 0 -1 -0
    outer loop
      vertex 2.45 52 5
      vertex 0 52 0
      vertex 2.8 52 5
    endloop
  endfacet
  facet normal 0 -1 -0
    outer loop
      vertex 2.8 52 5
      vertex 0 52 0
      vertex 3.15 52 5
    endloop
  endfacet
  facet normal 0 -1 -0
    outer loop
      vertex 3.15 52 5
      vertex 0 52 0
      vertex 3.5 52 5
    endloop
  endfacet
  facet normal 0 -1 -0
    outer loop
      vertex 3.5 52 5
      vertex 0 52 0
      vertex 3.85 52 5
    endloop
  endfacet
  facet normal 0 -1 -0
    outer loop
      vertex 3.85 52 5
      vertex 0 52 0
      vertex 4.2 52 5
    endloop
  endfacet
  facet normal 0 -1 -0
    outer loop
      vertex 4.2 52 5
      vertex 0 52 0
      vertex 4.55 52 5
    endloop
  endfacet
  facet normal 0 -1 -0
    outer loop
      vertex 4.55 52 5
      vertex 0 52 0
      vertex 5 52 5
    endloop
  endfacet
  facet normal 0 -1 0
    outer loop
      vertex 10 52 0
      vertex 5 52 5
      vertex 0 52 0
    endloop
  endfacet
  facet normal 0 -1 0
    outer loop
      vertex 5 52 5
      vertex 10 52 0
      vertex 5.35 52 5
    endloop
  endfacet
  facet normal 0 -1 0
    outer loop
      vertex 5.35 52 5
      vertex 10 52 0
      vertex 5.7 52 5
    endloop
  endfacet
  facet normal 0 -1 0
    outer loop
      vertex 5.7 52 5
      vertex 10 52 0
      vertex 6.05 52 5
    endloop
  endfacet
  facet normal 0 -1 0
    outer loop
      vertex 6.05 52 5
      vertex 10 52 0
      vertex 6.4 52 5
    endloop
  endfacet
  facet normal 0 -1 0
    outer loop
      vertex 6.4 52 5
      vertex 10 52 0
      vertex 6.75 52 5
    endloop
  endfacet
  facet normal 0 -1 0
    outer loop
      vertex 6.75 52 5
      vertex 10 52 0
      vertex 7.1 52 5
    endloop
  endfacet
  facet normal 0 -1 0
    outer loop
      vertex 7.1 52 5
      vertex 10 52 0
      vertex 7.45 52 5
    endloop
  endfacet
  facet normal 0 -1 0
    outer loop
      vertex 7.45 52 5
      vertex 10 52 0
      vertex 7.8 52 5
    endloop
  endfacet
  facet normal 0 -1 0
    outer loop
      vertex 7.8 52 5
      vertex 10 52 0
      vertex 8.15 52 5
    endloop
  endfacet
  facet normal 0 -1 0
    outer loop
      vertex 8.15 52 5
      vertex 10 52 0
      vertex 8.5 52 5
    endloop
  endfacet
  facet normal 0 -1 0
    outer loop
      vertex 8.5 52 5
      vertex 10 52 0
      vertex 8.85 52 5
    endloop
  endfacet
  facet normal 0 -1 0
    outer loop
      vertex 8.85 52 5
      vertex 10 52 0
      vertex 9.2 52 5
    endloop
  endfacet
  facet normal 0 -1 0
    outer loop
      vertex 9.2 52 5
      vertex 10 52 0
      vertex 9.55 52 5
    endloop
  endfacet
  facet normal 0 -1 0
    outer loop
      vertex 9.55 52 5
      vertex 10 52 0
      vertex 10 52 5
    endloop
  endfacet
endsolid OpenSCAD_Model
